solid minitelegraph_v06
facet normal 0.0 0.0 -1.0
  outer loop
    vertex 46.29417979512747 68.00749925773688 25.786436541448026
    vertex 29.294179795127473 66.00749925773688 25.786436541448026
    vertex 29.294179795127473 68.00749925773688 25.786436541448026
  endloop
endfacet
facet normal 0.0 0.0 -1.0
  outer loop
    vertex 29.294179795127473 66.00749925773688 25.786436541448026
    vertex 46.29417979512747 68.00749925773688 25.786436541448026
    vertex 46.29417979512747 66.00749925773688 25.786436541448026
  endloop
endfacet
facet normal -0.0 -1.0 -0.0
  outer loop
    vertex 46.29417979512747 66.00749925773688 27.78643654144803
    vertex 29.294179795127473 66.00749925773688 25.786436541448026
    vertex 46.29417979512747 66.00749925773688 25.786436541448026
  endloop
endfacet
facet normal -0.0 -1.0 -0.0
  outer loop
    vertex 29.294179795127473 66.00749925773688 25.786436541448026
    vertex 46.29417979512747 66.00749925773688 27.78643654144803
    vertex 29.294179795127473 66.00749925773688 27.78643654144803
  endloop
endfacet
facet normal 1.0 0.0 0.0
  outer loop
    vertex 46.29417979512747 68.00749925773688 25.786436541448026
    vertex 46.29417979512747 66.00749925773688 27.78643654144803
    vertex 46.29417979512747 66.00749925773688 25.786436541448026
  endloop
endfacet
facet normal 1.0 0.0 0.0
  outer loop
    vertex 46.29417979512747 66.00749925773688 27.78643654144803
    vertex 46.29417979512747 68.00749925773688 25.786436541448026
    vertex 46.29417979512747 68.00749925773688 27.78643654144803
  endloop
endfacet
facet normal 0.0 0.0 1.0
  outer loop
    vertex 46.29417979512747 66.00749925773688 27.78643654144803
    vertex 29.294179795127473 68.00749925773688 27.78643654144803
    vertex 29.294179795127473 66.00749925773688 27.78643654144803
  endloop
endfacet
facet normal 0.0 0.0 1.0
  outer loop
    vertex 29.294179795127473 68.00749925773688 27.78643654144803
    vertex 46.29417979512747 66.00749925773688 27.78643654144803
    vertex 46.29417979512747 68.00749925773688 27.78643654144803
  endloop
endfacet
facet normal 0.0 1.0 0.0
  outer loop
    vertex 29.294179795127473 68.00749925773688 27.78643654144803
    vertex 46.29417979512747 68.00749925773688 25.786436541448026
    vertex 29.294179795127473 68.00749925773688 25.786436541448026
  endloop
endfacet
facet normal 0.0 1.0 0.0
  outer loop
    vertex 46.29417979512747 68.00749925773688 25.786436541448026
    vertex 29.294179795127473 68.00749925773688 27.78643654144803
    vertex 46.29417979512747 68.00749925773688 27.78643654144803
  endloop
endfacet
facet normal -1.0 0.0 0.0
  outer loop
    vertex 29.294179795127473 68.00749925773688 27.78643654144803
    vertex 29.294179795127473 66.00749925773688 25.786436541448026
    vertex 29.294179795127473 66.00749925773688 27.78643654144803
  endloop
endfacet
facet normal -1.0 0.0 0.0
  outer loop
    vertex 29.294179795127473 66.00749925773688 25.786436541448026
    vertex 29.294179795127473 68.00749925773688 27.78643654144803
    vertex 29.294179795127473 68.00749925773688 25.786436541448026
  endloop
endfacet
endsolid minitelegraph_v06
