solid lambda_part2
facet normal 0.6376258812000994 0.7703461790804161 0.0
  outer loop
    vertex 31.976355201890254 6.637093217802944 3.9999999999999982
    vertex 31.171952374317193 7.302908244474974 0.0
    vertex 31.171952374317193 7.302908244474974 3.9999999999999982
  endloop
endfacet
facet normal 0.6376258812000994 0.7703461790804161 0.0
  outer loop
    vertex 31.171952374317193 7.302908244474974 0.0
    vertex 31.976355201890254 6.637093217802944 3.9999999999999982
    vertex 31.976355201890254 6.637093217802944 0.0
  endloop
endfacet
facet normal 0.1670271216895137 0.9859523013919671 0.0
  outer loop
    vertex 30.222633299006258 7.737841402558608 3.9999999999999982
    vertex 29.193092502115938 7.912252716091468 0.0
    vertex 29.193092502115938 7.912252716091468 3.9999999999999982
  endloop
endfacet
facet normal 0.1670271216895137 0.9859523013919671 0.0
  outer loop
    vertex 29.193092502115938 7.912252716091468 0.0
    vertex 30.222633299006258 7.737841402558608 3.9999999999999982
    vertex 30.222633299006258 7.737841402558608 0.0
  endloop
endfacet
facet normal 0.41651904369353465 0.9091269912617399 0.0
  outer loop
    vertex 31.171952374317193 7.302908244474974 3.9999999999999982
    vertex 30.222633299006258 7.737841402558608 0.0
    vertex 30.222633299006258 7.737841402558608 3.9999999999999982
  endloop
endfacet
facet normal 0.41651904369353465 0.9091269912617399 0.0
  outer loop
    vertex 30.222633299006258 7.737841402558608 0.0
    vertex 31.171952374317193 7.302908244474974 3.9999999999999982
    vertex 31.171952374317193 7.302908244474974 0.0
  endloop
endfacet
facet normal 0.8152795686294699 0.5790675478520148 0.0
  outer loop
    vertex 31.976355201890254 6.637093217802944 3.9999999999999982
    vertex 32.58102305836486 5.785770516298858 0.0
    vertex 31.976355201890254 6.637093217802944 0.0
  endloop
endfacet
facet normal 0.8152795686294699 0.5790675478520148 0.0
  outer loop
    vertex 32.58102305836486 5.785770516298858 0.0
    vertex 31.976355201890254 6.637093217802944 3.9999999999999982
    vertex 32.58102305836486 5.785770516298858 3.9999999999999982
  endloop
endfacet
facet normal 0.9373733007699324 0.34832642019186805 0.0
  outer loop
    vertex 32.58102305836486 5.785770516298858 3.9999999999999982
    vertex 32.944748828583144 4.806956375192935 0.0
    vertex 32.58102305836486 5.785770516298858 0.0
  endloop
endfacet
facet normal 0.9373733007699324 0.34832642019186805 0.0
  outer loop
    vertex 32.944748828583144 4.806956375192935 0.0
    vertex 32.58102305836486 5.785770516298858 3.9999999999999982
    vertex 32.944748828583144 4.806956375192935 3.9999999999999982
  endloop
endfacet
facet normal 0.5665601873152787 0.8240203602759317 0.0
  outer loop
    vertex 28.59134271145051 3.0240559924493566 3.9999999999999982
    vertex 28.37623023157329 3.1719578802768376 0.0
    vertex 28.37623023157329 3.1719578802768376 3.9999999999999982
  endloop
endfacet
facet normal 0.5665601873152787 0.8240203602759317 0.0
  outer loop
    vertex 28.37623023157329 3.1719578802768376 0.0
    vertex 28.59134271145051 3.0240559924493566 3.9999999999999982
    vertex 28.59134271145051 3.0240559924493566 0.0
  endloop
endfacet
facet normal -0.18205183418591925 0.9832889349878512 0.0
  outer loop
    vertex 29.35433897392801 2.963863459089586 3.9999999999999982
    vertex 29.097649052855868 2.916338393683658 0.0
    vertex 29.097649052855868 2.916338393683658 3.9999999999999982
  endloop
endfacet
facet normal -0.18205183418591925 0.9832889349878512 0.0
  outer loop
    vertex 29.097649052855868 2.916338393683658 0.0
    vertex 29.35433897392801 2.963863459089586 3.9999999999999982
    vertex 29.35433897392801 2.963863459089586 0.0
  endloop
endfacet
facet normal 0.33398295428338165 0.9425791140525791 0.0
  outer loop
    vertex 28.837405236697375 2.93686894587133 3.9999999999999982
    vertex 28.59134271145051 3.0240559924493566 0.0
    vertex 28.59134271145051 3.0240559924493566 3.9999999999999982
  endloop
endfacet
facet normal 0.33398295428338165 0.9425791140525791 0.0
  outer loop
    vertex 28.59134271145051 3.0240559924493566 0.0
    vertex 28.837405236697375 2.93686894587133 3.9999999999999982
    vertex 28.837405236697375 2.93686894587133 0.0
  endloop
endfacet
facet normal 0.07864533484995773 0.9969026588922001 0.0
  outer loop
    vertex 29.097649052855868 2.916338393683658 3.9999999999999982
    vertex 28.837405236697375 2.93686894587133 0.0
    vertex 28.837405236697375 2.93686894587133 3.9999999999999982
  endloop
endfacet
facet normal 0.07864533484995773 0.9969026588922001 0.0
  outer loop
    vertex 28.837405236697375 2.93686894587133 0.0
    vertex 29.097649052855868 2.916338393683658 3.9999999999999982
    vertex 29.097649052855868 2.916338393683658 0.0
  endloop
endfacet
facet normal 0.5790675478520148 -0.8152795686294699 0.0
  outer loop
    vertex 31.76758570410147 0.9840926608603783 0.0
    vertex 30.916263002597386 0.37942480438577153 3.9999999999999982
    vertex 30.916263002597386 0.37942480438577153 0.0
  endloop
endfacet
facet normal 0.5790675478520148 -0.8152795686294699 0.0
  outer loop
    vertex 30.916263002597386 0.37942480438577153 3.9999999999999982
    vertex 31.76758570410147 0.9840926608603783 0.0
    vertex 31.76758570410147 0.9840926608603783 3.9999999999999982
  endloop
endfacet
facet normal 0.9091269912617409 -0.4165190436935326 0.0
  outer loop
    vertex 32.86833388885714 2.737814563744373 3.9999999999999982
    vertex 32.4334007307735 1.7884954884334312 0.0
    vertex 32.86833388885714 2.737814563744373 0.0
  endloop
endfacet
facet normal 0.9091269912617409 -0.4165190436935326 0.0
  outer loop
    vertex 32.4334007307735 1.7884954884334312 0.0
    vertex 32.86833388885714 2.737814563744373 3.9999999999999982
    vertex 32.4334007307735 1.7884954884334312 3.9999999999999982
  endloop
endfacet
facet normal 0.09384742263226649 -0.9955865915455475 0.0
  outer loop
    vertex 29.937448861491458 0.01569903416748113 0.0
    vertex 28.897847846933214 -0.082297339639364 3.9999999999999982
    vertex 28.897847846933214 -0.082297339639364 0.0
  endloop
endfacet
facet normal 0.09384742263226649 -0.9955865915455475 0.0
  outer loop
    vertex 28.897847846933214 -0.082297339639364 3.9999999999999982
    vertex 29.937448861491458 0.01569903416748113 0.0
    vertex 29.937448861491458 0.01569903416748113 3.9999999999999982
  endloop
endfacet
facet normal 0.9859523013919671 -0.1670271216895137 0.0
  outer loop
    vertex 33.042745202389995 3.7673553606346926 3.9999999999999982
    vertex 32.86833388885714 2.737814563744373 0.0
    vertex 33.042745202389995 3.7673553606346926 0.0
  endloop
endfacet
facet normal 0.9859523013919671 -0.1670271216895137 0.0
  outer loop
    vertex 32.86833388885714 2.737814563744373 0.0
    vertex 33.042745202389995 3.7673553606346926 3.9999999999999982
    vertex 32.86833388885714 2.737814563744373 3.9999999999999982
  endloop
endfacet
facet normal -0.00011895908866577864 -0.9999999929243677 0.0
  outer loop
    vertex 28.897847846933214 -0.082297339639364 0.0
    vertex 4.20475040872002 -0.0793598712509947 3.9999999999999982
    vertex 4.20475040872002 -0.0793598712509947 0.0
  endloop
endfacet
facet normal -0.00011895908866577864 -0.9999999929243677 0.0
  outer loop
    vertex 4.20475040872002 -0.0793598712509947 3.9999999999999982
    vertex 28.897847846933214 -0.082297339639364 0.0
    vertex 28.897847846933214 -0.082297339639364 3.9999999999999982
  endloop
endfacet
facet normal -0.33300020006898323 -0.9429267557737542 0.0
  outer loop
    vertex 3.1636901030249356 0.001677149029055025 0.0
    vertex 2.179076991236497 0.3493991340172126 3.9999999999999982
    vertex 2.179076991236497 0.3493991340172126 0.0
  endloop
endfacet
facet normal -0.33300020006898323 -0.9429267557737542 0.0
  outer loop
    vertex 2.179076991236497 0.3493991340172126 3.9999999999999982
    vertex 3.1636901030249356 0.001677149029055025 0.0
    vertex 3.1636901030249356 0.001677149029055025 3.9999999999999982
  endloop
endfacet
facet normal -0.5657008959370323 -0.8246105119000358 0.0
  outer loop
    vertex 2.179076991236497 0.3493991340172126 0.0
    vertex 1.3180108297729853 0.9401094050742717 3.9999999999999982
    vertex 1.3180108297729853 0.9401094050742717 0.0
  endloop
endfacet
facet normal -0.5657008959370323 -0.8246105119000358 0.0
  outer loop
    vertex 1.3180108297729853 0.9401094050742717 3.9999999999999982
    vertex 2.179076991236497 0.3493991340172126 0.0
    vertex 2.179076991236497 0.3493991340172126 3.9999999999999982
  endloop
endfacet
facet normal 0.3483264201918663 -0.9373733007699332 0.0
  outer loop
    vertex 30.916263002597386 0.37942480438577153 0.0
    vertex 29.937448861491458 0.01569903416748113 3.9999999999999982
    vertex 29.937448861491458 0.01569903416748113 0.0
  endloop
endfacet
facet normal 0.3483264201918663 -0.9373733007699332 0.0
  outer loop
    vertex 29.937448861491458 0.01569903416748113 3.9999999999999982
    vertex 30.916263002597386 0.37942480438577153 0.0
    vertex 30.916263002597386 0.37942480438577153 3.9999999999999982
  endloop
endfacet
facet normal 0.9955865915455475 0.09384742263226649 0.0
  outer loop
    vertex 32.944748828583144 4.806956375192935 3.9999999999999982
    vertex 33.042745202389995 3.7673553606346926 0.0
    vertex 32.944748828583144 4.806956375192935 0.0
  endloop
endfacet
facet normal 0.9955865915455475 0.09384742263226649 0.0
  outer loop
    vertex 33.042745202389995 3.7673553606346926 0.0
    vertex 32.944748828583144 4.806956375192935 3.9999999999999982
    vertex 33.042745202389995 3.7673553606346926 3.9999999999999982
  endloop
endfacet
facet normal 0.770346179080414 -0.6376258812001022 0.0
  outer loop
    vertex 32.4334007307735 1.7884954884334312 3.9999999999999982
    vertex 31.76758570410147 0.9840926608603783 0.0
    vertex 32.4334007307735 1.7884954884334312 0.0
  endloop
endfacet
facet normal 0.770346179080414 -0.6376258812001022 0.0
  outer loop
    vertex 31.76758570410147 0.9840926608603783 0.0
    vertex 32.4334007307735 1.7884954884334312 3.9999999999999982
    vertex 31.76758570410147 0.9840926608603783 3.9999999999999982
  endloop
endfacet
facet normal -0.07760609087507035 -0.9969840995016372 0.0
  outer loop
    vertex 4.20475040872002 -0.0793598712509947 0.0
    vertex 3.1636901030249356 0.001677149029055025 3.9999999999999982
    vertex 3.1636901030249356 0.001677149029055025 0.0
  endloop
endfacet
facet normal -0.07760609087507035 -0.9969840995016372 0.0
  outer loop
    vertex 3.1636901030249356 0.001677149029055025 3.9999999999999982
    vertex 4.20475040872002 -0.0793598712509947 0.0
    vertex 4.20475040872002 -0.0793598712509947 3.9999999999999982
  endloop
endfacet
facet normal -0.43034247157689437 0.9026656951258811 0.0
  outer loop
    vertex 29.5899820059929 3.0762053874205795 3.9999999999999982
    vertex 29.35433897392801 2.963863459089586 0.0
    vertex 29.35433897392801 2.963863459089586 3.9999999999999982
  endloop
endfacet
facet normal -0.43034247157689437 0.9026656951258811 0.0
  outer loop
    vertex 29.35433897392801 2.963863459089586 0.0
    vertex 29.5899820059929 3.0762053874205795 3.9999999999999982
    vertex 29.5899820059929 3.0762053874205795 0.0
  endloop
endfacet
facet normal -0.9425791140525858 0.3339829542833624 0.0
  outer loop
    vertex 29.93642135366133 3.460820741791935 3.9999999999999982
    vertex 30.023608400239354 3.7068832670388003 0.0
    vertex 29.93642135366133 3.460820741791935 0.0
  endloop
endfacet
facet normal -0.9425791140525858 0.3339829542833624 0.0
  outer loop
    vertex 30.023608400239354 3.7068832670388003 0.0
    vertex 29.93642135366133 3.460820741791935 3.9999999999999982
    vertex 30.023608400239354 3.7068832670388003 3.9999999999999982
  endloop
endfacet
facet normal -0.6493059807044855 0.7605272798666636 0.0
  outer loop
    vertex 29.78851946583384 3.2457082619147046 3.9999999999999982
    vertex 29.5899820059929 3.0762053874205795 0.0
    vertex 29.5899820059929 3.0762053874205795 3.9999999999999982
  endloop
endfacet
facet normal -0.6493059807044855 0.7605272798666636 0.0
  outer loop
    vertex 29.5899820059929 3.0762053874205795 0.0
    vertex 29.78851946583384 3.2457082619147046 3.9999999999999982
    vertex 29.78851946583384 3.2457082619147046 0.0
  endloop
endfacet
facet normal -0.9832889349878505 -0.1820518341859231 0.0
  outer loop
    vertex 30.044138952427026 3.9671270831972865 3.9999999999999982
    vertex 29.9966138870211 4.223817004269427 0.0
    vertex 30.044138952427026 3.9671270831972865 0.0
  endloop
endfacet
facet normal -0.9832889349878505 -0.1820518341859231 0.0
  outer loop
    vertex 29.9966138870211 4.223817004269427 0.0
    vertex 30.044138952427026 3.9671270831972865 3.9999999999999982
    vertex 29.9966138870211 4.223817004269427 3.9999999999999982
  endloop
endfacet
facet normal -0.7605272798666636 -0.6493059807044855 0.0
  outer loop
    vertex 29.884271958690096 4.459460036334328 3.9999999999999982
    vertex 29.714769084195975 4.657997496175266 0.0
    vertex 29.884271958690096 4.459460036334328 0.0
  endloop
endfacet
facet normal -0.7605272798666636 -0.6493059807044855 0.0
  outer loop
    vertex 29.714769084195975 4.657997496175266 0.0
    vertex 29.884271958690096 4.459460036334328 3.9999999999999982
    vertex 29.714769084195975 4.657997496175266 3.9999999999999982
  endloop
endfacet
facet normal -0.8240203602759256 0.5665601873152879 0.0
  outer loop
    vertex 29.78851946583384 3.2457082619147046 3.9999999999999982
    vertex 29.93642135366133 3.460820741791935 0.0
    vertex 29.78851946583384 3.2457082619147046 0.0
  endloop
endfacet
facet normal -0.8240203602759256 0.5665601873152879 0.0
  outer loop
    vertex 29.93642135366133 3.460820741791935 0.0
    vertex 29.78851946583384 3.2457082619147046 3.9999999999999982
    vertex 29.93642135366133 3.460820741791935 3.9999999999999982
  endloop
endfacet
facet normal -0.9969026588921999 0.07864533484995942 0.0
  outer loop
    vertex 30.023608400239354 3.7068832670388003 3.9999999999999982
    vertex 30.044138952427026 3.9671270831972865 0.0
    vertex 30.023608400239354 3.7068832670388003 0.0
  endloop
endfacet
facet normal -0.9969026588921999 0.07864533484995942 0.0
  outer loop
    vertex 30.044138952427026 3.9671270831972865 0.0
    vertex 30.023608400239354 3.7068832670388003 3.9999999999999982
    vertex 30.044138952427026 3.9671270831972865 3.9999999999999982
  endloop
endfacet
facet normal -0.9026656951258806 -0.43034247157689515 0.0
  outer loop
    vertex 29.9966138870211 4.223817004269427 3.9999999999999982
    vertex 29.884271958690096 4.459460036334328 0.0
    vertex 29.9966138870211 4.223817004269427 0.0
  endloop
endfacet
facet normal -0.9026656951258806 -0.43034247157689515 0.0
  outer loop
    vertex 29.884271958690096 4.459460036334328 0.0
    vertex 29.9966138870211 4.223817004269427 3.9999999999999982
    vertex 29.884271958690096 4.459460036334328 3.9999999999999982
  endloop
endfacet
facet normal -0.6225760403495939 -0.7825593102012275 0.0
  outer loop
    vertex 4.727541012333975 4.609579615083205 0.0
    vertex 4.523252038440144 4.772104574911744 3.9999999999999982
    vertex 4.523252038440144 4.772104574911744 0.0
  endloop
endfacet
facet normal -0.6225760403495939 -0.7825593102012275 0.0
  outer loop
    vertex 4.523252038440144 4.772104574911744 3.9999999999999982
    vertex 4.727541012333975 4.609579615083205 0.0
    vertex 4.727541012333975 4.609579615083205 3.9999999999999982
  endloop
endfacet
facet normal -0.9890042627770851 0.14788701162967124 0.0
  outer loop
    vertex 4.969386775068307 3.639264909924388 3.9999999999999982
    vertex 5.007993032081954 3.8974468309437684 0.0
    vertex 4.969386775068307 3.639264909924388 0.0
  endloop
endfacet
facet normal -0.9890042627770851 0.14788701162967124 0.0
  outer loop
    vertex 5.007993032081954 3.8974468309437684 0.0
    vertex 4.969386775068307 3.639264909924388 3.9999999999999982
    vertex 5.007993032081954 3.8974468309437684 3.9999999999999982
  endloop
endfacet
facet normal -0.9935807348594231 -0.1131252549884818 0.0
  outer loop
    vertex 5.007993032081954 3.8974468309437684 3.9999999999999982
    vertex 4.978461414526817 4.156823450912574 0.0
    vertex 5.007993032081954 3.8974468309437684 0.0
  endloop
endfacet
facet normal -0.9935807348594231 -0.1131252549884818 0.0
  outer loop
    vertex 4.978461414526817 4.156823450912574 0.0
    vertex 5.007993032081954 3.8974468309437684 3.9999999999999982
    vertex 4.978461414526817 4.156823450912574 3.9999999999999982
  endloop
endfacet
facet normal -0.9304463218308863 -0.3664282224274968 0.0
  outer loop
    vertex 4.978461414526817 4.156823450912574 3.9999999999999982
    vertex 4.882804453335972 4.399718681820045 0.0
    vertex 4.978461414526817 4.156823450912574 0.0
  endloop
endfacet
facet normal -0.9304463218308863 -0.3664282224274968 0.0
  outer loop
    vertex 4.882804453335972 4.399718681820045 0.0
    vertex 4.978461414526817 4.156823450912574 3.9999999999999982
    vertex 4.882804453335972 4.399718681820045 3.9999999999999982
  endloop
endfacet
facet normal 0.9832889349878505 0.1820518341859231 0.0
  outer loop
    vertex 28.046860363342237 3.8628282932548177 3.9999999999999982
    vertex 28.094385428748165 3.6061383721826767 0.0
    vertex 28.046860363342237 3.8628282932548177 0.0
  endloop
endfacet
facet normal 0.9832889349878505 0.1820518341859231 0.0
  outer loop
    vertex 28.094385428748165 3.6061383721826767 0.0
    vertex 28.046860363342237 3.8628282932548177 3.9999999999999982
    vertex 28.094385428748165 3.6061383721826767 3.9999999999999982
  endloop
endfacet
facet normal 0.9969026588921999 -0.07864533484995942 0.0
  outer loop
    vertex 28.06739091552991 4.123072109413303 3.9999999999999982
    vertex 28.046860363342237 3.8628282932548177 0.0
    vertex 28.06739091552991 4.123072109413303 0.0
  endloop
endfacet
facet normal 0.9969026588921999 -0.07864533484995942 0.0
  outer loop
    vertex 28.046860363342237 3.8628282932548177 0.0
    vertex 28.06739091552991 4.123072109413303 3.9999999999999982
    vertex 28.046860363342237 3.8628282932548177 3.9999999999999982
  endloop
endfacet
facet normal -0.7825593102012313 0.6225760403495894 0.0
  outer loop
    vertex 4.702748636272964 3.1955833852122635 3.9999999999999982
    vertex 4.8652735961015035 3.3998723591060984 0.0
    vertex 4.702748636272964 3.1955833852122635 0.0
  endloop
endfacet
facet normal -0.7825593102012313 0.6225760403495894 0.0
  outer loop
    vertex 4.8652735961015035 3.3998723591060984 0.0
    vertex 4.702748636272964 3.1955833852122635 3.9999999999999982
    vertex 4.8652735961015035 3.3998723591060984 3.9999999999999982
  endloop
endfacet
facet normal -0.8039035296048369 -0.59475971205932 0.0
  outer loop
    vertex 4.882804453335972 4.399718681820045 3.9999999999999982
    vertex 4.727541012333975 4.609579615083205 0.0
    vertex 4.882804453335972 4.399718681820045 0.0
  endloop
endfacet
facet normal -0.8039035296048369 -0.59475971205932 0.0
  outer loop
    vertex 4.727541012333975 4.609579615083205 0.0
    vertex 4.882804453335972 4.399718681820045 3.9999999999999982
    vertex 4.727541012333975 4.609579615083205 3.9999999999999982
  endloop
endfacet
facet normal -0.3988210228000987 -0.91702878459331 0.0
  outer loop
    vertex 4.523252038440144 4.772104574911744 0.0
    vertex 4.283859487621852 4.876217753878549 3.9999999999999982
    vertex 4.283859487621852 4.876217753878549 0.0
  endloop
endfacet
facet normal -0.3988210228000987 -0.91702878459331 0.0
  outer loop
    vertex 4.283859487621852 4.876217753878549 3.9999999999999982
    vertex 4.523252038440144 4.772104574911744 0.0
    vertex 4.523252038440144 4.772104574911744 3.9999999999999982
  endloop
endfacet
facet normal -0.1478870116296742 -0.9890042627770846 0.0
  outer loop
    vertex 4.283859487621852 4.876217753878549 0.0
    vertex 4.025677566602467 4.914824010892197 3.9999999999999982
    vertex 4.025677566602467 4.914824010892197 0.0
  endloop
endfacet
facet normal -0.1478870116296742 -0.9890042627770846 0.0
  outer loop
    vertex 4.025677566602467 4.914824010892197 3.9999999999999982
    vertex 4.283859487621852 4.876217753878549 0.0
    vertex 4.283859487621852 4.876217753878549 3.9999999999999982
  endloop
endfacet
facet normal 0.9026656951258806 0.43034247157689515 0.0
  outer loop
    vertex 28.094385428748165 3.6061383721826767 3.9999999999999982
    vertex 28.206727357079167 3.3704953401177753 0.0
    vertex 28.094385428748165 3.6061383721826767 0.0
  endloop
endfacet
facet normal 0.9026656951258806 0.43034247157689515 0.0
  outer loop
    vertex 28.206727357079167 3.3704953401177753 0.0
    vertex 28.094385428748165 3.6061383721826767 3.9999999999999982
    vertex 28.206727357079167 3.3704953401177753 3.9999999999999982
  endloop
endfacet
facet normal -0.9170287845933103 0.3988210228000979 0.0
  outer loop
    vertex 4.8652735961015035 3.3998723591060984 3.9999999999999982
    vertex 4.969386775068307 3.639264909924388 0.0
    vertex 4.8652735961015035 3.3998723591060984 0.0
  endloop
endfacet
facet normal -0.9170287845933103 0.3988210228000979 0.0
  outer loop
    vertex 4.969386775068307 3.639264909924388 0.0
    vertex 4.8652735961015035 3.3998723591060984 3.9999999999999982
    vertex 4.969386775068307 3.639264909924388 3.9999999999999982
  endloop
endfacet
facet normal 0.7605272798666636 0.6493059807044855 0.0
  outer loop
    vertex 28.206727357079167 3.3704953401177753 3.9999999999999982
    vertex 28.37623023157329 3.1719578802768376 0.0
    vertex 28.206727357079167 3.3704953401177753 0.0
  endloop
endfacet
facet normal 0.7605272798666636 0.6493059807044855 0.0
  outer loop
    vertex 28.37623023157329 3.1719578802768376 0.0
    vertex 28.206727357079167 3.3704953401177753 3.9999999999999982
    vertex 28.37623023157329 3.1719578802768376 3.9999999999999982
  endloop
endfacet
facet normal 0.9425791140525858 -0.33398295428336233 0.0
  outer loop
    vertex 28.154577962107933 4.369134634660169 3.9999999999999982
    vertex 28.06739091552991 4.123072109413303 0.0
    vertex 28.154577962107933 4.369134634660169 0.0
  endloop
endfacet
facet normal 0.9425791140525858 -0.33398295428336233 0.0
  outer loop
    vertex 28.06739091552991 4.123072109413303 0.0
    vertex 28.154577962107933 4.369134634660169 3.9999999999999982
    vertex 28.06739091552991 4.123072109413303 3.9999999999999982
  endloop
endfacet
facet normal 0.11312525498849425 -0.9935807348594216 0.0
  outer loop
    vertex 4.025677566602467 4.914824010892197 0.0
    vertex 3.766300946633666 4.885292393337056 3.9999999999999982
    vertex 3.766300946633666 4.885292393337056 0.0
  endloop
endfacet
facet normal 0.11312525498849425 -0.9935807348594216 0.0
  outer loop
    vertex 3.766300946633666 4.885292393337056 3.9999999999999982
    vertex 4.025677566602467 4.914824010892197 0.0
    vertex 4.025677566602467 4.914824010892197 3.9999999999999982
  endloop
endfacet
facet normal -0.983098624442607 -0.18307674516184147 0.0
  outer loop
    vertex 0.18882181992100217 2.6756552151661426 3.9999999999999982
    vertex -0.0023486635191259353 3.702216175368259 0.0
    vertex 0.18882181992100217 2.6756552151661426 0.0
  endloop
endfacet
facet normal -0.983098624442607 -0.18307674516184147 0.0
  outer loop
    vertex -0.0023486635191259353 3.702216175368259 0.0
    vertex 0.18882181992100217 2.6756552151661426 3.9999999999999982
    vertex -0.0023486635191259353 3.702216175368259 3.9999999999999982
  endloop
endfacet
facet normal -0.9022166027751058 -0.4312832035646032 0.0
  outer loop
    vertex 0.6391718545590258 1.7335520334225811 3.9999999999999982
    vertex 0.18882181992100217 2.6756552151661426 0.0
    vertex 0.6391718545590258 1.7335520334225811 0.0
  endloop
endfacet
facet normal -0.9022166027751058 -0.4312832035646032 0.0
  outer loop
    vertex 0.18882181992100217 2.6756552151661426 0.0
    vertex 0.6391718545590258 1.7335520334225811 3.9999999999999982
    vertex 0.18882181992100217 2.6756552151661426 3.9999999999999982
  endloop
endfacet
facet normal -0.9969840995016372 0.07760609087507056 0.0
  outer loop
    vertex -0.0023486635191259353 3.702216175368259 3.9999999999999982
    vertex 0.0786883567609238 4.743276481063342 0.0
    vertex -0.0023486635191259353 3.702216175368259 0.0
  endloop
endfacet
facet normal -0.9969840995016372 0.07760609087507056 0.0
  outer loop
    vertex 0.0786883567609238 4.743276481063342 0.0
    vertex -0.0023486635191259353 3.702216175368259 3.9999999999999982
    vertex 0.0786883567609238 4.743276481063342 3.9999999999999982
  endloop
endfacet
facet normal -0.1830767451618474 0.983098624442606 0.0
  outer loop
    vertex 3.7792273831001206 7.909315247607412 3.9999999999999982
    vertex 2.7526664228980087 7.718144764167278 0.0
    vertex 2.7526664228980087 7.718144764167278 3.9999999999999982
  endloop
endfacet
facet normal -0.1830767451618474 0.983098624442606 0.0
  outer loop
    vertex 2.7526664228980087 7.718144764167278 0.0
    vertex 3.7792273831001206 7.909315247607412 3.9999999999999982
    vertex 3.7792273831001206 7.909315247607412 0.0
  endloop
endfacet
facet normal -0.6500984243736277 0.7598500106119146 0.0
  outer loop
    vertex 1.810563241154448 7.267794729529253 3.9999999999999982
    vertex 1.0171206128061365 6.588955754315296 0.0
    vertex 1.0171206128061365 6.588955754315296 3.9999999999999982
  endloop
endfacet
facet normal -0.6500984243736277 0.7598500106119146 0.0
  outer loop
    vertex 1.0171206128061365 6.588955754315296 0.0
    vertex 1.810563241154448 7.267794729529253 3.9999999999999982
    vertex 1.810563241154448 7.267794729529253 0.0
  endloop
endfacet
facet normal -0.4312832035646037 0.9022166027751055 0.0
  outer loop
    vertex 2.7526664228980087 7.718144764167278 3.9999999999999982
    vertex 1.810563241154448 7.267794729529253 0.0
    vertex 1.810563241154448 7.267794729529253 3.9999999999999982
  endloop
endfacet
facet normal -0.4312832035646037 0.9022166027751055 0.0
  outer loop
    vertex 1.810563241154448 7.267794729529253 0.0
    vertex 2.7526664228980087 7.718144764167278 3.9999999999999982
    vertex 2.7526664228980087 7.718144764167278 0.0
  endloop
endfacet
facet normal -0.9429267557737565 0.3330002000689772 0.0
  outer loop
    vertex 0.0786883567609238 4.743276481063342 3.9999999999999982
    vertex 0.4264103417490764 5.727889592851785 0.0
    vertex 0.0786883567609238 4.743276481063342 0.0
  endloop
endfacet
facet normal -0.9429267557737565 0.3330002000689772 0.0
  outer loop
    vertex 0.4264103417490764 5.727889592851785 0.0
    vertex 0.0786883567609238 4.743276481063342 3.9999999999999982
    vertex 0.4264103417490764 5.727889592851785 3.9999999999999982
  endloop
endfacet
facet normal -0.00011558527011447174 0.9999999933200228 0.0
  outer loop
    vertex 29.193092502115938 7.912252716091468 3.9999999999999982
    vertex 3.7792273831001206 7.909315247607412 0.0
    vertex 3.7792273831001206 7.909315247607412 3.9999999999999982
  endloop
endfacet
facet normal -0.00011558527011447174 0.9999999933200228 0.0
  outer loop
    vertex 3.7792273831001206 7.909315247607412 0.0
    vertex 29.193092502115938 7.912252716091468 3.9999999999999982
    vertex 29.193092502115938 7.912252716091468 0.0
  endloop
endfacet
facet normal -0.7598500106119127 -0.6500984243736299 0.0
  outer loop
    vertex 1.3180108297729853 0.9401094050742717 3.9999999999999982
    vertex 0.6391718545590258 1.7335520334225811 0.0
    vertex 1.3180108297729853 0.9401094050742717 0.0
  endloop
endfacet
facet normal -0.7598500106119127 -0.6500984243736299 0.0
  outer loop
    vertex 0.6391718545590258 1.7335520334225811 0.0
    vertex 1.3180108297729853 0.9401094050742717 3.9999999999999982
    vertex 0.6391718545590258 1.7335520334225811 3.9999999999999982
  endloop
endfacet
facet normal -0.8246105119000351 0.5657008959370333 0.0
  outer loop
    vertex 0.4264103417490764 5.727889592851785 3.9999999999999982
    vertex 1.0171206128061365 6.588955754315296 0.0
    vertex 0.4264103417490764 5.727889592851785 0.0
  endloop
endfacet
facet normal -0.8246105119000351 0.5657008959370333 0.0
  outer loop
    vertex 1.0171206128061365 6.588955754315296 0.0
    vertex 0.4264103417490764 5.727889592851785 3.9999999999999982
    vertex 1.0171206128061365 6.588955754315296 3.9999999999999982
  endloop
endfacet
facet normal 0.36642822242748185 -0.9304463218308919 0.0
  outer loop
    vertex 3.766300946633666 4.885292393337056 0.0
    vertex 3.52340571572619 4.789635432146214 3.9999999999999982
    vertex 3.52340571572619 4.789635432146214 0.0
  endloop
endfacet
facet normal 0.36642822242748185 -0.9304463218308919 0.0
  outer loop
    vertex 3.52340571572619 4.789635432146214 3.9999999999999982
    vertex 3.766300946633666 4.885292393337056 0.0
    vertex 3.766300946633666 4.885292393337056 3.9999999999999982
  endloop
endfacet
facet normal 0.0 0.0 -1.0
  outer loop
    vertex 30.222633299006258 7.737841402558608 0.0
    vertex 3.7792273831001206 7.909315247607412 0.0
    vertex 29.193092502115938 7.912252716091468 0.0
  endloop
endfacet
facet normal 0.0 0.0 -1.0
  outer loop
    vertex 3.7792273831001206 7.909315247607412 0.0
    vertex 30.222633299006258 7.737841402558608 0.0
    vertex 2.7526664228980087 7.718144764167278 0.0
  endloop
endfacet
facet normal 0.0 0.0 -1.0
  outer loop
    vertex 2.7526664228980087 7.718144764167278 0.0
    vertex 30.222633299006258 7.737841402558608 0.0
    vertex 31.171952374317193 7.302908244474974 0.0
  endloop
endfacet
facet normal 0.0 0.0 -1.0
  outer loop
    vertex 2.7526664228980087 7.718144764167278 0.0
    vertex 31.171952374317193 7.302908244474974 0.0
    vertex 1.810563241154448 7.267794729529253 0.0
  endloop
endfacet
facet normal 0.0 0.0 -1.0
  outer loop
    vertex 1.810563241154448 7.267794729529253 0.0
    vertex 31.171952374317193 7.302908244474974 0.0
    vertex 31.976355201890254 6.637093217802944 0.0
  endloop
endfacet
facet normal 0.0 0.0 -1.0
  outer loop
    vertex 1.810563241154448 7.267794729529253 0.0
    vertex 31.976355201890254 6.637093217802944 0.0
    vertex 1.0171206128061365 6.588955754315296 0.0
  endloop
endfacet
facet normal 0.0 0.0 -1.0
  outer loop
    vertex 1.0171206128061365 6.588955754315296 0.0
    vertex 31.976355201890254 6.637093217802944 0.0
    vertex 32.58102305836486 5.785770516298858 0.0
  endloop
endfacet
facet normal 0.0 0.0 -1.0
  outer loop
    vertex 1.0171206128061365 6.588955754315296 0.0
    vertex 32.58102305836486 5.785770516298858 0.0
    vertex 0.4264103417490764 5.727889592851785 0.0
  endloop
endfacet
facet normal 0.0 0.0 -1.0
  outer loop
    vertex 0.4264103417490764 5.727889592851785 0.0
    vertex 32.58102305836486 5.785770516298858 0.0
    vertex 32.944748828583144 4.806956375192935 0.0
  endloop
endfacet
facet normal 0.0 0.0 -1.0
  outer loop
    vertex 0.4264103417490764 5.727889592851785 0.0
    vertex 32.944748828583144 4.806956375192935 0.0
    vertex 28.993350262913395 4.9136169827684455 0.0
  endloop
endfacet
facet normal 0.0 0.0 -1.0
  outer loop
    vertex 0.4264103417490764 5.727889592851785 0.0
    vertex 28.993350262913395 4.9136169827684455 0.0
    vertex 4.025677566602467 4.914824010892197 0.0
  endloop
endfacet
facet normal 0.0 0.0 -1.0
  outer loop
    vertex 28.993350262913395 4.9136169827684455 0.0
    vertex 32.944748828583144 4.806956375192935 0.0
    vertex 29.25359407907189 4.893086430580774 0.0
  endloop
endfacet
facet normal 0.0 0.0 -1.0
  outer loop
    vertex 29.25359407907189 4.893086430580774 0.0
    vertex 32.944748828583144 4.806956375192935 0.0
    vertex 29.499656604318755 4.805899384002747 0.0
  endloop
endfacet
facet normal 0.0 0.0 -1.0
  outer loop
    vertex 29.499656604318755 4.805899384002747 0.0
    vertex 32.944748828583144 4.806956375192935 0.0
    vertex 33.042745202389995 3.7673553606346926 0.0
  endloop
endfacet
facet normal 0.0 0.0 -1.0
  outer loop
    vertex 29.499656604318755 4.805899384002747 0.0
    vertex 33.042745202389995 3.7673553606346926 0.0
    vertex 29.714769084195975 4.657997496175266 0.0
  endloop
endfacet
facet normal 0.0 0.0 -1.0
  outer loop
    vertex 29.714769084195975 4.657997496175266 0.0
    vertex 33.042745202389995 3.7673553606346926 0.0
    vertex 29.884271958690096 4.459460036334328 0.0
  endloop
endfacet
facet normal 0.0 0.0 -1.0
  outer loop
    vertex 29.884271958690096 4.459460036334328 0.0
    vertex 33.042745202389995 3.7673553606346926 0.0
    vertex 29.9966138870211 4.223817004269427 0.0
  endloop
endfacet
facet normal 0.0 0.0 -1.0
  outer loop
    vertex 29.9966138870211 4.223817004269427 0.0
    vertex 33.042745202389995 3.7673553606346926 0.0
    vertex 30.044138952427026 3.9671270831972865 0.0
  endloop
endfacet
facet normal 0.0 0.0 -1.0
  outer loop
    vertex 30.044138952427026 3.9671270831972865 0.0
    vertex 33.042745202389995 3.7673553606346926 0.0
    vertex 30.023608400239354 3.7068832670388003 0.0
  endloop
endfacet
facet normal 0.0 0.0 -1.0
  outer loop
    vertex 30.023608400239354 3.7068832670388003 0.0
    vertex 33.042745202389995 3.7673553606346926 0.0
    vertex 32.86833388885714 2.737814563744373 0.0
  endloop
endfacet
facet normal 0.0 0.0 -1.0
  outer loop
    vertex 30.023608400239354 3.7068832670388003 0.0
    vertex 32.86833388885714 2.737814563744373 0.0
    vertex 29.93642135366133 3.460820741791935 0.0
  endloop
endfacet
facet normal 0.0 0.0 -1.0
  outer loop
    vertex 29.93642135366133 3.460820741791935 0.0
    vertex 32.86833388885714 2.737814563744373 0.0
    vertex 29.78851946583384 3.2457082619147046 0.0
  endloop
endfacet
facet normal 0.0 0.0 -1.0
  outer loop
    vertex 29.78851946583384 3.2457082619147046 0.0
    vertex 32.86833388885714 2.737814563744373 0.0
    vertex 29.5899820059929 3.0762053874205795 0.0
  endloop
endfacet
facet normal 0.0 0.0 -1.0
  outer loop
    vertex 29.5899820059929 3.0762053874205795 0.0
    vertex 32.86833388885714 2.737814563744373 0.0
    vertex 29.35433897392801 2.963863459089586 0.0
  endloop
endfacet
facet normal 0.0 0.0 -1.0
  outer loop
    vertex 29.35433897392801 2.963863459089586 0.0
    vertex 32.86833388885714 2.737814563744373 0.0
    vertex 29.097649052855868 2.916338393683658 0.0
  endloop
endfacet
facet normal 0.0 0.0 -1.0
  outer loop
    vertex 29.097649052855868 2.916338393683658 0.0
    vertex 32.86833388885714 2.737814563744373 0.0
    vertex 3.990615852133531 2.915131365464281 0.0
  endloop
endfacet
facet normal 0.0 0.0 -1.0
  outer loop
    vertex 4.025677566602467 4.914824010892197 0.0
    vertex 0.0786883567609238 4.743276481063342 0.0
    vertex 0.4264103417490764 5.727889592851785 0.0
  endloop
endfacet
facet normal 0.0 0.0 -1.0
  outer loop
    vertex 0.0786883567609238 4.743276481063342 0.0
    vertex 4.025677566602467 4.914824010892197 0.0
    vertex 3.766300946633666 4.885292393337056 0.0
  endloop
endfacet
facet normal 0.0 0.0 -1.0
  outer loop
    vertex 0.0786883567609238 4.743276481063342 0.0
    vertex 3.766300946633666 4.885292393337056 0.0
    vertex 3.52340571572619 4.789635432146214 0.0
  endloop
endfacet
facet normal 0.0 0.0 -1.0
  outer loop
    vertex 0.0786883567609238 4.743276481063342 0.0
    vertex 3.52340571572619 4.789635432146214 0.0
    vertex 3.3135447824630346 4.634371991144215 0.0
  endloop
endfacet
facet normal 0.0 0.0 -1.0
  outer loop
    vertex 0.0786883567609238 4.743276481063342 0.0
    vertex 3.3135447824630346 4.634371991144215 0.0
    vertex -0.0023486635191259353 3.702216175368259 0.0
  endloop
endfacet
facet normal 0.0 0.0 -1.0
  outer loop
    vertex -0.0023486635191259353 3.702216175368259 0.0
    vertex 3.3135447824630346 4.634371991144215 0.0
    vertex 3.1510198226344954 4.4300830172503805 0.0
  endloop
endfacet
facet normal 0.0 0.0 -1.0
  outer loop
    vertex -0.0023486635191259353 3.702216175368259 0.0
    vertex 3.1510198226344954 4.4300830172503805 0.0
    vertex 3.0469066436676906 4.19069046643209 0.0
  endloop
endfacet
facet normal 0.0 0.0 -1.0
  outer loop
    vertex -0.0023486635191259353 3.702216175368259 0.0
    vertex 3.0469066436676906 4.19069046643209 0.0
    vertex 3.008300386654044 3.93250854541271 0.0
  endloop
endfacet
facet normal 0.0 0.0 -1.0
  outer loop
    vertex -0.0023486635191259353 3.702216175368259 0.0
    vertex 3.008300386654044 3.93250854541271 0.0
    vertex 3.0378320042091826 3.6731319254439048 0.0
  endloop
endfacet
facet normal 0.0 0.0 -1.0
  outer loop
    vertex -0.0023486635191259353 3.702216175368259 0.0
    vertex 3.0378320042091826 3.6731319254439048 0.0
    vertex 0.18882181992100217 2.6756552151661426 0.0
  endloop
endfacet
facet normal 0.0 0.0 -1.0
  outer loop
    vertex 0.18882181992100217 2.6756552151661426 0.0
    vertex 3.0378320042091826 3.6731319254439048 0.0
    vertex 3.133488965400027 3.430236694536433 0.0
  endloop
endfacet
facet normal 0.0 0.0 -1.0
  outer loop
    vertex 0.18882181992100217 2.6756552151661426 0.0
    vertex 3.133488965400027 3.430236694536433 0.0
    vertex 3.2887524064020233 3.220375761273273 0.0
  endloop
endfacet
facet normal 0.0 0.0 -1.0
  outer loop
    vertex 0.18882181992100217 2.6756552151661426 0.0
    vertex 3.2887524064020233 3.220375761273273 0.0
    vertex 3.4930413802958538 3.057850801444735 0.0
  endloop
endfacet
facet normal 0.0 0.0 -1.0
  outer loop
    vertex 0.18882181992100217 2.6756552151661426 0.0
    vertex 3.4930413802958538 3.057850801444735 0.0
    vertex 3.7324339311141466 2.953737622477929 0.0
  endloop
endfacet
facet normal 0.0 0.0 -1.0
  outer loop
    vertex 0.18882181992100217 2.6756552151661426 0.0
    vertex 3.7324339311141466 2.953737622477929 0.0
    vertex 3.990615852133531 2.915131365464281 0.0
  endloop
endfacet
facet normal 0.0 0.0 -1.0
  outer loop
    vertex 0.18882181992100217 2.6756552151661426 0.0
    vertex 3.990615852133531 2.915131365464281 0.0
    vertex 32.86833388885714 2.737814563744373 0.0
  endloop
endfacet
facet normal 0.0 0.0 -1.0
  outer loop
    vertex 0.18882181992100217 2.6756552151661426 0.0
    vertex 32.86833388885714 2.737814563744373 0.0
    vertex 32.4334007307735 1.7884954884334312 0.0
  endloop
endfacet
facet normal 0.0 0.0 -1.0
  outer loop
    vertex 0.18882181992100217 2.6756552151661426 0.0
    vertex 32.4334007307735 1.7884954884334312 0.0
    vertex 0.6391718545590258 1.7335520334225811 0.0
  endloop
endfacet
facet normal 0.0 0.0 -1.0
  outer loop
    vertex 0.6391718545590258 1.7335520334225811 0.0
    vertex 32.4334007307735 1.7884954884334312 0.0
    vertex 31.76758570410147 0.9840926608603783 0.0
  endloop
endfacet
facet normal 0.0 0.0 -1.0
  outer loop
    vertex 0.6391718545590258 1.7335520334225811 0.0
    vertex 31.76758570410147 0.9840926608603783 0.0
    vertex 1.3180108297729853 0.9401094050742717 0.0
  endloop
endfacet
facet normal 0.0 0.0 -1.0
  outer loop
    vertex 1.3180108297729853 0.9401094050742717 0.0
    vertex 31.76758570410147 0.9840926608603783 0.0
    vertex 30.916263002597386 0.37942480438577153 0.0
  endloop
endfacet
facet normal 0.0 0.0 -1.0
  outer loop
    vertex 1.3180108297729853 0.9401094050742717 0.0
    vertex 30.916263002597386 0.37942480438577153 0.0
    vertex 2.179076991236497 0.3493991340172126 0.0
  endloop
endfacet
facet normal 0.0 0.0 -1.0
  outer loop
    vertex 2.179076991236497 0.3493991340172126 0.0
    vertex 30.916263002597386 0.37942480438577153 0.0
    vertex 29.937448861491458 0.01569903416748113 0.0
  endloop
endfacet
facet normal 0.0 0.0 -1.0
  outer loop
    vertex 2.179076991236497 0.3493991340172126 0.0
    vertex 29.937448861491458 0.01569903416748113 0.0
    vertex 3.1636901030249356 0.001677149029055025 0.0
  endloop
endfacet
facet normal 0.0 0.0 -1.0
  outer loop
    vertex 3.1636901030249356 0.001677149029055025 0.0
    vertex 29.937448861491458 0.01569903416748113 0.0
    vertex 28.897847846933214 -0.082297339639364 0.0
  endloop
endfacet
facet normal 0.0 0.0 -1.0
  outer loop
    vertex 3.1636901030249356 0.001677149029055025 0.0
    vertex 28.897847846933214 -0.082297339639364 0.0
    vertex 4.20475040872002 -0.0793598712509947 0.0
  endloop
endfacet
facet normal 0.0 0.0 -1.0
  outer loop
    vertex 28.993350262913395 4.9136169827684455 0.0
    vertex 4.283859487621852 4.876217753878549 0.0
    vertex 4.025677566602467 4.914824010892197 0.0
  endloop
endfacet
facet normal 0.0 0.0 -1.0
  outer loop
    vertex 4.283859487621852 4.876217753878549 0.0
    vertex 28.993350262913395 4.9136169827684455 0.0
    vertex 28.736660341841247 4.8660919173625174 0.0
  endloop
endfacet
facet normal 0.0 0.0 -1.0
  outer loop
    vertex 4.283859487621852 4.876217753878549 0.0
    vertex 28.736660341841247 4.8660919173625174 0.0
    vertex 4.523252038440144 4.772104574911744 0.0
  endloop
endfacet
facet normal 0.0 0.0 -1.0
  outer loop
    vertex 4.523252038440144 4.772104574911744 0.0
    vertex 28.736660341841247 4.8660919173625174 0.0
    vertex 28.50101730977636 4.753749989031523 0.0
  endloop
endfacet
facet normal 0.0 0.0 -1.0
  outer loop
    vertex 4.523252038440144 4.772104574911744 0.0
    vertex 28.50101730977636 4.753749989031523 0.0
    vertex 4.727541012333975 4.609579615083205 0.0
  endloop
endfacet
facet normal 0.0 0.0 -1.0
  outer loop
    vertex 4.727541012333975 4.609579615083205 0.0
    vertex 28.50101730977636 4.753749989031523 0.0
    vertex 28.302479849935423 4.584247114537399 0.0
  endloop
endfacet
facet normal 0.0 0.0 -1.0
  outer loop
    vertex 4.727541012333975 4.609579615083205 0.0
    vertex 28.302479849935423 4.584247114537399 0.0
    vertex 4.882804453335972 4.399718681820045 0.0
  endloop
endfacet
facet normal 0.0 0.0 -1.0
  outer loop
    vertex 4.882804453335972 4.399718681820045 0.0
    vertex 28.302479849935423 4.584247114537399 0.0
    vertex 28.154577962107933 4.369134634660169 0.0
  endloop
endfacet
facet normal 0.0 0.0 -1.0
  outer loop
    vertex 4.882804453335972 4.399718681820045 0.0
    vertex 28.154577962107933 4.369134634660169 0.0
    vertex 4.978461414526817 4.156823450912574 0.0
  endloop
endfacet
facet normal 0.0 0.0 -1.0
  outer loop
    vertex 4.978461414526817 4.156823450912574 0.0
    vertex 28.154577962107933 4.369134634660169 0.0
    vertex 28.06739091552991 4.123072109413303 0.0
  endloop
endfacet
facet normal 0.0 0.0 -1.0
  outer loop
    vertex 4.978461414526817 4.156823450912574 0.0
    vertex 28.06739091552991 4.123072109413303 0.0
    vertex 5.007993032081954 3.8974468309437684 0.0
  endloop
endfacet
facet normal 0.0 0.0 -1.0
  outer loop
    vertex 5.007993032081954 3.8974468309437684 0.0
    vertex 28.06739091552991 4.123072109413303 0.0
    vertex 28.046860363342237 3.8628282932548177 0.0
  endloop
endfacet
facet normal 0.0 0.0 -1.0
  outer loop
    vertex 5.007993032081954 3.8974468309437684 0.0
    vertex 28.046860363342237 3.8628282932548177 0.0
    vertex 4.969386775068307 3.639264909924388 0.0
  endloop
endfacet
facet normal 0.0 0.0 -1.0
  outer loop
    vertex 4.969386775068307 3.639264909924388 0.0
    vertex 28.046860363342237 3.8628282932548177 0.0
    vertex 28.094385428748165 3.6061383721826767 0.0
  endloop
endfacet
facet normal 0.0 0.0 -1.0
  outer loop
    vertex 4.969386775068307 3.639264909924388 0.0
    vertex 28.094385428748165 3.6061383721826767 0.0
    vertex 4.8652735961015035 3.3998723591060984 0.0
  endloop
endfacet
facet normal 0.0 0.0 -1.0
  outer loop
    vertex 4.8652735961015035 3.3998723591060984 0.0
    vertex 28.094385428748165 3.6061383721826767 0.0
    vertex 28.206727357079167 3.3704953401177753 0.0
  endloop
endfacet
facet normal 0.0 0.0 -1.0
  outer loop
    vertex 4.8652735961015035 3.3998723591060984 0.0
    vertex 28.206727357079167 3.3704953401177753 0.0
    vertex 4.702748636272964 3.1955833852122635 0.0
  endloop
endfacet
facet normal 0.0 0.0 -1.0
  outer loop
    vertex 4.702748636272964 3.1955833852122635 0.0
    vertex 28.206727357079167 3.3704953401177753 0.0
    vertex 28.37623023157329 3.1719578802768376 0.0
  endloop
endfacet
facet normal 0.0 0.0 -1.0
  outer loop
    vertex 4.702748636272964 3.1955833852122635 0.0
    vertex 28.37623023157329 3.1719578802768376 0.0
    vertex 4.492887703009808 3.0403199442102644 0.0
  endloop
endfacet
facet normal 0.0 0.0 -1.0
  outer loop
    vertex 4.492887703009808 3.0403199442102644 0.0
    vertex 28.37623023157329 3.1719578802768376 0.0
    vertex 28.59134271145051 3.0240559924493566 0.0
  endloop
endfacet
facet normal 0.0 0.0 -1.0
  outer loop
    vertex 4.492887703009808 3.0403199442102644 0.0
    vertex 28.59134271145051 3.0240559924493566 0.0
    vertex 4.249992472102332 2.944662983019423 0.0
  endloop
endfacet
facet normal 0.0 0.0 -1.0
  outer loop
    vertex 4.249992472102332 2.944662983019423 0.0
    vertex 28.59134271145051 3.0240559924493566 0.0
    vertex 28.837405236697375 2.93686894587133 0.0
  endloop
endfacet
facet normal 0.0 0.0 -1.0
  outer loop
    vertex 4.249992472102332 2.944662983019423 0.0
    vertex 28.837405236697375 2.93686894587133 0.0
    vertex 3.990615852133531 2.915131365464281 0.0
  endloop
endfacet
facet normal 0.0 0.0 -1.0
  outer loop
    vertex 3.990615852133531 2.915131365464281 0.0
    vertex 28.837405236697375 2.93686894587133 0.0
    vertex 29.097649052855868 2.916338393683658 0.0
  endloop
endfacet
facet normal 0.0 0.0 1.0
  outer loop
    vertex 4.283859487621852 4.876217753878549 3.9999999999999982
    vertex 28.993350262913395 4.9136169827684455 3.9999999999999982
    vertex 4.025677566602467 4.914824010892197 3.9999999999999982
  endloop
endfacet
facet normal 0.0 0.0 1.0
  outer loop
    vertex 28.993350262913395 4.9136169827684455 3.9999999999999982
    vertex 4.283859487621852 4.876217753878549 3.9999999999999982
    vertex 28.736660341841247 4.8660919173625174 3.9999999999999982
  endloop
endfacet
facet normal 0.0 0.0 1.0
  outer loop
    vertex 28.736660341841247 4.8660919173625174 3.9999999999999982
    vertex 4.283859487621852 4.876217753878549 3.9999999999999982
    vertex 4.523252038440144 4.772104574911744 3.9999999999999982
  endloop
endfacet
facet normal 0.0 0.0 1.0
  outer loop
    vertex 28.736660341841247 4.8660919173625174 3.9999999999999982
    vertex 4.523252038440144 4.772104574911744 3.9999999999999982
    vertex 28.50101730977636 4.753749989031523 3.9999999999999982
  endloop
endfacet
facet normal 0.0 0.0 1.0
  outer loop
    vertex 28.50101730977636 4.753749989031523 3.9999999999999982
    vertex 4.523252038440144 4.772104574911744 3.9999999999999982
    vertex 4.727541012333975 4.609579615083205 3.9999999999999982
  endloop
endfacet
facet normal 0.0 0.0 1.0
  outer loop
    vertex 28.50101730977636 4.753749989031523 3.9999999999999982
    vertex 4.727541012333975 4.609579615083205 3.9999999999999982
    vertex 28.302479849935423 4.584247114537399 3.9999999999999982
  endloop
endfacet
facet normal 0.0 0.0 1.0
  outer loop
    vertex 28.302479849935423 4.584247114537399 3.9999999999999982
    vertex 4.727541012333975 4.609579615083205 3.9999999999999982
    vertex 4.882804453335972 4.399718681820045 3.9999999999999982
  endloop
endfacet
facet normal 0.0 0.0 1.0
  outer loop
    vertex 28.302479849935423 4.584247114537399 3.9999999999999982
    vertex 4.882804453335972 4.399718681820045 3.9999999999999982
    vertex 28.154577962107933 4.369134634660169 3.9999999999999982
  endloop
endfacet
facet normal 0.0 0.0 1.0
  outer loop
    vertex 28.154577962107933 4.369134634660169 3.9999999999999982
    vertex 4.882804453335972 4.399718681820045 3.9999999999999982
    vertex 4.978461414526817 4.156823450912574 3.9999999999999982
  endloop
endfacet
facet normal 0.0 0.0 1.0
  outer loop
    vertex 28.154577962107933 4.369134634660169 3.9999999999999982
    vertex 4.978461414526817 4.156823450912574 3.9999999999999982
    vertex 28.06739091552991 4.123072109413303 3.9999999999999982
  endloop
endfacet
facet normal 0.0 0.0 1.0
  outer loop
    vertex 28.06739091552991 4.123072109413303 3.9999999999999982
    vertex 4.978461414526817 4.156823450912574 3.9999999999999982
    vertex 5.007993032081954 3.8974468309437684 3.9999999999999982
  endloop
endfacet
facet normal 0.0 0.0 1.0
  outer loop
    vertex 28.06739091552991 4.123072109413303 3.9999999999999982
    vertex 5.007993032081954 3.8974468309437684 3.9999999999999982
    vertex 28.046860363342237 3.8628282932548177 3.9999999999999982
  endloop
endfacet
facet normal 0.0 0.0 1.0
  outer loop
    vertex 28.046860363342237 3.8628282932548177 3.9999999999999982
    vertex 5.007993032081954 3.8974468309437684 3.9999999999999982
    vertex 4.969386775068307 3.639264909924388 3.9999999999999982
  endloop
endfacet
facet normal 0.0 0.0 1.0
  outer loop
    vertex 28.046860363342237 3.8628282932548177 3.9999999999999982
    vertex 4.969386775068307 3.639264909924388 3.9999999999999982
    vertex 28.094385428748165 3.6061383721826767 3.9999999999999982
  endloop
endfacet
facet normal 0.0 0.0 1.0
  outer loop
    vertex 28.094385428748165 3.6061383721826767 3.9999999999999982
    vertex 4.969386775068307 3.639264909924388 3.9999999999999982
    vertex 4.8652735961015035 3.3998723591060984 3.9999999999999982
  endloop
endfacet
facet normal 0.0 0.0 1.0
  outer loop
    vertex 28.094385428748165 3.6061383721826767 3.9999999999999982
    vertex 4.8652735961015035 3.3998723591060984 3.9999999999999982
    vertex 28.206727357079167 3.3704953401177753 3.9999999999999982
  endloop
endfacet
facet normal 0.0 0.0 1.0
  outer loop
    vertex 28.206727357079167 3.3704953401177753 3.9999999999999982
    vertex 4.8652735961015035 3.3998723591060984 3.9999999999999982
    vertex 4.702748636272964 3.1955833852122635 3.9999999999999982
  endloop
endfacet
facet normal 0.0 0.0 1.0
  outer loop
    vertex 28.206727357079167 3.3704953401177753 3.9999999999999982
    vertex 4.702748636272964 3.1955833852122635 3.9999999999999982
    vertex 28.37623023157329 3.1719578802768376 3.9999999999999982
  endloop
endfacet
facet normal 0.0 0.0 1.0
  outer loop
    vertex 28.37623023157329 3.1719578802768376 3.9999999999999982
    vertex 4.702748636272964 3.1955833852122635 3.9999999999999982
    vertex 4.492887703009808 3.0403199442102644 3.9999999999999982
  endloop
endfacet
facet normal 0.0 0.0 1.0
  outer loop
    vertex 28.37623023157329 3.1719578802768376 3.9999999999999982
    vertex 4.492887703009808 3.0403199442102644 3.9999999999999982
    vertex 28.59134271145051 3.0240559924493566 3.9999999999999982
  endloop
endfacet
facet normal 0.0 0.0 1.0
  outer loop
    vertex 28.59134271145051 3.0240559924493566 3.9999999999999982
    vertex 4.492887703009808 3.0403199442102644 3.9999999999999982
    vertex 4.249992472102332 2.944662983019423 3.9999999999999982
  endloop
endfacet
facet normal 0.0 0.0 1.0
  outer loop
    vertex 28.59134271145051 3.0240559924493566 3.9999999999999982
    vertex 4.249992472102332 2.944662983019423 3.9999999999999982
    vertex 28.837405236697375 2.93686894587133 3.9999999999999982
  endloop
endfacet
facet normal 0.0 0.0 1.0
  outer loop
    vertex 28.837405236697375 2.93686894587133 3.9999999999999982
    vertex 4.249992472102332 2.944662983019423 3.9999999999999982
    vertex 3.990615852133531 2.915131365464281 3.9999999999999982
  endloop
endfacet
facet normal 0.0 0.0 1.0
  outer loop
    vertex 28.837405236697375 2.93686894587133 3.9999999999999982
    vertex 3.990615852133531 2.915131365464281 3.9999999999999982
    vertex 29.097649052855868 2.916338393683658 3.9999999999999982
  endloop
endfacet
facet normal 0.0 0.0 1.0
  outer loop
    vertex 0.0786883567609238 4.743276481063342 3.9999999999999982
    vertex 4.025677566602467 4.914824010892197 3.9999999999999982
    vertex 0.4264103417490764 5.727889592851785 3.9999999999999982
  endloop
endfacet
facet normal 0.0 0.0 1.0
  outer loop
    vertex 4.025677566602467 4.914824010892197 3.9999999999999982
    vertex 0.0786883567609238 4.743276481063342 3.9999999999999982
    vertex 3.766300946633666 4.885292393337056 3.9999999999999982
  endloop
endfacet
facet normal 0.0 0.0 1.0
  outer loop
    vertex 3.766300946633666 4.885292393337056 3.9999999999999982
    vertex 0.0786883567609238 4.743276481063342 3.9999999999999982
    vertex 3.52340571572619 4.789635432146214 3.9999999999999982
  endloop
endfacet
facet normal 0.0 0.0 1.0
  outer loop
    vertex 3.52340571572619 4.789635432146214 3.9999999999999982
    vertex 0.0786883567609238 4.743276481063342 3.9999999999999982
    vertex 3.3135447824630346 4.634371991144215 3.9999999999999982
  endloop
endfacet
facet normal 0.0 0.0 1.0
  outer loop
    vertex 3.3135447824630346 4.634371991144215 3.9999999999999982
    vertex 0.0786883567609238 4.743276481063342 3.9999999999999982
    vertex -0.0023486635191259353 3.702216175368259 3.9999999999999982
  endloop
endfacet
facet normal 0.0 0.0 1.0
  outer loop
    vertex 3.3135447824630346 4.634371991144215 3.9999999999999982
    vertex -0.0023486635191259353 3.702216175368259 3.9999999999999982
    vertex 3.1510198226344954 4.4300830172503805 3.9999999999999982
  endloop
endfacet
facet normal 0.0 0.0 1.0
  outer loop
    vertex 3.1510198226344954 4.4300830172503805 3.9999999999999982
    vertex -0.0023486635191259353 3.702216175368259 3.9999999999999982
    vertex 3.0469066436676906 4.19069046643209 3.9999999999999982
  endloop
endfacet
facet normal 0.0 0.0 1.0
  outer loop
    vertex 3.0469066436676906 4.19069046643209 3.9999999999999982
    vertex -0.0023486635191259353 3.702216175368259 3.9999999999999982
    vertex 3.008300386654044 3.93250854541271 3.9999999999999982
  endloop
endfacet
facet normal 0.0 0.0 1.0
  outer loop
    vertex 3.008300386654044 3.93250854541271 3.9999999999999982
    vertex -0.0023486635191259353 3.702216175368259 3.9999999999999982
    vertex 3.0378320042091826 3.6731319254439048 3.9999999999999982
  endloop
endfacet
facet normal 0.0 0.0 1.0
  outer loop
    vertex 3.0378320042091826 3.6731319254439048 3.9999999999999982
    vertex -0.0023486635191259353 3.702216175368259 3.9999999999999982
    vertex 0.18882181992100217 2.6756552151661426 3.9999999999999982
  endloop
endfacet
facet normal 0.0 0.0 1.0
  outer loop
    vertex 3.0378320042091826 3.6731319254439048 3.9999999999999982
    vertex 0.18882181992100217 2.6756552151661426 3.9999999999999982
    vertex 3.133488965400027 3.430236694536433 3.9999999999999982
  endloop
endfacet
facet normal 0.0 0.0 1.0
  outer loop
    vertex 3.133488965400027 3.430236694536433 3.9999999999999982
    vertex 0.18882181992100217 2.6756552151661426 3.9999999999999982
    vertex 3.2887524064020233 3.220375761273273 3.9999999999999982
  endloop
endfacet
facet normal 0.0 0.0 1.0
  outer loop
    vertex 3.2887524064020233 3.220375761273273 3.9999999999999982
    vertex 0.18882181992100217 2.6756552151661426 3.9999999999999982
    vertex 3.4930413802958538 3.057850801444735 3.9999999999999982
  endloop
endfacet
facet normal 0.0 0.0 1.0
  outer loop
    vertex 3.4930413802958538 3.057850801444735 3.9999999999999982
    vertex 0.18882181992100217 2.6756552151661426 3.9999999999999982
    vertex 3.7324339311141466 2.953737622477929 3.9999999999999982
  endloop
endfacet
facet normal 0.0 0.0 1.0
  outer loop
    vertex 3.7324339311141466 2.953737622477929 3.9999999999999982
    vertex 0.18882181992100217 2.6756552151661426 3.9999999999999982
    vertex 3.990615852133531 2.915131365464281 3.9999999999999982
  endloop
endfacet
facet normal 0.0 0.0 1.0
  outer loop
    vertex 3.990615852133531 2.915131365464281 3.9999999999999982
    vertex 0.18882181992100217 2.6756552151661426 3.9999999999999982
    vertex 32.86833388885714 2.737814563744373 3.9999999999999982
  endloop
endfacet
facet normal 0.0 0.0 1.0
  outer loop
    vertex 32.86833388885714 2.737814563744373 3.9999999999999982
    vertex 0.18882181992100217 2.6756552151661426 3.9999999999999982
    vertex 32.4334007307735 1.7884954884334312 3.9999999999999982
  endloop
endfacet
facet normal 0.0 0.0 1.0
  outer loop
    vertex 32.4334007307735 1.7884954884334312 3.9999999999999982
    vertex 0.18882181992100217 2.6756552151661426 3.9999999999999982
    vertex 0.6391718545590258 1.7335520334225811 3.9999999999999982
  endloop
endfacet
facet normal 0.0 0.0 1.0
  outer loop
    vertex 32.4334007307735 1.7884954884334312 3.9999999999999982
    vertex 0.6391718545590258 1.7335520334225811 3.9999999999999982
    vertex 31.76758570410147 0.9840926608603783 3.9999999999999982
  endloop
endfacet
facet normal 0.0 0.0 1.0
  outer loop
    vertex 31.76758570410147 0.9840926608603783 3.9999999999999982
    vertex 0.6391718545590258 1.7335520334225811 3.9999999999999982
    vertex 1.3180108297729853 0.9401094050742717 3.9999999999999982
  endloop
endfacet
facet normal 0.0 0.0 1.0
  outer loop
    vertex 31.76758570410147 0.9840926608603783 3.9999999999999982
    vertex 1.3180108297729853 0.9401094050742717 3.9999999999999982
    vertex 30.916263002597386 0.37942480438577153 3.9999999999999982
  endloop
endfacet
facet normal 0.0 0.0 1.0
  outer loop
    vertex 30.916263002597386 0.37942480438577153 3.9999999999999982
    vertex 1.3180108297729853 0.9401094050742717 3.9999999999999982
    vertex 2.179076991236497 0.3493991340172126 3.9999999999999982
  endloop
endfacet
facet normal 0.0 0.0 1.0
  outer loop
    vertex 30.916263002597386 0.37942480438577153 3.9999999999999982
    vertex 2.179076991236497 0.3493991340172126 3.9999999999999982
    vertex 29.937448861491458 0.01569903416748113 3.9999999999999982
  endloop
endfacet
facet normal 0.0 0.0 1.0
  outer loop
    vertex 29.937448861491458 0.01569903416748113 3.9999999999999982
    vertex 2.179076991236497 0.3493991340172126 3.9999999999999982
    vertex 3.1636901030249356 0.001677149029055025 3.9999999999999982
  endloop
endfacet
facet normal 0.0 0.0 1.0
  outer loop
    vertex 29.937448861491458 0.01569903416748113 3.9999999999999982
    vertex 3.1636901030249356 0.001677149029055025 3.9999999999999982
    vertex 28.897847846933214 -0.082297339639364 3.9999999999999982
  endloop
endfacet
facet normal 0.0 0.0 1.0
  outer loop
    vertex 28.897847846933214 -0.082297339639364 3.9999999999999982
    vertex 3.1636901030249356 0.001677149029055025 3.9999999999999982
    vertex 4.20475040872002 -0.0793598712509947 3.9999999999999982
  endloop
endfacet
facet normal 0.0 0.0 1.0
  outer loop
    vertex 3.7792273831001206 7.909315247607412 3.9999999999999982
    vertex 30.222633299006258 7.737841402558608 3.9999999999999982
    vertex 29.193092502115938 7.912252716091468 3.9999999999999982
  endloop
endfacet
facet normal 0.0 0.0 1.0
  outer loop
    vertex 30.222633299006258 7.737841402558608 3.9999999999999982
    vertex 3.7792273831001206 7.909315247607412 3.9999999999999982
    vertex 2.7526664228980087 7.718144764167278 3.9999999999999982
  endloop
endfacet
facet normal 0.0 0.0 1.0
  outer loop
    vertex 30.222633299006258 7.737841402558608 3.9999999999999982
    vertex 2.7526664228980087 7.718144764167278 3.9999999999999982
    vertex 31.171952374317193 7.302908244474974 3.9999999999999982
  endloop
endfacet
facet normal 0.0 0.0 1.0
  outer loop
    vertex 31.171952374317193 7.302908244474974 3.9999999999999982
    vertex 2.7526664228980087 7.718144764167278 3.9999999999999982
    vertex 1.810563241154448 7.267794729529253 3.9999999999999982
  endloop
endfacet
facet normal 0.0 0.0 1.0
  outer loop
    vertex 31.171952374317193 7.302908244474974 3.9999999999999982
    vertex 1.810563241154448 7.267794729529253 3.9999999999999982
    vertex 31.976355201890254 6.637093217802944 3.9999999999999982
  endloop
endfacet
facet normal 0.0 0.0 1.0
  outer loop
    vertex 31.976355201890254 6.637093217802944 3.9999999999999982
    vertex 1.810563241154448 7.267794729529253 3.9999999999999982
    vertex 1.0171206128061365 6.588955754315296 3.9999999999999982
  endloop
endfacet
facet normal 0.0 0.0 1.0
  outer loop
    vertex 31.976355201890254 6.637093217802944 3.9999999999999982
    vertex 1.0171206128061365 6.588955754315296 3.9999999999999982
    vertex 32.58102305836486 5.785770516298858 3.9999999999999982
  endloop
endfacet
facet normal 0.0 0.0 1.0
  outer loop
    vertex 32.58102305836486 5.785770516298858 3.9999999999999982
    vertex 1.0171206128061365 6.588955754315296 3.9999999999999982
    vertex 0.4264103417490764 5.727889592851785 3.9999999999999982
  endloop
endfacet
facet normal 0.0 0.0 1.0
  outer loop
    vertex 32.58102305836486 5.785770516298858 3.9999999999999982
    vertex 0.4264103417490764 5.727889592851785 3.9999999999999982
    vertex 32.944748828583144 4.806956375192935 3.9999999999999982
  endloop
endfacet
facet normal 0.0 0.0 1.0
  outer loop
    vertex 32.944748828583144 4.806956375192935 3.9999999999999982
    vertex 0.4264103417490764 5.727889592851785 3.9999999999999982
    vertex 28.993350262913395 4.9136169827684455 3.9999999999999982
  endloop
endfacet
facet normal 0.0 0.0 1.0
  outer loop
    vertex 28.993350262913395 4.9136169827684455 3.9999999999999982
    vertex 0.4264103417490764 5.727889592851785 3.9999999999999982
    vertex 4.025677566602467 4.914824010892197 3.9999999999999982
  endloop
endfacet
facet normal 0.0 0.0 1.0
  outer loop
    vertex 32.944748828583144 4.806956375192935 3.9999999999999982
    vertex 28.993350262913395 4.9136169827684455 3.9999999999999982
    vertex 29.25359407907189 4.893086430580774 3.9999999999999982
  endloop
endfacet
facet normal 0.0 0.0 1.0
  outer loop
    vertex 32.944748828583144 4.806956375192935 3.9999999999999982
    vertex 29.25359407907189 4.893086430580774 3.9999999999999982
    vertex 29.499656604318755 4.805899384002747 3.9999999999999982
  endloop
endfacet
facet normal 0.0 0.0 1.0
  outer loop
    vertex 32.944748828583144 4.806956375192935 3.9999999999999982
    vertex 29.499656604318755 4.805899384002747 3.9999999999999982
    vertex 33.042745202389995 3.7673553606346926 3.9999999999999982
  endloop
endfacet
facet normal 0.0 0.0 1.0
  outer loop
    vertex 33.042745202389995 3.7673553606346926 3.9999999999999982
    vertex 29.499656604318755 4.805899384002747 3.9999999999999982
    vertex 29.714769084195975 4.657997496175266 3.9999999999999982
  endloop
endfacet
facet normal 0.0 0.0 1.0
  outer loop
    vertex 33.042745202389995 3.7673553606346926 3.9999999999999982
    vertex 29.714769084195975 4.657997496175266 3.9999999999999982
    vertex 29.884271958690096 4.459460036334328 3.9999999999999982
  endloop
endfacet
facet normal 0.0 0.0 1.0
  outer loop
    vertex 33.042745202389995 3.7673553606346926 3.9999999999999982
    vertex 29.884271958690096 4.459460036334328 3.9999999999999982
    vertex 29.9966138870211 4.223817004269427 3.9999999999999982
  endloop
endfacet
facet normal 0.0 0.0 1.0
  outer loop
    vertex 33.042745202389995 3.7673553606346926 3.9999999999999982
    vertex 29.9966138870211 4.223817004269427 3.9999999999999982
    vertex 30.044138952427026 3.9671270831972865 3.9999999999999982
  endloop
endfacet
facet normal 0.0 0.0 1.0
  outer loop
    vertex 33.042745202389995 3.7673553606346926 3.9999999999999982
    vertex 30.044138952427026 3.9671270831972865 3.9999999999999982
    vertex 30.023608400239354 3.7068832670388003 3.9999999999999982
  endloop
endfacet
facet normal 0.0 0.0 1.0
  outer loop
    vertex 33.042745202389995 3.7673553606346926 3.9999999999999982
    vertex 30.023608400239354 3.7068832670388003 3.9999999999999982
    vertex 32.86833388885714 2.737814563744373 3.9999999999999982
  endloop
endfacet
facet normal 0.0 0.0 1.0
  outer loop
    vertex 32.86833388885714 2.737814563744373 3.9999999999999982
    vertex 30.023608400239354 3.7068832670388003 3.9999999999999982
    vertex 29.93642135366133 3.460820741791935 3.9999999999999982
  endloop
endfacet
facet normal 0.0 0.0 1.0
  outer loop
    vertex 32.86833388885714 2.737814563744373 3.9999999999999982
    vertex 29.93642135366133 3.460820741791935 3.9999999999999982
    vertex 29.78851946583384 3.2457082619147046 3.9999999999999982
  endloop
endfacet
facet normal 0.0 0.0 1.0
  outer loop
    vertex 32.86833388885714 2.737814563744373 3.9999999999999982
    vertex 29.78851946583384 3.2457082619147046 3.9999999999999982
    vertex 29.5899820059929 3.0762053874205795 3.9999999999999982
  endloop
endfacet
facet normal 0.0 0.0 1.0
  outer loop
    vertex 32.86833388885714 2.737814563744373 3.9999999999999982
    vertex 29.5899820059929 3.0762053874205795 3.9999999999999982
    vertex 29.35433897392801 2.963863459089586 3.9999999999999982
  endloop
endfacet
facet normal 0.0 0.0 1.0
  outer loop
    vertex 32.86833388885714 2.737814563744373 3.9999999999999982
    vertex 29.35433897392801 2.963863459089586 3.9999999999999982
    vertex 29.097649052855868 2.916338393683658 3.9999999999999982
  endloop
endfacet
facet normal 0.0 0.0 1.0
  outer loop
    vertex 32.86833388885714 2.737814563744373 3.9999999999999982
    vertex 29.097649052855868 2.916338393683658 3.9999999999999982
    vertex 3.990615852133531 2.915131365464281 3.9999999999999982
  endloop
endfacet
facet normal -0.5947597120593348 0.803903529604826 0.0
  outer loop
    vertex 4.702748636272964 3.1955833852122635 3.9999999999999982
    vertex 4.492887703009808 3.0403199442102644 0.0
    vertex 4.492887703009808 3.0403199442102644 3.9999999999999982
  endloop
endfacet
facet normal -0.5947597120593348 0.803903529604826 0.0
  outer loop
    vertex 4.492887703009808 3.0403199442102644 0.0
    vertex 4.702748636272964 3.1955833852122635 3.9999999999999982
    vertex 4.702748636272964 3.1955833852122635 0.0
  endloop
endfacet
facet normal 0.5947597120593348 -0.803903529604826 0.0
  outer loop
    vertex 3.52340571572619 4.789635432146214 0.0
    vertex 3.3135447824630346 4.634371991144215 3.9999999999999982
    vertex 3.3135447824630346 4.634371991144215 0.0
  endloop
endfacet
facet normal 0.5947597120593348 -0.803903529604826 0.0
  outer loop
    vertex 3.3135447824630346 4.634371991144215 3.9999999999999982
    vertex 3.52340571572619 4.789635432146214 0.0
    vertex 3.52340571572619 4.789635432146214 3.9999999999999982
  endloop
endfacet
facet normal 0.8039035296048369 0.59475971205932 0.0
  outer loop
    vertex 3.133488965400027 3.430236694536433 3.9999999999999982
    vertex 3.2887524064020233 3.220375761273273 0.0
    vertex 3.133488965400027 3.430236694536433 0.0
  endloop
endfacet
facet normal 0.8039035296048369 0.59475971205932 0.0
  outer loop
    vertex 3.2887524064020233 3.220375761273273 0.0
    vertex 3.133488965400027 3.430236694536433 3.9999999999999982
    vertex 3.2887524064020233 3.220375761273273 3.9999999999999982
  endloop
endfacet
facet normal 0.9935807348594231 0.1131252549884818 0.0
  outer loop
    vertex 3.008300386654044 3.93250854541271 3.9999999999999982
    vertex 3.0378320042091826 3.6731319254439048 0.0
    vertex 3.008300386654044 3.93250854541271 0.0
  endloop
endfacet
facet normal 0.9935807348594231 0.1131252549884818 0.0
  outer loop
    vertex 3.0378320042091826 3.6731319254439048 0.0
    vertex 3.008300386654044 3.93250854541271 3.9999999999999982
    vertex 3.0378320042091826 3.6731319254439048 3.9999999999999982
  endloop
endfacet
facet normal 0.7825593102012313 -0.6225760403495894 0.0
  outer loop
    vertex 3.3135447824630346 4.634371991144215 3.9999999999999982
    vertex 3.1510198226344954 4.4300830172503805 0.0
    vertex 3.3135447824630346 4.634371991144215 0.0
  endloop
endfacet
facet normal 0.7825593102012313 -0.6225760403495894 0.0
  outer loop
    vertex 3.1510198226344954 4.4300830172503805 0.0
    vertex 3.3135447824630346 4.634371991144215 3.9999999999999982
    vertex 3.1510198226344954 4.4300830172503805 3.9999999999999982
  endloop
endfacet
facet normal -0.11312525498849425 0.9935807348594216 0.0
  outer loop
    vertex 4.249992472102332 2.944662983019423 3.9999999999999982
    vertex 3.990615852133531 2.915131365464281 0.0
    vertex 3.990615852133531 2.915131365464281 3.9999999999999982
  endloop
endfacet
facet normal -0.11312525498849425 0.9935807348594216 0.0
  outer loop
    vertex 3.990615852133531 2.915131365464281 0.0
    vertex 4.249992472102332 2.944662983019423 3.9999999999999982
    vertex 4.249992472102332 2.944662983019423 0.0
  endloop
endfacet
facet normal 0.9890042627770851 -0.14788701162967124 0.0
  outer loop
    vertex 3.0469066436676906 4.19069046643209 3.9999999999999982
    vertex 3.008300386654044 3.93250854541271 0.0
    vertex 3.0469066436676906 4.19069046643209 0.0
  endloop
endfacet
facet normal 0.9890042627770851 -0.14788701162967124 0.0
  outer loop
    vertex 3.008300386654044 3.93250854541271 0.0
    vertex 3.0469066436676906 4.19069046643209 3.9999999999999982
    vertex 3.008300386654044 3.93250854541271 3.9999999999999982
  endloop
endfacet
facet normal 0.1478870116296742 0.9890042627770846 0.0
  outer loop
    vertex 3.990615852133531 2.915131365464281 3.9999999999999982
    vertex 3.7324339311141466 2.953737622477929 0.0
    vertex 3.7324339311141466 2.953737622477929 3.9999999999999982
  endloop
endfacet
facet normal 0.1478870116296742 0.9890042627770846 0.0
  outer loop
    vertex 3.7324339311141466 2.953737622477929 0.0
    vertex 3.990615852133531 2.915131365464281 3.9999999999999982
    vertex 3.990615852133531 2.915131365464281 0.0
  endloop
endfacet
facet normal 0.9304463218308863 0.3664282224274968 0.0
  outer loop
    vertex 3.0378320042091826 3.6731319254439048 3.9999999999999982
    vertex 3.133488965400027 3.430236694536433 0.0
    vertex 3.0378320042091826 3.6731319254439048 0.0
  endloop
endfacet
facet normal 0.9304463218308863 0.3664282224274968 0.0
  outer loop
    vertex 3.133488965400027 3.430236694536433 0.0
    vertex 3.0378320042091826 3.6731319254439048 3.9999999999999982
    vertex 3.133488965400027 3.430236694536433 3.9999999999999982
  endloop
endfacet
facet normal 0.6225760403495939 0.7825593102012275 0.0
  outer loop
    vertex 3.4930413802958538 3.057850801444735 3.9999999999999982
    vertex 3.2887524064020233 3.220375761273273 0.0
    vertex 3.2887524064020233 3.220375761273273 3.9999999999999982
  endloop
endfacet
facet normal 0.6225760403495939 0.7825593102012275 0.0
  outer loop
    vertex 3.2887524064020233 3.220375761273273 0.0
    vertex 3.4930413802958538 3.057850801444735 3.9999999999999982
    vertex 3.4930413802958538 3.057850801444735 0.0
  endloop
endfacet
facet normal -0.36642822242748185 0.9304463218308919 0.0
  outer loop
    vertex 4.492887703009808 3.0403199442102644 3.9999999999999982
    vertex 4.249992472102332 2.944662983019423 0.0
    vertex 4.249992472102332 2.944662983019423 3.9999999999999982
  endloop
endfacet
facet normal -0.36642822242748185 0.9304463218308919 0.0
  outer loop
    vertex 4.249992472102332 2.944662983019423 0.0
    vertex 4.492887703009808 3.0403199442102644 3.9999999999999982
    vertex 4.492887703009808 3.0403199442102644 0.0
  endloop
endfacet
facet normal 0.9170287845933103 -0.3988210228000979 0.0
  outer loop
    vertex 3.1510198226344954 4.4300830172503805 3.9999999999999982
    vertex 3.0469066436676906 4.19069046643209 0.0
    vertex 3.1510198226344954 4.4300830172503805 0.0
  endloop
endfacet
facet normal 0.9170287845933103 -0.3988210228000979 0.0
  outer loop
    vertex 3.0469066436676906 4.19069046643209 0.0
    vertex 3.1510198226344954 4.4300830172503805 3.9999999999999982
    vertex 3.0469066436676906 4.19069046643209 3.9999999999999982
  endloop
endfacet
facet normal 0.3988210228000987 0.91702878459331 0.0
  outer loop
    vertex 3.7324339311141466 2.953737622477929 3.9999999999999982
    vertex 3.4930413802958538 3.057850801444735 0.0
    vertex 3.4930413802958538 3.057850801444735 3.9999999999999982
  endloop
endfacet
facet normal 0.3988210228000987 0.91702878459331 0.0
  outer loop
    vertex 3.4930413802958538 3.057850801444735 0.0
    vertex 3.7324339311141466 2.953737622477929 3.9999999999999982
    vertex 3.7324339311141466 2.953737622477929 0.0
  endloop
endfacet
facet normal 0.43034247157689437 -0.9026656951258811 0.0
  outer loop
    vertex 28.736660341841247 4.8660919173625174 0.0
    vertex 28.50101730977636 4.753749989031523 3.9999999999999982
    vertex 28.50101730977636 4.753749989031523 0.0
  endloop
endfacet
facet normal 0.43034247157689437 -0.9026656951258811 0.0
  outer loop
    vertex 28.50101730977636 4.753749989031523 3.9999999999999982
    vertex 28.736660341841247 4.8660919173625174 0.0
    vertex 28.736660341841247 4.8660919173625174 3.9999999999999982
  endloop
endfacet
facet normal 0.6493059807044855 -0.7605272798666636 0.0
  outer loop
    vertex 28.50101730977636 4.753749989031523 0.0
    vertex 28.302479849935423 4.584247114537399 3.9999999999999982
    vertex 28.302479849935423 4.584247114537399 0.0
  endloop
endfacet
facet normal 0.6493059807044855 -0.7605272798666636 0.0
  outer loop
    vertex 28.302479849935423 4.584247114537399 3.9999999999999982
    vertex 28.50101730977636 4.753749989031523 0.0
    vertex 28.50101730977636 4.753749989031523 3.9999999999999982
  endloop
endfacet
facet normal -0.5665601873152787 -0.8240203602759317 0.0
  outer loop
    vertex 29.714769084195975 4.657997496175266 0.0
    vertex 29.499656604318755 4.805899384002747 3.9999999999999982
    vertex 29.499656604318755 4.805899384002747 0.0
  endloop
endfacet
facet normal -0.5665601873152787 -0.8240203602759317 0.0
  outer loop
    vertex 29.499656604318755 4.805899384002747 3.9999999999999982
    vertex 29.714769084195975 4.657997496175266 0.0
    vertex 29.714769084195975 4.657997496175266 3.9999999999999982
  endloop
endfacet
facet normal 0.8240203602759256 -0.5665601873152879 0.0
  outer loop
    vertex 28.302479849935423 4.584247114537399 3.9999999999999982
    vertex 28.154577962107933 4.369134634660169 0.0
    vertex 28.302479849935423 4.584247114537399 0.0
  endloop
endfacet
facet normal 0.8240203602759256 -0.5665601873152879 0.0
  outer loop
    vertex 28.154577962107933 4.369134634660169 0.0
    vertex 28.302479849935423 4.584247114537399 3.9999999999999982
    vertex 28.154577962107933 4.369134634660169 3.9999999999999982
  endloop
endfacet
facet normal 0.18205183418591925 -0.9832889349878512 0.0
  outer loop
    vertex 28.993350262913395 4.9136169827684455 0.0
    vertex 28.736660341841247 4.8660919173625174 3.9999999999999982
    vertex 28.736660341841247 4.8660919173625174 0.0
  endloop
endfacet
facet normal 0.18205183418591925 -0.9832889349878512 0.0
  outer loop
    vertex 28.736660341841247 4.8660919173625174 3.9999999999999982
    vertex 28.993350262913395 4.9136169827684455 0.0
    vertex 28.993350262913395 4.9136169827684455 3.9999999999999982
  endloop
endfacet
facet normal -0.33398295428338165 -0.9425791140525791 0.0
  outer loop
    vertex 29.499656604318755 4.805899384002747 0.0
    vertex 29.25359407907189 4.893086430580774 3.9999999999999982
    vertex 29.25359407907189 4.893086430580774 0.0
  endloop
endfacet
facet normal -0.33398295428338165 -0.9425791140525791 0.0
  outer loop
    vertex 29.25359407907189 4.893086430580774 3.9999999999999982
    vertex 29.499656604318755 4.805899384002747 0.0
    vertex 29.499656604318755 4.805899384002747 3.9999999999999982
  endloop
endfacet
facet normal -0.07864533484995773 -0.9969026588922001 0.0
  outer loop
    vertex 29.25359407907189 4.893086430580774 0.0
    vertex 28.993350262913395 4.9136169827684455 3.9999999999999982
    vertex 28.993350262913395 4.9136169827684455 0.0
  endloop
endfacet
facet normal -0.07864533484995773 -0.9969026588922001 0.0
  outer loop
    vertex 28.993350262913395 4.9136169827684455 3.9999999999999982
    vertex 29.25359407907189 4.893086430580774 0.0
    vertex 29.25359407907189 4.893086430580774 3.9999999999999982
  endloop
endfacet
endsolid lambda_part2
