solid lambda_part3
facet normal 0.0 0.0 -1.0
  outer loop
    vertex 5.690014812153734 14.789644892283276 0.0
    vertex 9.516653420406696 16.94885439890844 0.0
    vertex 9.777565402377718 16.940293728034284 0.0
  endloop
endfacet
facet normal 0.0 0.0 -1.0
  outer loop
    vertex 9.516653420406696 16.94885439890844 0.0
    vertex 5.690014812153734 14.789644892283276 0.0
    vertex 5.684883866814098 17.729457035544502 0.0
  endloop
endfacet
facet normal 0.0 0.0 -1.0
  outer loop
    vertex 9.516653420406696 16.94885439890844 0.0
    vertex 5.684883866814098 17.729457035544502 0.0
    vertex 9.266847463293702 17.02465236202568 0.0
  endloop
endfacet
facet normal 0.0 0.0 -1.0
  outer loop
    vertex 9.266847463293702 17.02465236202568 0.0
    vertex 5.684883866814098 17.729457035544502 0.0
    vertex 9.045171394192128 17.16252211146166 0.0
  endloop
endfacet
facet normal 0.0 0.0 -1.0
  outer loop
    vertex 9.045171394192128 17.16252211146166 0.0
    vertex 5.684883866814098 17.729457035544502 0.0
    vertex 8.86673207087422 17.353068051632818 0.0
  endloop
endfacet
facet normal 0.0 0.0 -1.0
  outer loop
    vertex 8.86673207087422 17.353068051632818 0.0
    vertex 5.684883866814098 17.729457035544502 0.0
    vertex 8.743689838339165 17.583304791608533 0.0
  endloop
endfacet
facet normal 0.0 0.0 -1.0
  outer loop
    vertex 8.743689838339165 17.583304791608533 0.0
    vertex 5.684883866814098 17.729457035544502 0.0
    vertex 8.684429821397329 17.837542078043697 0.0
  endloop
endfacet
facet normal 0.0 0.0 -1.0
  outer loop
    vertex 8.684429821397329 17.837542078043697 0.0
    vertex 5.684883866814098 17.729457035544502 0.0
    vertex 5.767924069503033 18.770359472609186 0.0
  endloop
endfacet
facet normal 0.0 0.0 -1.0
  outer loop
    vertex 8.684429821397329 17.837542078043697 0.0
    vertex 5.767924069503033 18.770359472609186 0.0
    vertex 8.692990492271486 18.098454060014735 0.0
  endloop
endfacet
facet normal 0.0 0.0 -1.0
  outer loop
    vertex 8.692990492271486 18.098454060014735 0.0
    vertex 5.767924069503033 18.770359472609186 0.0
    vertex 8.768788455388739 18.34826001712772 0.0
  endloop
endfacet
facet normal 0.0 0.0 -1.0
  outer loop
    vertex 8.768788455388739 18.34826001712772 0.0
    vertex 5.767924069503033 18.770359472609186 0.0
    vertex 8.906658204824707 18.5699360862293 0.0
  endloop
endfacet
facet normal 0.0 0.0 -1.0
  outer loop
    vertex 8.906658204824707 18.5699360862293 0.0
    vertex 5.767924069503033 18.770359472609186 0.0
    vertex 9.097204144995864 18.748375409547208 0.0
  endloop
endfacet
facet normal 0.0 0.0 -1.0
  outer loop
    vertex 9.097204144995864 18.748375409547208 0.0
    vertex 5.767924069503033 18.770359472609186 0.0
    vertex 9.327440884971596 18.871417642082264 0.0
  endloop
endfacet
facet normal 0.0 0.0 -1.0
  outer loop
    vertex 9.327440884971596 18.871417642082264 0.0
    vertex 5.767924069503033 18.770359472609186 0.0
    vertex 6.117540120706521 19.754301633252126 0.0
  endloop
endfacet
facet normal 0.0 0.0 -1.0
  outer loop
    vertex 9.327440884971596 18.871417642082264 0.0
    vertex 6.117540120706521 19.754301633252126 0.0
    vertex 9.58167817140676 18.93067765902409 0.0
  endloop
endfacet
facet normal 0.0 0.0 -1.0
  outer loop
    vertex 9.58167817140676 18.93067765902409 0.0
    vertex 6.117540120706521 19.754301633252126 0.0
    vertex 13.485168338374274 19.16653344408625 0.0
  endloop
endfacet
facet normal 0.0 0.0 -1.0
  outer loop
    vertex 13.485168338374274 19.16653344408625 0.0
    vertex 6.117540120706521 19.754301633252126 0.0
    vertex 13.03663204490596 20.109501498789864 0.0
  endloop
endfacet
facet normal 0.0 0.0 -1.0
  outer loop
    vertex 13.03663204490596 20.109501498789864 0.0
    vertex 6.117540120706521 19.754301633252126 0.0
    vertex 6.709906264302887 20.614229485266808 0.0
  endloop
endfacet
facet normal 0.0 0.0 -1.0
  outer loop
    vertex 13.03663204490596 20.109501498789864 0.0
    vertex 6.709906264302887 20.614229485266808 0.0
    vertex 12.359321163536372 20.90424896102436 0.0
  endloop
endfacet
facet normal 0.0 0.0 -1.0
  outer loop
    vertex 12.359321163536372 20.90424896102436 0.0
    vertex 6.709906264302887 20.614229485266808 0.0
    vertex 7.504653726537378 21.29154036663639 0.0
  endloop
endfacet
facet normal 0.0 0.0 -1.0
  outer loop
    vertex 12.359321163536372 20.90424896102436 0.0
    vertex 7.504653726537378 21.29154036663639 0.0
    vertex 11.499393311521692 21.49661510462073 0.0
  endloop
endfacet
facet normal 0.0 0.0 -1.0
  outer loop
    vertex 11.499393311521692 21.49661510462073 0.0
    vertex 7.504653726537378 21.29154036663639 0.0
    vertex 8.447621781240997 21.740076660104705 0.0
  endloop
endfacet
facet normal 0.0 0.0 -1.0
  outer loop
    vertex 11.499393311521692 21.49661510462073 0.0
    vertex 8.447621781240997 21.740076660104705 0.0
    vertex 10.515451150878754 21.84623115582422 0.0
  endloop
endfacet
facet normal 0.0 0.0 -1.0
  outer loop
    vertex 10.515451150878754 21.84623115582422 0.0
    vertex 8.447621781240997 21.740076660104705 0.0
    vertex 9.474548713814073 21.929271358513148 0.0
  endloop
endfacet
facet normal 0.0 0.0 -1.0
  outer loop
    vertex 3.152994312616146 3.332918461909261 0.0
    vertex 9.094145055747859 4.48687048395502 0.0
    vertex 10.007013799381093 4.448297011006517 0.0
  endloop
endfacet
facet normal 0.0 0.0 -1.0
  outer loop
    vertex 9.094145055747859 4.48687048395502 0.0
    vertex 3.152994312616146 3.332918461909261 0.0
    vertex 2.184989408587865 5.183448315971716 0.0
  endloop
endfacet
facet normal 0.0 0.0 -1.0
  outer loop
    vertex 9.094145055747859 4.48687048395502 0.0
    vertex 2.184989408587865 5.183448315971716 0.0
    vertex 8.222365109695282 4.760397414216744 0.0
  endloop
endfacet
facet normal 0.0 0.0 -1.0
  outer loop
    vertex 8.222365109695282 4.760397414216744 0.0
    vertex 2.184989408587865 5.183448315971716 0.0
    vertex 7.451084323862369 5.250237393518945 0.0
  endloop
endfacet
facet normal 0.0 0.0 -1.0
  outer loop
    vertex 7.451084323862369 5.250237393518945 0.0
    vertex 2.184989408587865 5.183448315971716 0.0
    vertex 1.7289208415746278 7.221460999244757 0.0
  endloop
endfacet
facet normal 0.0 0.0 -1.0
  outer loop
    vertex 7.451084323862369 5.250237393518945 0.0
    vertex 1.7289208415746278 7.221460999244757 0.0
    vertex 6.832864209201869 5.923008636771075 0.0
  endloop
endfacet
facet normal 0.0 0.0 -1.0
  outer loop
    vertex 6.832864209201869 5.923008636771075 0.0
    vertex 1.7289208415746278 7.221460999244757 0.0
    vertex 6.40983544487085 6.7328628955524925 0.0
  endloop
endfacet
facet normal 0.0 0.0 -1.0
  outer loop
    vertex 6.40983544487085 6.7328628955524925 0.0
    vertex 1.7289208415746278 7.221460999244757 0.0
    vertex 6.210826742070383 7.624609940474706 0.0
  endloop
endfacet
facet normal 0.0 0.0 -1.0
  outer loop
    vertex 6.210826742070383 7.624609940474706 0.0
    vertex 1.7289208415746278 7.221460999244757 0.0
    vertex 1.8158689307294467 9.308069315338491 0.0
  endloop
endfacet
facet normal 0.0 0.0 -1.0
  outer loop
    vertex 6.210826742070383 7.624609940474706 0.0
    vertex 1.8158689307294467 9.308069315338491 0.0
    vertex 6.249400215018889 8.537478684107947 0.0
  endloop
endfacet
facet normal 0.0 0.0 -1.0
  outer loop
    vertex 6.249400215018889 8.537478684107947 0.0
    vertex 1.8158689307294467 9.308069315338491 0.0
    vertex 6.522927145280604 9.409258630160503 0.0
  endloop
endfacet
facet normal 0.0 0.0 -1.0
  outer loop
    vertex 6.522927145280604 9.409258630160503 0.0
    vertex 1.8158689307294467 9.308069315338491 0.0
    vertex 2.4399083074649317 11.301074355794452 0.0
  endloop
endfacet
facet normal 0.0 0.0 -1.0
  outer loop
    vertex 6.522927145280604 9.409258630160503 0.0
    vertex 2.4399083074649317 11.301074355794452 0.0
    vertex 7.01276712458282 10.180539415993419 0.0
  endloop
endfacet
facet normal 0.0 0.0 -1.0
  outer loop
    vertex 7.01276712458282 10.180539415993419 0.0
    vertex 2.4399083074649317 11.301074355794452 0.0
    vertex 7.68553836783493 10.798759530653928 0.0
  endloop
endfacet
facet normal 0.0 0.0 -1.0
  outer loop
    vertex 7.68553836783493 10.798759530653928 0.0
    vertex 2.4399083074649317 11.301074355794452 0.0
    vertex 8.495392626616349 11.221788294984945 0.0
  endloop
endfacet
facet normal 0.0 0.0 -1.0
  outer loop
    vertex 8.495392626616349 11.221788294984945 0.0
    vertex 2.4399083074649317 11.301074355794452 0.0
    vertex 9.387139671538566 11.420796997785416 0.0
  endloop
endfacet
facet normal 0.0 0.0 -1.0
  outer loop
    vertex 9.387139671538566 11.420796997785416 0.0
    vertex 2.4399083074649317 11.301074355794452 0.0
    vertex 3.558511719530394 13.064656120702093 0.0
  endloop
endfacet
facet normal 0.0 0.0 -1.0
  outer loop
    vertex 9.387139671538566 11.420796997785416 0.0
    vertex 3.558511719530394 13.064656120702093 0.0
    vertex 16.24115915830351 12.536175546882694 0.0
  endloop
endfacet
facet normal 0.0 0.0 -1.0
  outer loop
    vertex 16.24115915830351 12.536175546882694 0.0
    vertex 3.558511719530394 13.064656120702093 0.0
    vertex 14.82718585176596 14.073112020325404 0.0
  endloop
endfacet
facet normal 0.0 0.0 -1.0
  outer loop
    vertex 14.82718585176596 14.073112020325404 0.0
    vertex 3.558511719530394 13.064656120702093 0.0
    vertex 5.095448192973116 14.478629427239651 0.0
  endloop
endfacet
facet normal 0.0 0.0 -1.0
  outer loop
    vertex 14.82718585176596 14.073112020325404 0.0
    vertex 5.095448192973116 14.478629427239651 0.0
    vertex 13.697320226289175 14.789762401375341 0.0
  endloop
endfacet
facet normal 0.0 0.0 -1.0
  outer loop
    vertex 13.697320226289175 14.789762401375341 0.0
    vertex 5.095448192973116 14.478629427239651 0.0
    vertex 5.690014812153734 14.789644892283276 0.0
  endloop
endfacet
facet normal 0.0 0.0 -1.0
  outer loop
    vertex 13.697320226289175 14.789762401375341 0.0
    vertex 5.690014812153734 14.789644892283276 0.0
    vertex 13.674363036782722 18.139606511513183 0.0
  endloop
endfacet
facet normal 0.0 0.0 -1.0
  outer loop
    vertex 13.674363036782722 18.139606511513183 0.0
    vertex 5.690014812153734 14.789644892283276 0.0
    vertex 10.031802688812883 16.99955374497611 0.0
  endloop
endfacet
facet normal 0.0 0.0 -1.0
  outer loop
    vertex 10.031802688812883 16.99955374497611 0.0
    vertex 5.690014812153734 14.789644892283276 0.0
    vertex 9.777565402377718 16.940293728034284 0.0
  endloop
endfacet
facet normal 0.0 0.0 -1.0
  outer loop
    vertex 13.674363036782722 18.139606511513183 0.0
    vertex 10.031802688812883 16.99955374497611 0.0
    vertex 10.262039428788613 17.122595977511168 0.0
  endloop
endfacet
facet normal 0.0 0.0 -1.0
  outer loop
    vertex 13.674363036782722 18.139606511513183 0.0
    vertex 10.262039428788613 17.122595977511168 0.0
    vertex 10.452585368959769 17.301035300829078 0.0
  endloop
endfacet
facet normal 0.0 0.0 -1.0
  outer loop
    vertex 13.674363036782722 18.139606511513183 0.0
    vertex 10.452585368959769 17.301035300829078 0.0
    vertex 10.590455118395736 17.522711369930658 0.0
  endloop
endfacet
facet normal 0.0 0.0 -1.0
  outer loop
    vertex 13.674363036782722 18.139606511513183 0.0
    vertex 10.590455118395736 17.522711369930658 0.0
    vertex 10.66625308151299 17.772517327043644 0.0
  endloop
endfacet
facet normal 0.0 0.0 -1.0
  outer loop
    vertex 13.674363036782722 18.139606511513183 0.0
    vertex 10.66625308151299 17.772517327043644 0.0
    vertex 10.674813752387147 18.033429309014675 0.0
  endloop
endfacet
facet normal 0.0 0.0 -1.0
  outer loop
    vertex 13.674363036782722 18.139606511513183 0.0
    vertex 10.674813752387147 18.033429309014675 0.0
    vertex 10.61555373544531 18.287666595449842 0.0
  endloop
endfacet
facet normal 0.0 0.0 -1.0
  outer loop
    vertex 13.674363036782722 18.139606511513183 0.0
    vertex 10.61555373544531 18.287666595449842 0.0
    vertex 13.485168338374274 19.16653344408625 0.0
  endloop
endfacet
facet normal 0.0 0.0 -1.0
  outer loop
    vertex 13.485168338374274 19.16653344408625 0.0
    vertex 10.61555373544531 18.287666595449842 0.0
    vertex 10.492511502910258 18.517903335425558 0.0
  endloop
endfacet
facet normal 0.0 0.0 -1.0
  outer loop
    vertex 13.485168338374274 19.16653344408625 0.0
    vertex 10.492511502910258 18.517903335425558 0.0
    vertex 10.314072179592346 18.70844927559672 0.0
  endloop
endfacet
facet normal 0.0 0.0 -1.0
  outer loop
    vertex 13.485168338374274 19.16653344408625 0.0
    vertex 10.314072179592346 18.70844927559672 0.0
    vertex 10.092396110490773 18.846319025032695 0.0
  endloop
endfacet
facet normal 0.0 0.0 -1.0
  outer loop
    vertex 13.485168338374274 19.16653344408625 0.0
    vertex 10.092396110490773 18.846319025032695 0.0
    vertex 9.842590153377783 18.92211698814993 0.0
  endloop
endfacet
facet normal 0.0 0.0 -1.0
  outer loop
    vertex 13.485168338374274 19.16653344408625 0.0
    vertex 9.842590153377783 18.92211698814993 0.0
    vertex 9.58167817140676 18.93067765902409 0.0
  endloop
endfacet
facet normal 0.0 0.0 -1.0
  outer loop
    vertex 8.323554424517301 0.053339199665591364 0.0
    vertex 12.448175423884084 0.422459677524005 0.0
    vertex 10.41016274061105 -0.033608889489246556 0.0
  endloop
endfacet
facet normal 0.0 0.0 -1.0
  outer loop
    vertex 12.448175423884084 0.422459677524005 0.0
    vertex 8.323554424517301 0.053339199665591364 0.0
    vertex 6.330549384061348 0.6773785764010746 0.0
  endloop
endfacet
facet normal 0.0 0.0 -1.0
  outer loop
    vertex 12.448175423884084 0.422459677524005 0.0
    vertex 6.330549384061348 0.6773785764010746 0.0
    vertex 14.298705277946548 1.3904645815522847 0.0
  endloop
endfacet
facet normal 0.0 0.0 -1.0
  outer loop
    vertex 14.298705277946548 1.3904645815522847 0.0
    vertex 6.330549384061348 0.6773785764010746 0.0
    vertex 4.566967619153699 1.7959819884665305 0.0
  endloop
endfacet
facet normal 0.0 0.0 -1.0
  outer loop
    vertex 14.298705277946548 1.3904645815522847 0.0
    vertex 4.566967619153699 1.7959819884665305 0.0
    vertex 15.835641751389266 2.8044378880898417 0.0
  endloop
endfacet
facet normal 0.0 0.0 -1.0
  outer loop
    vertex 15.835641751389266 2.8044378880898417 0.0
    vertex 4.566967619153699 1.7959819884665305 0.0
    vertex 3.152994312616146 3.332918461909261 0.0
  endloop
endfacet
facet normal 0.0 0.0 -1.0
  outer loop
    vertex 15.835641751389266 2.8044378880898417 0.0
    vertex 3.152994312616146 3.332918461909261 0.0
    vertex 16.954245163454726 4.5680196529974815 0.0
  endloop
endfacet
facet normal 0.0 0.0 -1.0
  outer loop
    vertex 16.954245163454726 4.5680196529974815 0.0
    vertex 3.152994312616146 3.332918461909261 0.0
    vertex 10.007013799381093 4.448297011006517 0.0
  endloop
endfacet
facet normal 0.0 0.0 -1.0
  outer loop
    vertex 16.954245163454726 4.5680196529974815 0.0
    vertex 10.007013799381093 4.448297011006517 0.0
    vertex 10.898760844303311 4.647305713806988 0.0
  endloop
endfacet
facet normal 0.0 0.0 -1.0
  outer loop
    vertex 16.954245163454726 4.5680196529974815 0.0
    vertex 10.898760844303311 4.647305713806988 0.0
    vertex 17.57828454019021 6.56102469345344 0.0
  endloop
endfacet
facet normal 0.0 0.0 -1.0
  outer loop
    vertex 17.57828454019021 6.56102469345344 0.0
    vertex 10.898760844303311 4.647305713806988 0.0
    vertex 11.70861510308473 5.0703344781380055 0.0
  endloop
endfacet
facet normal 0.0 0.0 -1.0
  outer loop
    vertex 17.57828454019021 6.56102469345344 0.0
    vertex 11.70861510308473 5.0703344781380055 0.0
    vertex 12.38138634633684 5.688554592798515 0.0
  endloop
endfacet
facet normal 0.0 0.0 -1.0
  outer loop
    vertex 17.57828454019021 6.56102469345344 0.0
    vertex 12.38138634633684 5.688554592798515 0.0
    vertex 12.871226325639055 6.459835378631431 0.0
  endloop
endfacet
facet normal 0.0 0.0 -1.0
  outer loop
    vertex 17.57828454019021 6.56102469345344 0.0
    vertex 12.871226325639055 6.459835378631431 0.0
    vertex 13.14475325590077 7.331615324683987 0.0
  endloop
endfacet
facet normal 0.0 0.0 -1.0
  outer loop
    vertex 17.57828454019021 6.56102469345344 0.0
    vertex 13.14475325590077 7.331615324683987 0.0
    vertex 17.66523262934503 8.647633009547176 0.0
  endloop
endfacet
facet normal 0.0 0.0 -1.0
  outer loop
    vertex 17.66523262934503 8.647633009547176 0.0
    vertex 13.14475325590077 7.331615324683987 0.0
    vertex 13.183326728849277 8.244484068317227 0.0
  endloop
endfacet
facet normal 0.0 0.0 -1.0
  outer loop
    vertex 17.66523262934503 8.647633009547176 0.0
    vertex 13.183326728849277 8.244484068317227 0.0
    vertex 12.98431802604881 9.13623111323944 0.0
  endloop
endfacet
facet normal 0.0 0.0 -1.0
  outer loop
    vertex 17.66523262934503 8.647633009547176 0.0
    vertex 12.98431802604881 9.13623111323944 0.0
    vertex 17.209164062331794 10.685645692820218 0.0
  endloop
endfacet
facet normal 0.0 0.0 -1.0
  outer loop
    vertex 17.209164062331794 10.685645692820218 0.0
    vertex 12.98431802604881 9.13623111323944 0.0
    vertex 12.56128926171779 9.946085372020857 0.0
  endloop
endfacet
facet normal 0.0 0.0 -1.0
  outer loop
    vertex 17.209164062331794 10.685645692820218 0.0
    vertex 12.56128926171779 9.946085372020857 0.0
    vertex 11.94306914705729 10.618856615272964 0.0
  endloop
endfacet
facet normal 0.0 0.0 -1.0
  outer loop
    vertex 17.209164062331794 10.685645692820218 0.0
    vertex 11.94306914705729 10.618856615272964 0.0
    vertex 11.171788361224376 11.10869659457519 0.0
  endloop
endfacet
facet normal 0.0 0.0 -1.0
  outer loop
    vertex 17.209164062331794 10.685645692820218 0.0
    vertex 11.171788361224376 11.10869659457519 0.0
    vertex 16.24115915830351 12.536175546882694 0.0
  endloop
endfacet
facet normal 0.0 0.0 -1.0
  outer loop
    vertex 16.24115915830351 12.536175546882694 0.0
    vertex 11.171788361224376 11.10869659457519 0.0
    vertex 10.300008415171801 11.382223524836913 0.0
  endloop
endfacet
facet normal 0.0 0.0 -1.0
  outer loop
    vertex 16.24115915830351 12.536175546882694 0.0
    vertex 10.300008415171801 11.382223524836913 0.0
    vertex 9.387139671538566 11.420796997785416 0.0
  endloop
endfacet
facet normal 0.032792923506602414 0.9994621674520203 0.0
  outer loop
    vertex 9.516653420406696 16.94885439890844 0.0
    vertex 9.777565402377718 16.940293728034284 3.9999999999999925
    vertex 9.777565402377718 16.940293728034284 0.0
  endloop
endfacet
facet normal 0.032792923506602414 0.9994621674520203 0.0
  outer loop
    vertex 9.777565402377718 16.940293728034284 3.9999999999999925
    vertex 9.516653420406696 16.94885439890844 0.0
    vertex 9.516653420406696 16.94885439890844 3.9999999999999925
  endloop
endfacet
facet normal 0.7299145747311794 0.6835383775582771 0.0
  outer loop
    vertex 8.86673207087422 17.353068051632818 3.9999999999999925
    vertex 9.045171394192128 17.16252211146166 0.0
    vertex 8.86673207087422 17.353068051632818 0.0
  endloop
endfacet
facet normal 0.7299145747311794 0.6835383775582771 0.0
  outer loop
    vertex 9.045171394192128 17.16252211146166 0.0
    vertex 8.86673207087422 17.353068051632818 3.9999999999999925
    vertex 9.045171394192128 17.16252211146166 3.9999999999999925
  endloop
endfacet
facet normal 0.22700431206146135 -0.9738937530888587 -0.0
  outer loop
    vertex 9.327440884971596 18.871417642082264 3.9999999999999925
    vertex 9.58167817140676 18.93067765902409 0.0
    vertex 9.58167817140676 18.93067765902409 3.9999999999999925
  endloop
endfacet
facet normal 0.22700431206146135 -0.9738937530888587 -0.0
  outer loop
    vertex 9.58167817140676 18.93067765902409 0.0
    vertex 9.327440884971596 18.871417642082264 3.9999999999999925
    vertex 9.327440884971596 18.871417642082264 0.0
  endloop
endfacet
facet normal -0.9569188867926606 0.29035537553056523 0.0
  outer loop
    vertex 10.590455118395736 17.522711369930658 3.9999999999999925
    vertex 10.66625308151299 17.772517327043644 0.0
    vertex 10.590455118395736 17.522711369930658 0.0
  endloop
endfacet
facet normal -0.9569188867926606 0.29035537553056523 0.0
  outer loop
    vertex 10.66625308151299 17.772517327043644 0.0
    vertex 10.590455118395736 17.522711369930658 3.9999999999999925
    vertex 10.66625308151299 17.772517327043644 3.9999999999999925
  endloop
endfacet
facet normal 0.8819560888881889 0.47133157890496696 0.0
  outer loop
    vertex 8.743689838339165 17.583304791608533 3.9999999999999925
    vertex 8.86673207087422 17.353068051632818 0.0
    vertex 8.743689838339165 17.583304791608533 0.0
  endloop
endfacet
facet normal 0.8819560888881889 0.47133157890496696 0.0
  outer loop
    vertex 8.86673207087422 17.353068051632818 0.0
    vertex 8.743689838339165 17.583304791608533 3.9999999999999925
    vertex 8.86673207087422 17.353068051632818 3.9999999999999925
  endloop
endfacet
facet normal -0.03279292350660237 -0.9994621674520203 0.0
  outer loop
    vertex 9.58167817140676 18.93067765902409 3.9999999999999925
    vertex 9.842590153377783 18.92211698814993 0.0
    vertex 9.842590153377783 18.92211698814993 3.9999999999999925
  endloop
endfacet
facet normal -0.03279292350660237 -0.9994621674520203 0.0
  outer loop
    vertex 9.842590153377783 18.92211698814993 0.0
    vertex 9.58167817140676 18.93067765902409 3.9999999999999925
    vertex 9.58167817140676 18.93067765902409 0.0
  endloop
endfacet
facet normal 0.6835383775582807 -0.7299145747311759 -0.0
  outer loop
    vertex 8.906658204824707 18.5699360862293 3.9999999999999925
    vertex 9.097204144995864 18.748375409547208 0.0
    vertex 9.097204144995864 18.748375409547208 3.9999999999999925
  endloop
endfacet
facet normal 0.6835383775582807 -0.7299145747311759 -0.0
  outer loop
    vertex 9.097204144995864 18.748375409547208 0.0
    vertex 8.906658204824707 18.5699360862293 3.9999999999999925
    vertex 8.906658204824707 18.5699360862293 0.0
  endloop
endfacet
facet normal 0.5281305885470995 0.8491631653815974 0.0
  outer loop
    vertex 9.045171394192128 17.16252211146166 0.0
    vertex 9.266847463293702 17.02465236202568 3.9999999999999925
    vertex 9.266847463293702 17.02465236202568 0.0
  endloop
endfacet
facet normal 0.5281305885470995 0.8491631653815974 0.0
  outer loop
    vertex 9.266847463293702 17.02465236202568 3.9999999999999925
    vertex 9.045171394192128 17.16252211146166 0.0
    vertex 9.045171394192128 17.16252211146166 3.9999999999999925
  endloop
endfacet
facet normal -0.9738937530888518 -0.22700431206149027 0.0
  outer loop
    vertex 10.674813752387147 18.033429309014675 3.9999999999999925
    vertex 10.61555373544531 18.287666595449842 0.0
    vertex 10.674813752387147 18.033429309014675 0.0
  endloop
endfacet
facet normal -0.9738937530888518 -0.22700431206149027 0.0
  outer loop
    vertex 10.61555373544531 18.287666595449842 0.0
    vertex 10.674813752387147 18.033429309014675 3.9999999999999925
    vertex 10.61555373544531 18.287666595449842 3.9999999999999925
  endloop
endfacet
facet normal -0.8491631653816166 0.528130588547069 0.0
  outer loop
    vertex 10.452585368959769 17.301035300829078 3.9999999999999925
    vertex 10.590455118395736 17.522711369930658 0.0
    vertex 10.452585368959769 17.301035300829078 0.0
  endloop
endfacet
facet normal -0.8491631653816166 0.528130588547069 0.0
  outer loop
    vertex 10.590455118395736 17.522711369930658 0.0
    vertex 10.452585368959769 17.301035300829078 3.9999999999999925
    vertex 10.590455118395736 17.522711369930658 3.9999999999999925
  endloop
endfacet
facet normal 0.9738937530888515 0.22700431206149152 0.0
  outer loop
    vertex 8.684429821397329 17.837542078043697 3.9999999999999925
    vertex 8.743689838339165 17.583304791608533 0.0
    vertex 8.684429821397329 17.837542078043697 0.0
  endloop
endfacet
facet normal 0.9738937530888515 0.22700431206149152 0.0
  outer loop
    vertex 8.743689838339165 17.583304791608533 0.0
    vertex 8.684429821397329 17.837542078043697 3.9999999999999925
    vertex 8.743689838339165 17.583304791608533 3.9999999999999925
  endloop
endfacet
facet normal -0.2903553755304966 -0.9569188867926813 0.0
  outer loop
    vertex 9.842590153377783 18.92211698814993 3.9999999999999925
    vertex 10.092396110490773 18.846319025032695 0.0
    vertex 10.092396110490773 18.846319025032695 3.9999999999999925
  endloop
endfacet
facet normal -0.2903553755304966 -0.9569188867926813 0.0
  outer loop
    vertex 10.092396110490773 18.846319025032695 0.0
    vertex 9.842590153377783 18.92211698814993 3.9999999999999925
    vertex 9.842590153377783 18.92211698814993 0.0
  endloop
endfacet
facet normal 0.8491631653816175 -0.5281305885470674 -0.0
  outer loop
    vertex 8.906658204824707 18.5699360862293 3.9999999999999925
    vertex 8.768788455388739 18.34826001712772 0.0
    vertex 8.906658204824707 18.5699360862293 0.0
  endloop
endfacet
facet normal 0.8491631653816175 -0.5281305885470674 -0.0
  outer loop
    vertex 8.768788455388739 18.34826001712772 0.0
    vertex 8.906658204824707 18.5699360862293 3.9999999999999925
    vertex 8.768788455388739 18.34826001712772 3.9999999999999925
  endloop
endfacet
facet normal -0.8819560888881889 -0.47133157890496696 0.0
  outer loop
    vertex 10.61555373544531 18.287666595449842 3.9999999999999925
    vertex 10.492511502910258 18.517903335425558 0.0
    vertex 10.61555373544531 18.287666595449842 0.0
  endloop
endfacet
facet normal -0.8819560888881889 -0.47133157890496696 0.0
  outer loop
    vertex 10.492511502910258 18.517903335425558 0.0
    vertex 10.61555373544531 18.287666595449842 3.9999999999999925
    vertex 10.492511502910258 18.517903335425558 3.9999999999999925
  endloop
endfacet
facet normal 0.9994621674520208 -0.032792923506587524 -0.0
  outer loop
    vertex 8.692990492271486 18.098454060014735 3.9999999999999925
    vertex 8.684429821397329 17.837542078043697 0.0
    vertex 8.692990492271486 18.098454060014735 0.0
  endloop
endfacet
facet normal 0.9994621674520208 -0.032792923506587524 -0.0
  outer loop
    vertex 8.684429821397329 17.837542078043697 0.0
    vertex 8.692990492271486 18.098454060014735 3.9999999999999925
    vertex 8.684429821397329 17.837542078043697 3.9999999999999925
  endloop
endfacet
facet normal -0.5281305885470989 -0.8491631653815978 0.0
  outer loop
    vertex 10.092396110490773 18.846319025032695 3.9999999999999925
    vertex 10.314072179592346 18.70844927559672 0.0
    vertex 10.314072179592346 18.70844927559672 3.9999999999999925
  endloop
endfacet
facet normal -0.5281305885470989 -0.8491631653815978 0.0
  outer loop
    vertex 10.314072179592346 18.70844927559672 0.0
    vertex 10.092396110490773 18.846319025032695 3.9999999999999925
    vertex 10.092396110490773 18.846319025032695 0.0
  endloop
endfacet
facet normal 0.29035537553049623 0.9569188867926814 0.0
  outer loop
    vertex 9.266847463293702 17.02465236202568 0.0
    vertex 9.516653420406696 16.94885439890844 3.9999999999999925
    vertex 9.516653420406696 16.94885439890844 0.0
  endloop
endfacet
facet normal 0.29035537553049623 0.9569188867926814 0.0
  outer loop
    vertex 9.516653420406696 16.94885439890844 3.9999999999999925
    vertex 9.266847463293702 17.02465236202568 0.0
    vertex 9.266847463293702 17.02465236202568 3.9999999999999925
  endloop
endfacet
facet normal 0.4713315789049508 -0.8819560888881974 -0.0
  outer loop
    vertex 9.097204144995864 18.748375409547208 3.9999999999999925
    vertex 9.327440884971596 18.871417642082264 0.0
    vertex 9.327440884971596 18.871417642082264 3.9999999999999925
  endloop
endfacet
facet normal 0.4713315789049508 -0.8819560888881974 -0.0
  outer loop
    vertex 9.327440884971596 18.871417642082264 0.0
    vertex 9.097204144995864 18.748375409547208 3.9999999999999925
    vertex 9.097204144995864 18.748375409547208 0.0
  endloop
endfacet
facet normal -0.9994621674520208 0.0327929235065882 0.0
  outer loop
    vertex 10.66625308151299 17.772517327043644 3.9999999999999925
    vertex 10.674813752387147 18.033429309014675 0.0
    vertex 10.66625308151299 17.772517327043644 0.0
  endloop
endfacet
facet normal -0.9994621674520208 0.0327929235065882 0.0
  outer loop
    vertex 10.674813752387147 18.033429309014675 0.0
    vertex 10.66625308151299 17.772517327043644 3.9999999999999925
    vertex 10.674813752387147 18.033429309014675 3.9999999999999925
  endloop
endfacet
facet normal -0.6835383775582815 0.7299145747311752 0.0
  outer loop
    vertex 10.262039428788613 17.122595977511168 0.0
    vertex 10.452585368959769 17.301035300829078 3.9999999999999925
    vertex 10.452585368959769 17.301035300829078 0.0
  endloop
endfacet
facet normal -0.6835383775582815 0.7299145747311752 0.0
  outer loop
    vertex 10.452585368959769 17.301035300829078 3.9999999999999925
    vertex 10.262039428788613 17.122595977511168 0.0
    vertex 10.262039428788613 17.122595977511168 3.9999999999999925
  endloop
endfacet
facet normal 0.95691888679266 -0.29035537553056706 -0.0
  outer loop
    vertex 8.768788455388739 18.34826001712772 3.9999999999999925
    vertex 8.692990492271486 18.098454060014735 0.0
    vertex 8.768788455388739 18.34826001712772 0.0
  endloop
endfacet
facet normal 0.95691888679266 -0.29035537553056706 -0.0
  outer loop
    vertex 8.692990492271486 18.098454060014735 0.0
    vertex 8.768788455388739 18.34826001712772 3.9999999999999925
    vertex 8.692990492271486 18.098454060014735 3.9999999999999925
  endloop
endfacet
facet normal -0.7299145747311799 -0.6835383775582763 0.0
  outer loop
    vertex 10.492511502910258 18.517903335425558 3.9999999999999925
    vertex 10.314072179592346 18.70844927559672 0.0
    vertex 10.492511502910258 18.517903335425558 0.0
  endloop
endfacet
facet normal -0.7299145747311799 -0.6835383775582763 0.0
  outer loop
    vertex 10.314072179592346 18.70844927559672 0.0
    vertex 10.492511502910258 18.517903335425558 3.9999999999999925
    vertex 10.314072179592346 18.70844927559672 3.9999999999999925
  endloop
endfacet
facet normal 0.29936731537987693 0.9541379410139005 0.0
  outer loop
    vertex 8.222365109695282 4.760397414216744 0.0
    vertex 9.094145055747859 4.48687048395502 3.9999999999999925
    vertex 9.094145055747859 4.48687048395502 0.0
  endloop
endfacet
facet normal 0.29936731537987693 0.9541379410139005 0.0
  outer loop
    vertex 9.094145055747859 4.48687048395502 3.9999999999999925
    vertex 8.222365109695282 4.760397414216744 0.0
    vertex 8.222365109695282 4.760397414216744 3.9999999999999925
  endloop
endfacet
facet normal 0.5361156922615338 0.8441445163660878 0.0
  outer loop
    vertex 7.451084323862369 5.250237393518945 0.0
    vertex 8.222365109695282 4.760397414216744 3.9999999999999925
    vertex 8.222365109695282 4.760397414216744 0.0
  endloop
endfacet
facet normal 0.5361156922615338 0.8441445163660878 0.0
  outer loop
    vertex 8.222365109695282 4.760397414216744 3.9999999999999925
    vertex 7.451084323862369 5.250237393518945 0.0
    vertex 7.451084323862369 5.250237393518945 3.9999999999999925
  endloop
endfacet
facet normal -0.04163344903998928 -0.9991329520744647 0.0
  outer loop
    vertex 8.323554424517301 0.053339199665591364 3.9999999999999925
    vertex 10.41016274061105 -0.033608889489246556 0.0
    vertex 10.41016274061105 -0.033608889489246556 3.9999999999999925
  endloop
endfacet
facet normal -0.04163344903998928 -0.9991329520744647 0.0
  outer loop
    vertex 10.41016274061105 -0.033608889489246556 0.0
    vertex 8.323554424517301 0.053339199665591364 3.9999999999999925
    vertex 8.323554424517301 0.053339199665591364 0.0
  endloop
endfacet
facet normal 0.7363286706886761 0.6766240379426726 0.0
  outer loop
    vertex 6.832864209201869 5.923008636771075 3.9999999999999925
    vertex 7.451084323862369 5.250237393518945 0.0
    vertex 6.832864209201869 5.923008636771075 0.0
  endloop
endfacet
facet normal 0.7363286706886761 0.6766240379426726 0.0
  outer loop
    vertex 7.451084323862369 5.250237393518945 0.0
    vertex 6.832864209201869 5.923008636771075 3.9999999999999925
    vertex 7.451084323862369 5.250237393518945 3.9999999999999925
  endloop
endfacet
facet normal -0.8860912427746165 -0.4635108515214459 0.0
  outer loop
    vertex 3.152994312616146 3.332918461909261 3.9999999999999925
    vertex 2.184989408587865 5.183448315971716 0.0
    vertex 3.152994312616146 3.332918461909261 0.0
  endloop
endfacet
facet normal -0.8860912427746165 -0.4635108515214459 0.0
  outer loop
    vertex 2.184989408587865 5.183448315971716 0.0
    vertex 3.152994312616146 3.332918461909261 3.9999999999999925
    vertex 2.184989408587865 5.183448315971716 3.9999999999999925
  endloop
endfacet
facet normal -0.5356221005530184 -0.844457793734638 0.0
  outer loop
    vertex 4.566967619153699 1.7959819884665305 3.9999999999999925
    vertex 6.330549384061348 0.6773785764010746 0.0
    vertex 6.330549384061348 0.6773785764010746 3.9999999999999925
  endloop
endfacet
facet normal -0.5356221005530184 -0.844457793734638 0.0
  outer loop
    vertex 6.330549384061348 0.6773785764010746 0.0
    vertex 4.566967619153699 1.7959819884665305 3.9999999999999925
    vertex 4.566967619153699 1.7959819884665305 0.0
  endloop
endfacet
facet normal 0.2183798129211751 -0.9758638518300147 -0.0
  outer loop
    vertex 10.41016274061105 -0.033608889489246556 3.9999999999999925
    vertex 12.448175423884084 0.422459677524005 0.0
    vertex 12.448175423884084 0.422459677524005 3.9999999999999925
  endloop
endfacet
facet normal 0.2183798129211751 -0.9758638518300147 -0.0
  outer loop
    vertex 12.448175423884084 0.422459677524005 0.0
    vertex 10.41016274061105 -0.033608889489246556 3.9999999999999925
    vertex 10.41016274061105 -0.033608889489246556 0.0
  endloop
endfacet
facet normal 0.6770543915784357 -0.7359329798591407 -0.0
  outer loop
    vertex 14.298705277946548 1.3904645815522847 3.9999999999999925
    vertex 15.835641751389266 2.8044378880898417 0.0
    vertex 15.835641751389266 2.8044378880898417 3.9999999999999925
  endloop
endfacet
facet normal 0.6770543915784357 -0.7359329798591407 -0.0
  outer loop
    vertex 15.835641751389266 2.8044378880898417 0.0
    vertex 14.298705277946548 1.3904645815522847 3.9999999999999925
    vertex 14.298705277946548 1.3904645815522847 0.0
  endloop
endfacet
facet normal -0.7359329798591449 -0.6770543915784312 0.0
  outer loop
    vertex 4.566967619153699 1.7959819884665305 3.9999999999999925
    vertex 3.152994312616146 3.332918461909261 0.0
    vertex 4.566967619153699 1.7959819884665305 0.0
  endloop
endfacet
facet normal -0.7359329798591449 -0.6770543915784312 0.0
  outer loop
    vertex 3.152994312616146 3.332918461909261 0.0
    vertex 4.566967619153699 1.7959819884665305 3.9999999999999925
    vertex 3.152994312616146 3.332918461909261 3.9999999999999925
  endloop
endfacet
facet normal 0.9758638518300164 0.21837981292116726 0.0
  outer loop
    vertex 17.209164062331794 10.685645692820218 3.9999999999999925
    vertex 17.66523262934503 8.647633009547176 0.0
    vertex 17.209164062331794 10.685645692820218 0.0
  endloop
endfacet
facet normal 0.9758638518300164 0.21837981292116726 0.0
  outer loop
    vertex 17.66523262934503 8.647633009547176 0.0
    vertex 17.209164062331794 10.685645692820218 3.9999999999999925
    vertex 17.66523262934503 8.647633009547176 3.9999999999999925
  endloop
endfacet
facet normal 0.7359329798591404 0.6770543915784359 0.0
  outer loop
    vertex 14.82718585176596 14.073112020325404 3.9999999999999925
    vertex 16.24115915830351 12.536175546882694 0.0
    vertex 14.82718585176596 14.073112020325404 0.0
  endloop
endfacet
facet normal 0.7359329798591404 0.6770543915784359 0.0
  outer loop
    vertex 16.24115915830351 12.536175546882694 0.0
    vertex 14.82718585176596 14.073112020325404 3.9999999999999925
    vertex 16.24115915830351 12.536175546882694 3.9999999999999925
  endloop
endfacet
facet normal -0.844144516366082 0.5361156922615431 0.0
  outer loop
    vertex 12.38138634633684 5.688554592798515 3.9999999999999925
    vertex 12.871226325639055 6.459835378631431 0.0
    vertex 12.38138634633684 5.688554592798515 0.0
  endloop
endfacet
facet normal -0.844144516366082 0.5361156922615431 0.0
  outer loop
    vertex 12.871226325639055 6.459835378631431 0.0
    vertex 12.38138634633684 5.688554592798515 3.9999999999999925
    vertex 12.871226325639055 6.459835378631431 3.9999999999999925
  endloop
endfacet
facet normal -0.6766240379426883 0.7363286706886616 0.0
  outer loop
    vertex 11.70861510308473 5.0703344781380055 0.0
    vertex 12.38138634633684 5.688554592798515 3.9999999999999925
    vertex 12.38138634633684 5.688554592798515 0.0
  endloop
endfacet
facet normal -0.6766240379426883 0.7363286706886616 0.0
  outer loop
    vertex 12.38138634633684 5.688554592798515 3.9999999999999925
    vertex 11.70861510308473 5.0703344781380055 0.0
    vertex 11.70861510308473 5.0703344781380055 3.9999999999999925
  endloop
endfacet
facet normal 0.9543127927803119 -0.29880946025158156 -0.0
  outer loop
    vertex 17.57828454019021 6.56102469345344 3.9999999999999925
    vertex 16.954245163454726 4.5680196529974815 0.0
    vertex 17.57828454019021 6.56102469345344 0.0
  endloop
endfacet
facet normal 0.9543127927803119 -0.29880946025158156 -0.0
  outer loop
    vertex 16.954245163454726 4.5680196529974815 0.0
    vertex 17.57828454019021 6.56102469345344 3.9999999999999925
    vertex 16.954245163454726 4.5680196529974815 3.9999999999999925
  endloop
endfacet
facet normal 0.9991329520744653 -0.041633449039980806 -0.0
  outer loop
    vertex 17.66523262934503 8.647633009547176 3.9999999999999925
    vertex 17.57828454019021 6.56102469345344 0.0
    vertex 17.66523262934503 8.647633009547176 0.0
  endloop
endfacet
facet normal 0.9991329520744653 -0.041633449039980806 -0.0
  outer loop
    vertex 17.57828454019021 6.56102469345344 0.0
    vertex 17.66523262934503 8.647633009547176 3.9999999999999925
    vertex 17.57828454019021 6.56102469345344 3.9999999999999925
  endloop
endfacet
facet normal 0.46351085152144234 -0.8860912427746181 -0.0
  outer loop
    vertex 12.448175423884084 0.422459677524005 3.9999999999999925
    vertex 14.298705277946548 1.3904645815522847 0.0
    vertex 14.298705277946548 1.3904645815522847 3.9999999999999925
  endloop
endfacet
facet normal 0.46351085152144234 -0.8860912427746181 -0.0
  outer loop
    vertex 14.298705277946548 1.3904645815522847 0.0
    vertex 12.448175423884084 0.422459677524005 3.9999999999999925
    vertex 12.448175423884084 0.422459677524005 0.0
  endloop
endfacet
facet normal -0.2988094602515811 -0.9543127927803121 0.0
  outer loop
    vertex 6.330549384061348 0.6773785764010746 3.9999999999999925
    vertex 8.323554424517301 0.053339199665591364 0.0
    vertex 8.323554424517301 0.053339199665591364 3.9999999999999925
  endloop
endfacet
facet normal -0.2988094602515811 -0.9543127927803121 0.0
  outer loop
    vertex 8.323554424517301 0.053339199665591364 0.0
    vertex 6.330549384061348 0.6773785764010746 3.9999999999999925
    vertex 6.330549384061348 0.6773785764010746 0.0
  endloop
endfacet
facet normal 0.8860912427746181 0.4635108515214425 0.0
  outer loop
    vertex 16.24115915830351 12.536175546882694 3.9999999999999925
    vertex 17.209164062331794 10.685645692820218 0.0
    vertex 16.24115915830351 12.536175546882694 0.0
  endloop
endfacet
facet normal 0.8860912427746181 0.4635108515214425 0.0
  outer loop
    vertex 17.209164062331794 10.685645692820218 0.0
    vertex 16.24115915830351 12.536175546882694 3.9999999999999925
    vertex 17.209164062331794 10.685645692820218 3.9999999999999925
  endloop
endfacet
facet normal -0.46299274950758174 0.8863620670490192 0.0
  outer loop
    vertex 10.898760844303311 4.647305713806988 0.0
    vertex 11.70861510308473 5.0703344781380055 3.9999999999999925
    vertex 11.70861510308473 5.0703344781380055 0.0
  endloop
endfacet
facet normal -0.46299274950758174 0.8863620670490192 0.0
  outer loop
    vertex 11.70861510308473 5.0703344781380055 3.9999999999999925
    vertex 10.898760844303311 4.647305713806988 0.0
    vertex 10.898760844303311 4.647305713806988 3.9999999999999925
  endloop
endfacet
facet normal 0.844457793734636 -0.5356221005530214 -0.0
  outer loop
    vertex 16.954245163454726 4.5680196529974815 3.9999999999999925
    vertex 15.835641751389266 2.8044378880898417 0.0
    vertex 16.954245163454726 4.5680196529974815 0.0
  endloop
endfacet
facet normal 0.844457793734636 -0.5356221005530214 -0.0
  outer loop
    vertex 15.835641751389266 2.8044378880898417 0.0
    vertex 16.954245163454726 4.5680196529974815 3.9999999999999925
    vertex 15.835641751389266 2.8044378880898417 3.9999999999999925
  endloop
endfacet
facet normal -0.21780927032523975 0.975991353322552 0.0
  outer loop
    vertex 10.007013799381093 4.448297011006517 0.0
    vertex 10.898760844303311 4.647305713806988 3.9999999999999925
    vertex 10.898760844303311 4.647305713806988 0.0
  endloop
endfacet
facet normal -0.21780927032523975 0.975991353322552 0.0
  outer loop
    vertex 10.898760844303311 4.647305713806988 3.9999999999999925
    vertex 10.007013799381093 4.448297011006517 0.0
    vertex 10.007013799381093 4.448297011006517 3.9999999999999925
  endloop
endfacet
facet normal 0.042217550682934014 0.9991084417691275 0.0
  outer loop
    vertex 9.094145055747859 4.48687048395502 0.0
    vertex 10.007013799381093 4.448297011006517 3.9999999999999925
    vertex 10.007013799381093 4.448297011006517 0.0
  endloop
endfacet
facet normal 0.042217550682934014 0.9991084417691275 0.0
  outer loop
    vertex 10.007013799381093 4.448297011006517 3.9999999999999925
    vertex 9.094145055747859 4.48687048395502 0.0
    vertex 9.094145055747859 4.48687048395502 3.9999999999999925
  endloop
endfacet
facet normal 0.21780927032523992 -0.975991353322552 -0.0
  outer loop
    vertex 8.495392626616349 11.221788294984945 3.9999999999999925
    vertex 9.387139671538566 11.420796997785416 0.0
    vertex 9.387139671538566 11.420796997785416 3.9999999999999925
  endloop
endfacet
facet normal 0.21780927032523992 -0.975991353322552 -0.0
  outer loop
    vertex 9.387139671538566 11.420796997785416 0.0
    vertex 8.495392626616349 11.221788294984945 3.9999999999999925
    vertex 8.495392626616349 11.221788294984945 0.0
  endloop
endfacet
facet normal -0.7363286706886654 -0.6766240379426842 0.0
  outer loop
    vertex 12.56128926171779 9.946085372020857 3.9999999999999925
    vertex 11.94306914705729 10.618856615272964 0.0
    vertex 12.56128926171779 9.946085372020857 0.0
  endloop
endfacet
facet normal -0.7363286706886654 -0.6766240379426842 0.0
  outer loop
    vertex 11.94306914705729 10.618856615272964 0.0
    vertex 12.56128926171779 9.946085372020857 3.9999999999999925
    vertex 11.94306914705729 10.618856615272964 3.9999999999999925
  endloop
endfacet
facet normal -0.8863620670490184 -0.46299274950758323 0.0
  outer loop
    vertex 12.98431802604881 9.13623111323944 3.9999999999999925
    vertex 12.56128926171779 9.946085372020857 0.0
    vertex 12.98431802604881 9.13623111323944 0.0
  endloop
endfacet
facet normal -0.8863620670490184 -0.46299274950758323 0.0
  outer loop
    vertex 12.56128926171779 9.946085372020857 0.0
    vertex 12.98431802604881 9.13623111323944 3.9999999999999925
    vertex 12.56128926171779 9.946085372020857 3.9999999999999925
  endloop
endfacet
facet normal -0.9759913533225528 -0.2178092703252361 0.0
  outer loop
    vertex 13.183326728849277 8.244484068317227 3.9999999999999925
    vertex 12.98431802604881 9.13623111323944 0.0
    vertex 13.183326728849277 8.244484068317227 0.0
  endloop
endfacet
facet normal -0.9759913533225528 -0.2178092703252361 0.0
  outer loop
    vertex 12.98431802604881 9.13623111323944 0.0
    vertex 13.183326728849277 8.244484068317227 3.9999999999999925
    vertex 12.98431802604881 9.13623111323944 3.9999999999999925
  endloop
endfacet
facet normal 0.9759913533225525 0.21780927032523756 0.0
  outer loop
    vertex 6.210826742070383 7.624609940474706 3.9999999999999925
    vertex 6.40983544487085 6.7328628955524925 0.0
    vertex 6.210826742070383 7.624609940474706 0.0
  endloop
endfacet
facet normal 0.9759913533225525 0.21780927032523756 0.0
  outer loop
    vertex 6.40983544487085 6.7328628955524925 0.0
    vertex 6.210826742070383 7.624609940474706 3.9999999999999925
    vertex 6.40983544487085 6.7328628955524925 3.9999999999999925
  endloop
endfacet
facet normal -0.2993673153798772 -0.9541379410139004 0.0
  outer loop
    vertex 10.300008415171801 11.382223524836913 3.9999999999999925
    vertex 11.171788361224376 11.10869659457519 0.0
    vertex 11.171788361224376 11.10869659457519 3.9999999999999925
  endloop
endfacet
facet normal -0.2993673153798772 -0.9541379410139004 0.0
  outer loop
    vertex 11.171788361224376 11.10869659457519 0.0
    vertex 10.300008415171801 11.382223524836913 3.9999999999999925
    vertex 10.300008415171801 11.382223524836913 0.0
  endloop
endfacet
facet normal -0.9541379410139008 0.2993673153798758 0.0
  outer loop
    vertex 12.871226325639055 6.459835378631431 3.9999999999999925
    vertex 13.14475325590077 7.331615324683987 0.0
    vertex 12.871226325639055 6.459835378631431 0.0
  endloop
endfacet
facet normal -0.9541379410139008 0.2993673153798758 0.0
  outer loop
    vertex 13.14475325590077 7.331615324683987 0.0
    vertex 12.871226325639055 6.459835378631431 3.9999999999999925
    vertex 13.14475325590077 7.331615324683987 3.9999999999999925
  endloop
endfacet
facet normal -0.47133157890495136 0.8819560888881971 0.0
  outer loop
    vertex 10.031802688812883 16.99955374497611 0.0
    vertex 10.262039428788613 17.122595977511168 3.9999999999999925
    vertex 10.262039428788613 17.122595977511168 0.0
  endloop
endfacet
facet normal -0.47133157890495136 0.8819560888881971 0.0
  outer loop
    vertex 10.262039428788613 17.122595977511168 3.9999999999999925
    vertex 10.031802688812883 16.99955374497611 0.0
    vertex 10.031802688812883 16.99955374497611 3.9999999999999925
  endloop
endfacet
facet normal -0.22700431206146113 0.9738937530888587 0.0
  outer loop
    vertex 9.777565402377718 16.940293728034284 0.0
    vertex 10.031802688812883 16.99955374497611 3.9999999999999925
    vertex 10.031802688812883 16.99955374497611 0.0
  endloop
endfacet
facet normal -0.22700431206146113 0.9738937530888587 0.0
  outer loop
    vertex 10.031802688812883 16.99955374497611 3.9999999999999925
    vertex 9.777565402377718 16.940293728034284 0.0
    vertex 9.777565402377718 16.940293728034284 3.9999999999999925
  endloop
endfacet
facet normal 0.4629927495075813 -0.8863620670490194 -0.0
  outer loop
    vertex 7.68553836783493 10.798759530653928 3.9999999999999925
    vertex 8.495392626616349 11.221788294984945 0.0
    vertex 8.495392626616349 11.221788294984945 3.9999999999999925
  endloop
endfacet
facet normal 0.4629927495075813 -0.8863620670490194 -0.0
  outer loop
    vertex 8.495392626616349 11.221788294984945 0.0
    vertex 7.68553836783493 10.798759530653928 3.9999999999999925
    vertex 7.68553836783493 10.798759530653928 0.0
  endloop
endfacet
facet normal -0.9991084417691273 0.04221755068293675 0.0
  outer loop
    vertex 13.14475325590077 7.331615324683987 3.9999999999999925
    vertex 13.183326728849277 8.244484068317227 0.0
    vertex 13.14475325590077 7.331615324683987 0.0
  endloop
endfacet
facet normal -0.9991084417691273 0.04221755068293675 0.0
  outer loop
    vertex 13.183326728849277 8.244484068317227 0.0
    vertex 13.14475325590077 7.331615324683987 3.9999999999999925
    vertex 13.183326728849277 8.244484068317227 3.9999999999999925
  endloop
endfacet
facet normal 0.8863620670490188 0.4629927495075826 0.0
  outer loop
    vertex 6.40983544487085 6.7328628955524925 3.9999999999999925
    vertex 6.832864209201869 5.923008636771075 0.0
    vertex 6.40983544487085 6.7328628955524925 0.0
  endloop
endfacet
facet normal 0.8863620670490188 0.4629927495075826 0.0
  outer loop
    vertex 6.832864209201869 5.923008636771075 0.0
    vertex 6.40983544487085 6.7328628955524925 3.9999999999999925
    vertex 6.832864209201869 5.923008636771075 3.9999999999999925
  endloop
endfacet
facet normal 0.9541379410139008 -0.2993673153798758 -0.0
  outer loop
    vertex 6.522927145280604 9.409258630160503 3.9999999999999925
    vertex 6.249400215018889 8.537478684107947 0.0
    vertex 6.522927145280604 9.409258630160503 0.0
  endloop
endfacet
facet normal 0.9541379410139008 -0.2993673153798758 -0.0
  outer loop
    vertex 6.249400215018889 8.537478684107947 0.0
    vertex 6.522927145280604 9.409258630160503 3.9999999999999925
    vertex 6.249400215018889 8.537478684107947 3.9999999999999925
  endloop
endfacet
facet normal 0.6766240379426873 -0.7363286706886625 -0.0
  outer loop
    vertex 7.01276712458282 10.180539415993419 3.9999999999999925
    vertex 7.68553836783493 10.798759530653928 0.0
    vertex 7.68553836783493 10.798759530653928 3.9999999999999925
  endloop
endfacet
facet normal 0.6766240379426873 -0.7363286706886625 -0.0
  outer loop
    vertex 7.68553836783493 10.798759530653928 0.0
    vertex 7.01276712458282 10.180539415993419 3.9999999999999925
    vertex 7.01276712458282 10.180539415993419 0.0
  endloop
endfacet
facet normal 0.8441445163660827 -0.536115692261542 -0.0
  outer loop
    vertex 7.01276712458282 10.180539415993419 3.9999999999999925
    vertex 6.522927145280604 9.409258630160503 0.0
    vertex 7.01276712458282 10.180539415993419 0.0
  endloop
endfacet
facet normal 0.8441445163660827 -0.536115692261542 -0.0
  outer loop
    vertex 6.522927145280604 9.409258630160503 0.0
    vertex 7.01276712458282 10.180539415993419 3.9999999999999925
    vertex 6.522927145280604 9.409258630160503 3.9999999999999925
  endloop
endfacet
facet normal 0.9991084417691273 -0.04221755068293752 -0.0
  outer loop
    vertex 6.249400215018889 8.537478684107947 3.9999999999999925
    vertex 6.210826742070383 7.624609940474706 0.0
    vertex 6.249400215018889 8.537478684107947 0.0
  endloop
endfacet
facet normal 0.9991084417691273 -0.04221755068293752 -0.0
  outer loop
    vertex 6.210826742070383 7.624609940474706 0.0
    vertex 6.249400215018889 8.537478684107947 3.9999999999999925
    vertex 6.210826742070383 7.624609940474706 3.9999999999999925
  endloop
endfacet
facet normal -0.042217550682933966 -0.9991084417691275 0.0
  outer loop
    vertex 9.387139671538566 11.420796997785416 3.9999999999999925
    vertex 10.300008415171801 11.382223524836913 0.0
    vertex 10.300008415171801 11.382223524836913 3.9999999999999925
  endloop
endfacet
facet normal -0.042217550682933966 -0.9991084417691275 0.0
  outer loop
    vertex 10.300008415171801 11.382223524836913 0.0
    vertex 9.387139671538566 11.420796997785416 3.9999999999999925
    vertex 9.387139671538566 11.420796997785416 0.0
  endloop
endfacet
facet normal -0.5361156922615513 -0.8441445163660769 0.0
  outer loop
    vertex 11.171788361224376 11.10869659457519 3.9999999999999925
    vertex 11.94306914705729 10.618856615272964 0.0
    vertex 11.94306914705729 10.618856615272964 3.9999999999999925
  endloop
endfacet
facet normal -0.5361156922615513 -0.8441445163660769 0.0
  outer loop
    vertex 11.94306914705729 10.618856615272964 0.0
    vertex 11.171788361224376 11.10869659457519 3.9999999999999925
    vertex 11.171788361224376 11.10869659457519 0.0
  endloop
endfacet
facet normal -0.9422842112257152 0.3348140756819103 0.0
  outer loop
    vertex 5.767924069503033 18.770359472609186 3.9999999999999925
    vertex 6.117540120706521 19.754301633252126 0.0
    vertex 5.767924069503033 18.770359472609186 0.0
  endloop
endfacet
facet normal -0.9422842112257152 0.3348140756819103 0.0
  outer loop
    vertex 6.117540120706521 19.754301633252126 0.0
    vertex 5.767924069503033 18.770359472609186 3.9999999999999925
    vertex 6.117540120706521 19.754301633252126 3.9999999999999925
  endloop
endfacet
facet normal 0.9834491023474066 0.18118461052771698 0.0
  outer loop
    vertex 13.485168338374274 19.16653344408625 3.9999999999999925
    vertex 13.674363036782722 18.139606511513183 0.0
    vertex 13.485168338374274 19.16653344408625 0.0
  endloop
endfacet
facet normal 0.9834491023474066 0.18118461052771698 0.0
  outer loop
    vertex 13.674363036782722 18.139606511513183 0.0
    vertex 13.485168338374274 19.16653344408625 3.9999999999999925
    vertex 13.674363036782722 18.139606511513183 3.9999999999999925
  endloop
endfacet
facet normal 0.07952446294163289 0.9968329146822174 0.0
  outer loop
    vertex 9.474548713814073 21.929271358513148 0.0
    vertex 10.515451150878754 21.84623115582422 3.9999999999999925
    vertex 10.515451150878754 21.84623115582422 0.0
  endloop
endfacet
facet normal 0.07952446294163289 0.9968329146822174 0.0
  outer loop
    vertex 10.515451150878754 21.84623115582422 3.9999999999999925
    vertex 9.474548713814073 21.929271358513148 0.0
    vertex 9.474548713814073 21.929271358513148 3.9999999999999925
  endloop
endfacet
facet normal -0.4295462522113313 0.903044858914107 0.0
  outer loop
    vertex 7.504653726537378 21.29154036663639 0.0
    vertex 8.447621781240997 21.740076660104705 3.9999999999999925
    vertex 8.447621781240997 21.740076660104705 0.0
  endloop
endfacet
facet normal -0.4295462522113313 0.903044858914107 0.0
  outer loop
    vertex 8.447621781240997 21.740076660104705 3.9999999999999925
    vertex 7.504653726537378 21.29154036663639 0.0
    vertex 7.504653726537378 21.29154036663639 3.9999999999999925
  endloop
endfacet
facet normal -0.9758638518300162 -0.21837981292116787 0.0
  outer loop
    vertex 2.184989408587865 5.183448315971716 3.9999999999999925
    vertex 1.7289208415746278 7.221460999244757 0.0
    vertex 2.184989408587865 5.183448315971716 0.0
  endloop
endfacet
facet normal -0.9758638518300162 -0.21837981292116787 0.0
  outer loop
    vertex 1.7289208415746278 7.221460999244757 0.0
    vertex 2.184989408587865 5.183448315971716 3.9999999999999925
    vertex 1.7289208415746278 7.221460999244757 3.9999999999999925
  endloop
endfacet
facet normal 0.9030448589141047 0.42954625221133647 0.0
  outer loop
    vertex 13.03663204490596 20.109501498789864 3.9999999999999925
    vertex 13.485168338374274 19.16653344408625 0.0
    vertex 13.03663204490596 20.109501498789864 0.0
  endloop
endfacet
facet normal 0.9030448589141047 0.42954625221133647 0.0
  outer loop
    vertex 13.485168338374274 19.16653344408625 0.0
    vertex 13.03663204490596 20.109501498789864 3.9999999999999925
    vertex 13.485168338374274 19.16653344408625 3.9999999999999925
  endloop
endfacet
facet normal 0.7610996006980023 0.6486350266654904 0.0
  outer loop
    vertex 12.359321163536372 20.90424896102436 3.9999999999999925
    vertex 13.03663204490596 20.109501498789864 0.0
    vertex 12.359321163536372 20.90424896102436 0.0
  endloop
endfacet
facet normal 0.7610996006980023 0.6486350266654904 0.0
  outer loop
    vertex 13.03663204490596 20.109501498789864 0.0
    vertex 12.359321163536372 20.90424896102436 3.9999999999999925
    vertex 13.03663204490596 20.109501498789864 3.9999999999999925
  endloop
endfacet
facet normal 0.3348140756819097 0.9422842112257153 0.0
  outer loop
    vertex 10.515451150878754 21.84623115582422 0.0
    vertex 11.499393311521692 21.49661510462073 3.9999999999999925
    vertex 11.499393311521692 21.49661510462073 0.0
  endloop
endfacet
facet normal 0.3348140756819097 0.9422842112257153 0.0
  outer loop
    vertex 11.499393311521692 21.49661510462073 3.9999999999999925
    vertex 10.515451150878754 21.84623115582422 0.0
    vertex 10.515451150878754 21.84623115582422 3.9999999999999925
  endloop
endfacet
facet normal -0.6486350266654918 0.7610996006980011 0.0
  outer loop
    vertex 6.709906264302887 20.614229485266808 0.0
    vertex 7.504653726537378 21.29154036663639 3.9999999999999925
    vertex 7.504653726537378 21.29154036663639 0.0
  endloop
endfacet
facet normal -0.6486350266654918 0.7610996006980011 0.0
  outer loop
    vertex 7.504653726537378 21.29154036663639 3.9999999999999925
    vertex 6.709906264302887 20.614229485266808 0.0
    vertex 6.709906264302887 20.614229485266808 3.9999999999999925
  endloop
endfacet
facet normal -0.9968329146822169 0.07952446294164016 0.0
  outer loop
    vertex 5.684883866814098 17.729457035544502 3.9999999999999925
    vertex 5.767924069503033 18.770359472609186 0.0
    vertex 5.684883866814098 17.729457035544502 0.0
  endloop
endfacet
facet normal -0.9968329146822169 0.07952446294164016 0.0
  outer loop
    vertex 5.767924069503033 18.770359472609186 0.0
    vertex 5.684883866814098 17.729457035544502 3.9999999999999925
    vertex 5.767924069503033 18.770359472609186 3.9999999999999925
  endloop
endfacet
facet normal -0.4635108515214431 0.8860912427746178 0.0
  outer loop
    vertex 5.095448192973116 14.478629427239651 0.0
    vertex 5.690014812153734 14.789644892283276 3.9999999999999925
    vertex 5.690014812153734 14.789644892283276 0.0
  endloop
endfacet
facet normal -0.4635108515214431 0.8860912427746178 0.0
  outer loop
    vertex 5.690014812153734 14.789644892283276 3.9999999999999925
    vertex 5.095448192973116 14.478629427239651 0.0
    vertex 5.095448192973116 14.478629427239651 3.9999999999999925
  endloop
endfacet
facet normal -0.844457793734636 0.5356221005530214 0.0
  outer loop
    vertex 2.4399083074649317 11.301074355794452 3.9999999999999925
    vertex 3.558511719530394 13.064656120702093 0.0
    vertex 2.4399083074649317 11.301074355794452 0.0
  endloop
endfacet
facet normal -0.844457793734636 0.5356221005530214 0.0
  outer loop
    vertex 3.558511719530394 13.064656120702093 0.0
    vertex 2.4399083074649317 11.301074355794452 3.9999999999999925
    vertex 3.558511719530394 13.064656120702093 3.9999999999999925
  endloop
endfacet
facet normal 0.567286662470885 0.8235203959724642 0.0
  outer loop
    vertex 11.499393311521692 21.49661510462073 0.0
    vertex 12.359321163536372 20.90424896102436 3.9999999999999925
    vertex 12.359321163536372 20.90424896102436 0.0
  endloop
endfacet
facet normal 0.567286662470885 0.8235203959724642 0.0
  outer loop
    vertex 12.359321163536372 20.90424896102436 3.9999999999999925
    vertex 11.499393311521692 21.49661510462073 0.0
    vertex 11.499393311521692 21.49661510462073 3.9999999999999925
  endloop
endfacet
facet normal -0.18118461052771198 0.9834491023474075 0.0
  outer loop
    vertex 8.447621781240997 21.740076660104705 0.0
    vertex 9.474548713814073 21.929271358513148 3.9999999999999925
    vertex 9.474548713814073 21.929271358513148 0.0
  endloop
endfacet
facet normal -0.18118461052771198 0.9834491023474075 0.0
  outer loop
    vertex 9.474548713814073 21.929271358513148 3.9999999999999925
    vertex 8.447621781240997 21.740076660104705 0.0
    vertex 8.447621781240997 21.740076660104705 3.9999999999999925
  endloop
endfacet
facet normal -0.8235203959724668 0.5672866624708811 0.0
  outer loop
    vertex 6.117540120706521 19.754301633252126 3.9999999999999925
    vertex 6.709906264302887 20.614229485266808 0.0
    vertex 6.117540120706521 19.754301633252126 0.0
  endloop
endfacet
facet normal -0.8235203959724668 0.5672866624708811 0.0
  outer loop
    vertex 6.709906264302887 20.614229485266808 0.0
    vertex 6.117540120706521 19.754301633252126 3.9999999999999925
    vertex 6.709906264302887 20.614229485266808 3.9999999999999925
  endloop
endfacet
facet normal -0.9999984769132872 -0.0017453283661417651 0.0
  outer loop
    vertex 5.690014812153734 14.789644892283276 3.9999999999999925
    vertex 5.684883866814098 17.729457035544502 0.0
    vertex 5.690014812153734 14.789644892283276 0.0
  endloop
endfacet
facet normal -0.9999984769132872 -0.0017453283661417651 0.0
  outer loop
    vertex 5.684883866814098 17.729457035544502 0.0
    vertex 5.690014812153734 14.789644892283276 3.9999999999999925
    vertex 5.684883866814098 17.729457035544502 3.9999999999999925
  endloop
endfacet
facet normal -0.9543127927803119 0.29880946025158156 0.0
  outer loop
    vertex 1.8158689307294467 9.308069315338491 3.9999999999999925
    vertex 2.4399083074649317 11.301074355794452 0.0
    vertex 1.8158689307294467 9.308069315338491 0.0
  endloop
endfacet
facet normal -0.9543127927803119 0.29880946025158156 0.0
  outer loop
    vertex 2.4399083074649317 11.301074355794452 0.0
    vertex 1.8158689307294467 9.308069315338491 3.9999999999999925
    vertex 2.4399083074649317 11.301074355794452 3.9999999999999925
  endloop
endfacet
facet normal -0.6770543915784349 0.7359329798591415 0.0
  outer loop
    vertex 3.558511719530394 13.064656120702093 0.0
    vertex 5.095448192973116 14.478629427239651 3.9999999999999925
    vertex 5.095448192973116 14.478629427239651 0.0
  endloop
endfacet
facet normal -0.6770543915784349 0.7359329798591415 0.0
  outer loop
    vertex 5.095448192973116 14.478629427239651 3.9999999999999925
    vertex 3.558511719530394 13.064656120702093 0.0
    vertex 3.558511719530394 13.064656120702093 3.9999999999999925
  endloop
endfacet
facet normal -0.9991329520744653 0.041633449039980806 0.0
  outer loop
    vertex 1.7289208415746278 7.221460999244757 3.9999999999999925
    vertex 1.8158689307294467 9.308069315338491 0.0
    vertex 1.7289208415746278 7.221460999244757 0.0
  endloop
endfacet
facet normal -0.9991329520744653 0.041633449039980806 0.0
  outer loop
    vertex 1.8158689307294467 9.308069315338491 0.0
    vertex 1.7289208415746278 7.221460999244757 3.9999999999999925
    vertex 1.8158689307294467 9.308069315338491 3.9999999999999925
  endloop
endfacet
facet normal 0.9999765175746061 0.006853050369266511 0.0
  outer loop
    vertex 13.674363036782722 18.139606511513183 3.9999999999999925
    vertex 13.697320226289175 14.789762401375341 0.0
    vertex 13.674363036782722 18.139606511513183 0.0
  endloop
endfacet
facet normal 0.9999765175746061 0.006853050369266511 0.0
  outer loop
    vertex 13.697320226289175 14.789762401375341 0.0
    vertex 13.674363036782722 18.139606511513183 3.9999999999999925
    vertex 13.697320226289175 14.789762401375341 3.9999999999999925
  endloop
endfacet
facet normal 0.5356221005530141 0.8444577937346406 0.0
  outer loop
    vertex 13.697320226289175 14.789762401375341 0.0
    vertex 14.82718585176596 14.073112020325404 3.9999999999999925
    vertex 14.82718585176596 14.073112020325404 0.0
  endloop
endfacet
facet normal 0.5356221005530141 0.8444577937346406 0.0
  outer loop
    vertex 14.82718585176596 14.073112020325404 3.9999999999999925
    vertex 13.697320226289175 14.789762401375341 0.0
    vertex 13.697320226289175 14.789762401375341 3.9999999999999925
  endloop
endfacet
facet normal 0.0 0.0 1.0
  outer loop
    vertex 3.152994312616146 3.332918461909261 3.9999999999999925
    vertex 9.094145055747859 4.48687048395502 3.9999999999999925
    vertex 2.184989408587865 5.183448315971716 3.9999999999999925
  endloop
endfacet
facet normal 0.0 0.0 1.0
  outer loop
    vertex 9.094145055747859 4.48687048395502 3.9999999999999925
    vertex 3.152994312616146 3.332918461909261 3.9999999999999925
    vertex 10.007013799381093 4.448297011006517 3.9999999999999925
  endloop
endfacet
facet normal 0.0 0.0 1.0
  outer loop
    vertex 2.184989408587865 5.183448315971716 3.9999999999999925
    vertex 9.094145055747859 4.48687048395502 3.9999999999999925
    vertex 8.222365109695282 4.760397414216744 3.9999999999999925
  endloop
endfacet
facet normal 0.0 0.0 1.0
  outer loop
    vertex 2.184989408587865 5.183448315971716 3.9999999999999925
    vertex 8.222365109695282 4.760397414216744 3.9999999999999925
    vertex 7.451084323862369 5.250237393518945 3.9999999999999925
  endloop
endfacet
facet normal 0.0 0.0 1.0
  outer loop
    vertex 2.184989408587865 5.183448315971716 3.9999999999999925
    vertex 7.451084323862369 5.250237393518945 3.9999999999999925
    vertex 1.7289208415746278 7.221460999244757 3.9999999999999925
  endloop
endfacet
facet normal 0.0 0.0 1.0
  outer loop
    vertex 1.7289208415746278 7.221460999244757 3.9999999999999925
    vertex 7.451084323862369 5.250237393518945 3.9999999999999925
    vertex 6.832864209201869 5.923008636771075 3.9999999999999925
  endloop
endfacet
facet normal 0.0 0.0 1.0
  outer loop
    vertex 1.7289208415746278 7.221460999244757 3.9999999999999925
    vertex 6.832864209201869 5.923008636771075 3.9999999999999925
    vertex 6.40983544487085 6.7328628955524925 3.9999999999999925
  endloop
endfacet
facet normal 0.0 0.0 1.0
  outer loop
    vertex 1.7289208415746278 7.221460999244757 3.9999999999999925
    vertex 6.40983544487085 6.7328628955524925 3.9999999999999925
    vertex 6.210826742070383 7.624609940474706 3.9999999999999925
  endloop
endfacet
facet normal 0.0 0.0 1.0
  outer loop
    vertex 1.7289208415746278 7.221460999244757 3.9999999999999925
    vertex 6.210826742070383 7.624609940474706 3.9999999999999925
    vertex 1.8158689307294467 9.308069315338491 3.9999999999999925
  endloop
endfacet
facet normal 0.0 0.0 1.0
  outer loop
    vertex 1.8158689307294467 9.308069315338491 3.9999999999999925
    vertex 6.210826742070383 7.624609940474706 3.9999999999999925
    vertex 6.249400215018889 8.537478684107947 3.9999999999999925
  endloop
endfacet
facet normal 0.0 0.0 1.0
  outer loop
    vertex 1.8158689307294467 9.308069315338491 3.9999999999999925
    vertex 6.249400215018889 8.537478684107947 3.9999999999999925
    vertex 6.522927145280604 9.409258630160503 3.9999999999999925
  endloop
endfacet
facet normal 0.0 0.0 1.0
  outer loop
    vertex 1.8158689307294467 9.308069315338491 3.9999999999999925
    vertex 6.522927145280604 9.409258630160503 3.9999999999999925
    vertex 2.4399083074649317 11.301074355794452 3.9999999999999925
  endloop
endfacet
facet normal 0.0 0.0 1.0
  outer loop
    vertex 2.4399083074649317 11.301074355794452 3.9999999999999925
    vertex 6.522927145280604 9.409258630160503 3.9999999999999925
    vertex 7.01276712458282 10.180539415993419 3.9999999999999925
  endloop
endfacet
facet normal 0.0 0.0 1.0
  outer loop
    vertex 2.4399083074649317 11.301074355794452 3.9999999999999925
    vertex 7.01276712458282 10.180539415993419 3.9999999999999925
    vertex 7.68553836783493 10.798759530653928 3.9999999999999925
  endloop
endfacet
facet normal 0.0 0.0 1.0
  outer loop
    vertex 2.4399083074649317 11.301074355794452 3.9999999999999925
    vertex 7.68553836783493 10.798759530653928 3.9999999999999925
    vertex 8.495392626616349 11.221788294984945 3.9999999999999925
  endloop
endfacet
facet normal 0.0 0.0 1.0
  outer loop
    vertex 2.4399083074649317 11.301074355794452 3.9999999999999925
    vertex 8.495392626616349 11.221788294984945 3.9999999999999925
    vertex 9.387139671538566 11.420796997785416 3.9999999999999925
  endloop
endfacet
facet normal 0.0 0.0 1.0
  outer loop
    vertex 2.4399083074649317 11.301074355794452 3.9999999999999925
    vertex 9.387139671538566 11.420796997785416 3.9999999999999925
    vertex 3.558511719530394 13.064656120702093 3.9999999999999925
  endloop
endfacet
facet normal 0.0 0.0 1.0
  outer loop
    vertex 3.558511719530394 13.064656120702093 3.9999999999999925
    vertex 9.387139671538566 11.420796997785416 3.9999999999999925
    vertex 16.24115915830351 12.536175546882694 3.9999999999999925
  endloop
endfacet
facet normal 0.0 0.0 1.0
  outer loop
    vertex 3.558511719530394 13.064656120702093 3.9999999999999925
    vertex 16.24115915830351 12.536175546882694 3.9999999999999925
    vertex 14.82718585176596 14.073112020325404 3.9999999999999925
  endloop
endfacet
facet normal 0.0 0.0 1.0
  outer loop
    vertex 3.558511719530394 13.064656120702093 3.9999999999999925
    vertex 14.82718585176596 14.073112020325404 3.9999999999999925
    vertex 5.095448192973116 14.478629427239651 3.9999999999999925
  endloop
endfacet
facet normal 0.0 0.0 1.0
  outer loop
    vertex 5.095448192973116 14.478629427239651 3.9999999999999925
    vertex 14.82718585176596 14.073112020325404 3.9999999999999925
    vertex 13.697320226289175 14.789762401375341 3.9999999999999925
  endloop
endfacet
facet normal 0.0 0.0 1.0
  outer loop
    vertex 5.095448192973116 14.478629427239651 3.9999999999999925
    vertex 13.697320226289175 14.789762401375341 3.9999999999999925
    vertex 5.690014812153734 14.789644892283276 3.9999999999999925
  endloop
endfacet
facet normal 0.0 0.0 1.0
  outer loop
    vertex 5.690014812153734 14.789644892283276 3.9999999999999925
    vertex 13.697320226289175 14.789762401375341 3.9999999999999925
    vertex 13.674363036782722 18.139606511513183 3.9999999999999925
  endloop
endfacet
facet normal 0.0 0.0 1.0
  outer loop
    vertex 5.690014812153734 14.789644892283276 3.9999999999999925
    vertex 13.674363036782722 18.139606511513183 3.9999999999999925
    vertex 10.031802688812883 16.99955374497611 3.9999999999999925
  endloop
endfacet
facet normal 0.0 0.0 1.0
  outer loop
    vertex 5.690014812153734 14.789644892283276 3.9999999999999925
    vertex 10.031802688812883 16.99955374497611 3.9999999999999925
    vertex 9.777565402377718 16.940293728034284 3.9999999999999925
  endloop
endfacet
facet normal 0.0 0.0 1.0
  outer loop
    vertex 10.031802688812883 16.99955374497611 3.9999999999999925
    vertex 13.674363036782722 18.139606511513183 3.9999999999999925
    vertex 10.262039428788613 17.122595977511168 3.9999999999999925
  endloop
endfacet
facet normal 0.0 0.0 1.0
  outer loop
    vertex 10.262039428788613 17.122595977511168 3.9999999999999925
    vertex 13.674363036782722 18.139606511513183 3.9999999999999925
    vertex 10.452585368959769 17.301035300829078 3.9999999999999925
  endloop
endfacet
facet normal 0.0 0.0 1.0
  outer loop
    vertex 10.452585368959769 17.301035300829078 3.9999999999999925
    vertex 13.674363036782722 18.139606511513183 3.9999999999999925
    vertex 10.590455118395736 17.522711369930658 3.9999999999999925
  endloop
endfacet
facet normal 0.0 0.0 1.0
  outer loop
    vertex 10.590455118395736 17.522711369930658 3.9999999999999925
    vertex 13.674363036782722 18.139606511513183 3.9999999999999925
    vertex 10.66625308151299 17.772517327043644 3.9999999999999925
  endloop
endfacet
facet normal 0.0 0.0 1.0
  outer loop
    vertex 10.66625308151299 17.772517327043644 3.9999999999999925
    vertex 13.674363036782722 18.139606511513183 3.9999999999999925
    vertex 10.674813752387147 18.033429309014675 3.9999999999999925
  endloop
endfacet
facet normal 0.0 0.0 1.0
  outer loop
    vertex 10.674813752387147 18.033429309014675 3.9999999999999925
    vertex 13.674363036782722 18.139606511513183 3.9999999999999925
    vertex 10.61555373544531 18.287666595449842 3.9999999999999925
  endloop
endfacet
facet normal 0.0 0.0 1.0
  outer loop
    vertex 10.61555373544531 18.287666595449842 3.9999999999999925
    vertex 13.674363036782722 18.139606511513183 3.9999999999999925
    vertex 13.485168338374274 19.16653344408625 3.9999999999999925
  endloop
endfacet
facet normal 0.0 0.0 1.0
  outer loop
    vertex 10.61555373544531 18.287666595449842 3.9999999999999925
    vertex 13.485168338374274 19.16653344408625 3.9999999999999925
    vertex 10.492511502910258 18.517903335425558 3.9999999999999925
  endloop
endfacet
facet normal 0.0 0.0 1.0
  outer loop
    vertex 10.492511502910258 18.517903335425558 3.9999999999999925
    vertex 13.485168338374274 19.16653344408625 3.9999999999999925
    vertex 10.314072179592346 18.70844927559672 3.9999999999999925
  endloop
endfacet
facet normal 0.0 0.0 1.0
  outer loop
    vertex 10.314072179592346 18.70844927559672 3.9999999999999925
    vertex 13.485168338374274 19.16653344408625 3.9999999999999925
    vertex 10.092396110490773 18.846319025032695 3.9999999999999925
  endloop
endfacet
facet normal 0.0 0.0 1.0
  outer loop
    vertex 10.092396110490773 18.846319025032695 3.9999999999999925
    vertex 13.485168338374274 19.16653344408625 3.9999999999999925
    vertex 9.842590153377783 18.92211698814993 3.9999999999999925
  endloop
endfacet
facet normal 0.0 0.0 1.0
  outer loop
    vertex 9.842590153377783 18.92211698814993 3.9999999999999925
    vertex 13.485168338374274 19.16653344408625 3.9999999999999925
    vertex 9.58167817140676 18.93067765902409 3.9999999999999925
  endloop
endfacet
facet normal 0.0 0.0 1.0
  outer loop
    vertex 5.690014812153734 14.789644892283276 3.9999999999999925
    vertex 9.516653420406696 16.94885439890844 3.9999999999999925
    vertex 5.684883866814098 17.729457035544502 3.9999999999999925
  endloop
endfacet
facet normal 0.0 0.0 1.0
  outer loop
    vertex 9.516653420406696 16.94885439890844 3.9999999999999925
    vertex 5.690014812153734 14.789644892283276 3.9999999999999925
    vertex 9.777565402377718 16.940293728034284 3.9999999999999925
  endloop
endfacet
facet normal 0.0 0.0 1.0
  outer loop
    vertex 5.684883866814098 17.729457035544502 3.9999999999999925
    vertex 9.516653420406696 16.94885439890844 3.9999999999999925
    vertex 9.266847463293702 17.02465236202568 3.9999999999999925
  endloop
endfacet
facet normal 0.0 0.0 1.0
  outer loop
    vertex 5.684883866814098 17.729457035544502 3.9999999999999925
    vertex 9.266847463293702 17.02465236202568 3.9999999999999925
    vertex 9.045171394192128 17.16252211146166 3.9999999999999925
  endloop
endfacet
facet normal 0.0 0.0 1.0
  outer loop
    vertex 5.684883866814098 17.729457035544502 3.9999999999999925
    vertex 9.045171394192128 17.16252211146166 3.9999999999999925
    vertex 8.86673207087422 17.353068051632818 3.9999999999999925
  endloop
endfacet
facet normal 0.0 0.0 1.0
  outer loop
    vertex 5.684883866814098 17.729457035544502 3.9999999999999925
    vertex 8.86673207087422 17.353068051632818 3.9999999999999925
    vertex 8.743689838339165 17.583304791608533 3.9999999999999925
  endloop
endfacet
facet normal 0.0 0.0 1.0
  outer loop
    vertex 5.684883866814098 17.729457035544502 3.9999999999999925
    vertex 8.743689838339165 17.583304791608533 3.9999999999999925
    vertex 8.684429821397329 17.837542078043697 3.9999999999999925
  endloop
endfacet
facet normal 0.0 0.0 1.0
  outer loop
    vertex 5.684883866814098 17.729457035544502 3.9999999999999925
    vertex 8.684429821397329 17.837542078043697 3.9999999999999925
    vertex 5.767924069503033 18.770359472609186 3.9999999999999925
  endloop
endfacet
facet normal 0.0 0.0 1.0
  outer loop
    vertex 5.767924069503033 18.770359472609186 3.9999999999999925
    vertex 8.684429821397329 17.837542078043697 3.9999999999999925
    vertex 8.692990492271486 18.098454060014735 3.9999999999999925
  endloop
endfacet
facet normal 0.0 0.0 1.0
  outer loop
    vertex 5.767924069503033 18.770359472609186 3.9999999999999925
    vertex 8.692990492271486 18.098454060014735 3.9999999999999925
    vertex 8.768788455388739 18.34826001712772 3.9999999999999925
  endloop
endfacet
facet normal 0.0 0.0 1.0
  outer loop
    vertex 5.767924069503033 18.770359472609186 3.9999999999999925
    vertex 8.768788455388739 18.34826001712772 3.9999999999999925
    vertex 8.906658204824707 18.5699360862293 3.9999999999999925
  endloop
endfacet
facet normal 0.0 0.0 1.0
  outer loop
    vertex 5.767924069503033 18.770359472609186 3.9999999999999925
    vertex 8.906658204824707 18.5699360862293 3.9999999999999925
    vertex 9.097204144995864 18.748375409547208 3.9999999999999925
  endloop
endfacet
facet normal 0.0 0.0 1.0
  outer loop
    vertex 5.767924069503033 18.770359472609186 3.9999999999999925
    vertex 9.097204144995864 18.748375409547208 3.9999999999999925
    vertex 9.327440884971596 18.871417642082264 3.9999999999999925
  endloop
endfacet
facet normal 0.0 0.0 1.0
  outer loop
    vertex 5.767924069503033 18.770359472609186 3.9999999999999925
    vertex 9.327440884971596 18.871417642082264 3.9999999999999925
    vertex 6.117540120706521 19.754301633252126 3.9999999999999925
  endloop
endfacet
facet normal 0.0 0.0 1.0
  outer loop
    vertex 6.117540120706521 19.754301633252126 3.9999999999999925
    vertex 9.327440884971596 18.871417642082264 3.9999999999999925
    vertex 9.58167817140676 18.93067765902409 3.9999999999999925
  endloop
endfacet
facet normal 0.0 0.0 1.0
  outer loop
    vertex 6.117540120706521 19.754301633252126 3.9999999999999925
    vertex 9.58167817140676 18.93067765902409 3.9999999999999925
    vertex 13.485168338374274 19.16653344408625 3.9999999999999925
  endloop
endfacet
facet normal 0.0 0.0 1.0
  outer loop
    vertex 6.117540120706521 19.754301633252126 3.9999999999999925
    vertex 13.485168338374274 19.16653344408625 3.9999999999999925
    vertex 13.03663204490596 20.109501498789864 3.9999999999999925
  endloop
endfacet
facet normal 0.0 0.0 1.0
  outer loop
    vertex 6.117540120706521 19.754301633252126 3.9999999999999925
    vertex 13.03663204490596 20.109501498789864 3.9999999999999925
    vertex 6.709906264302887 20.614229485266808 3.9999999999999925
  endloop
endfacet
facet normal 0.0 0.0 1.0
  outer loop
    vertex 6.709906264302887 20.614229485266808 3.9999999999999925
    vertex 13.03663204490596 20.109501498789864 3.9999999999999925
    vertex 12.359321163536372 20.90424896102436 3.9999999999999925
  endloop
endfacet
facet normal 0.0 0.0 1.0
  outer loop
    vertex 6.709906264302887 20.614229485266808 3.9999999999999925
    vertex 12.359321163536372 20.90424896102436 3.9999999999999925
    vertex 7.504653726537378 21.29154036663639 3.9999999999999925
  endloop
endfacet
facet normal 0.0 0.0 1.0
  outer loop
    vertex 7.504653726537378 21.29154036663639 3.9999999999999925
    vertex 12.359321163536372 20.90424896102436 3.9999999999999925
    vertex 11.499393311521692 21.49661510462073 3.9999999999999925
  endloop
endfacet
facet normal 0.0 0.0 1.0
  outer loop
    vertex 7.504653726537378 21.29154036663639 3.9999999999999925
    vertex 11.499393311521692 21.49661510462073 3.9999999999999925
    vertex 8.447621781240997 21.740076660104705 3.9999999999999925
  endloop
endfacet
facet normal 0.0 0.0 1.0
  outer loop
    vertex 8.447621781240997 21.740076660104705 3.9999999999999925
    vertex 11.499393311521692 21.49661510462073 3.9999999999999925
    vertex 10.515451150878754 21.84623115582422 3.9999999999999925
  endloop
endfacet
facet normal 0.0 0.0 1.0
  outer loop
    vertex 8.447621781240997 21.740076660104705 3.9999999999999925
    vertex 10.515451150878754 21.84623115582422 3.9999999999999925
    vertex 9.474548713814073 21.929271358513148 3.9999999999999925
  endloop
endfacet
facet normal 0.0 0.0 1.0
  outer loop
    vertex 12.448175423884084 0.422459677524005 3.9999999999999925
    vertex 8.323554424517301 0.053339199665591364 3.9999999999999925
    vertex 10.41016274061105 -0.033608889489246556 3.9999999999999925
  endloop
endfacet
facet normal 0.0 0.0 1.0
  outer loop
    vertex 8.323554424517301 0.053339199665591364 3.9999999999999925
    vertex 12.448175423884084 0.422459677524005 3.9999999999999925
    vertex 6.330549384061348 0.6773785764010746 3.9999999999999925
  endloop
endfacet
facet normal 0.0 0.0 1.0
  outer loop
    vertex 6.330549384061348 0.6773785764010746 3.9999999999999925
    vertex 12.448175423884084 0.422459677524005 3.9999999999999925
    vertex 14.298705277946548 1.3904645815522847 3.9999999999999925
  endloop
endfacet
facet normal 0.0 0.0 1.0
  outer loop
    vertex 6.330549384061348 0.6773785764010746 3.9999999999999925
    vertex 14.298705277946548 1.3904645815522847 3.9999999999999925
    vertex 4.566967619153699 1.7959819884665305 3.9999999999999925
  endloop
endfacet
facet normal 0.0 0.0 1.0
  outer loop
    vertex 4.566967619153699 1.7959819884665305 3.9999999999999925
    vertex 14.298705277946548 1.3904645815522847 3.9999999999999925
    vertex 15.835641751389266 2.8044378880898417 3.9999999999999925
  endloop
endfacet
facet normal 0.0 0.0 1.0
  outer loop
    vertex 4.566967619153699 1.7959819884665305 3.9999999999999925
    vertex 15.835641751389266 2.8044378880898417 3.9999999999999925
    vertex 3.152994312616146 3.332918461909261 3.9999999999999925
  endloop
endfacet
facet normal 0.0 0.0 1.0
  outer loop
    vertex 3.152994312616146 3.332918461909261 3.9999999999999925
    vertex 15.835641751389266 2.8044378880898417 3.9999999999999925
    vertex 16.954245163454726 4.5680196529974815 3.9999999999999925
  endloop
endfacet
facet normal 0.0 0.0 1.0
  outer loop
    vertex 3.152994312616146 3.332918461909261 3.9999999999999925
    vertex 16.954245163454726 4.5680196529974815 3.9999999999999925
    vertex 10.007013799381093 4.448297011006517 3.9999999999999925
  endloop
endfacet
facet normal 0.0 0.0 1.0
  outer loop
    vertex 10.007013799381093 4.448297011006517 3.9999999999999925
    vertex 16.954245163454726 4.5680196529974815 3.9999999999999925
    vertex 10.898760844303311 4.647305713806988 3.9999999999999925
  endloop
endfacet
facet normal 0.0 0.0 1.0
  outer loop
    vertex 10.898760844303311 4.647305713806988 3.9999999999999925
    vertex 16.954245163454726 4.5680196529974815 3.9999999999999925
    vertex 17.57828454019021 6.56102469345344 3.9999999999999925
  endloop
endfacet
facet normal 0.0 0.0 1.0
  outer loop
    vertex 10.898760844303311 4.647305713806988 3.9999999999999925
    vertex 17.57828454019021 6.56102469345344 3.9999999999999925
    vertex 11.70861510308473 5.0703344781380055 3.9999999999999925
  endloop
endfacet
facet normal 0.0 0.0 1.0
  outer loop
    vertex 11.70861510308473 5.0703344781380055 3.9999999999999925
    vertex 17.57828454019021 6.56102469345344 3.9999999999999925
    vertex 12.38138634633684 5.688554592798515 3.9999999999999925
  endloop
endfacet
facet normal 0.0 0.0 1.0
  outer loop
    vertex 12.38138634633684 5.688554592798515 3.9999999999999925
    vertex 17.57828454019021 6.56102469345344 3.9999999999999925
    vertex 12.871226325639055 6.459835378631431 3.9999999999999925
  endloop
endfacet
facet normal 0.0 0.0 1.0
  outer loop
    vertex 12.871226325639055 6.459835378631431 3.9999999999999925
    vertex 17.57828454019021 6.56102469345344 3.9999999999999925
    vertex 13.14475325590077 7.331615324683987 3.9999999999999925
  endloop
endfacet
facet normal 0.0 0.0 1.0
  outer loop
    vertex 13.14475325590077 7.331615324683987 3.9999999999999925
    vertex 17.57828454019021 6.56102469345344 3.9999999999999925
    vertex 17.66523262934503 8.647633009547176 3.9999999999999925
  endloop
endfacet
facet normal 0.0 0.0 1.0
  outer loop
    vertex 13.14475325590077 7.331615324683987 3.9999999999999925
    vertex 17.66523262934503 8.647633009547176 3.9999999999999925
    vertex 13.183326728849277 8.244484068317227 3.9999999999999925
  endloop
endfacet
facet normal 0.0 0.0 1.0
  outer loop
    vertex 13.183326728849277 8.244484068317227 3.9999999999999925
    vertex 17.66523262934503 8.647633009547176 3.9999999999999925
    vertex 12.98431802604881 9.13623111323944 3.9999999999999925
  endloop
endfacet
facet normal 0.0 0.0 1.0
  outer loop
    vertex 12.98431802604881 9.13623111323944 3.9999999999999925
    vertex 17.66523262934503 8.647633009547176 3.9999999999999925
    vertex 17.209164062331794 10.685645692820218 3.9999999999999925
  endloop
endfacet
facet normal 0.0 0.0 1.0
  outer loop
    vertex 12.98431802604881 9.13623111323944 3.9999999999999925
    vertex 17.209164062331794 10.685645692820218 3.9999999999999925
    vertex 12.56128926171779 9.946085372020857 3.9999999999999925
  endloop
endfacet
facet normal 0.0 0.0 1.0
  outer loop
    vertex 12.56128926171779 9.946085372020857 3.9999999999999925
    vertex 17.209164062331794 10.685645692820218 3.9999999999999925
    vertex 11.94306914705729 10.618856615272964 3.9999999999999925
  endloop
endfacet
facet normal 0.0 0.0 1.0
  outer loop
    vertex 11.94306914705729 10.618856615272964 3.9999999999999925
    vertex 17.209164062331794 10.685645692820218 3.9999999999999925
    vertex 11.171788361224376 11.10869659457519 3.9999999999999925
  endloop
endfacet
facet normal 0.0 0.0 1.0
  outer loop
    vertex 11.171788361224376 11.10869659457519 3.9999999999999925
    vertex 17.209164062331794 10.685645692820218 3.9999999999999925
    vertex 16.24115915830351 12.536175546882694 3.9999999999999925
  endloop
endfacet
facet normal 0.0 0.0 1.0
  outer loop
    vertex 11.171788361224376 11.10869659457519 3.9999999999999925
    vertex 16.24115915830351 12.536175546882694 3.9999999999999925
    vertex 10.300008415171801 11.382223524836913 3.9999999999999925
  endloop
endfacet
facet normal 0.0 0.0 1.0
  outer loop
    vertex 10.300008415171801 11.382223524836913 3.9999999999999925
    vertex 16.24115915830351 12.536175546882694 3.9999999999999925
    vertex 9.387139671538566 11.420796997785416 3.9999999999999925
  endloop
endfacet
endsolid lambda_part3
