solid solenoid_pad5
facet normal -1.0 0.0 0.0
  outer loop
    vertex 49.343401968767594 50.34140256188811 1.5
    vertex 49.343401968767594 39.34140256188812 0.49999999999999994
    vertex 49.343401968767594 39.34140256188812 1.5
  endloop
endfacet
facet normal -1.0 0.0 0.0
  outer loop
    vertex 49.343401968767594 39.34140256188812 0.49999999999999994
    vertex 49.343401968767594 50.34140256188811 1.5
    vertex 49.343401968767594 50.34140256188811 0.49999999999999994
  endloop
endfacet
facet normal 0.0 0.0 1.0
  outer loop
    vertex 49.343401968767594 39.34140256188812 1.5
    vertex 53.24532575741428 43.34140256188811 1.5
    vertex 49.343401968767594 50.34140256188811 1.5
  endloop
endfacet
facet normal 0.0 0.0 1.0
  outer loop
    vertex 53.24532575741428 43.34140256188811 1.5
    vertex 49.343401968767594 39.34140256188812 1.5
    vertex 53.72208162520794 42.720082218328464 1.5
  endloop
endfacet
facet normal 0.0 0.0 1.0
  outer loop
    vertex 53.72208162520794 42.720082218328464 1.5
    vertex 49.343401968767594 39.34140256188812 1.5
    vertex 54.343401968767594 42.243326350534794 1.5
  endloop
endfacet
facet normal 0.0 0.0 1.0
  outer loop
    vertex 54.343401968767594 42.243326350534794 1.5
    vertex 49.343401968767594 39.34140256188812 1.5
    vertex 55.066944833460035 41.943625083020905 1.5
  endloop
endfacet
facet normal 0.0 0.0 1.0
  outer loop
    vertex 55.066944833460035 41.943625083020905 1.5
    vertex 49.343401968767594 39.34140256188812 1.5
    vertex 62.3434019687676 39.34140256188812 1.5
  endloop
endfacet
facet normal 0.0 0.0 1.0
  outer loop
    vertex 49.343401968767594 50.34140256188811 1.5
    vertex 53.24532575741428 43.34140256188811 1.5
    vertex 52.94562448990038 44.06494542658055 1.5
  endloop
endfacet
facet normal 0.0 0.0 1.0
  outer loop
    vertex 49.343401968767594 50.34140256188811 1.5
    vertex 52.94562448990038 44.06494542658055 1.5
    vertex 52.843401968767594 44.84140256188811 1.5
  endloop
endfacet
facet normal 0.0 0.0 1.0
  outer loop
    vertex 55.066944833460035 41.943625083020905 1.5
    vertex 62.3434019687676 39.34140256188812 1.5
    vertex 55.84340196876759 41.8414025618881 1.5
  endloop
endfacet
facet normal 0.0 0.0 1.0
  outer loop
    vertex 55.84340196876759 41.8414025618881 1.5
    vertex 62.3434019687676 39.34140256188812 1.5
    vertex 56.61985910407517 41.943625083020905 1.5
  endloop
endfacet
facet normal 0.0 0.0 1.0
  outer loop
    vertex 56.61985910407517 41.943625083020905 1.5
    vertex 62.3434019687676 39.34140256188812 1.5
    vertex 57.34340196876761 42.243326350534794 1.5
  endloop
endfacet
facet normal 0.0 0.0 1.0
  outer loop
    vertex 57.34340196876761 42.243326350534794 1.5
    vertex 62.3434019687676 39.34140256188812 1.5
    vertex 57.96472231232723 42.720082218328464 1.5
  endloop
endfacet
facet normal 0.0 0.0 1.0
  outer loop
    vertex 57.96472231232723 42.720082218328464 1.5
    vertex 62.3434019687676 39.34140256188812 1.5
    vertex 58.44147818012091 43.34140256188811 1.5
  endloop
endfacet
facet normal 0.0 0.0 1.0
  outer loop
    vertex 58.44147818012091 43.34140256188811 1.5
    vertex 62.3434019687676 39.34140256188812 1.5
    vertex 58.74117944763479 44.06494542658055 1.5
  endloop
endfacet
facet normal 0.0 0.0 1.0
  outer loop
    vertex 58.74117944763479 44.06494542658055 1.5
    vertex 62.3434019687676 39.34140256188812 1.5
    vertex 58.84340196876761 44.84140256188811 1.5
  endloop
endfacet
facet normal 0.0 0.0 1.0
  outer loop
    vertex 49.343401968767594 50.34140256188811 1.5
    vertex 55.066944833460035 47.73918004075533 1.5
    vertex 62.3434019687676 50.34140256188811 1.5
  endloop
endfacet
facet normal 0.0 0.0 1.0
  outer loop
    vertex 55.066944833460035 47.73918004075533 1.5
    vertex 49.343401968767594 50.34140256188811 1.5
    vertex 54.343401968767594 47.43947877324143 1.5
  endloop
endfacet
facet normal 0.0 0.0 1.0
  outer loop
    vertex 54.343401968767594 47.43947877324143 1.5
    vertex 49.343401968767594 50.34140256188811 1.5
    vertex 53.72208162520794 46.962722905447755 1.5
  endloop
endfacet
facet normal 0.0 0.0 1.0
  outer loop
    vertex 53.72208162520794 46.962722905447755 1.5
    vertex 49.343401968767594 50.34140256188811 1.5
    vertex 53.245325757414264 46.34140256188812 1.5
  endloop
endfacet
facet normal 0.0 0.0 1.0
  outer loop
    vertex 53.245325757414264 46.34140256188812 1.5
    vertex 49.343401968767594 50.34140256188811 1.5
    vertex 52.94562448990038 45.61785969719568 1.5
  endloop
endfacet
facet normal 0.0 0.0 1.0
  outer loop
    vertex 52.94562448990038 45.61785969719568 1.5
    vertex 49.343401968767594 50.34140256188811 1.5
    vertex 52.843401968767594 44.84140256188811 1.5
  endloop
endfacet
facet normal 0.0 0.0 1.0
  outer loop
    vertex 62.3434019687676 50.34140256188811 1.5
    vertex 55.066944833460035 47.73918004075533 1.5
    vertex 55.84340196876759 47.84140256188812 1.5
  endloop
endfacet
facet normal 0.0 0.0 1.0
  outer loop
    vertex 62.3434019687676 50.34140256188811 1.5
    vertex 55.84340196876759 47.84140256188812 1.5
    vertex 56.61985910407515 47.73918004075533 1.5
  endloop
endfacet
facet normal 0.0 0.0 1.0
  outer loop
    vertex 62.3434019687676 50.34140256188811 1.5
    vertex 56.61985910407515 47.73918004075533 1.5
    vertex 57.34340196876759 47.43947877324143 1.5
  endloop
endfacet
facet normal 0.0 0.0 1.0
  outer loop
    vertex 62.3434019687676 50.34140256188811 1.5
    vertex 57.34340196876759 47.43947877324143 1.5
    vertex 57.96472231232723 46.962722905447755 1.5
  endloop
endfacet
facet normal 0.0 0.0 1.0
  outer loop
    vertex 62.3434019687676 50.34140256188811 1.5
    vertex 57.96472231232723 46.962722905447755 1.5
    vertex 58.44147818012091 46.34140256188812 1.5
  endloop
endfacet
facet normal 0.0 0.0 1.0
  outer loop
    vertex 62.3434019687676 50.34140256188811 1.5
    vertex 58.44147818012091 46.34140256188812 1.5
    vertex 58.74117944763479 45.61785969719568 1.5
  endloop
endfacet
facet normal 0.0 0.0 1.0
  outer loop
    vertex 62.3434019687676 50.34140256188811 1.5
    vertex 58.74117944763479 45.61785969719568 1.5
    vertex 58.84340196876761 44.84140256188811 1.5
  endloop
endfacet
facet normal 0.0 0.0 1.0
  outer loop
    vertex 62.3434019687676 50.34140256188811 1.5
    vertex 58.84340196876761 44.84140256188811 1.5
    vertex 62.3434019687676 39.34140256188812 1.5
  endloop
endfacet
facet normal 0.0 0.0 -1.0
  outer loop
    vertex 62.3434019687676 50.34140256188811 0.49999999999999994
    vertex 49.343401968767594 39.34140256188812 0.49999999999999994
    vertex 49.343401968767594 50.34140256188811 0.49999999999999994
  endloop
endfacet
facet normal 0.0 0.0 -1.0
  outer loop
    vertex 49.343401968767594 39.34140256188812 0.49999999999999994
    vertex 62.3434019687676 50.34140256188811 0.49999999999999994
    vertex 62.3434019687676 39.34140256188812 0.49999999999999994
  endloop
endfacet
facet normal -0.3826834323650895 0.9238795325112868 0.0
  outer loop
    vertex 54.343401968767594 47.43947877324143 5.5
    vertex 55.066944833460035 47.73918004075533 1.5
    vertex 54.343401968767594 47.43947877324143 1.5
  endloop
endfacet
facet normal -0.3826834323650895 0.9238795325112868 0.0
  outer loop
    vertex 55.066944833460035 47.73918004075533 1.5
    vertex 54.343401968767594 47.43947877324143 5.5
    vertex 55.066944833460035 47.73918004075533 5.5
  endloop
endfacet
facet normal 0.38268343236508695 0.923879532511288 0.0
  outer loop
    vertex 56.61985910407515 47.73918004075533 5.5
    vertex 57.34340196876759 47.43947877324143 1.5
    vertex 56.61985910407515 47.73918004075533 1.5
  endloop
endfacet
facet normal 0.38268343236508695 0.923879532511288 0.0
  outer loop
    vertex 57.34340196876759 47.43947877324143 1.5
    vertex 56.61985910407515 47.73918004075533 5.5
    vertex 57.34340196876759 47.43947877324143 5.5
  endloop
endfacet
facet normal 0.0 1.0 0.0
  outer loop
    vertex 49.343401968767594 50.34140256188811 1.5
    vertex 62.3434019687676 50.34140256188811 0.49999999999999994
    vertex 49.343401968767594 50.34140256188811 0.49999999999999994
  endloop
endfacet
facet normal 0.0 1.0 0.0
  outer loop
    vertex 62.3434019687676 50.34140256188811 0.49999999999999994
    vertex 49.343401968767594 50.34140256188811 1.5
    vertex 62.3434019687676 50.34140256188811 1.5
  endloop
endfacet
facet normal -0.9914448613738106 -0.13052619222005124 -0.0
  outer loop
    vertex 52.843401968767594 44.84140256188811 5.5
    vertex 52.94562448990038 44.06494542658055 1.5
    vertex 52.94562448990038 44.06494542658055 5.5
  endloop
endfacet
facet normal -0.9914448613738106 -0.13052619222005124 -0.0
  outer loop
    vertex 52.94562448990038 44.06494542658055 1.5
    vertex 52.843401968767594 44.84140256188811 5.5
    vertex 52.843401968767594 44.84140256188811 1.5
  endloop
endfacet
facet normal -0.923879532511288 0.38268343236508695 0.0
  outer loop
    vertex 53.245325757414264 46.34140256188812 5.5
    vertex 52.94562448990038 45.61785969719568 1.5
    vertex 52.94562448990038 45.61785969719568 5.5
  endloop
endfacet
facet normal -0.923879532511288 0.38268343236508695 0.0
  outer loop
    vertex 52.94562448990038 45.61785969719568 1.5
    vertex 53.245325757414264 46.34140256188812 5.5
    vertex 53.245325757414264 46.34140256188812 1.5
  endloop
endfacet
facet normal 0.0 0.0 1.0
  outer loop
    vertex 52.94562448990038 44.06494542658055 5.5
    vertex 52.94562448990038 45.61785969719568 5.5
    vertex 52.843401968767594 44.84140256188811 5.5
  endloop
endfacet
facet normal 0.0 0.0 1.0
  outer loop
    vertex 52.94562448990038 45.61785969719568 5.5
    vertex 52.94562448990038 44.06494542658055 5.5
    vertex 53.24532575741428 43.34140256188811 5.5
  endloop
endfacet
facet normal 0.0 0.0 1.0
  outer loop
    vertex 52.94562448990038 45.61785969719568 5.5
    vertex 53.24532575741428 43.34140256188811 5.5
    vertex 53.245325757414264 46.34140256188812 5.5
  endloop
endfacet
facet normal 0.0 0.0 1.0
  outer loop
    vertex 53.245325757414264 46.34140256188812 5.5
    vertex 53.24532575741428 43.34140256188811 5.5
    vertex 53.72208162520794 46.962722905447755 5.5
  endloop
endfacet
facet normal 0.0 0.0 1.0
  outer loop
    vertex 53.72208162520794 46.962722905447755 5.5
    vertex 53.24532575741428 43.34140256188811 5.5
    vertex 53.72208162520794 42.720082218328464 5.5
  endloop
endfacet
facet normal 0.0 0.0 1.0
  outer loop
    vertex 53.72208162520794 46.962722905447755 5.5
    vertex 53.72208162520794 42.720082218328464 5.5
    vertex 54.343401968767594 42.243326350534794 5.5
  endloop
endfacet
facet normal 0.0 0.0 1.0
  outer loop
    vertex 53.72208162520794 46.962722905447755 5.5
    vertex 54.343401968767594 42.243326350534794 5.5
    vertex 54.343401968767594 47.43947877324143 5.5
  endloop
endfacet
facet normal 0.0 0.0 1.0
  outer loop
    vertex 54.343401968767594 47.43947877324143 5.5
    vertex 54.343401968767594 42.243326350534794 5.5
    vertex 55.066944833460035 41.943625083020905 5.5
  endloop
endfacet
facet normal 0.0 0.0 1.0
  outer loop
    vertex 54.343401968767594 47.43947877324143 5.5
    vertex 55.066944833460035 41.943625083020905 5.5
    vertex 55.066944833460035 47.73918004075533 5.5
  endloop
endfacet
facet normal 0.0 0.0 1.0
  outer loop
    vertex 55.066944833460035 47.73918004075533 5.5
    vertex 55.066944833460035 41.943625083020905 5.5
    vertex 55.84340196876759 41.8414025618881 5.5
  endloop
endfacet
facet normal 0.0 0.0 1.0
  outer loop
    vertex 55.066944833460035 47.73918004075533 5.5
    vertex 55.84340196876759 41.8414025618881 5.5
    vertex 55.84340196876759 47.84140256188812 5.5
  endloop
endfacet
facet normal 0.0 0.0 1.0
  outer loop
    vertex 55.84340196876759 47.84140256188812 5.5
    vertex 55.84340196876759 41.8414025618881 5.5
    vertex 56.61985910407517 41.943625083020905 5.5
  endloop
endfacet
facet normal 0.0 0.0 1.0
  outer loop
    vertex 55.84340196876759 47.84140256188812 5.5
    vertex 56.61985910407517 41.943625083020905 5.5
    vertex 56.61985910407515 47.73918004075533 5.5
  endloop
endfacet
facet normal 0.0 0.0 1.0
  outer loop
    vertex 56.61985910407515 47.73918004075533 5.5
    vertex 56.61985910407517 41.943625083020905 5.5
    vertex 57.34340196876759 47.43947877324143 5.5
  endloop
endfacet
facet normal 0.0 0.0 1.0
  outer loop
    vertex 57.34340196876759 47.43947877324143 5.5
    vertex 56.61985910407517 41.943625083020905 5.5
    vertex 57.34340196876761 42.243326350534794 5.5
  endloop
endfacet
facet normal 0.0 0.0 1.0
  outer loop
    vertex 57.34340196876759 47.43947877324143 5.5
    vertex 57.34340196876761 42.243326350534794 5.5
    vertex 57.96472231232723 46.962722905447755 5.5
  endloop
endfacet
facet normal 0.0 0.0 1.0
  outer loop
    vertex 57.96472231232723 46.962722905447755 5.5
    vertex 57.34340196876761 42.243326350534794 5.5
    vertex 57.96472231232723 42.720082218328464 5.5
  endloop
endfacet
facet normal 0.0 0.0 1.0
  outer loop
    vertex 57.96472231232723 46.962722905447755 5.5
    vertex 57.96472231232723 42.720082218328464 5.5
    vertex 58.44147818012091 43.34140256188811 5.5
  endloop
endfacet
facet normal 0.0 0.0 1.0
  outer loop
    vertex 57.96472231232723 46.962722905447755 5.5
    vertex 58.44147818012091 43.34140256188811 5.5
    vertex 58.44147818012091 46.34140256188812 5.5
  endloop
endfacet
facet normal 0.0 0.0 1.0
  outer loop
    vertex 58.44147818012091 46.34140256188812 5.5
    vertex 58.44147818012091 43.34140256188811 5.5
    vertex 58.74117944763479 44.06494542658055 5.5
  endloop
endfacet
facet normal 0.0 0.0 1.0
  outer loop
    vertex 58.44147818012091 46.34140256188812 5.5
    vertex 58.74117944763479 44.06494542658055 5.5
    vertex 58.74117944763479 45.61785969719568 5.5
  endloop
endfacet
facet normal 0.0 0.0 1.0
  outer loop
    vertex 58.74117944763479 45.61785969719568 5.5
    vertex 58.74117944763479 44.06494542658055 5.5
    vertex 58.84340196876761 44.84140256188811 5.5
  endloop
endfacet
facet normal -0.7933533402912388 -0.6087614290087162 -0.0
  outer loop
    vertex 53.24532575741428 43.34140256188811 5.5
    vertex 53.72208162520794 42.720082218328464 1.5
    vertex 53.72208162520794 42.720082218328464 5.5
  endloop
endfacet
facet normal -0.7933533402912388 -0.6087614290087162 -0.0
  outer loop
    vertex 53.72208162520794 42.720082218328464 1.5
    vertex 53.24532575741428 43.34140256188811 5.5
    vertex 53.24532575741428 43.34140256188811 1.5
  endloop
endfacet
facet normal -0.923879532511285 -0.38268343236509444 -0.0
  outer loop
    vertex 52.94562448990038 44.06494542658055 5.5
    vertex 53.24532575741428 43.34140256188811 1.5
    vertex 53.24532575741428 43.34140256188811 5.5
  endloop
endfacet
facet normal -0.923879532511285 -0.38268343236509444 -0.0
  outer loop
    vertex 53.24532575741428 43.34140256188811 1.5
    vertex 52.94562448990038 44.06494542658055 5.5
    vertex 52.94562448990038 44.06494542658055 1.5
  endloop
endfacet
facet normal -0.6087614290087184 -0.7933533402912368 -0.0
  outer loop
    vertex 54.343401968767594 42.243326350534794 5.5
    vertex 53.72208162520794 42.720082218328464 1.5
    vertex 54.343401968767594 42.243326350534794 1.5
  endloop
endfacet
facet normal -0.6087614290087184 -0.7933533402912368 -0.0
  outer loop
    vertex 53.72208162520794 42.720082218328464 1.5
    vertex 54.343401968767594 42.243326350534794 5.5
    vertex 53.72208162520794 42.720082218328464 5.5
  endloop
endfacet
facet normal -0.0 -1.0 -0.0
  outer loop
    vertex 62.3434019687676 39.34140256188812 1.5
    vertex 49.343401968767594 39.34140256188812 0.49999999999999994
    vertex 62.3434019687676 39.34140256188812 0.49999999999999994
  endloop
endfacet
facet normal -0.0 -1.0 -0.0
  outer loop
    vertex 49.343401968767594 39.34140256188812 0.49999999999999994
    vertex 62.3434019687676 39.34140256188812 1.5
    vertex 49.343401968767594 39.34140256188812 1.5
  endloop
endfacet
facet normal 0.6087614290087172 0.7933533402912378 0.0
  outer loop
    vertex 57.34340196876759 47.43947877324143 5.5
    vertex 57.96472231232723 46.962722905447755 1.5
    vertex 57.34340196876759 47.43947877324143 1.5
  endloop
endfacet
facet normal 0.6087614290087172 0.7933533402912378 0.0
  outer loop
    vertex 57.96472231232723 46.962722905447755 1.5
    vertex 57.34340196876759 47.43947877324143 5.5
    vertex 57.96472231232723 46.962722905447755 5.5
  endloop
endfacet
facet normal -0.7933533402912353 0.6087614290087208 0.0
  outer loop
    vertex 53.72208162520794 46.962722905447755 5.5
    vertex 53.245325757414264 46.34140256188812 1.5
    vertex 53.245325757414264 46.34140256188812 5.5
  endloop
endfacet
facet normal -0.7933533402912353 0.6087614290087208 0.0
  outer loop
    vertex 53.245325757414264 46.34140256188812 1.5
    vertex 53.72208162520794 46.962722905447755 5.5
    vertex 53.72208162520794 46.962722905447755 1.5
  endloop
endfacet
facet normal -0.38268343236509006 -0.9238795325112867 -0.0
  outer loop
    vertex 55.066944833460035 41.943625083020905 5.5
    vertex 54.343401968767594 42.243326350534794 1.5
    vertex 55.066944833460035 41.943625083020905 1.5
  endloop
endfacet
facet normal -0.38268343236509006 -0.9238795325112867 -0.0
  outer loop
    vertex 54.343401968767594 42.243326350534794 1.5
    vertex 55.066944833460035 41.943625083020905 5.5
    vertex 54.343401968767594 42.243326350534794 5.5
  endloop
endfacet
facet normal -0.9914448613738105 0.13052619222005168 0.0
  outer loop
    vertex 52.94562448990038 45.61785969719568 5.5
    vertex 52.843401968767594 44.84140256188811 1.5
    vertex 52.843401968767594 44.84140256188811 5.5
  endloop
endfacet
facet normal -0.9914448613738105 0.13052619222005168 0.0
  outer loop
    vertex 52.843401968767594 44.84140256188811 1.5
    vertex 52.94562448990038 45.61785969719568 5.5
    vertex 52.94562448990038 45.61785969719568 1.5
  endloop
endfacet
facet normal -0.13052619222005168 -0.9914448613738105 -0.0
  outer loop
    vertex 55.84340196876759 41.8414025618881 5.5
    vertex 55.066944833460035 41.943625083020905 1.5
    vertex 55.84340196876759 41.8414025618881 1.5
  endloop
endfacet
facet normal -0.13052619222005168 -0.9914448613738105 -0.0
  outer loop
    vertex 55.066944833460035 41.943625083020905 1.5
    vertex 55.84340196876759 41.8414025618881 5.5
    vertex 55.066944833460035 41.943625083020905 5.5
  endloop
endfacet
facet normal 0.13052619222005074 -0.9914448613738105 0.0
  outer loop
    vertex 56.61985910407517 41.943625083020905 5.5
    vertex 55.84340196876759 41.8414025618881 1.5
    vertex 56.61985910407517 41.943625083020905 1.5
  endloop
endfacet
facet normal 0.13052619222005074 -0.9914448613738105 0.0
  outer loop
    vertex 55.84340196876759 41.8414025618881 1.5
    vertex 56.61985910407517 41.943625083020905 5.5
    vertex 55.84340196876759 41.8414025618881 5.5
  endloop
endfacet
facet normal 0.38268343236509006 -0.9238795325112867 0.0
  outer loop
    vertex 57.34340196876761 42.243326350534794 5.5
    vertex 56.61985910407517 41.943625083020905 1.5
    vertex 57.34340196876761 42.243326350534794 1.5
  endloop
endfacet
facet normal 0.38268343236509006 -0.9238795325112867 0.0
  outer loop
    vertex 56.61985910407517 41.943625083020905 1.5
    vertex 57.34340196876761 42.243326350534794 5.5
    vertex 56.61985910407517 41.943625083020905 5.5
  endloop
endfacet
facet normal 1.0 0.0 0.0
  outer loop
    vertex 62.3434019687676 50.34140256188811 0.49999999999999994
    vertex 62.3434019687676 39.34140256188812 1.5
    vertex 62.3434019687676 39.34140256188812 0.49999999999999994
  endloop
endfacet
facet normal 1.0 0.0 0.0
  outer loop
    vertex 62.3434019687676 39.34140256188812 1.5
    vertex 62.3434019687676 50.34140256188811 0.49999999999999994
    vertex 62.3434019687676 50.34140256188811 1.5
  endloop
endfacet
facet normal 0.13052619222005263 0.9914448613738104 0.0
  outer loop
    vertex 55.84340196876759 47.84140256188812 5.5
    vertex 56.61985910407515 47.73918004075533 1.5
    vertex 55.84340196876759 47.84140256188812 1.5
  endloop
endfacet
facet normal 0.13052619222005263 0.9914448613738104 0.0
  outer loop
    vertex 56.61985910407515 47.73918004075533 1.5
    vertex 55.84340196876759 47.84140256188812 5.5
    vertex 56.61985910407515 47.73918004075533 5.5
  endloop
endfacet
facet normal -0.13052619222005074 0.9914448613738105 0.0
  outer loop
    vertex 55.066944833460035 47.73918004075533 5.5
    vertex 55.84340196876759 47.84140256188812 1.5
    vertex 55.066944833460035 47.73918004075533 1.5
  endloop
endfacet
facet normal -0.13052619222005074 0.9914448613738105 0.0
  outer loop
    vertex 55.84340196876759 47.84140256188812 1.5
    vertex 55.066944833460035 47.73918004075533 5.5
    vertex 55.84340196876759 47.84140256188812 5.5
  endloop
endfacet
facet normal -0.6087614290087208 0.7933533402912353 0.0
  outer loop
    vertex 53.72208162520794 46.962722905447755 5.5
    vertex 54.343401968767594 47.43947877324143 1.5
    vertex 53.72208162520794 46.962722905447755 1.5
  endloop
endfacet
facet normal -0.6087614290087208 0.7933533402912353 0.0
  outer loop
    vertex 54.343401968767594 47.43947877324143 1.5
    vertex 53.72208162520794 46.962722905447755 5.5
    vertex 54.343401968767594 47.43947877324143 5.5
  endloop
endfacet
facet normal 0.608761429008722 -0.7933533402912343 0.0
  outer loop
    vertex 57.96472231232723 42.720082218328464 5.5
    vertex 57.34340196876761 42.243326350534794 1.5
    vertex 57.96472231232723 42.720082218328464 1.5
  endloop
endfacet
facet normal 0.608761429008722 -0.7933533402912343 0.0
  outer loop
    vertex 57.34340196876761 42.243326350534794 1.5
    vertex 57.96472231232723 42.720082218328464 5.5
    vertex 57.34340196876761 42.243326350534794 5.5
  endloop
endfacet
facet normal 0.7933533402912353 -0.6087614290087208 0.0
  outer loop
    vertex 58.44147818012091 43.34140256188811 1.5
    vertex 57.96472231232723 42.720082218328464 5.5
    vertex 57.96472231232723 42.720082218328464 1.5
  endloop
endfacet
facet normal 0.7933533402912353 -0.6087614290087208 0.0
  outer loop
    vertex 57.96472231232723 42.720082218328464 5.5
    vertex 58.44147818012091 43.34140256188811 1.5
    vertex 58.44147818012091 43.34140256188811 5.5
  endloop
endfacet
facet normal 0.7933533402912353 0.6087614290087208 0.0
  outer loop
    vertex 57.96472231232723 46.962722905447755 1.5
    vertex 58.44147818012091 46.34140256188812 5.5
    vertex 58.44147818012091 46.34140256188812 1.5
  endloop
endfacet
facet normal 0.7933533402912353 0.6087614290087208 0.0
  outer loop
    vertex 58.44147818012091 46.34140256188812 5.5
    vertex 57.96472231232723 46.962722905447755 1.5
    vertex 57.96472231232723 46.962722905447755 5.5
  endloop
endfacet
facet normal 0.9238795325112904 -0.38268343236508073 0.0
  outer loop
    vertex 58.74117944763479 44.06494542658055 1.5
    vertex 58.44147818012091 43.34140256188811 5.5
    vertex 58.44147818012091 43.34140256188811 1.5
  endloop
endfacet
facet normal 0.9238795325112904 -0.38268343236508073 0.0
  outer loop
    vertex 58.44147818012091 43.34140256188811 5.5
    vertex 58.74117944763479 44.06494542658055 1.5
    vertex 58.74117944763479 44.06494542658055 5.5
  endloop
endfacet
facet normal 0.9238795325112894 0.38268343236508334 0.0
  outer loop
    vertex 58.44147818012091 46.34140256188812 1.5
    vertex 58.74117944763479 45.61785969719568 5.5
    vertex 58.74117944763479 45.61785969719568 1.5
  endloop
endfacet
facet normal 0.9238795325112894 0.38268343236508334 0.0
  outer loop
    vertex 58.74117944763479 45.61785969719568 5.5
    vertex 58.44147818012091 46.34140256188812 1.5
    vertex 58.44147818012091 46.34140256188812 5.5
  endloop
endfacet
facet normal 0.9914448613738096 -0.13052619222005876 0.0
  outer loop
    vertex 58.84340196876761 44.84140256188811 1.5
    vertex 58.74117944763479 44.06494542658055 5.5
    vertex 58.74117944763479 44.06494542658055 1.5
  endloop
endfacet
facet normal 0.9914448613738096 -0.13052619222005876 0.0
  outer loop
    vertex 58.74117944763479 44.06494542658055 5.5
    vertex 58.84340196876761 44.84140256188811 1.5
    vertex 58.84340196876761 44.84140256188811 5.5
  endloop
endfacet
facet normal 0.9914448613738096 0.13052619222005782 0.0
  outer loop
    vertex 58.74117944763479 45.61785969719568 1.5
    vertex 58.84340196876761 44.84140256188811 5.5
    vertex 58.84340196876761 44.84140256188811 1.5
  endloop
endfacet
facet normal 0.9914448613738096 0.13052619222005782 0.0
  outer loop
    vertex 58.84340196876761 44.84140256188811 5.5
    vertex 58.74117944763479 45.61785969719568 1.5
    vertex 58.74117944763479 45.61785969719568 5.5
  endloop
endfacet
endsolid solenoid_pad5
