solid spool
facet normal -0.0026732809753534093 -0.9999964267780296 -1.6753754960025938e-19
  outer loop
    vertex 29.027124789229283 0.7410474554312048 0.0
    vertex 17.390010371370874 0.772156843173223 11.000000000000004
    vertex 17.390010371370874 0.772156843173223 3.616820948561239e-15
  endloop
endfacet
facet normal -0.0026732809753534093 -0.9999964267780296 -1.6753754960025938e-19
  outer loop
    vertex 17.390010371370874 0.772156843173223 11.000000000000004
    vertex 29.027124789229283 0.7410474554312048 0.0
    vertex 29.027124789229283 0.7410474554312048 11.000000000000002
  endloop
endfacet
facet normal -2.2724810492724428e-17 2.6691651865443465e-17 -1.0
  outer loop
    vertex 33.65283760992608 8.120655606031935 3.616820948561239e-15
    vertex 29.04471746152507 7.321952940311111 1.4099832412739487e-15
    vertex 32.16421199247678 9.938349175433721 3.616820948561239e-15
  endloop
endfacet
facet normal -2.2724810492724428e-17 2.6691651865443465e-17 -1.0
  outer loop
    vertex 29.04471746152507 7.321952940311111 1.4099832412739487e-15
    vertex 33.65283760992608 8.120655606031935 3.616820948561239e-15
    vertex 29.924551317672172 7.319600888797613 1.4099832412739487e-15
  endloop
endfacet
facet normal -2.2724810492724428e-17 2.6691651865443465e-17 -1.0
  outer loop
    vertex 29.924551317672172 7.319600888797613 1.4099832412739487e-15
    vertex 33.65283760992608 8.120655606031935 3.616820948561239e-15
    vertex 29.904836087014772 -0.05529175897978805 1.4099832412739487e-15
  endloop
endfacet
facet normal -2.2724810492724428e-17 2.6691651865443465e-17 -1.0
  outer loop
    vertex 29.904836087014772 -0.05529175897978805 1.4099832412739487e-15
    vertex 33.65283760992608 8.120655606031935 3.616820948561239e-15
    vertex 34.62028582557433 5.9796137822438 3.616820948561239e-15
  endloop
endfacet
facet normal -2.2724810492724428e-17 2.6691651865443465e-17 -1.0
  outer loop
    vertex 29.904836087014772 -0.05529175897978805 1.4099832412739487e-15
    vertex 34.62028582557433 5.9796137822438 3.616820948561239e-15
    vertex 35.00062664230882 3.6611321661216 3.616820948561239e-15
  endloop
endfacet
facet normal -2.2724810492724428e-17 2.6691651865443465e-17 -1.0
  outer loop
    vertex 29.904836087014772 -0.05529175897978805 1.4099832412739487e-15
    vertex 35.00062664230882 3.6611321661216 3.616820948561239e-15
    vertex 34.76794046201208 1.3232114483319934 3.616820948561239e-15
  endloop
endfacet
facet normal -2.2724810492724428e-17 2.6691651865443465e-17 -1.0
  outer loop
    vertex 29.904836087014772 -0.05529175897978805 1.4099832412739487e-15
    vertex 34.76794046201208 1.3232114483319934 3.616820948561239e-15
    vertex 23.952474234096087 -5.386907050830964 3.616820948561239e-15
  endloop
endfacet
facet normal -2.2724810492724428e-17 2.6691651865443465e-17 -1.0
  outer loop
    vertex 23.952474234096087 -5.386907050830964 3.616820948561239e-15
    vertex 34.76794046201208 1.3232114483319934 3.616820948561239e-15
    vertex 26.290394951885688 -5.619593231127712 3.616820948561239e-15
  endloop
endfacet
facet normal -2.2724810492724428e-17 2.6691651865443465e-17 -1.0
  outer loop
    vertex 26.290394951885688 -5.619593231127712 3.616820948561239e-15
    vertex 34.76794046201208 1.3232114483319934 3.616820948561239e-15
    vertex 33.938084463339166 -0.8748229378043048 3.616820948561239e-15
  endloop
endfacet
facet normal -2.2724810492724428e-17 2.6691651865443465e-17 -1.0
  outer loop
    vertex 26.290394951885688 -5.619593231127712 3.616820948561239e-15
    vertex 33.938084463339166 -0.8748229378043048 3.616820948561239e-15
    vertex 28.60887656800788 -5.239252414393202 3.616820948561239e-15
  endloop
endfacet
facet normal -2.2724810492724428e-17 2.6691651865443465e-17 -1.0
  outer loop
    vertex 28.60887656800788 -5.239252414393202 3.616820948561239e-15
    vertex 33.938084463339166 -0.8748229378043048 3.616820948561239e-15
    vertex 32.5676119611978 -2.7831785812956533 3.616820948561239e-15
  endloop
endfacet
facet normal -2.2724810492724428e-17 2.6691651865443465e-17 -1.0
  outer loop
    vertex 28.60887656800788 -5.239252414393202 3.616820948561239e-15
    vertex 32.5676119611978 -2.7831785812956533 3.616820948561239e-15
    vertex 30.749918391796026 -4.271804198744974 3.616820948561239e-15
  endloop
endfacet
facet normal -2.2724810492724428e-17 2.6691651865443465e-17 -1.0
  outer loop
    vertex 26.498643097924486 -0.004349866036894084 7.968544660133422e-16
    vertex 18.35745858701912 -1.368884980614902 3.616820948561239e-15
    vertex 17.73841180867313 0.0011160405063809886 3.616820948561239e-15
  endloop
endfacet
facet normal -2.2724810492724428e-17 2.6691651865443465e-17 -1.0
  outer loop
    vertex 18.35745858701912 -1.368884980614902 3.616820948561239e-15
    vertex 26.498643097924486 -0.004349866036894084 7.968544660133422e-16
    vertex 19.846084204468422 -3.1865785500166948 3.616820948561239e-15
  endloop
endfacet
facet normal -2.2724810492724428e-17 2.6691651865443465e-17 -1.0
  outer loop
    vertex 19.846084204468422 -3.1865785500166948 3.616820948561239e-15
    vertex 26.498643097924486 -0.004349866036894084 7.968544660133422e-16
    vertex 21.75443984795978 -4.557051052158051 3.616820948561239e-15
  endloop
endfacet
facet normal -2.2724810492724428e-17 2.6691651865443465e-17 -1.0
  outer loop
    vertex 21.75443984795978 -4.557051052158051 3.616820948561239e-15
    vertex 26.498643097924486 -0.004349866036894084 7.968544660133422e-16
    vertex 29.025114070250552 -0.01110385695559028 0.0
  endloop
endfacet
facet normal -2.2724810492724428e-17 2.6691651865443465e-17 -1.0
  outer loop
    vertex 21.75443984795978 -4.557051052158051 3.616820948561239e-15
    vertex 29.025114070250552 -0.01110385695559028 0.0
    vertex 23.952474234096087 -5.386907050830964 3.616820948561239e-15
  endloop
endfacet
facet normal -2.2724810492724428e-17 2.6691651865443465e-17 -1.0
  outer loop
    vertex 23.952474234096087 -5.386907050830964 3.616820948561239e-15
    vertex 29.025114070250552 -0.01110385695559028 0.0
    vertex 29.904836087014772 -0.05529175897978805 1.4099832412739487e-15
  endloop
endfacet
facet normal -2.2724810492724428e-17 2.6691651865443465e-17 -1.0
  outer loop
    vertex 29.04471746152507 7.321952940311111 1.4099832412739487e-15
    vertex 25.516795866786875 4.794163176107496 3.616820948561239e-15
    vertex 25.166358743266493 4.619441671541087 3.616820948561239e-15
  endloop
endfacet
facet normal -2.2724810492724428e-17 2.6691651865443465e-17 -1.0
  outer loop
    vertex 25.516795866786875 4.794163176107496 3.616820948561239e-15
    vertex 29.04471746152507 7.321952940311111 1.4099832412739487e-15
    vertex 25.90051338785643 4.872231388098247 3.616820948561239e-15
  endloop
endfacet
facet normal -2.2724810492724428e-17 2.6691651865443465e-17 -1.0
  outer loop
    vertex 25.90051338785643 4.872231388098247 3.616820948561239e-15
    vertex 29.04471746152507 7.321952940311111 1.4099832412739487e-15
    vertex 26.291361591537427 4.848326087880014 3.616820948561239e-15
  endloop
endfacet
facet normal -2.2724810492724428e-17 2.6691651865443465e-17 -1.0
  outer loop
    vertex 26.291361591537427 4.848326087880014 3.616820948561239e-15
    vertex 29.04471746152507 7.321952940311111 1.4099832412739487e-15
    vertex 26.662704818656227 4.724076382157253 3.616820948561239e-15
  endloop
endfacet
facet normal -2.2724810492724428e-17 2.6691651865443465e-17 -1.0
  outer loop
    vertex 26.662704818656227 4.724076382157253 3.616820948561239e-15
    vertex 29.04471746152507 7.321952940311111 1.4099832412739487e-15
    vertex 26.989236641958374 4.507949683042659 3.616820948561239e-15
  endloop
endfacet
facet normal -2.2724810492724428e-17 2.6691651865443465e-17 -1.0
  outer loop
    vertex 26.989236641958374 4.507949683042659 3.616820948561239e-15
    vertex 29.04471746152507 7.321952940311111 1.4099832412739487e-15
    vertex 27.248704457305166 4.21467466791462 3.616820948561239e-15
  endloop
endfacet
facet normal -2.2724810492724428e-17 2.6691651865443465e-17 -1.0
  outer loop
    vertex 27.248704457305166 4.21467466791462 3.616820948561239e-15
    vertex 29.04471746152507 7.321952940311111 1.4099832412739487e-15
    vertex 29.027124789229283 0.7410474554312048 0.0
  endloop
endfacet
facet normal -2.2724810492724428e-17 2.6691651865443465e-17 -1.0
  outer loop
    vertex 27.248704457305166 4.21467466791462 3.616820948561239e-15
    vertex 29.027124789229283 0.7410474554312048 0.0
    vertex 27.42342596187158 3.8642375443942356 3.616820948561239e-15
  endloop
endfacet
facet normal -2.2724810492724428e-17 2.6691651865443465e-17 -1.0
  outer loop
    vertex 27.42342596187158 3.8642375443942356 3.616820948561239e-15
    vertex 29.027124789229283 0.7410474554312048 0.0
    vertex 27.501494173862334 3.480520023324691 3.616820948561239e-15
  endloop
endfacet
facet normal -2.2724810492724428e-17 2.6691651865443465e-17 -1.0
  outer loop
    vertex 27.501494173862334 3.480520023324691 3.616820948561239e-15
    vertex 29.027124789229283 0.7410474554312048 0.0
    vertex 27.47758887364409 3.089671819643684 3.616820948561239e-15
  endloop
endfacet
facet normal -2.2724810492724428e-17 2.6691651865443465e-17 -1.0
  outer loop
    vertex 27.47758887364409 3.089671819643684 3.616820948561239e-15
    vertex 29.027124789229283 0.7410474554312048 0.0
    vertex 27.353339167921327 2.7183285925248923 3.616820948561239e-15
  endloop
endfacet
facet normal -2.2724810492724428e-17 2.6691651865443465e-17 -1.0
  outer loop
    vertex 27.353339167921327 2.7183285925248923 3.616820948561239e-15
    vertex 29.027124789229283 0.7410474554312048 0.0
    vertex 27.13721246880674 2.391796769222744 3.616820948561239e-15
  endloop
endfacet
facet normal -2.2724810492724428e-17 2.6691651865443465e-17 -1.0
  outer loop
    vertex 27.13721246880674 2.391796769222744 3.616820948561239e-15
    vertex 29.027124789229283 0.7410474554312048 0.0
    vertex 26.843937453678702 2.13232895387595 3.616820948561239e-15
  endloop
endfacet
facet normal -2.2724810492724428e-17 2.6691651865443465e-17 -1.0
  outer loop
    vertex 23.401419628937308 11.991023039810239 3.616820948561239e-15
    vertex 19.442684235747393 9.534949206712694 3.616820948561239e-15
    vertex 21.260377805149176 11.023574824162004 3.616820948561239e-15
  endloop
endfacet
facet normal -2.2724810492724428e-17 2.6691651865443465e-17 -1.0
  outer loop
    vertex 19.442684235747393 9.534949206712694 3.616820948561239e-15
    vertex 23.401419628937308 11.991023039810239 3.616820948561239e-15
    vertex 18.07221173360603 7.626593563221333 3.616820948561239e-15
  endloop
endfacet
facet normal -2.2724810492724428e-17 2.6691651865443465e-17 -1.0
  outer loop
    vertex 18.07221173360603 7.626593563221333 3.616820948561239e-15
    vertex 23.401419628937308 11.991023039810239 3.616820948561239e-15
    vertex 25.719901245059514 12.371363856544743 3.616820948561239e-15
  endloop
endfacet
facet normal -2.2724810492724428e-17 2.6691651865443465e-17 -1.0
  outer loop
    vertex 18.07221173360603 7.626593563221333 3.616820948561239e-15
    vertex 25.719901245059514 12.371363856544743 3.616820948561239e-15
    vertex 17.242355734933128 5.428559177085034 3.616820948561239e-15
  endloop
endfacet
facet normal -2.2724810492724428e-17 2.6691651865443465e-17 -1.0
  outer loop
    vertex 17.242355734933128 5.428559177085034 3.616820948561239e-15
    vertex 25.719901245059514 12.371363856544743 3.616820948561239e-15
    vertex 28.057821962849115 12.138677676247983 3.616820948561239e-15
  endloop
endfacet
facet normal -2.2724810492724428e-17 2.6691651865443465e-17 -1.0
  outer loop
    vertex 17.242355734933128 5.428559177085034 3.616820948561239e-15
    vertex 28.057821962849115 12.138677676247983 3.616820948561239e-15
    vertex 17.009669554636368 3.0906384592954432 3.616820948561239e-15
  endloop
endfacet
facet normal -2.2724810492724428e-17 2.6691651865443465e-17 -1.0
  outer loop
    vertex 17.009669554636368 3.0906384592954432 3.616820948561239e-15
    vertex 28.057821962849115 12.138677676247983 3.616820948561239e-15
    vertex 30.2558563489854 11.308821677575079 3.616820948561239e-15
  endloop
endfacet
facet normal -2.2724810492724428e-17 2.6691651865443465e-17 -1.0
  outer loop
    vertex 17.009669554636368 3.0906384592954432 3.616820948561239e-15
    vertex 30.2558563489854 11.308821677575079 3.616820948561239e-15
    vertex 17.390010371370874 0.772156843173223 3.616820948561239e-15
  endloop
endfacet
facet normal -2.2724810492724428e-17 2.6691651865443465e-17 -1.0
  outer loop
    vertex 17.390010371370874 0.772156843173223 3.616820948561239e-15
    vertex 30.2558563489854 11.308821677575079 3.616820948561239e-15
    vertex 32.16421199247678 9.938349175433721 3.616820948561239e-15
  endloop
endfacet
facet normal -2.2724810492724428e-17 2.6691651865443465e-17 -1.0
  outer loop
    vertex 17.390010371370874 0.772156843173223 3.616820948561239e-15
    vertex 32.16421199247678 9.938349175433721 3.616820948561239e-15
    vertex 25.166358743266493 4.619441671541087 3.616820948561239e-15
  endloop
endfacet
facet normal -2.2724810492724428e-17 2.6691651865443465e-17 -1.0
  outer loop
    vertex 17.390010371370874 0.772156843173223 3.616820948561239e-15
    vertex 25.166358743266493 4.619441671541087 3.616820948561239e-15
    vertex 24.873083728138454 4.359973856194293 3.616820948561239e-15
  endloop
endfacet
facet normal -2.2724810492724428e-17 2.6691651865443465e-17 -1.0
  outer loop
    vertex 17.390010371370874 0.772156843173223 3.616820948561239e-15
    vertex 24.873083728138454 4.359973856194293 3.616820948561239e-15
    vertex 24.65695702902386 4.0334420328921405 3.616820948561239e-15
  endloop
endfacet
facet normal -2.2724810492724428e-17 2.6691651865443465e-17 -1.0
  outer loop
    vertex 17.390010371370874 0.772156843173223 3.616820948561239e-15
    vertex 24.65695702902386 4.0334420328921405 3.616820948561239e-15
    vertex 24.5327073233011 3.6620988057733506 3.616820948561239e-15
  endloop
endfacet
facet normal -2.2724810492724428e-17 2.6691651865443465e-17 -1.0
  outer loop
    vertex 17.390010371370874 0.772156843173223 3.616820948561239e-15
    vertex 24.5327073233011 3.6620988057733506 3.616820948561239e-15
    vertex 24.508802023082865 3.2712506020923513 3.616820948561239e-15
  endloop
endfacet
facet normal -2.2724810492724428e-17 2.6691651865443465e-17 -1.0
  outer loop
    vertex 17.390010371370874 0.772156843173223 3.616820948561239e-15
    vertex 24.508802023082865 3.2712506020923513 3.616820948561239e-15
    vertex 24.586870235073615 2.8875330810227977 3.616820948561239e-15
  endloop
endfacet
facet normal -2.2724810492724428e-17 2.6691651865443465e-17 -1.0
  outer loop
    vertex 17.390010371370874 0.772156843173223 3.616820948561239e-15
    vertex 24.586870235073615 2.8875330810227977 3.616820948561239e-15
    vertex 24.761591739640032 2.5370959575024132 3.616820948561239e-15
  endloop
endfacet
facet normal -2.2724810492724428e-17 2.6691651865443465e-17 -1.0
  outer loop
    vertex 17.390010371370874 0.772156843173223 3.616820948561239e-15
    vertex 24.761591739640032 2.5370959575024132 3.616820948561239e-15
    vertex 25.021059554986817 2.2438209423743722 3.616820948561239e-15
  endloop
endfacet
facet normal -2.2724810492724428e-17 2.6691651865443465e-17 -1.0
  outer loop
    vertex 17.390010371370874 0.772156843173223 3.616820948561239e-15
    vertex 25.021059554986817 2.2438209423743722 3.616820948561239e-15
    vertex 25.34759137828897 2.0276942432597793 3.616820948561239e-15
  endloop
endfacet
facet normal -2.2724810492724428e-17 2.6691651865443465e-17 -1.0
  outer loop
    vertex 17.390010371370874 0.772156843173223 3.616820948561239e-15
    vertex 25.34759137828897 2.0276942432597793 3.616820948561239e-15
    vertex 29.027124789229283 0.7410474554312048 0.0
  endloop
endfacet
facet normal -2.2724810492724428e-17 2.6691651865443465e-17 -1.0
  outer loop
    vertex 25.166358743266493 4.619441671541087 3.616820948561239e-15
    vertex 32.16421199247678 9.938349175433721 3.616820948561239e-15
    vertex 29.04471746152507 7.321952940311111 1.4099832412739487e-15
  endloop
endfacet
facet normal -2.2724810492724428e-17 2.6691651865443465e-17 -1.0
  outer loop
    vertex 29.027124789229283 0.7410474554312048 0.0
    vertex 25.34759137828897 2.0276942432597793 3.616820948561239e-15
    vertex 25.71893460540776 1.903444537537025 3.616820948561239e-15
  endloop
endfacet
facet normal -2.2724810492724428e-17 2.6691651865443465e-17 -1.0
  outer loop
    vertex 29.027124789229283 0.7410474554312048 0.0
    vertex 25.71893460540776 1.903444537537025 3.616820948561239e-15
    vertex 26.109782809088756 1.8795392373187905 3.616820948561239e-15
  endloop
endfacet
facet normal -2.2724810492724428e-17 2.6691651865443465e-17 -1.0
  outer loop
    vertex 29.027124789229283 0.7410474554312048 0.0
    vertex 26.109782809088756 1.8795392373187905 3.616820948561239e-15
    vertex 26.493500330158312 1.957607449309541 3.616820948561239e-15
  endloop
endfacet
facet normal -2.2724810492724428e-17 2.6691651865443465e-17 -1.0
  outer loop
    vertex 29.027124789229283 0.7410474554312048 0.0
    vertex 26.493500330158312 1.957607449309541 3.616820948561239e-15
    vertex 26.843937453678702 2.13232895387595 3.616820948561239e-15
  endloop
endfacet
facet normal 0.3532096528155767 0.9355441951922421 0.0
  outer loop
    vertex 28.057821962849115 12.138677676247983 11.000000000000004
    vertex 30.2558563489854 11.308821677575079 3.616820948561239e-15
    vertex 28.057821962849115 12.138677676247983 3.616820948561239e-15
  endloop
endfacet
facet normal 0.3532096528155767 0.9355441951922421 0.0
  outer loop
    vertex 30.2558563489854 11.308821677575079 3.616820948561239e-15
    vertex 28.057821962849115 12.138677676247983 11.000000000000004
    vertex 30.2558563489854 11.308821677575079 11.000000000000004
  endloop
endfacet
facet normal 0.41177270383369957 -0.9112865852065882 0.0
  outer loop
    vertex 30.749918391796026 -4.271804198744974 3.616820948561239e-15
    vertex 28.60887656800788 -5.239252414393202 11.000000000000004
    vertex 28.60887656800788 -5.239252414393202 3.616820948561239e-15
  endloop
endfacet
facet normal 0.41177270383369957 -0.9112865852065882 0.0
  outer loop
    vertex 28.60887656800788 -5.239252414393202 11.000000000000004
    vertex 30.749918391796026 -4.271804198744974 3.616820948561239e-15
    vertex 30.749918391796026 -4.271804198744974 11.000000000000004
  endloop
endfacet
facet normal 0.5833109810000189 0.8122489147082903 0.0
  outer loop
    vertex 30.2558563489854 11.308821677575079 11.000000000000004
    vertex 32.16421199247678 9.938349175433721 3.616820948561239e-15
    vertex 30.2558563489854 11.308821677575079 3.616820948561239e-15
  endloop
endfacet
facet normal 0.5833109810000189 0.8122489147082903 0.0
  outer loop
    vertex 32.16421199247678 9.938349175433721 3.616820948561239e-15
    vertex 30.2558563489854 11.308821677575079 11.000000000000004
    vertex 32.16421199247678 9.938349175433721 11.000000000000004
  endloop
endfacet
facet normal 0.7736606297962934 0.6336002129917595 0.0
  outer loop
    vertex 32.16421199247678 9.938349175433721 11.000000000000004
    vertex 33.65283760992608 8.120655606031935 3.616820948561239e-15
    vertex 32.16421199247678 9.938349175433721 3.616820948561239e-15
  endloop
endfacet
facet normal 0.7736606297962934 0.6336002129917595 0.0
  outer loop
    vertex 33.65283760992608 8.120655606031935 3.616820948561239e-15
    vertex 32.16421199247678 9.938349175433721 11.000000000000004
    vertex 33.65283760992608 8.120655606031935 11.000000000000004
  endloop
endfacet
facet normal -0.3532096528155757 -0.9355441951922423 0.0
  outer loop
    vertex 23.952474234096087 -5.386907050830964 11.000000000000004
    vertex 21.75443984795978 -4.557051052158051 3.616820948561239e-15
    vertex 23.952474234096087 -5.386907050830964 3.616820948561239e-15
  endloop
endfacet
facet normal -0.3532096528155757 -0.9355441951922423 0.0
  outer loop
    vertex 21.75443984795978 -4.557051052158051 3.616820948561239e-15
    vertex 23.952474234096087 -5.386907050830964 11.000000000000004
    vertex 21.75443984795978 -4.557051052158051 11.000000000000004
  endloop
endfacet
facet normal -0.9112865852065853 -0.41177270383370623 0.0
  outer loop
    vertex 18.35745858701912 -1.368884980614902 11.000000000000004
    vertex 17.73841180867313 0.0011160405063809886 3.616820948561239e-15
    vertex 18.35745858701912 -1.368884980614902 3.616820948561239e-15
  endloop
endfacet
facet normal -0.9112865852065853 -0.41177270383370623 0.0
  outer loop
    vertex 17.73841180867313 0.0011160405063809886 3.616820948561239e-15
    vertex 18.35745858701912 -1.368884980614902 11.000000000000004
    vertex 17.73841180867313 0.0011160405063809886 11.000000000000004
  endloop
endfacet
facet normal -0.9950836848337283 0.0990376704982977 0.0
  outer loop
    vertex 17.009669554636368 3.0906384592954432 11.000000000000004
    vertex 17.242355734933128 5.428559177085034 3.616820948561239e-15
    vertex 17.009669554636368 3.0906384592954432 3.616820948561239e-15
  endloop
endfacet
facet normal -0.9950836848337283 0.0990376704982977 0.0
  outer loop
    vertex 17.242355734933128 5.428559177085034 3.616820948561239e-15
    vertex 17.009669554636368 3.0906384592954432 11.000000000000004
    vertex 17.242355734933128 5.428559177085034 11.000000000000004
  endloop
endfacet
facet normal -0.9355441951922434 0.3532096528155731 0.0
  outer loop
    vertex 18.07221173360603 7.626593563221333 11.000000000000004
    vertex 17.242355734933128 5.428559177085034 3.616820948561239e-15
    vertex 17.242355734933128 5.428559177085034 11.000000000000004
  endloop
endfacet
facet normal -0.9355441951922434 0.3532096528155731 0.0
  outer loop
    vertex 17.242355734933128 5.428559177085034 3.616820948561239e-15
    vertex 18.07221173360603 7.626593563221333 11.000000000000004
    vertex 18.07221173360603 7.626593563221333 3.616820948561239e-15
  endloop
endfacet
facet normal 4.04316060185854e-17 -9.861765901125153e-18 1.0
  outer loop
    vertex 19.442684235747393 9.534949206712694 11.000000000000004
    vertex 23.401419628937308 11.991023039810239 11.000000000000004
    vertex 21.260377805149176 11.023574824162004 11.000000000000004
  endloop
endfacet
facet normal 4.04316060185854e-17 -9.861765901125153e-18 1.0
  outer loop
    vertex 23.401419628937308 11.991023039810239 11.000000000000004
    vertex 19.442684235747393 9.534949206712694 11.000000000000004
    vertex 18.07221173360603 7.626593563221333 11.000000000000004
  endloop
endfacet
facet normal 4.04316060185854e-17 -9.861765901125153e-18 1.0
  outer loop
    vertex 23.401419628937308 11.991023039810239 11.000000000000004
    vertex 18.07221173360603 7.626593563221333 11.000000000000004
    vertex 25.719901245059514 12.371363856544743 11.000000000000004
  endloop
endfacet
facet normal 4.04316060185854e-17 -9.861765901125153e-18 1.0
  outer loop
    vertex 25.719901245059514 12.371363856544743 11.000000000000004
    vertex 18.07221173360603 7.626593563221333 11.000000000000004
    vertex 17.242355734933128 5.428559177085034 11.000000000000004
  endloop
endfacet
facet normal 4.04316060185854e-17 -9.861765901125153e-18 1.0
  outer loop
    vertex 25.719901245059514 12.371363856544743 11.000000000000004
    vertex 17.242355734933128 5.428559177085034 11.000000000000004
    vertex 28.057821962849115 12.138677676247983 11.000000000000004
  endloop
endfacet
facet normal 4.04316060185854e-17 -9.861765901125153e-18 1.0
  outer loop
    vertex 28.057821962849115 12.138677676247983 11.000000000000004
    vertex 17.242355734933128 5.428559177085034 11.000000000000004
    vertex 17.009669554636368 3.0906384592954432 11.000000000000004
  endloop
endfacet
facet normal 4.04316060185854e-17 -9.861765901125153e-18 1.0
  outer loop
    vertex 28.057821962849115 12.138677676247983 11.000000000000004
    vertex 17.009669554636368 3.0906384592954432 11.000000000000004
    vertex 30.2558563489854 11.308821677575079 11.000000000000004
  endloop
endfacet
facet normal 4.04316060185854e-17 -9.861765901125153e-18 1.0
  outer loop
    vertex 30.2558563489854 11.308821677575079 11.000000000000004
    vertex 17.009669554636368 3.0906384592954432 11.000000000000004
    vertex 17.390010371370874 0.772156843173223 11.000000000000004
  endloop
endfacet
facet normal 4.04316060185854e-17 -9.861765901125153e-18 1.0
  outer loop
    vertex 30.2558563489854 11.308821677575079 11.000000000000004
    vertex 17.390010371370874 0.772156843173223 11.000000000000004
    vertex 32.16421199247678 9.938349175433721 11.000000000000004
  endloop
endfacet
facet normal 4.04316060185854e-17 -9.861765901125153e-18 1.0
  outer loop
    vertex 32.16421199247678 9.938349175433721 11.000000000000004
    vertex 17.390010371370874 0.772156843173223 11.000000000000004
    vertex 25.166358743266493 4.619441671541087 11.000000000000004
  endloop
endfacet
facet normal 4.04316060185854e-17 -9.861765901125153e-18 1.0
  outer loop
    vertex 25.166358743266493 4.619441671541087 11.000000000000004
    vertex 17.390010371370874 0.772156843173223 11.000000000000004
    vertex 24.873083728138454 4.359973856194293 11.000000000000004
  endloop
endfacet
facet normal 4.04316060185854e-17 -9.861765901125153e-18 1.0
  outer loop
    vertex 24.873083728138454 4.359973856194293 11.000000000000004
    vertex 17.390010371370874 0.772156843173223 11.000000000000004
    vertex 24.65695702902386 4.0334420328921405 11.000000000000004
  endloop
endfacet
facet normal 4.04316060185854e-17 -9.861765901125153e-18 1.0
  outer loop
    vertex 24.65695702902386 4.0334420328921405 11.000000000000004
    vertex 17.390010371370874 0.772156843173223 11.000000000000004
    vertex 24.5327073233011 3.6620988057733506 11.000000000000004
  endloop
endfacet
facet normal 4.04316060185854e-17 -9.861765901125153e-18 1.0
  outer loop
    vertex 24.5327073233011 3.6620988057733506 11.000000000000004
    vertex 17.390010371370874 0.772156843173223 11.000000000000004
    vertex 24.508802023082865 3.2712506020923513 11.000000000000004
  endloop
endfacet
facet normal 4.04316060185854e-17 -9.861765901125153e-18 1.0
  outer loop
    vertex 24.508802023082865 3.2712506020923513 11.000000000000004
    vertex 17.390010371370874 0.772156843173223 11.000000000000004
    vertex 24.586870235073615 2.8875330810227977 11.000000000000004
  endloop
endfacet
facet normal 4.04316060185854e-17 -9.861765901125153e-18 1.0
  outer loop
    vertex 24.586870235073615 2.8875330810227977 11.000000000000004
    vertex 17.390010371370874 0.772156843173223 11.000000000000004
    vertex 24.761591739640032 2.5370959575024132 11.000000000000004
  endloop
endfacet
facet normal 4.04316060185854e-17 -9.861765901125153e-18 1.0
  outer loop
    vertex 24.761591739640032 2.5370959575024132 11.000000000000004
    vertex 17.390010371370874 0.772156843173223 11.000000000000004
    vertex 25.021059554986817 2.2438209423743722 11.000000000000004
  endloop
endfacet
facet normal 4.04316060185854e-17 -9.861765901125153e-18 1.0
  outer loop
    vertex 25.021059554986817 2.2438209423743722 11.000000000000004
    vertex 17.390010371370874 0.772156843173223 11.000000000000004
    vertex 25.34759137828897 2.0276942432597793 11.000000000000004
  endloop
endfacet
facet normal 4.04316060185854e-17 -9.861765901125153e-18 1.0
  outer loop
    vertex 25.34759137828897 2.0276942432597793 11.000000000000004
    vertex 17.390010371370874 0.772156843173223 11.000000000000004
    vertex 29.027124789229283 0.7410474554312048 11.000000000000002
  endloop
endfacet
facet normal 4.04316060185854e-17 -9.861765901125153e-18 1.0
  outer loop
    vertex 32.16421199247678 9.938349175433721 11.000000000000004
    vertex 25.166358743266493 4.619441671541087 11.000000000000004
    vertex 29.04471746152507 7.321952940311111 11.000000000000002
  endloop
endfacet
facet normal 4.04316060185854e-17 -9.861765901125153e-18 1.0
  outer loop
    vertex 25.34759137828897 2.0276942432597793 11.000000000000004
    vertex 29.027124789229283 0.7410474554312048 11.000000000000002
    vertex 25.71893460540776 1.903444537537025 11.000000000000004
  endloop
endfacet
facet normal 4.04316060185854e-17 -9.861765901125153e-18 1.0
  outer loop
    vertex 25.71893460540776 1.903444537537025 11.000000000000004
    vertex 29.027124789229283 0.7410474554312048 11.000000000000002
    vertex 26.109782809088756 1.8795392373187905 11.000000000000004
  endloop
endfacet
facet normal 4.04316060185854e-17 -9.861765901125153e-18 1.0
  outer loop
    vertex 26.109782809088756 1.8795392373187905 11.000000000000004
    vertex 29.027124789229283 0.7410474554312048 11.000000000000002
    vertex 26.493500330158312 1.957607449309541 11.000000000000004
  endloop
endfacet
facet normal 4.04316060185854e-17 -9.861765901125153e-18 1.0
  outer loop
    vertex 26.493500330158312 1.957607449309541 11.000000000000004
    vertex 29.027124789229283 0.7410474554312048 11.000000000000002
    vertex 26.843937453678702 2.13232895387595 11.000000000000004
  endloop
endfacet
facet normal 4.04316060185854e-17 -9.861765901125153e-18 1.0
  outer loop
    vertex 29.04471746152507 7.321952940311111 11.000000000000002
    vertex 27.248704457305166 4.21467466791462 11.000000000000004
    vertex 29.027124789229283 0.7410474554312048 11.000000000000002
  endloop
endfacet
facet normal 4.04316060185854e-17 -9.861765901125153e-18 1.0
  outer loop
    vertex 27.248704457305166 4.21467466791462 11.000000000000004
    vertex 29.04471746152507 7.321952940311111 11.000000000000002
    vertex 26.989236641958374 4.507949683042659 11.000000000000004
  endloop
endfacet
facet normal 4.04316060185854e-17 -9.861765901125153e-18 1.0
  outer loop
    vertex 26.989236641958374 4.507949683042659 11.000000000000004
    vertex 29.04471746152507 7.321952940311111 11.000000000000002
    vertex 26.662704818656227 4.724076382157253 11.000000000000004
  endloop
endfacet
facet normal 4.04316060185854e-17 -9.861765901125153e-18 1.0
  outer loop
    vertex 26.662704818656227 4.724076382157253 11.000000000000004
    vertex 29.04471746152507 7.321952940311111 11.000000000000002
    vertex 26.291361591537427 4.848326087880014 11.000000000000004
  endloop
endfacet
facet normal 4.04316060185854e-17 -9.861765901125153e-18 1.0
  outer loop
    vertex 26.291361591537427 4.848326087880014 11.000000000000004
    vertex 29.04471746152507 7.321952940311111 11.000000000000002
    vertex 25.90051338785643 4.872231388098247 11.000000000000004
  endloop
endfacet
facet normal 4.04316060185854e-17 -9.861765901125153e-18 1.0
  outer loop
    vertex 25.90051338785643 4.872231388098247 11.000000000000004
    vertex 29.04471746152507 7.321952940311111 11.000000000000002
    vertex 25.516795866786875 4.794163176107496 11.000000000000004
  endloop
endfacet
facet normal 4.04316060185854e-17 -9.861765901125153e-18 1.0
  outer loop
    vertex 25.516795866786875 4.794163176107496 11.000000000000004
    vertex 29.04471746152507 7.321952940311111 11.000000000000002
    vertex 25.166358743266493 4.619441671541087 11.000000000000004
  endloop
endfacet
facet normal 4.04316060185854e-17 -9.861765901125153e-18 1.0
  outer loop
    vertex 29.027124789229283 0.7410474554312048 11.000000000000002
    vertex 27.248704457305166 4.21467466791462 11.000000000000004
    vertex 27.42342596187158 3.8642375443942356 11.000000000000004
  endloop
endfacet
facet normal 4.04316060185854e-17 -9.861765901125153e-18 1.0
  outer loop
    vertex 29.027124789229283 0.7410474554312048 11.000000000000002
    vertex 27.42342596187158 3.8642375443942356 11.000000000000004
    vertex 27.501494173862334 3.480520023324691 11.000000000000004
  endloop
endfacet
facet normal 4.04316060185854e-17 -9.861765901125153e-18 1.0
  outer loop
    vertex 29.027124789229283 0.7410474554312048 11.000000000000002
    vertex 27.501494173862334 3.480520023324691 11.000000000000004
    vertex 27.47758887364409 3.089671819643684 11.000000000000004
  endloop
endfacet
facet normal 4.04316060185854e-17 -9.861765901125153e-18 1.0
  outer loop
    vertex 29.027124789229283 0.7410474554312048 11.000000000000002
    vertex 27.47758887364409 3.089671819643684 11.000000000000004
    vertex 27.353339167921327 2.7183285925248923 11.000000000000004
  endloop
endfacet
facet normal 4.04316060185854e-17 -9.861765901125153e-18 1.0
  outer loop
    vertex 29.027124789229283 0.7410474554312048 11.000000000000002
    vertex 27.353339167921327 2.7183285925248923 11.000000000000004
    vertex 27.13721246880674 2.391796769222744 11.000000000000004
  endloop
endfacet
facet normal 4.04316060185854e-17 -9.861765901125153e-18 1.0
  outer loop
    vertex 29.027124789229283 0.7410474554312048 11.000000000000002
    vertex 27.13721246880674 2.391796769222744 11.000000000000004
    vertex 26.843937453678702 2.13232895387595 11.000000000000004
  endloop
endfacet
facet normal 4.04316060185854e-17 -9.861765901125153e-18 1.0
  outer loop
    vertex 18.35745858701912 -1.368884980614902 11.000000000000004
    vertex 26.498643097924486 -0.004349866036894084 11.000000000000002
    vertex 17.73841180867313 0.0011160405063809886 11.000000000000004
  endloop
endfacet
facet normal 4.04316060185854e-17 -9.861765901125153e-18 1.0
  outer loop
    vertex 26.498643097924486 -0.004349866036894084 11.000000000000002
    vertex 18.35745858701912 -1.368884980614902 11.000000000000004
    vertex 19.846084204468422 -3.1865785500166948 11.000000000000004
  endloop
endfacet
facet normal 4.04316060185854e-17 -9.861765901125153e-18 1.0
  outer loop
    vertex 26.498643097924486 -0.004349866036894084 11.000000000000002
    vertex 19.846084204468422 -3.1865785500166948 11.000000000000004
    vertex 21.75443984795978 -4.557051052158051 11.000000000000004
  endloop
endfacet
facet normal 4.04316060185854e-17 -9.861765901125153e-18 1.0
  outer loop
    vertex 26.498643097924486 -0.004349866036894084 11.000000000000002
    vertex 21.75443984795978 -4.557051052158051 11.000000000000004
    vertex 29.025114070250552 -0.01110385695559028 11.000000000000002
  endloop
endfacet
facet normal 4.04316060185854e-17 -9.861765901125153e-18 1.0
  outer loop
    vertex 29.025114070250552 -0.01110385695559028 11.000000000000002
    vertex 21.75443984795978 -4.557051052158051 11.000000000000004
    vertex 23.952474234096087 -5.386907050830964 11.000000000000004
  endloop
endfacet
facet normal 4.04316060185854e-17 -9.861765901125153e-18 1.0
  outer loop
    vertex 29.025114070250552 -0.01110385695559028 11.000000000000002
    vertex 23.952474234096087 -5.386907050830964 11.000000000000004
    vertex 29.904836087014772 -0.05529175897978805 11.000000000000002
  endloop
endfacet
facet normal 4.04316060185854e-17 -9.861765901125153e-18 1.0
  outer loop
    vertex 29.04471746152507 7.321952940311111 11.000000000000002
    vertex 33.65283760992608 8.120655606031935 11.000000000000004
    vertex 32.16421199247678 9.938349175433721 11.000000000000004
  endloop
endfacet
facet normal 4.04316060185854e-17 -9.861765901125153e-18 1.0
  outer loop
    vertex 33.65283760992608 8.120655606031935 11.000000000000004
    vertex 29.04471746152507 7.321952940311111 11.000000000000002
    vertex 29.924551317672172 7.319600888797613 11.000000000000002
  endloop
endfacet
facet normal 4.04316060185854e-17 -9.861765901125153e-18 1.0
  outer loop
    vertex 33.65283760992608 8.120655606031935 11.000000000000004
    vertex 29.924551317672172 7.319600888797613 11.000000000000002
    vertex 29.904836087014772 -0.05529175897978805 11.000000000000002
  endloop
endfacet
facet normal 4.04316060185854e-17 -9.861765901125153e-18 1.0
  outer loop
    vertex 33.65283760992608 8.120655606031935 11.000000000000004
    vertex 29.904836087014772 -0.05529175897978805 11.000000000000002
    vertex 34.62028582557433 5.9796137822438 11.000000000000004
  endloop
endfacet
facet normal 4.04316060185854e-17 -9.861765901125153e-18 1.0
  outer loop
    vertex 34.62028582557433 5.9796137822438 11.000000000000004
    vertex 29.904836087014772 -0.05529175897978805 11.000000000000002
    vertex 35.00062664230882 3.6611321661216 11.000000000000004
  endloop
endfacet
facet normal 4.04316060185854e-17 -9.861765901125153e-18 1.0
  outer loop
    vertex 35.00062664230882 3.6611321661216 11.000000000000004
    vertex 29.904836087014772 -0.05529175897978805 11.000000000000002
    vertex 34.76794046201208 1.3232114483319934 11.000000000000004
  endloop
endfacet
facet normal 4.04316060185854e-17 -9.861765901125153e-18 1.0
  outer loop
    vertex 34.76794046201208 1.3232114483319934 11.000000000000004
    vertex 29.904836087014772 -0.05529175897978805 11.000000000000002
    vertex 23.952474234096087 -5.386907050830964 11.000000000000004
  endloop
endfacet
facet normal 4.04316060185854e-17 -9.861765901125153e-18 1.0
  outer loop
    vertex 34.76794046201208 1.3232114483319934 11.000000000000004
    vertex 23.952474234096087 -5.386907050830964 11.000000000000004
    vertex 26.290394951885688 -5.619593231127712 11.000000000000004
  endloop
endfacet
facet normal 4.04316060185854e-17 -9.861765901125153e-18 1.0
  outer loop
    vertex 34.76794046201208 1.3232114483319934 11.000000000000004
    vertex 26.290394951885688 -5.619593231127712 11.000000000000004
    vertex 33.938084463339166 -0.8748229378043048 11.000000000000004
  endloop
endfacet
facet normal 4.04316060185854e-17 -9.861765901125153e-18 1.0
  outer loop
    vertex 33.938084463339166 -0.8748229378043048 11.000000000000004
    vertex 26.290394951885688 -5.619593231127712 11.000000000000004
    vertex 28.60887656800788 -5.239252414393202 11.000000000000004
  endloop
endfacet
facet normal 4.04316060185854e-17 -9.861765901125153e-18 1.0
  outer loop
    vertex 33.938084463339166 -0.8748229378043048 11.000000000000004
    vertex 28.60887656800788 -5.239252414393202 11.000000000000004
    vertex 32.5676119611978 -2.7831785812956533 11.000000000000004
  endloop
endfacet
facet normal 4.04316060185854e-17 -9.861765901125153e-18 1.0
  outer loop
    vertex 32.5676119611978 -2.7831785812956533 11.000000000000004
    vertex 28.60887656800788 -5.239252414393202 11.000000000000004
    vertex 30.749918391796026 -4.271804198744974 11.000000000000004
  endloop
endfacet
facet normal 0.6336002129917669 -0.7736606297962871 0.0
  outer loop
    vertex 32.5676119611978 -2.7831785812956533 3.616820948561239e-15
    vertex 30.749918391796026 -4.271804198744974 11.000000000000004
    vertex 30.749918391796026 -4.271804198744974 3.616820948561239e-15
  endloop
endfacet
facet normal 0.6336002129917669 -0.7736606297962871 0.0
  outer loop
    vertex 30.749918391796026 -4.271804198744974 11.000000000000004
    vertex 32.5676119611978 -2.7831785812956533 3.616820948561239e-15
    vertex 32.5676119611978 -2.7831785812956533 11.000000000000004
  endloop
endfacet
facet normal -0.09903767049829107 -0.995083684833729 0.0
  outer loop
    vertex 26.290394951885688 -5.619593231127712 3.616820948561239e-15
    vertex 23.952474234096087 -5.386907050830964 11.000000000000004
    vertex 23.952474234096087 -5.386907050830964 3.616820948561239e-15
  endloop
endfacet
facet normal -0.09903767049829107 -0.995083684833729 0.0
  outer loop
    vertex 23.952474234096087 -5.386907050830964 11.000000000000004
    vertex 26.290394951885688 -5.619593231127712 3.616820948561239e-15
    vertex 26.290394951885688 -5.619593231127712 11.000000000000004
  endloop
endfacet
facet normal -0.7736606297962934 -0.6336002129917593 0.0
  outer loop
    vertex 19.846084204468422 -3.1865785500166948 11.000000000000004
    vertex 18.35745858701912 -1.368884980614902 3.616820948561239e-15
    vertex 19.846084204468422 -3.1865785500166948 3.616820948561239e-15
  endloop
endfacet
facet normal -0.7736606297962934 -0.6336002129917593 0.0
  outer loop
    vertex 18.35745858701912 -1.368884980614902 3.616820948561239e-15
    vertex 19.846084204468422 -3.1865785500166948 11.000000000000004
    vertex 18.35745858701912 -1.368884980614902 11.000000000000004
  endloop
endfacet
facet normal -0.986809865807337 -0.1618835653959526 0.0
  outer loop
    vertex 17.390010371370874 0.772156843173223 11.000000000000004
    vertex 17.009669554636368 3.0906384592954432 3.616820948561239e-15
    vertex 17.390010371370874 0.772156843173223 3.616820948561239e-15
  endloop
endfacet
facet normal -0.986809865807337 -0.1618835653959526 0.0
  outer loop
    vertex 17.009669554636368 3.0906384592954432 3.616820948561239e-15
    vertex 17.390010371370874 0.772156843173223 11.000000000000004
    vertex 17.009669554636368 3.0906384592954432 11.000000000000004
  endloop
endfacet
facet normal 0.16188356539595272 -0.9868098658073371 0.0
  outer loop
    vertex 28.60887656800788 -5.239252414393202 3.616820948561239e-15
    vertex 26.290394951885688 -5.619593231127712 11.000000000000004
    vertex 26.290394951885688 -5.619593231127712 3.616820948561239e-15
  endloop
endfacet
facet normal 0.16188356539595272 -0.9868098658073371 0.0
  outer loop
    vertex 26.290394951885688 -5.619593231127712 11.000000000000004
    vertex 28.60887656800788 -5.239252414393202 3.616820948561239e-15
    vertex 28.60887656800788 -5.239252414393202 11.000000000000004
  endloop
endfacet
facet normal -0.4117727038337038 0.9112865852065862 0.0
  outer loop
    vertex 23.401419628937308 11.991023039810239 11.000000000000004
    vertex 21.260377805149176 11.023574824162004 3.616820948561239e-15
    vertex 21.260377805149176 11.023574824162004 11.000000000000004
  endloop
endfacet
facet normal -0.4117727038337038 0.9112865852065862 0.0
  outer loop
    vertex 21.260377805149176 11.023574824162004 3.616820948561239e-15
    vertex 23.401419628937308 11.991023039810239 11.000000000000004
    vertex 23.401419628937308 11.991023039810239 3.616820948561239e-15
  endloop
endfacet
facet normal -0.16188356539595067 0.9868098658073374 0.0
  outer loop
    vertex 25.719901245059514 12.371363856544743 11.000000000000004
    vertex 23.401419628937308 11.991023039810239 3.616820948561239e-15
    vertex 23.401419628937308 11.991023039810239 11.000000000000004
  endloop
endfacet
facet normal -0.16188356539595067 0.9868098658073374 0.0
  outer loop
    vertex 23.401419628937308 11.991023039810239 3.616820948561239e-15
    vertex 25.719901245059514 12.371363856544743 11.000000000000004
    vertex 25.719901245059514 12.371363856544743 3.616820948561239e-15
  endloop
endfacet
facet normal -0.8122489147082879 0.5833109810000225 0.0
  outer loop
    vertex 19.442684235747393 9.534949206712694 11.000000000000004
    vertex 18.07221173360603 7.626593563221333 3.616820948561239e-15
    vertex 18.07221173360603 7.626593563221333 11.000000000000004
  endloop
endfacet
facet normal -0.8122489147082879 0.5833109810000225 0.0
  outer loop
    vertex 18.07221173360603 7.626593563221333 3.616820948561239e-15
    vertex 19.442684235747393 9.534949206712694 11.000000000000004
    vertex 19.442684235747393 9.534949206712694 3.616820948561239e-15
  endloop
endfacet
facet normal -0.583310981000022 -0.8122489147082881 0.0
  outer loop
    vertex 21.75443984795978 -4.557051052158051 11.000000000000004
    vertex 19.846084204468422 -3.1865785500166948 3.616820948561239e-15
    vertex 21.75443984795978 -4.557051052158051 3.616820948561239e-15
  endloop
endfacet
facet normal -0.583310981000022 -0.8122489147082881 0.0
  outer loop
    vertex 19.846084204468422 -3.1865785500166948 3.616820948561239e-15
    vertex 21.75443984795978 -4.557051052158051 11.000000000000004
    vertex 19.846084204468422 -3.1865785500166948 11.000000000000004
  endloop
endfacet
facet normal -0.6336002129917634 0.7736606297962901 0.0
  outer loop
    vertex 21.260377805149176 11.023574824162004 11.000000000000004
    vertex 19.442684235747393 9.534949206712694 3.616820948561239e-15
    vertex 19.442684235747393 9.534949206712694 11.000000000000004
  endloop
endfacet
facet normal -0.6336002129917634 0.7736606297962901 0.0
  outer loop
    vertex 19.442684235747393 9.534949206712694 3.616820948561239e-15
    vertex 21.260377805149176 11.023574824162004 11.000000000000004
    vertex 21.260377805149176 11.023574824162004 3.616820948561239e-15
  endloop
endfacet
facet normal 0.09903767049829493 0.9950836848337286 0.0
  outer loop
    vertex 28.057821962849115 12.138677676247983 11.000000000000004
    vertex 25.719901245059514 12.371363856544743 3.616820948561239e-15
    vertex 25.719901245059514 12.371363856544743 11.000000000000004
  endloop
endfacet
facet normal 0.09903767049829493 0.9950836848337286 0.0
  outer loop
    vertex 25.719901245059514 12.371363856544743 3.616820948561239e-15
    vertex 28.057821962849115 12.138677676247983 11.000000000000004
    vertex 28.057821962849115 12.138677676247983 3.616820948561239e-15
  endloop
endfacet
facet normal 0.9355441951922427 -0.3532096528155748 0.0
  outer loop
    vertex 34.76794046201208 1.3232114483319934 3.616820948561239e-15
    vertex 33.938084463339166 -0.8748229378043048 11.000000000000004
    vertex 33.938084463339166 -0.8748229378043048 3.616820948561239e-15
  endloop
endfacet
facet normal 0.9355441951922427 -0.3532096528155748 0.0
  outer loop
    vertex 33.938084463339166 -0.8748229378043048 11.000000000000004
    vertex 34.76794046201208 1.3232114483319934 3.616820948561239e-15
    vertex 34.76794046201208 1.3232114483319934 11.000000000000004
  endloop
endfacet
facet normal 0.8122489147082852 -0.5833109810000262 0.0
  outer loop
    vertex 33.938084463339166 -0.8748229378043048 3.616820948561239e-15
    vertex 32.5676119611978 -2.7831785812956533 11.000000000000004
    vertex 32.5676119611978 -2.7831785812956533 3.616820948561239e-15
  endloop
endfacet
facet normal 0.8122489147082852 -0.5833109810000262 0.0
  outer loop
    vertex 32.5676119611978 -2.7831785812956533 11.000000000000004
    vertex 33.938084463339166 -0.8748229378043048 3.616820948561239e-15
    vertex 33.938084463339166 -0.8748229378043048 11.000000000000004
  endloop
endfacet
facet normal 0.9868098658073374 0.16188356539594953 0.0
  outer loop
    vertex 34.62028582557433 5.9796137822438 11.000000000000004
    vertex 35.00062664230882 3.6611321661216 3.616820948561239e-15
    vertex 34.62028582557433 5.9796137822438 3.616820948561239e-15
  endloop
endfacet
facet normal 0.9868098658073374 0.16188356539594953 0.0
  outer loop
    vertex 35.00062664230882 3.6611321661216 3.616820948561239e-15
    vertex 34.62028582557433 5.9796137822438 11.000000000000004
    vertex 35.00062664230882 3.6611321661216 11.000000000000004
  endloop
endfacet
facet normal 0.9112865852065842 0.4117727038337087 0.0
  outer loop
    vertex 33.65283760992608 8.120655606031935 11.000000000000004
    vertex 34.62028582557433 5.9796137822438 3.616820948561239e-15
    vertex 33.65283760992608 8.120655606031935 3.616820948561239e-15
  endloop
endfacet
facet normal 0.9112865852065842 0.4117727038337087 0.0
  outer loop
    vertex 34.62028582557433 5.9796137822438 3.616820948561239e-15
    vertex 33.65283760992608 8.120655606031935 11.000000000000004
    vertex 34.62028582557433 5.9796137822438 11.000000000000004
  endloop
endfacet
facet normal 0.995083684833729 -0.0990376704982916 0.0
  outer loop
    vertex 35.00062664230882 3.6611321661216 11.000000000000004
    vertex 34.76794046201208 1.3232114483319934 3.616820948561239e-15
    vertex 35.00062664230882 3.6611321661216 3.616820948561239e-15
  endloop
endfacet
facet normal 0.995083684833729 -0.0990376704982916 0.0
  outer loop
    vertex 34.76794046201208 1.3232114483319934 3.616820948561239e-15
    vertex 35.00062664230882 3.6611321661216 11.000000000000004
    vertex 34.76794046201208 1.3232114483319934 11.000000000000004
  endloop
endfacet
facet normal -0.19936793441716866 0.9799247046208356 0.0
  outer loop
    vertex 26.493500330158312 1.957607449309541 11.000000000000004
    vertex 26.109782809088756 1.8795392373187905 3.616820948561239e-15
    vertex 26.109782809088756 1.8795392373187905 11.000000000000004
  endloop
endfacet
facet normal -0.19936793441716866 0.9799247046208356 0.0
  outer loop
    vertex 26.109782809088756 1.8795392373187905 3.616820948561239e-15
    vertex 26.493500330158312 1.957607449309541 11.000000000000004
    vertex 26.493500330158312 1.957607449309541 3.616820948561239e-15
  endloop
endfacet
facet normal 0.9483236552061869 -0.3173046564051295 0.0
  outer loop
    vertex 24.65695702902386 4.0334420328921405 3.616820948561239e-15
    vertex 24.5327073233011 3.6620988057733506 11.000000000000004
    vertex 24.5327073233011 3.6620988057733506 3.616820948561239e-15
  endloop
endfacet
facet normal 0.9483236552061869 -0.3173046564051295 0.0
  outer loop
    vertex 24.5327073233011 3.6620988057733506 11.000000000000004
    vertex 24.65695702902386 4.0334420328921405 3.616820948561239e-15
    vertex 24.65695702902386 4.0334420328921405 11.000000000000004
  endloop
endfacet
facet normal -0.6626200482157237 0.7489557207890144 0.0
  outer loop
    vertex 27.13721246880674 2.391796769222744 11.000000000000004
    vertex 26.843937453678702 2.13232895387595 3.616820948561239e-15
    vertex 26.843937453678702 2.13232895387595 11.000000000000004
  endloop
endfacet
facet normal -0.6626200482157237 0.7489557207890144 0.0
  outer loop
    vertex 26.843937453678702 2.13232895387595 3.616820948561239e-15
    vertex 27.13721246880674 2.391796769222744 11.000000000000004
    vertex 27.13721246880674 2.391796769222744 3.616820948561239e-15
  endloop
endfacet
facet normal 0.7489557207890144 0.6626200482157237 0.0
  outer loop
    vertex 24.761591739640032 2.5370959575024132 11.000000000000004
    vertex 25.021059554986817 2.2438209423743722 3.616820948561239e-15
    vertex 24.761591739640032 2.5370959575024132 3.616820948561239e-15
  endloop
endfacet
facet normal 0.7489557207890144 0.6626200482157237 0.0
  outer loop
    vertex 25.021059554986817 2.2438209423743722 3.616820948561239e-15
    vertex 24.761591739640032 2.5370959575024132 11.000000000000004
    vertex 25.021059554986817 2.2438209423743722 11.000000000000004
  endloop
endfacet
facet normal -0.8338858220671707 0.5519369853120544 0.0
  outer loop
    vertex 27.353339167921327 2.7183285925248923 11.000000000000004
    vertex 27.13721246880674 2.391796769222744 3.616820948561239e-15
    vertex 27.13721246880674 2.391796769222744 11.000000000000004
  endloop
endfacet
facet normal -0.8338858220671707 0.5519369853120544 0.0
  outer loop
    vertex 27.13721246880674 2.391796769222744 3.616820948561239e-15
    vertex 27.353339167921327 2.7183285925248923 11.000000000000004
    vertex 27.353339167921327 2.7183285925248923 3.616820948561239e-15
  endloop
endfacet
facet normal 0.06104853953484207 0.9981347984218679 0.0
  outer loop
    vertex 26.109782809088756 1.8795392373187905 11.000000000000004
    vertex 25.71893460540776 1.903444537537025 3.616820948561239e-15
    vertex 25.71893460540776 1.903444537537025 11.000000000000004
  endloop
endfacet
facet normal 0.06104853953484207 0.9981347984218679 0.0
  outer loop
    vertex 25.71893460540776 1.903444537537025 3.616820948561239e-15
    vertex 26.109782809088756 1.8795392373187905 11.000000000000004
    vertex 26.109782809088756 1.8795392373187905 3.616820948561239e-15
  endloop
endfacet
facet normal -0.9483236552061869 0.3173046564051295 0.0
  outer loop
    vertex 27.47758887364409 3.089671819643684 11.000000000000004
    vertex 27.353339167921327 2.7183285925248923 3.616820948561239e-15
    vertex 27.353339167921327 2.7183285925248923 11.000000000000004
  endloop
endfacet
facet normal -0.9483236552061869 0.3173046564051295 0.0
  outer loop
    vertex 27.353339167921327 2.7183285925248923 3.616820948561239e-15
    vertex 27.47758887364409 3.089671819643684 11.000000000000004
    vertex 27.47758887364409 3.089671819643684 3.616820948561239e-15
  endloop
endfacet
facet normal 0.19936793441716866 -0.9799247046208356 0.0
  outer loop
    vertex 25.90051338785643 4.872231388098247 3.616820948561239e-15
    vertex 25.516795866786875 4.794163176107496 11.000000000000004
    vertex 25.516795866786875 4.794163176107496 3.616820948561239e-15
  endloop
endfacet
facet normal 0.19936793441716866 -0.9799247046208356 0.0
  outer loop
    vertex 25.516795866786875 4.794163176107496 11.000000000000004
    vertex 25.90051338785643 4.872231388098247 3.616820948561239e-15
    vertex 25.90051338785643 4.872231388098247 11.000000000000004
  endloop
endfacet
facet normal 0.5519369853120544 0.8338858220671707 0.0
  outer loop
    vertex 25.021059554986817 2.2438209423743722 11.000000000000004
    vertex 25.34759137828897 2.0276942432597793 3.616820948561239e-15
    vertex 25.021059554986817 2.2438209423743722 3.616820948561239e-15
  endloop
endfacet
facet normal 0.5519369853120544 0.8338858220671707 0.0
  outer loop
    vertex 25.34759137828897 2.0276942432597793 3.616820948561239e-15
    vertex 25.021059554986817 2.2438209423743722 11.000000000000004
    vertex 25.34759137828897 2.0276942432597793 11.000000000000004
  endloop
endfacet
facet normal -0.998134798421866 0.06104853953487377 0.0
  outer loop
    vertex 27.47758887364409 3.089671819643684 11.000000000000004
    vertex 27.501494173862334 3.480520023324691 3.616820948561239e-15
    vertex 27.47758887364409 3.089671819643684 3.616820948561239e-15
  endloop
endfacet
facet normal -0.998134798421866 0.06104853953487377 0.0
  outer loop
    vertex 27.501494173862334 3.480520023324691 3.616820948561239e-15
    vertex 27.47758887364409 3.089671819643684 11.000000000000004
    vertex 27.501494173862334 3.480520023324691 11.000000000000004
  endloop
endfacet
facet normal 0.8338858220671707 -0.5519369853120544 0.0
  outer loop
    vertex 24.873083728138454 4.359973856194293 3.616820948561239e-15
    vertex 24.65695702902386 4.0334420328921405 11.000000000000004
    vertex 24.65695702902386 4.0334420328921405 3.616820948561239e-15
  endloop
endfacet
facet normal 0.8338858220671707 -0.5519369853120544 0.0
  outer loop
    vertex 24.65695702902386 4.0334420328921405 11.000000000000004
    vertex 24.873083728138454 4.359973856194293 3.616820948561239e-15
    vertex 24.873083728138454 4.359973856194293 11.000000000000004
  endloop
endfacet
facet normal -0.44619781310980333 0.8949343616020279 0.0
  outer loop
    vertex 26.843937453678702 2.13232895387595 11.000000000000004
    vertex 26.493500330158312 1.957607449309541 3.616820948561239e-15
    vertex 26.493500330158312 1.957607449309541 11.000000000000004
  endloop
endfacet
facet normal -0.44619781310980333 0.8949343616020279 0.0
  outer loop
    vertex 26.493500330158312 1.957607449309541 3.616820948561239e-15
    vertex 26.843937453678702 2.13232895387595 11.000000000000004
    vertex 26.843937453678702 2.13232895387595 3.616820948561239e-15
  endloop
endfacet
facet normal 0.44619781310980333 -0.8949343616020279 0.0
  outer loop
    vertex 25.516795866786875 4.794163176107496 3.616820948561239e-15
    vertex 25.166358743266493 4.619441671541087 11.000000000000004
    vertex 25.166358743266493 4.619441671541087 3.616820948561239e-15
  endloop
endfacet
facet normal 0.44619781310980333 -0.8949343616020279 0.0
  outer loop
    vertex 25.166358743266493 4.619441671541087 11.000000000000004
    vertex 25.516795866786875 4.794163176107496 3.616820948561239e-15
    vertex 25.516795866786875 4.794163176107496 11.000000000000004
  endloop
endfacet
facet normal 0.3173046564051211 0.9483236552061897 0.0
  outer loop
    vertex 25.34759137828897 2.0276942432597793 11.000000000000004
    vertex 25.71893460540776 1.903444537537025 3.616820948561239e-15
    vertex 25.34759137828897 2.0276942432597793 3.616820948561239e-15
  endloop
endfacet
facet normal 0.3173046564051211 0.9483236552061897 0.0
  outer loop
    vertex 25.71893460540776 1.903444537537025 3.616820948561239e-15
    vertex 25.34759137828897 2.0276942432597793 11.000000000000004
    vertex 25.71893460540776 1.903444537537025 11.000000000000004
  endloop
endfacet
facet normal -0.9799247046208301 -0.1993679344171947 0.0
  outer loop
    vertex 27.501494173862334 3.480520023324691 11.000000000000004
    vertex 27.42342596187158 3.8642375443942356 3.616820948561239e-15
    vertex 27.501494173862334 3.480520023324691 3.616820948561239e-15
  endloop
endfacet
facet normal -0.9799247046208301 -0.1993679344171947 0.0
  outer loop
    vertex 27.42342596187158 3.8642375443942356 3.616820948561239e-15
    vertex 27.501494173862334 3.480520023324691 11.000000000000004
    vertex 27.42342596187158 3.8642375443942356 11.000000000000004
  endloop
endfacet
facet normal 0.9981347984218679 -0.06104853953484207 0.0
  outer loop
    vertex 24.5327073233011 3.6620988057733506 11.000000000000004
    vertex 24.508802023082865 3.2712506020923513 3.616820948561239e-15
    vertex 24.5327073233011 3.6620988057733506 3.616820948561239e-15
  endloop
endfacet
facet normal 0.9981347984218679 -0.06104853953484207 0.0
  outer loop
    vertex 24.508802023082865 3.2712506020923513 3.616820948561239e-15
    vertex 24.5327073233011 3.6620988057733506 11.000000000000004
    vertex 24.508802023082865 3.2712506020923513 11.000000000000004
  endloop
endfacet
facet normal 0.9799247046208356 0.19936793441716866 0.0
  outer loop
    vertex 24.508802023082865 3.2712506020923513 11.000000000000004
    vertex 24.586870235073615 2.8875330810227977 3.616820948561239e-15
    vertex 24.508802023082865 3.2712506020923513 3.616820948561239e-15
  endloop
endfacet
facet normal 0.9799247046208356 0.19936793441716866 0.0
  outer loop
    vertex 24.586870235073615 2.8875330810227977 3.616820948561239e-15
    vertex 24.508802023082865 3.2712506020923513 11.000000000000004
    vertex 24.586870235073615 2.8875330810227977 11.000000000000004
  endloop
endfacet
facet normal 0.6626200482157237 -0.7489557207890144 0.0
  outer loop
    vertex 25.166358743266493 4.619441671541087 3.616820948561239e-15
    vertex 24.873083728138454 4.359973856194293 11.000000000000004
    vertex 24.873083728138454 4.359973856194293 3.616820948561239e-15
  endloop
endfacet
facet normal 0.6626200482157237 -0.7489557207890144 0.0
  outer loop
    vertex 24.873083728138454 4.359973856194293 11.000000000000004
    vertex 25.166358743266493 4.619441671541087 3.616820948561239e-15
    vertex 25.166358743266493 4.619441671541087 11.000000000000004
  endloop
endfacet
facet normal 0.8949343616020279 0.44619781310980333 0.0
  outer loop
    vertex 24.586870235073615 2.8875330810227977 11.000000000000004
    vertex 24.761591739640032 2.5370959575024132 3.616820948561239e-15
    vertex 24.586870235073615 2.8875330810227977 3.616820948561239e-15
  endloop
endfacet
facet normal 0.8949343616020279 0.44619781310980333 0.0
  outer loop
    vertex 24.761591739640032 2.5370959575024132 3.616820948561239e-15
    vertex 24.586870235073615 2.8875330810227977 11.000000000000004
    vertex 24.761591739640032 2.5370959575024132 11.000000000000004
  endloop
endfacet
facet normal -0.7489557207890144 -0.6626200482157237 0.0
  outer loop
    vertex 27.248704457305166 4.21467466791462 11.000000000000004
    vertex 26.989236641958374 4.507949683042659 3.616820948561239e-15
    vertex 27.248704457305166 4.21467466791462 3.616820948561239e-15
  endloop
endfacet
facet normal -0.7489557207890144 -0.6626200482157237 0.0
  outer loop
    vertex 26.989236641958374 4.507949683042659 3.616820948561239e-15
    vertex 27.248704457305166 4.21467466791462 11.000000000000004
    vertex 26.989236641958374 4.507949683042659 11.000000000000004
  endloop
endfacet
facet normal -0.06104853953484207 -0.9981347984218679 0.0
  outer loop
    vertex 26.291361591537427 4.848326087880014 3.616820948561239e-15
    vertex 25.90051338785643 4.872231388098247 11.000000000000004
    vertex 25.90051338785643 4.872231388098247 3.616820948561239e-15
  endloop
endfacet
facet normal -0.06104853953484207 -0.9981347984218679 0.0
  outer loop
    vertex 25.90051338785643 4.872231388098247 11.000000000000004
    vertex 26.291361591537427 4.848326087880014 3.616820948561239e-15
    vertex 26.291361591537427 4.848326087880014 11.000000000000004
  endloop
endfacet
facet normal -0.3173046564051295 -0.9483236552061869 0.0
  outer loop
    vertex 26.662704818656227 4.724076382157253 11.000000000000004
    vertex 26.291361591537427 4.848326087880014 3.616820948561239e-15
    vertex 26.662704818656227 4.724076382157253 3.616820948561239e-15
  endloop
endfacet
facet normal -0.3173046564051295 -0.9483236552061869 0.0
  outer loop
    vertex 26.291361591537427 4.848326087880014 3.616820948561239e-15
    vertex 26.662704818656227 4.724076382157253 11.000000000000004
    vertex 26.291361591537427 4.848326087880014 11.000000000000004
  endloop
endfacet
facet normal -0.8949343616020279 -0.44619781310980333 0.0
  outer loop
    vertex 27.42342596187158 3.8642375443942356 11.000000000000004
    vertex 27.248704457305166 4.21467466791462 3.616820948561239e-15
    vertex 27.42342596187158 3.8642375443942356 3.616820948561239e-15
  endloop
endfacet
facet normal -0.8949343616020279 -0.44619781310980333 0.0
  outer loop
    vertex 27.248704457305166 4.21467466791462 3.616820948561239e-15
    vertex 27.42342596187158 3.8642375443942356 11.000000000000004
    vertex 27.248704457305166 4.21467466791462 11.000000000000004
  endloop
endfacet
facet normal -0.5519369853120544 -0.8338858220671707 0.0
  outer loop
    vertex 26.989236641958374 4.507949683042659 11.000000000000004
    vertex 26.662704818656227 4.724076382157253 3.616820948561239e-15
    vertex 26.989236641958374 4.507949683042659 3.616820948561239e-15
  endloop
endfacet
facet normal -0.5519369853120544 -0.8338858220671707 0.0
  outer loop
    vertex 26.662704818656227 4.724076382157253 3.616820948561239e-15
    vertex 26.989236641958374 4.507949683042659 11.000000000000004
    vertex 26.662704818656227 4.724076382157253 11.000000000000004
  endloop
endfacet
facet normal 0.000623945338751486 0.9999998053460883 1.1561155579398721e-17
  outer loop
    vertex 26.498643097924486 -0.004349866036894084 11.000000000000002
    vertex 17.73841180867313 0.0011160405063809886 3.616820948561239e-15
    vertex 17.73841180867313 0.0011160405063809886 11.000000000000004
  endloop
endfacet
facet normal 0.000623945338751486 0.9999998053460883 1.1561155579398721e-17
  outer loop
    vertex 17.73841180867313 0.0011160405063809886 3.616820948561239e-15
    vertex 26.498643097924486 -0.004349866036894084 11.000000000000002
    vertex 26.498643097924486 -0.004349866036894084 7.968544660133422e-16
  endloop
endfacet
facet normal 0.0026732809753894356 0.9999964267780294 6.6610561709033154e-21
  outer loop
    vertex 29.025114070250552 -0.01110385695559028 11.000000000000002
    vertex 26.498643097924486 -0.004349866036894084 7.968544660133422e-16
    vertex 26.498643097924486 -0.004349866036894084 11.000000000000002
  endloop
endfacet
facet normal 0.0026732809753894356 0.9999964267780294 6.6610561709033154e-21
  outer loop
    vertex 26.498643097924486 -0.004349866036894084 7.968544660133422e-16
    vertex 29.025114070250552 -0.01110385695559028 11.000000000000002
    vertex 29.025114070250552 -0.01110385695559028 0.0
  endloop
endfacet
facet normal 0.0501661474685484 0.998740886140226 -8.76632258671165e-20
  outer loop
    vertex 29.904836087014772 -0.05529175897978805 11.000000000000002
    vertex 29.025114070250552 -0.01110385695559028 0.0
    vertex 29.025114070250552 -0.01110385695559028 11.000000000000002
  endloop
endfacet
facet normal 0.0501661474685484 0.998740886140226 -8.76632258671165e-20
  outer loop
    vertex 29.025114070250552 -0.01110385695559028 0.0
    vertex 29.904836087014772 -0.05529175897978805 11.000000000000002
    vertex 29.904836087014772 -0.05529175897978805 1.4099832412739487e-15
  endloop
endfacet
facet normal -0.9999964267780295 0.0026732809753430837 0.0
  outer loop
    vertex 29.904836087014772 -0.05529175897978805 11.000000000000002
    vertex 29.924551317672172 7.319600888797613 1.4099832412739487e-15
    vertex 29.904836087014772 -0.05529175897978805 1.4099832412739487e-15
  endloop
endfacet
facet normal -0.9999964267780295 0.0026732809753430837 0.0
  outer loop
    vertex 29.924551317672172 7.319600888797613 1.4099832412739487e-15
    vertex 29.904836087014772 -0.05529175897978805 11.000000000000002
    vertex 29.924551317672172 7.319600888797613 11.000000000000002
  endloop
endfacet
facet normal -0.0026732809753430837 -0.9999964267780295 0.0
  outer loop
    vertex 29.924551317672172 7.319600888797613 1.4099832412739487e-15
    vertex 29.04471746152507 7.321952940311111 11.000000000000002
    vertex 29.04471746152507 7.321952940311111 1.4099832412739487e-15
  endloop
endfacet
facet normal -0.0026732809753430837 -0.9999964267780295 0.0
  outer loop
    vertex 29.04471746152507 7.321952940311111 11.000000000000002
    vertex 29.924551317672172 7.319600888797613 1.4099832412739487e-15
    vertex 29.924551317672172 7.319600888797613 11.000000000000002
  endloop
endfacet
facet normal 0.9999964267780295 -0.0026732809753432503 -4.561624785831274e-20
  outer loop
    vertex 29.04471746152507 7.321952940311111 1.4099832412739487e-15
    vertex 29.027124789229283 0.7410474554312048 11.000000000000002
    vertex 29.027124789229283 0.7410474554312048 0.0
  endloop
endfacet
facet normal 0.9999964267780295 -0.0026732809753432503 -4.561624785831274e-20
  outer loop
    vertex 29.027124789229283 0.7410474554312048 11.000000000000002
    vertex 29.04471746152507 7.321952940311111 1.4099832412739487e-15
    vertex 29.04471746152507 7.321952940311111 11.000000000000002
  endloop
endfacet
endsolid spool
