solid stepper_axis
facet normal 0.7937202824482542 -0.6082829220274588 0.0
  outer loop
    vertex 109.693695038395 10.469140855336343 0.0
    vertex 109.05852020955716 9.64033056608999 11.0
    vertex 109.05852020955716 9.64033056608999 0.0
  endloop
endfacet
facet normal 0.7937202824482542 -0.6082829220274588 0.0
  outer loop
    vertex 109.05852020955716 9.64033056608999 11.0
    vertex 109.693695038395 10.469140855336343 0.0
    vertex 109.693695038395 10.469140855336343 11.0
  endloop
endfacet
facet normal 0.9913659731300464 0.13112401503888035 0.0
  outer loop
    vertex 110.09146636800612 13.504657445864206 0.0
    vertex 110.22838731513916 12.469463641310677 11.0
    vertex 110.22838731513916 12.469463641310677 0.0
  endloop
endfacet
facet normal 0.9913659731300464 0.13112401503888035 0.0
  outer loop
    vertex 110.22838731513916 12.469463641310677 11.0
    vertex 110.09146636800612 13.504657445864206 0.0
    vertex 110.09146636800612 13.504657445864206 11.0
  endloop
endfacet
facet normal 0.6082829220274631 0.793720282448251 0.0
  outer loop
    vertex 108.22629880696921 15.932358615960338 11.0
    vertex 109.05510909621556 15.297183787122487 0.0
    vertex 108.22629880696921 15.932358615960338 0.0
  endloop
endfacet
facet normal 0.6082829220274631 0.793720282448251 0.0
  outer loop
    vertex 109.05510909621556 15.297183787122487 0.0
    vertex 108.22629880696921 15.932358615960338 11.0
    vertex 109.05510909621556 15.297183787122487 11.0
  endloop
endfacet
facet normal -0.38324046708542003 0.9236486043881349 0.0
  outer loop
    vertex 104.22629953420018 15.9299465945851 11.0
    vertex 105.19078221644135 16.33012994557145 0.0
    vertex 104.22629953420018 15.9299465945851 0.0
  endloop
endfacet
facet normal -0.38324046708542003 0.9236486043881349 0.0
  outer loop
    vertex 105.19078221644135 16.33012994557145 0.0
    vertex 104.22629953420018 15.9299465945851 11.0
    vertex 105.19078221644135 16.33012994557145 11.0
  endloop
endfacet
facet normal 0.0 0.0 1.0
  outer loop
    vertex 105.19544188392113 8.602724740161229 11.0
    vertex 104.72838804237013 12.467051619935445 11.0
    vertex 104.23047727777102 9.001744623910557 11.0
  endloop
endfacet
facet normal 0.0 0.0 1.0
  outer loop
    vertex 104.72838804237013 12.467051619935445 11.0
    vertex 105.19544188392113 8.602724740161229 11.0
    vertex 104.77949930293653 12.078823052281663 11.0
  endloop
endfacet
facet normal 0.0 0.0 1.0
  outer loop
    vertex 104.77949930293653 12.078823052281663 11.0
    vertex 105.19544188392113 8.602724740161229 11.0
    vertex 104.92934993669347 11.717051619935445 11.0
  endloop
endfacet
facet normal 0.0 0.0 1.0
  outer loop
    vertex 104.92934993669347 11.717051619935445 11.0
    vertex 105.19544188392113 8.602724740161229 11.0
    vertex 105.1677278705903 11.406391448155624 11.0
  endloop
endfacet
facet normal 0.0 0.0 1.0
  outer loop
    vertex 105.1677278705903 11.406391448155624 11.0
    vertex 105.19544188392113 8.602724740161229 11.0
    vertex 105.47838804237011 11.168013514258789 11.0
  endloop
endfacet
facet normal 0.0 0.0 1.0
  outer loop
    vertex 105.47838804237011 11.168013514258789 11.0
    vertex 105.19544188392113 8.602724740161229 11.0
    vertex 106.23080006374533 8.467052347166401 11.0
  endloop
endfacet
facet normal 0.0 0.0 1.0
  outer loop
    vertex 105.47838804237011 11.168013514258789 11.0
    vertex 106.23080006374533 8.467052347166401 11.0
    vertex 105.84015947471634 11.018162880501842 11.0
  endloop
endfacet
facet normal 0.0 0.0 1.0
  outer loop
    vertex 105.84015947471634 11.018162880501842 11.0
    vertex 106.23080006374533 8.467052347166401 11.0
    vertex 106.22838804237013 10.967051619935445 11.0
  endloop
endfacet
facet normal 0.0 0.0 1.0
  outer loop
    vertex 106.22838804237013 10.967051619935445 11.0
    vertex 106.23080006374533 8.467052347166401 11.0
    vertex 106.61661661002391 11.018162880501842 11.0
  endloop
endfacet
facet normal 0.0 0.0 1.0
  outer loop
    vertex 106.61661661002391 11.018162880501842 11.0
    vertex 106.23080006374533 8.467052347166401 11.0
    vertex 107.26599386829888 8.603973294299438 11.0
  endloop
endfacet
facet normal 0.0 0.0 1.0
  outer loop
    vertex 106.61661661002391 11.018162880501842 11.0
    vertex 107.26599386829888 8.603973294299438 11.0
    vertex 106.97838804237014 11.168013514258789 11.0
  endloop
endfacet
facet normal 0.0 0.0 1.0
  outer loop
    vertex 106.97838804237014 11.168013514258789 11.0
    vertex 107.26599386829888 8.603973294299438 11.0
    vertex 107.28904821414996 11.406391448155624 11.0
  endloop
endfacet
facet normal 0.0 0.0 1.0
  outer loop
    vertex 107.28904821414996 11.406391448155624 11.0
    vertex 107.26599386829888 8.603973294299438 11.0
    vertex 108.23047655054008 9.00415664528579 11.0
  endloop
endfacet
facet normal 0.0 0.0 1.0
  outer loop
    vertex 107.28904821414996 11.406391448155624 11.0
    vertex 108.23047655054008 9.00415664528579 11.0
    vertex 107.52742614804677 11.717051619935447 11.0
  endloop
endfacet
facet normal 0.0 0.0 1.0
  outer loop
    vertex 107.52742614804677 11.717051619935447 11.0
    vertex 108.23047655054008 9.00415664528579 11.0
    vertex 107.67727678180373 12.078823052281665 11.0
  endloop
endfacet
facet normal 0.0 0.0 1.0
  outer loop
    vertex 107.67727678180373 12.078823052281665 11.0
    vertex 108.23047655054008 9.00415664528579 11.0
    vertex 107.72838804237013 12.467051619935445 11.0
  endloop
endfacet
facet normal 0.0 0.0 1.0
  outer loop
    vertex 107.72838804237013 12.467051619935445 11.0
    vertex 108.23047655054008 9.00415664528579 11.0
    vertex 108.22629880696921 15.932358615960338 11.0
  endloop
endfacet
facet normal 0.0 0.0 1.0
  outer loop
    vertex 108.22629880696921 15.932358615960338 11.0
    vertex 108.23047655054008 9.00415664528579 11.0
    vertex 109.05510909621556 15.297183787122487 11.0
  endloop
endfacet
facet normal 0.0 0.0 1.0
  outer loop
    vertex 109.05510909621556 15.297183787122487 11.0
    vertex 108.23047655054008 9.00415664528579 11.0
    vertex 109.05852020955716 9.64033056608999 11.0
  endloop
endfacet
facet normal 0.0 0.0 1.0
  outer loop
    vertex 109.05510909621556 15.297183787122487 11.0
    vertex 109.05852020955716 9.64033056608999 11.0
    vertex 109.69128301701977 14.469140128105389 11.0
  endloop
endfacet
facet normal 0.0 0.0 1.0
  outer loop
    vertex 109.69128301701977 14.469140128105389 11.0
    vertex 109.05852020955716 9.64033056608999 11.0
    vertex 109.693695038395 10.469140855336343 11.0
  endloop
endfacet
facet normal 0.0 0.0 1.0
  outer loop
    vertex 109.69128301701977 14.469140128105389 11.0
    vertex 109.693695038395 10.469140855336343 11.0
    vertex 110.09146636800612 13.504657445864206 11.0
  endloop
endfacet
facet normal 0.0 0.0 1.0
  outer loop
    vertex 110.09146636800612 13.504657445864206 11.0
    vertex 109.693695038395 10.469140855336343 11.0
    vertex 110.09271492214432 11.434105461486483 11.0
  endloop
endfacet
facet normal 0.0 0.0 1.0
  outer loop
    vertex 110.09146636800612 13.504657445864206 11.0
    vertex 110.09271492214432 11.434105461486483 11.0
    vertex 110.22838731513916 12.469463641310677 11.0
  endloop
endfacet
facet normal 0.0 0.0 1.0
  outer loop
    vertex 102.3653097167341 11.429445794006686 11.0
    vertex 102.3640611625959 13.49999777838441 11.0
    vertex 102.22838876960107 12.464639598560211 11.0
  endloop
endfacet
facet normal 0.0 0.0 1.0
  outer loop
    vertex 102.3640611625959 13.49999777838441 11.0
    vertex 102.3653097167341 11.429445794006686 11.0
    vertex 102.76308104634523 14.464962384534546 11.0
  endloop
endfacet
facet normal 0.0 0.0 1.0
  outer loop
    vertex 102.76308104634523 14.464962384534546 11.0
    vertex 102.3653097167341 11.429445794006686 11.0
    vertex 102.76549306772046 10.464963111765499 11.0
  endloop
endfacet
facet normal 0.0 0.0 1.0
  outer loop
    vertex 102.76308104634523 14.464962384534546 11.0
    vertex 102.76549306772046 10.464963111765499 11.0
    vertex 103.39825587518307 15.2937726737809 11.0
  endloop
endfacet
facet normal 0.0 0.0 1.0
  outer loop
    vertex 103.39825587518307 15.2937726737809 11.0
    vertex 102.76549306772046 10.464963111765499 11.0
    vertex 103.40166698852465 9.636919452748401 11.0
  endloop
endfacet
facet normal 0.0 0.0 1.0
  outer loop
    vertex 103.39825587518307 15.2937726737809 11.0
    vertex 103.40166698852465 9.636919452748401 11.0
    vertex 104.22629953420018 15.9299465945851 11.0
  endloop
endfacet
facet normal 0.0 0.0 1.0
  outer loop
    vertex 104.22629953420018 15.9299465945851 11.0
    vertex 103.40166698852465 9.636919452748401 11.0
    vertex 104.23047727777102 9.001744623910557 11.0
  endloop
endfacet
facet normal 0.0 0.0 1.0
  outer loop
    vertex 104.22629953420018 15.9299465945851 11.0
    vertex 104.23047727777102 9.001744623910557 11.0
    vertex 105.19078221644135 16.33012994557145 11.0
  endloop
endfacet
facet normal 0.0 0.0 1.0
  outer loop
    vertex 105.19078221644135 16.33012994557145 11.0
    vertex 104.23047727777102 9.001744623910557 11.0
    vertex 104.72838804237013 12.467051619935445 11.0
  endloop
endfacet
facet normal 0.0 0.0 1.0
  outer loop
    vertex 105.19078221644135 16.33012994557145 11.0
    vertex 104.72838804237013 12.467051619935445 11.0
    vertex 104.77949930293653 12.855280187589226 11.0
  endloop
endfacet
facet normal 0.0 0.0 1.0
  outer loop
    vertex 105.19078221644135 16.33012994557145 11.0
    vertex 104.77949930293653 12.855280187589226 11.0
    vertex 104.92934993669347 13.217051619935443 11.0
  endloop
endfacet
facet normal 0.0 0.0 1.0
  outer loop
    vertex 105.19078221644135 16.33012994557145 11.0
    vertex 104.92934993669347 13.217051619935443 11.0
    vertex 105.1677278705903 13.527711791715266 11.0
  endloop
endfacet
facet normal 0.0 0.0 1.0
  outer loop
    vertex 105.19078221644135 16.33012994557145 11.0
    vertex 105.1677278705903 13.527711791715266 11.0
    vertex 105.47838804237011 13.766089725612105 11.0
  endloop
endfacet
facet normal 0.0 0.0 1.0
  outer loop
    vertex 105.19078221644135 16.33012994557145 11.0
    vertex 105.47838804237011 13.766089725612105 11.0
    vertex 106.22597602099488 16.46705089270449 11.0
  endloop
endfacet
facet normal 0.0 0.0 1.0
  outer loop
    vertex 106.22597602099488 16.46705089270449 11.0
    vertex 105.47838804237011 13.766089725612105 11.0
    vertex 105.84015947471634 13.915940359369047 11.0
  endloop
endfacet
facet normal 0.0 0.0 1.0
  outer loop
    vertex 106.22597602099488 16.46705089270449 11.0
    vertex 105.84015947471634 13.915940359369047 11.0
    vertex 106.22838804237013 13.967051619935445 11.0
  endloop
endfacet
facet normal 0.0 0.0 1.0
  outer loop
    vertex 106.22597602099488 16.46705089270449 11.0
    vertex 106.22838804237013 13.967051619935445 11.0
    vertex 107.26133420081906 16.33137849970966 11.0
  endloop
endfacet
facet normal 0.0 0.0 1.0
  outer loop
    vertex 107.26133420081906 16.33137849970966 11.0
    vertex 106.22838804237013 13.967051619935445 11.0
    vertex 106.61661661002391 13.915940359369047 11.0
  endloop
endfacet
facet normal 0.0 0.0 1.0
  outer loop
    vertex 107.26133420081906 16.33137849970966 11.0
    vertex 106.61661661002391 13.915940359369047 11.0
    vertex 106.97838804237014 13.766089725612105 11.0
  endloop
endfacet
facet normal 0.0 0.0 1.0
  outer loop
    vertex 107.26133420081906 16.33137849970966 11.0
    vertex 106.97838804237014 13.766089725612105 11.0
    vertex 107.28904821414996 13.527711791715266 11.0
  endloop
endfacet
facet normal 0.0 0.0 1.0
  outer loop
    vertex 107.26133420081906 16.33137849970966 11.0
    vertex 107.28904821414996 13.527711791715266 11.0
    vertex 108.22629880696921 15.932358615960338 11.0
  endloop
endfacet
facet normal 0.0 0.0 1.0
  outer loop
    vertex 108.22629880696921 15.932358615960338 11.0
    vertex 107.28904821414996 13.527711791715266 11.0
    vertex 107.52742614804677 13.217051619935447 11.0
  endloop
endfacet
facet normal 0.0 0.0 1.0
  outer loop
    vertex 108.22629880696921 15.932358615960338 11.0
    vertex 107.52742614804677 13.217051619935447 11.0
    vertex 107.67727678180373 12.855280187589226 11.0
  endloop
endfacet
facet normal 0.0 0.0 1.0
  outer loop
    vertex 108.22629880696921 15.932358615960338 11.0
    vertex 107.67727678180373 12.855280187589226 11.0
    vertex 107.72838804237013 12.467051619935445 11.0
  endloop
endfacet
facet normal 0.38212625849513937 0.9241101246975417 0.0
  outer loop
    vertex 107.26133420081906 16.33137849970966 11.0
    vertex 108.22629880696921 15.932358615960338 0.0
    vertex 107.26133420081906 16.33137849970966 0.0
  endloop
endfacet
facet normal 0.38212625849513937 0.9241101246975417 0.0
  outer loop
    vertex 108.22629880696921 15.932358615960338 0.0
    vertex 107.26133420081906 16.33137849970966 11.0
    vertex 108.22629880696921 15.932358615960338 11.0
  endloop
endfacet
facet normal -0.1299283219398803 -0.9915233891128776 -0.0
  outer loop
    vertex 106.23080006374533 8.467052347166401 11.0
    vertex 105.19544188392113 8.602724740161229 0.0
    vertex 106.23080006374533 8.467052347166401 0.0
  endloop
endfacet
facet normal -0.1299283219398803 -0.9915233891128776 -0.0
  outer loop
    vertex 105.19544188392113 8.602724740161229 0.0
    vertex 106.23080006374533 8.467052347166401 11.0
    vertex 105.19544188392113 8.602724740161229 11.0
  endloop
endfacet
facet normal 0.13112401503887883 -0.9913659731300464 0.0
  outer loop
    vertex 107.26599386829888 8.603973294299438 11.0
    vertex 106.23080006374533 8.467052347166401 0.0
    vertex 107.26599386829888 8.603973294299438 0.0
  endloop
endfacet
facet normal 0.13112401503887883 -0.9913659731300464 0.0
  outer loop
    vertex 106.23080006374533 8.467052347166401 0.0
    vertex 107.26599386829888 8.603973294299438 11.0
    vertex 106.23080006374533 8.467052347166401 11.0
  endloop
endfacet
facet normal -0.9915233891128775 0.12992832193988163 0.0
  outer loop
    vertex 102.3640611625959 13.49999777838441 11.0
    vertex 102.22838876960107 12.464639598560211 0.0
    vertex 102.22838876960107 12.464639598560211 11.0
  endloop
endfacet
facet normal -0.9915233891128775 0.12992832193988163 0.0
  outer loop
    vertex 102.22838876960107 12.464639598560211 0.0
    vertex 102.3640611625959 13.49999777838441 11.0
    vertex 102.3640611625959 13.49999777838441 0.0
  endloop
endfacet
facet normal 0.7929861096586588 0.6092397146349094 0.0
  outer loop
    vertex 109.05510909621556 15.297183787122487 0.0
    vertex 109.69128301701977 14.469140128105389 11.0
    vertex 109.69128301701977 14.469140128105389 0.0
  endloop
endfacet
facet normal 0.7929861096586588 0.6092397146349094 0.0
  outer loop
    vertex 109.69128301701977 14.469140128105389 11.0
    vertex 109.05510909621556 15.297183787122487 0.0
    vertex 109.05510909621556 15.297183787122487 11.0
  endloop
endfacet
facet normal 0.0 0.0 -1.0
  outer loop
    vertex 102.3640611625959 13.49999777838441 0.0
    vertex 102.3653097167341 11.429445794006686 0.0
    vertex 102.22838876960107 12.464639598560211 0.0
  endloop
endfacet
facet normal 0.0 0.0 -1.0
  outer loop
    vertex 102.3653097167341 11.429445794006686 0.0
    vertex 102.3640611625959 13.49999777838441 0.0
    vertex 102.76308104634523 14.464962384534546 0.0
  endloop
endfacet
facet normal 0.0 0.0 -1.0
  outer loop
    vertex 102.3653097167341 11.429445794006686 0.0
    vertex 102.76308104634523 14.464962384534546 0.0
    vertex 102.76549306772046 10.464963111765499 0.0
  endloop
endfacet
facet normal 0.0 0.0 -1.0
  outer loop
    vertex 102.76549306772046 10.464963111765499 0.0
    vertex 102.76308104634523 14.464962384534546 0.0
    vertex 103.39825587518307 15.2937726737809 0.0
  endloop
endfacet
facet normal 0.0 0.0 -1.0
  outer loop
    vertex 102.76549306772046 10.464963111765499 0.0
    vertex 103.39825587518307 15.2937726737809 0.0
    vertex 103.40166698852465 9.636919452748401 0.0
  endloop
endfacet
facet normal 0.0 0.0 -1.0
  outer loop
    vertex 103.40166698852465 9.636919452748401 0.0
    vertex 103.39825587518307 15.2937726737809 0.0
    vertex 104.22629953420018 15.9299465945851 0.0
  endloop
endfacet
facet normal 0.0 0.0 -1.0
  outer loop
    vertex 103.40166698852465 9.636919452748401 0.0
    vertex 104.22629953420018 15.9299465945851 0.0
    vertex 104.23047727777102 9.001744623910557 0.0
  endloop
endfacet
facet normal 0.0 0.0 -1.0
  outer loop
    vertex 104.23047727777102 9.001744623910557 0.0
    vertex 104.22629953420018 15.9299465945851 0.0
    vertex 104.47838804237011 14.501272854856891 0.0
  endloop
endfacet
facet normal 0.0 0.0 -1.0
  outer loop
    vertex 104.47838804237011 14.501272854856891 0.0
    vertex 104.22629953420018 15.9299465945851 0.0
    vertex 105.19078221644135 16.33012994557145 0.0
  endloop
endfacet
facet normal 0.0 0.0 -1.0
  outer loop
    vertex 104.47838804237011 14.501272854856891 0.0
    vertex 105.19078221644135 16.33012994557145 0.0
    vertex 104.91030864881333 14.823461328004255 0.0
  endloop
endfacet
facet normal 0.0 0.0 -1.0
  outer loop
    vertex 104.91030864881333 14.823461328004255 0.0
    vertex 105.19078221644135 16.33012994557145 0.0
    vertex 105.56510482554684 15.084312664287076 0.0
  endloop
endfacet
facet normal 0.0 0.0 -1.0
  outer loop
    vertex 105.56510482554684 15.084312664287076 0.0
    vertex 105.19078221644135 16.33012994557145 0.0
    vertex 106.22597602099488 16.46705089270449 0.0
  endloop
endfacet
facet normal 0.0 0.0 -1.0
  outer loop
    vertex 105.56510482554684 15.084312664287076 0.0
    vertex 106.22597602099488 16.46705089270449 0.0
    vertex 106.26510265737954 15.16680198562571 0.0
  endloop
endfacet
facet normal 0.0 0.0 -1.0
  outer loop
    vertex 106.26510265737954 15.16680198562571 0.0
    vertex 106.22597602099488 16.46705089270449 0.0
    vertex 107.26133420081906 16.33137849970966 0.0
  endloop
endfacet
facet normal 0.0 0.0 -1.0
  outer loop
    vertex 106.26510265737954 15.16680198562571 0.0
    vertex 107.26133420081906 16.33137849970966 0.0
    vertex 106.96259844887312 15.065307781090983 0.0
  endloop
endfacet
facet normal 0.0 0.0 -1.0
  outer loop
    vertex 106.96259844887312 15.065307781090983 0.0
    vertex 107.26133420081906 16.33137849970966 0.0
    vertex 107.61005901450358 14.786746712994834 0.0
  endloop
endfacet
facet normal 0.0 0.0 -1.0
  outer loop
    vertex 107.61005901450358 14.786746712994834 0.0
    vertex 107.26133420081906 16.33137849970966 0.0
    vertex 108.22629880696921 15.932358615960338 0.0
  endloop
endfacet
facet normal 0.0 0.0 -1.0
  outer loop
    vertex 107.61005901450358 14.786746712994834 0.0
    vertex 108.22629880696921 15.932358615960338 0.0
    vertex 107.97838804237014 14.496075730796866 0.0
  endloop
endfacet
facet normal 0.0 0.0 -1.0
  outer loop
    vertex 107.97838804237014 14.496075730796866 0.0
    vertex 108.22629880696921 15.932358615960338 0.0
    vertex 107.97838804237014 10.432830385013999 0.0
  endloop
endfacet
facet normal 0.0 0.0 -1.0
  outer loop
    vertex 104.23047727777102 9.001744623910557 0.0
    vertex 104.47838804237011 10.438027509074026 0.0
    vertex 105.19544188392113 8.602724740161229 0.0
  endloop
endfacet
facet normal 0.0 0.0 -1.0
  outer loop
    vertex 104.47838804237011 10.438027509074026 0.0
    vertex 104.23047727777102 9.001744623910557 0.0
    vertex 104.47838804237011 14.501272854856891 0.0
  endloop
endfacet
facet normal 0.0 0.0 -1.0
  outer loop
    vertex 105.19544188392113 8.602724740161229 0.0
    vertex 104.47838804237011 10.438027509074026 0.0
    vertex 104.84671707023668 10.147356526876058 0.0
  endloop
endfacet
facet normal 0.0 0.0 -1.0
  outer loop
    vertex 105.19544188392113 8.602724740161229 0.0
    vertex 104.84671707023668 10.147356526876058 0.0
    vertex 105.49417763586712 9.868795458779907 0.0
  endloop
endfacet
facet normal 0.0 0.0 -1.0
  outer loop
    vertex 105.19544188392113 8.602724740161229 0.0
    vertex 105.49417763586712 9.868795458779907 0.0
    vertex 106.23080006374533 8.467052347166401 0.0
  endloop
endfacet
facet normal 0.0 0.0 -1.0
  outer loop
    vertex 106.23080006374533 8.467052347166401 0.0
    vertex 105.49417763586712 9.868795458779907 0.0
    vertex 106.19167342736071 9.767301254245181 0.0
  endloop
endfacet
facet normal 0.0 0.0 -1.0
  outer loop
    vertex 106.23080006374533 8.467052347166401 0.0
    vertex 106.19167342736071 9.767301254245181 0.0
    vertex 106.89167125919342 9.849790575583816 0.0
  endloop
endfacet
facet normal 0.0 0.0 -1.0
  outer loop
    vertex 106.23080006374533 8.467052347166401 0.0
    vertex 106.89167125919342 9.849790575583816 0.0
    vertex 107.26599386829888 8.603973294299438 0.0
  endloop
endfacet
facet normal 0.0 0.0 -1.0
  outer loop
    vertex 107.26599386829888 8.603973294299438 0.0
    vertex 106.89167125919342 9.849790575583816 0.0
    vertex 107.54646743592693 10.110641911866635 0.0
  endloop
endfacet
facet normal 0.0 0.0 -1.0
  outer loop
    vertex 107.26599386829888 8.603973294299438 0.0
    vertex 107.54646743592693 10.110641911866635 0.0
    vertex 108.23047655054008 9.00415664528579 0.0
  endloop
endfacet
facet normal 0.0 0.0 -1.0
  outer loop
    vertex 108.23047655054008 9.00415664528579 0.0
    vertex 107.54646743592693 10.110641911866635 0.0
    vertex 107.97838804237014 10.432830385013999 0.0
  endloop
endfacet
facet normal 0.0 0.0 -1.0
  outer loop
    vertex 108.23047655054008 9.00415664528579 0.0
    vertex 107.97838804237014 10.432830385013999 0.0
    vertex 108.22629880696921 15.932358615960338 0.0
  endloop
endfacet
facet normal 0.0 0.0 -1.0
  outer loop
    vertex 108.23047655054008 9.00415664528579 0.0
    vertex 108.22629880696921 15.932358615960338 0.0
    vertex 109.05510909621556 15.297183787122487 0.0
  endloop
endfacet
facet normal 0.0 0.0 -1.0
  outer loop
    vertex 108.23047655054008 9.00415664528579 0.0
    vertex 109.05510909621556 15.297183787122487 0.0
    vertex 109.05852020955716 9.64033056608999 0.0
  endloop
endfacet
facet normal 0.0 0.0 -1.0
  outer loop
    vertex 109.05852020955716 9.64033056608999 0.0
    vertex 109.05510909621556 15.297183787122487 0.0
    vertex 109.69128301701977 14.469140128105389 0.0
  endloop
endfacet
facet normal 0.0 0.0 -1.0
  outer loop
    vertex 109.05852020955716 9.64033056608999 0.0
    vertex 109.69128301701977 14.469140128105389 0.0
    vertex 109.693695038395 10.469140855336343 0.0
  endloop
endfacet
facet normal 0.0 0.0 -1.0
  outer loop
    vertex 109.693695038395 10.469140855336343 0.0
    vertex 109.69128301701977 14.469140128105389 0.0
    vertex 110.09146636800612 13.504657445864206 0.0
  endloop
endfacet
facet normal 0.0 0.0 -1.0
  outer loop
    vertex 109.693695038395 10.469140855336343 0.0
    vertex 110.09146636800612 13.504657445864206 0.0
    vertex 110.09271492214432 11.434105461486483 0.0
  endloop
endfacet
facet normal 0.0 0.0 -1.0
  outer loop
    vertex 110.09271492214432 11.434105461486483 0.0
    vertex 110.09146636800612 13.504657445864206 0.0
    vertex 110.22838731513916 12.469463641310677 0.0
  endloop
endfacet
facet normal -0.7929861096586613 -0.6092397146349061 -0.0
  outer loop
    vertex 102.76549306772046 10.464963111765499 11.0
    vertex 103.40166698852465 9.636919452748401 0.0
    vertex 103.40166698852465 9.636919452748401 11.0
  endloop
endfacet
facet normal -0.7929861096586613 -0.6092397146349061 -0.0
  outer loop
    vertex 103.40166698852465 9.636919452748401 0.0
    vertex 102.76549306772046 10.464963111765499 11.0
    vertex 102.76549306772046 10.464963111765499 0.0
  endloop
endfacet
facet normal -0.6092397146349061 0.7929861096586613 0.0
  outer loop
    vertex 103.39825587518307 15.2937726737809 11.0
    vertex 104.22629953420018 15.9299465945851 0.0
    vertex 103.39825587518307 15.2937726737809 0.0
  endloop
endfacet
facet normal -0.6092397146349061 0.7929861096586613 0.0
  outer loop
    vertex 104.22629953420018 15.9299465945851 0.0
    vertex 103.39825587518307 15.2937726737809 11.0
    vertex 104.22629953420018 15.9299465945851 11.0
  endloop
endfacet
facet normal 0.6092397146349061 -0.7929861096586613 0.0
  outer loop
    vertex 109.05852020955716 9.64033056608999 11.0
    vertex 108.23047655054008 9.00415664528579 0.0
    vertex 109.05852020955716 9.64033056608999 0.0
  endloop
endfacet
facet normal 0.6092397146349061 -0.7929861096586613 0.0
  outer loop
    vertex 108.23047655054008 9.00415664528579 0.0
    vertex 109.05852020955716 9.64033056608999 11.0
    vertex 108.23047655054008 9.00415664528579 11.0
  endloop
endfacet
facet normal -0.9241101246975408 0.38212625849514165 0.0
  outer loop
    vertex 102.76308104634523 14.464962384534546 11.0
    vertex 102.3640611625959 13.49999777838441 0.0
    vertex 102.3640611625959 13.49999777838441 11.0
  endloop
endfacet
facet normal -0.9241101246975408 0.38212625849514165 0.0
  outer loop
    vertex 102.3640611625959 13.49999777838441 0.0
    vertex 102.76308104634523 14.464962384534546 11.0
    vertex 102.76308104634523 14.464962384534546 0.0
  endloop
endfacet
facet normal 0.9236486043881352 0.383240467085419 0.0
  outer loop
    vertex 109.69128301701977 14.469140128105389 0.0
    vertex 110.09146636800612 13.504657445864206 11.0
    vertex 110.09146636800612 13.504657445864206 0.0
  endloop
endfacet
facet normal 0.9236486043881352 0.383240467085419 0.0
  outer loop
    vertex 110.09146636800612 13.504657445864206 11.0
    vertex 109.69128301701977 14.469140128105389 0.0
    vertex 109.69128301701977 14.469140128105389 11.0
  endloop
endfacet
facet normal -0.9913659731300464 -0.13112401503888035 -0.0
  outer loop
    vertex 102.22838876960107 12.464639598560211 11.0
    vertex 102.3653097167341 11.429445794006686 0.0
    vertex 102.3653097167341 11.429445794006686 11.0
  endloop
endfacet
facet normal -0.9913659731300464 -0.13112401503888035 -0.0
  outer loop
    vertex 102.3653097167341 11.429445794006686 0.0
    vertex 102.22838876960107 12.464639598560211 11.0
    vertex 102.22838876960107 12.464639598560211 0.0
  endloop
endfacet
facet normal 0.12992832193987897 0.9915233891128777 0.0
  outer loop
    vertex 106.22597602099488 16.46705089270449 11.0
    vertex 107.26133420081906 16.33137849970966 0.0
    vertex 106.22597602099488 16.46705089270449 0.0
  endloop
endfacet
facet normal 0.12992832193987897 0.9915233891128777 0.0
  outer loop
    vertex 107.26133420081906 16.33137849970966 0.0
    vertex 106.22597602099488 16.46705089270449 11.0
    vertex 107.26133420081906 16.33137849970966 11.0
  endloop
endfacet
facet normal -0.38212625849514165 -0.9241101246975408 -0.0
  outer loop
    vertex 105.19544188392113 8.602724740161229 11.0
    vertex 104.23047727777102 9.001744623910557 0.0
    vertex 105.19544188392113 8.602724740161229 0.0
  endloop
endfacet
facet normal -0.38212625849514165 -0.9241101246975408 -0.0
  outer loop
    vertex 104.23047727777102 9.001744623910557 0.0
    vertex 105.19544188392113 8.602724740161229 11.0
    vertex 104.23047727777102 9.001744623910557 11.0
  endloop
endfacet
facet normal -0.7937202824482553 0.6082829220274576 0.0
  outer loop
    vertex 103.39825587518307 15.2937726737809 11.0
    vertex 102.76308104634523 14.464962384534546 0.0
    vertex 102.76308104634523 14.464962384534546 11.0
  endloop
endfacet
facet normal -0.7937202824482553 0.6082829220274576 0.0
  outer loop
    vertex 102.76308104634523 14.464962384534546 0.0
    vertex 103.39825587518307 15.2937726737809 11.0
    vertex 103.39825587518307 15.2937726737809 0.0
  endloop
endfacet
facet normal -0.13112401503887752 0.9913659731300467 0.0
  outer loop
    vertex 105.19078221644135 16.33012994557145 11.0
    vertex 106.22597602099488 16.46705089270449 0.0
    vertex 105.19078221644135 16.33012994557145 0.0
  endloop
endfacet
facet normal -0.13112401503887752 0.9913659731300467 0.0
  outer loop
    vertex 106.22597602099488 16.46705089270449 0.0
    vertex 105.19078221644135 16.33012994557145 11.0
    vertex 106.22597602099488 16.46705089270449 11.0
  endloop
endfacet
facet normal -0.6082829220274588 -0.7937202824482542 -0.0
  outer loop
    vertex 104.23047727777102 9.001744623910557 11.0
    vertex 103.40166698852465 9.636919452748401 0.0
    vertex 104.23047727777102 9.001744623910557 0.0
  endloop
endfacet
facet normal -0.6082829220274588 -0.7937202824482542 -0.0
  outer loop
    vertex 103.40166698852465 9.636919452748401 0.0
    vertex 104.23047727777102 9.001744623910557 11.0
    vertex 103.40166698852465 9.636919452748401 11.0
  endloop
endfacet
facet normal 0.38324046708542003 -0.9236486043881349 0.0
  outer loop
    vertex 108.23047655054008 9.00415664528579 11.0
    vertex 107.26599386829888 8.603973294299438 0.0
    vertex 108.23047655054008 9.00415664528579 0.0
  endloop
endfacet
facet normal 0.38324046708542003 -0.9236486043881349 0.0
  outer loop
    vertex 107.26599386829888 8.603973294299438 0.0
    vertex 108.23047655054008 9.00415664528579 11.0
    vertex 107.26599386829888 8.603973294299438 11.0
  endloop
endfacet
facet normal 0.9915233891128781 -0.12992832193987647 0.0
  outer loop
    vertex 110.22838731513916 12.469463641310677 0.0
    vertex 110.09271492214432 11.434105461486483 11.0
    vertex 110.09271492214432 11.434105461486483 0.0
  endloop
endfacet
facet normal 0.9915233891128781 -0.12992832193987647 0.0
  outer loop
    vertex 110.09271492214432 11.434105461486483 11.0
    vertex 110.22838731513916 12.469463641310677 0.0
    vertex 110.22838731513916 12.469463641310677 11.0
  endloop
endfacet
facet normal -0.9236486043881351 -0.38324046708541953 -0.0
  outer loop
    vertex 102.3653097167341 11.429445794006686 11.0
    vertex 102.76549306772046 10.464963111765499 0.0
    vertex 102.76549306772046 10.464963111765499 11.0
  endloop
endfacet
facet normal -0.9236486043881351 -0.38324046708541953 -0.0
  outer loop
    vertex 102.76549306772046 10.464963111765499 0.0
    vertex 102.3653097167341 11.429445794006686 11.0
    vertex 102.3653097167341 11.429445794006686 0.0
  endloop
endfacet
facet normal 0.9241101246975392 -0.38212625849514525 0.0
  outer loop
    vertex 110.09271492214432 11.434105461486483 0.0
    vertex 109.693695038395 10.469140855336343 11.0
    vertex 109.693695038395 10.469140855336343 0.0
  endloop
endfacet
facet normal 0.9241101246975392 -0.38212625849514525 0.0
  outer loop
    vertex 109.693695038395 10.469140855336343 11.0
    vertex 110.09271492214432 11.434105461486483 0.0
    vertex 110.09271492214432 11.434105461486483 11.0
  endloop
endfacet
facet normal 0.0 0.0 -1.0
  outer loop
    vertex 104.91030864881333 14.823461328004255 6.0
    vertex 104.47838804237011 10.438027509074026 6.0
    vertex 104.47838804237011 14.501272854856891 6.0
  endloop
endfacet
facet normal 0.0 0.0 -1.0
  outer loop
    vertex 104.47838804237011 10.438027509074026 6.0
    vertex 104.91030864881333 14.823461328004255 6.0
    vertex 104.72838804237013 12.467051619935445 6.000000000000071
  endloop
endfacet
facet normal 0.0 0.0 -1.0
  outer loop
    vertex 104.72838804237013 12.467051619935445 6.000000000000071
    vertex 104.91030864881333 14.823461328004255 6.0
    vertex 104.77949930293653 12.855280187589226 6.000000000000071
  endloop
endfacet
facet normal 0.0 0.0 -1.0
  outer loop
    vertex 104.77949930293653 12.855280187589226 6.000000000000071
    vertex 104.91030864881333 14.823461328004255 6.0
    vertex 104.92934993669347 13.217051619935443 6.000000000000071
  endloop
endfacet
facet normal 0.0 0.0 -1.0
  outer loop
    vertex 104.92934993669347 13.217051619935443 6.000000000000071
    vertex 104.91030864881333 14.823461328004255 6.0
    vertex 105.56510482554684 15.084312664287076 6.0
  endloop
endfacet
facet normal 0.0 0.0 -1.0
  outer loop
    vertex 104.92934993669347 13.217051619935443 6.000000000000071
    vertex 105.56510482554684 15.084312664287076 6.0
    vertex 105.1677278705903 13.527711791715266 6.000000000000071
  endloop
endfacet
facet normal 0.0 0.0 -1.0
  outer loop
    vertex 105.1677278705903 13.527711791715266 6.000000000000071
    vertex 105.56510482554684 15.084312664287076 6.0
    vertex 105.47838804237011 13.766089725612105 6.000000000000071
  endloop
endfacet
facet normal 0.0 0.0 -1.0
  outer loop
    vertex 105.47838804237011 13.766089725612105 6.000000000000071
    vertex 105.56510482554684 15.084312664287076 6.0
    vertex 105.84015947471634 13.915940359369047 6.000000000000071
  endloop
endfacet
facet normal 0.0 0.0 -1.0
  outer loop
    vertex 105.84015947471634 13.915940359369047 6.000000000000071
    vertex 105.56510482554684 15.084312664287076 6.0
    vertex 106.26510265737954 15.16680198562571 6.0
  endloop
endfacet
facet normal 0.0 0.0 -1.0
  outer loop
    vertex 105.84015947471634 13.915940359369047 6.000000000000071
    vertex 106.26510265737954 15.16680198562571 6.0
    vertex 106.22838804237013 13.967051619935445 6.000000000000071
  endloop
endfacet
facet normal 0.0 0.0 -1.0
  outer loop
    vertex 106.22838804237013 13.967051619935445 6.000000000000071
    vertex 106.26510265737954 15.16680198562571 6.0
    vertex 106.61661661002391 13.915940359369047 6.000000000000071
  endloop
endfacet
facet normal 0.0 0.0 -1.0
  outer loop
    vertex 106.61661661002391 13.915940359369047 6.000000000000071
    vertex 106.26510265737954 15.16680198562571 6.0
    vertex 106.96259844887312 15.065307781090983 6.0
  endloop
endfacet
facet normal 0.0 0.0 -1.0
  outer loop
    vertex 106.61661661002391 13.915940359369047 6.000000000000071
    vertex 106.96259844887312 15.065307781090983 6.0
    vertex 106.97838804237014 13.766089725612105 6.000000000000071
  endloop
endfacet
facet normal 0.0 0.0 -1.0
  outer loop
    vertex 106.97838804237014 13.766089725612105 6.000000000000071
    vertex 106.96259844887312 15.065307781090983 6.0
    vertex 107.61005901450358 14.786746712994834 6.0
  endloop
endfacet
facet normal 0.0 0.0 -1.0
  outer loop
    vertex 106.97838804237014 13.766089725612105 6.000000000000071
    vertex 107.61005901450358 14.786746712994834 6.0
    vertex 107.28904821414996 13.527711791715266 6.000000000000071
  endloop
endfacet
facet normal 0.0 0.0 -1.0
  outer loop
    vertex 107.28904821414996 13.527711791715266 6.000000000000071
    vertex 107.61005901450358 14.786746712994834 6.0
    vertex 107.52742614804677 13.217051619935447 6.000000000000071
  endloop
endfacet
facet normal 0.0 0.0 -1.0
  outer loop
    vertex 107.52742614804677 13.217051619935447 6.000000000000071
    vertex 107.61005901450358 14.786746712994834 6.0
    vertex 107.67727678180373 12.855280187589226 6.000000000000071
  endloop
endfacet
facet normal 0.0 0.0 -1.0
  outer loop
    vertex 107.67727678180373 12.855280187589226 6.000000000000071
    vertex 107.61005901450358 14.786746712994834 6.0
    vertex 107.97838804237014 14.496075730796866 6.0
  endloop
endfacet
facet normal 0.0 0.0 -1.0
  outer loop
    vertex 107.67727678180373 12.855280187589226 6.000000000000071
    vertex 107.97838804237014 14.496075730796866 6.0
    vertex 107.72838804237013 12.467051619935445 6.000000000000071
  endloop
endfacet
facet normal 0.0 0.0 -1.0
  outer loop
    vertex 104.72838804237013 12.467051619935445 6.000000000000071
    vertex 104.84671707023668 10.147356526876058 6.0
    vertex 104.47838804237011 10.438027509074026 6.0
  endloop
endfacet
facet normal 0.0 0.0 -1.0
  outer loop
    vertex 104.84671707023668 10.147356526876058 6.0
    vertex 104.72838804237013 12.467051619935445 6.000000000000071
    vertex 104.77949930293653 12.078823052281663 6.000000000000071
  endloop
endfacet
facet normal 0.0 0.0 -1.0
  outer loop
    vertex 104.84671707023668 10.147356526876058 6.0
    vertex 104.77949930293653 12.078823052281663 6.000000000000071
    vertex 104.92934993669347 11.717051619935445 6.000000000000071
  endloop
endfacet
facet normal 0.0 0.0 -1.0
  outer loop
    vertex 104.84671707023668 10.147356526876058 6.0
    vertex 104.92934993669347 11.717051619935445 6.000000000000071
    vertex 105.49417763586712 9.868795458779907 6.0
  endloop
endfacet
facet normal 0.0 0.0 -1.0
  outer loop
    vertex 105.49417763586712 9.868795458779907 6.0
    vertex 104.92934993669347 11.717051619935445 6.000000000000071
    vertex 105.1677278705903 11.406391448155624 6.000000000000071
  endloop
endfacet
facet normal 0.0 0.0 -1.0
  outer loop
    vertex 105.49417763586712 9.868795458779907 6.0
    vertex 105.1677278705903 11.406391448155624 6.000000000000071
    vertex 105.47838804237011 11.168013514258789 6.000000000000071
  endloop
endfacet
facet normal 0.0 0.0 -1.0
  outer loop
    vertex 105.49417763586712 9.868795458779907 6.0
    vertex 105.47838804237011 11.168013514258789 6.000000000000071
    vertex 105.84015947471634 11.018162880501842 6.000000000000071
  endloop
endfacet
facet normal 0.0 0.0 -1.0
  outer loop
    vertex 105.49417763586712 9.868795458779907 6.0
    vertex 105.84015947471634 11.018162880501842 6.000000000000071
    vertex 106.19167342736071 9.767301254245181 6.0
  endloop
endfacet
facet normal 0.0 0.0 -1.0
  outer loop
    vertex 106.19167342736071 9.767301254245181 6.0
    vertex 105.84015947471634 11.018162880501842 6.000000000000071
    vertex 106.22838804237013 10.967051619935445 6.000000000000071
  endloop
endfacet
facet normal 0.0 0.0 -1.0
  outer loop
    vertex 106.19167342736071 9.767301254245181 6.0
    vertex 106.22838804237013 10.967051619935445 6.000000000000071
    vertex 106.89167125919342 9.849790575583816 6.0
  endloop
endfacet
facet normal 0.0 0.0 -1.0
  outer loop
    vertex 106.89167125919342 9.849790575583816 6.0
    vertex 106.22838804237013 10.967051619935445 6.000000000000071
    vertex 106.61661661002391 11.018162880501842 6.000000000000071
  endloop
endfacet
facet normal 0.0 0.0 -1.0
  outer loop
    vertex 106.89167125919342 9.849790575583816 6.0
    vertex 106.61661661002391 11.018162880501842 6.000000000000071
    vertex 106.97838804237014 11.168013514258789 6.000000000000071
  endloop
endfacet
facet normal 0.0 0.0 -1.0
  outer loop
    vertex 106.89167125919342 9.849790575583816 6.0
    vertex 106.97838804237014 11.168013514258789 6.000000000000071
    vertex 107.54646743592693 10.110641911866635 6.0
  endloop
endfacet
facet normal 0.0 0.0 -1.0
  outer loop
    vertex 107.54646743592693 10.110641911866635 6.0
    vertex 106.97838804237014 11.168013514258789 6.000000000000071
    vertex 107.28904821414996 11.406391448155624 6.000000000000071
  endloop
endfacet
facet normal 0.0 0.0 -1.0
  outer loop
    vertex 107.54646743592693 10.110641911866635 6.0
    vertex 107.28904821414996 11.406391448155624 6.000000000000071
    vertex 107.52742614804677 11.717051619935447 6.000000000000071
  endloop
endfacet
facet normal 0.0 0.0 -1.0
  outer loop
    vertex 107.54646743592693 10.110641911866635 6.0
    vertex 107.52742614804677 11.717051619935447 6.000000000000071
    vertex 107.67727678180373 12.078823052281665 6.000000000000071
  endloop
endfacet
facet normal 0.0 0.0 -1.0
  outer loop
    vertex 107.54646743592693 10.110641911866635 6.0
    vertex 107.67727678180373 12.078823052281665 6.000000000000071
    vertex 107.97838804237014 10.432830385013999 6.0
  endloop
endfacet
facet normal 0.0 0.0 -1.0
  outer loop
    vertex 107.97838804237014 10.432830385013999 6.0
    vertex 107.67727678180373 12.078823052281665 6.000000000000071
    vertex 107.72838804237013 12.467051619935445 6.000000000000071
  endloop
endfacet
facet normal 0.0 0.0 -1.0
  outer loop
    vertex 107.97838804237014 10.432830385013999 6.0
    vertex 107.72838804237013 12.467051619935445 6.000000000000071
    vertex 107.97838804237014 14.496075730796866 6.0
  endloop
endfacet
facet normal 0.6194931677924639 0.7850020478052642 0.0
  outer loop
    vertex 104.47838804237011 10.438027509074026 6.0
    vertex 104.84671707023668 10.147356526876058 0.0
    vertex 104.47838804237011 10.438027509074026 0.0
  endloop
endfacet
facet normal 0.6194931677924639 0.7850020478052642 0.0
  outer loop
    vertex 104.84671707023668 10.147356526876058 0.0
    vertex 104.47838804237011 10.438027509074026 6.0
    vertex 104.84671707023668 10.147356526876058 6.0
  endloop
endfacet
facet normal 1.0 0.0 0.0
  outer loop
    vertex 104.47838804237011 14.501272854856891 0.0
    vertex 104.47838804237011 10.438027509074026 6.0
    vertex 104.47838804237011 10.438027509074026 0.0
  endloop
endfacet
facet normal 1.0 0.0 0.0
  outer loop
    vertex 104.47838804237011 10.438027509074026 6.0
    vertex 104.47838804237011 14.501272854856891 0.0
    vertex 104.47838804237011 14.501272854856891 6.0
  endloop
endfacet
facet normal 0.5979171215293302 -0.8015579303968492 0.0
  outer loop
    vertex 104.91030864881333 14.823461328004255 6.0
    vertex 104.47838804237011 14.501272854856891 0.0
    vertex 104.91030864881333 14.823461328004255 0.0
  endloop
endfacet
facet normal 0.5979171215293302 -0.8015579303968492 0.0
  outer loop
    vertex 104.47838804237011 14.501272854856891 0.0
    vertex 104.91030864881333 14.823461328004255 6.0
    vertex 104.47838804237011 14.501272854856891 6.0
  endloop
endfacet
facet normal 0.3700851315259369 -0.9289978446818002 0.0
  outer loop
    vertex 105.56510482554684 15.084312664287076 6.0
    vertex 104.91030864881333 14.823461328004255 0.0
    vertex 105.56510482554684 15.084312664287076 0.0
  endloop
endfacet
facet normal 0.3700851315259369 -0.9289978446818002 0.0
  outer loop
    vertex 104.91030864881333 14.823461328004255 0.0
    vertex 105.56510482554684 15.084312664287076 6.0
    vertex 104.91030864881333 14.823461328004255 6.0
  endloop
endfacet
facet normal 0.11703245140364003 -0.9931280910932158 0.0
  outer loop
    vertex 106.26510265737954 15.16680198562571 6.0
    vertex 105.56510482554684 15.084312664287076 0.0
    vertex 106.26510265737954 15.16680198562571 0.0
  endloop
endfacet
facet normal 0.11703245140364003 -0.9931280910932158 0.0
  outer loop
    vertex 105.56510482554684 15.084312664287076 0.0
    vertex 106.26510265737954 15.16680198562571 6.0
    vertex 105.56510482554684 15.084312664287076 6.0
  endloop
endfacet
facet normal -0.14399579687653472 -0.9895782993183975 -0.0
  outer loop
    vertex 106.96259844887312 15.065307781090983 6.0
    vertex 106.26510265737954 15.16680198562571 0.0
    vertex 106.96259844887312 15.065307781090983 0.0
  endloop
endfacet
facet normal -0.14399579687653472 -0.9895782993183975 -0.0
  outer loop
    vertex 106.26510265737954 15.16680198562571 0.0
    vertex 106.96259844887312 15.065307781090983 6.0
    vertex 106.26510265737954 15.16680198562571 6.0
  endloop
endfacet
facet normal -0.39521096956388907 -0.9185903818004904 -0.0
  outer loop
    vertex 107.61005901450358 14.786746712994834 6.0
    vertex 106.96259844887312 15.065307781090983 0.0
    vertex 107.61005901450358 14.786746712994834 0.0
  endloop
endfacet
facet normal -0.39521096956388907 -0.9185903818004904 -0.0
  outer loop
    vertex 106.96259844887312 15.065307781090983 0.0
    vertex 107.61005901450358 14.786746712994834 6.0
    vertex 106.96259844887312 15.065307781090983 6.0
  endloop
endfacet
facet normal -0.6194931677924658 -0.7850020478052627 -0.0
  outer loop
    vertex 107.97838804237014 14.496075730796866 6.0
    vertex 107.61005901450358 14.786746712994834 0.0
    vertex 107.97838804237014 14.496075730796866 0.0
  endloop
endfacet
facet normal -0.6194931677924658 -0.7850020478052627 -0.0
  outer loop
    vertex 107.61005901450358 14.786746712994834 0.0
    vertex 107.97838804237014 14.496075730796866 6.0
    vertex 107.61005901450358 14.786746712994834 6.0
  endloop
endfacet
facet normal -1.0 0.0 0.0
  outer loop
    vertex 107.97838804237014 14.496075730796866 6.0
    vertex 107.97838804237014 10.432830385013999 0.0
    vertex 107.97838804237014 10.432830385013999 6.0
  endloop
endfacet
facet normal -1.0 0.0 0.0
  outer loop
    vertex 107.97838804237014 10.432830385013999 0.0
    vertex 107.97838804237014 14.496075730796866 6.0
    vertex 107.97838804237014 14.496075730796866 0.0
  endloop
endfacet
facet normal -0.5979171215293302 0.8015579303968492 0.0
  outer loop
    vertex 107.54646743592693 10.110641911866635 6.0
    vertex 107.97838804237014 10.432830385013999 0.0
    vertex 107.54646743592693 10.110641911866635 0.0
  endloop
endfacet
facet normal -0.5979171215293302 0.8015579303968492 0.0
  outer loop
    vertex 107.97838804237014 10.432830385013999 0.0
    vertex 107.54646743592693 10.110641911866635 6.0
    vertex 107.97838804237014 10.432830385013999 6.0
  endloop
endfacet
facet normal -0.3700851315259369 0.9289978446818002 0.0
  outer loop
    vertex 106.89167125919342 9.849790575583816 6.0
    vertex 107.54646743592693 10.110641911866635 0.0
    vertex 106.89167125919342 9.849790575583816 0.0
  endloop
endfacet
facet normal -0.3700851315259369 0.9289978446818002 0.0
  outer loop
    vertex 107.54646743592693 10.110641911866635 0.0
    vertex 106.89167125919342 9.849790575583816 6.0
    vertex 107.54646743592693 10.110641911866635 6.0
  endloop
endfacet
facet normal -0.11703245140364003 0.9931280910932158 0.0
  outer loop
    vertex 106.19167342736071 9.767301254245181 6.0
    vertex 106.89167125919342 9.849790575583816 0.0
    vertex 106.19167342736071 9.767301254245181 0.0
  endloop
endfacet
facet normal -0.11703245140364003 0.9931280910932158 0.0
  outer loop
    vertex 106.89167125919342 9.849790575583816 0.0
    vertex 106.19167342736071 9.767301254245181 6.0
    vertex 106.89167125919342 9.849790575583816 6.0
  endloop
endfacet
facet normal 0.14399579687653272 0.9895782993183977 0.0
  outer loop
    vertex 105.49417763586712 9.868795458779907 6.0
    vertex 106.19167342736071 9.767301254245181 0.0
    vertex 105.49417763586712 9.868795458779907 0.0
  endloop
endfacet
facet normal 0.14399579687653272 0.9895782993183977 0.0
  outer loop
    vertex 106.19167342736071 9.767301254245181 0.0
    vertex 105.49417763586712 9.868795458779907 6.0
    vertex 106.19167342736071 9.767301254245181 6.0
  endloop
endfacet
facet normal 0.39521096956389246 0.9185903818004889 0.0
  outer loop
    vertex 104.84671707023668 10.147356526876058 6.0
    vertex 105.49417763586712 9.868795458779907 0.0
    vertex 104.84671707023668 10.147356526876058 0.0
  endloop
endfacet
facet normal 0.39521096956389246 0.9185903818004889 0.0
  outer loop
    vertex 105.49417763586712 9.868795458779907 0.0
    vertex 104.84671707023668 10.147356526876058 6.0
    vertex 105.49417763586712 9.868795458779907 6.0
  endloop
endfacet
facet normal 0.13052619222005263 0.9914448613738104 0.0
  outer loop
    vertex 105.84015947471634 11.018162880501842 11.0
    vertex 106.22838804237013 10.967051619935445 6.000000000000071
    vertex 105.84015947471634 11.018162880501842 6.000000000000071
  endloop
endfacet
facet normal 0.13052619222005263 0.9914448613738104 0.0
  outer loop
    vertex 106.22838804237013 10.967051619935445 6.000000000000071
    vertex 105.84015947471634 11.018162880501842 11.0
    vertex 106.22838804237013 10.967051619935445 11.0
  endloop
endfacet
facet normal -0.13052619222005263 0.9914448613738104 0.0
  outer loop
    vertex 106.22838804237013 10.967051619935445 11.0
    vertex 106.61661661002391 11.018162880501842 6.000000000000071
    vertex 106.22838804237013 10.967051619935445 6.000000000000071
  endloop
endfacet
facet normal -0.13052619222005263 0.9914448613738104 0.0
  outer loop
    vertex 106.61661661002391 11.018162880501842 6.000000000000071
    vertex 106.22838804237013 10.967051619935445 11.0
    vertex 106.61661661002391 11.018162880501842 11.0
  endloop
endfacet
facet normal -0.38268343236507985 0.9238795325112908 0.0
  outer loop
    vertex 106.61661661002391 11.018162880501842 11.0
    vertex 106.97838804237014 11.168013514258789 6.000000000000071
    vertex 106.61661661002391 11.018162880501842 6.000000000000071
  endloop
endfacet
facet normal -0.38268343236507985 0.9238795325112908 0.0
  outer loop
    vertex 106.97838804237014 11.168013514258789 6.000000000000071
    vertex 106.61661661002391 11.018162880501842 11.0
    vertex 106.97838804237014 11.168013514258789 11.0
  endloop
endfacet
facet normal -0.608761429008729 0.793353340291229 0.0
  outer loop
    vertex 106.97838804237014 11.168013514258789 11.0
    vertex 107.28904821414996 11.406391448155624 6.000000000000071
    vertex 106.97838804237014 11.168013514258789 6.000000000000071
  endloop
endfacet
facet normal -0.608761429008729 0.793353340291229 0.0
  outer loop
    vertex 107.28904821414996 11.406391448155624 6.000000000000071
    vertex 106.97838804237014 11.168013514258789 11.0
    vertex 107.28904821414996 11.406391448155624 11.0
  endloop
endfacet
facet normal -0.793353340291249 0.6087614290087026 0.0
  outer loop
    vertex 107.52742614804677 11.717051619935447 11.0
    vertex 107.28904821414996 11.406391448155624 6.000000000000071
    vertex 107.28904821414996 11.406391448155624 11.0
  endloop
endfacet
facet normal -0.793353340291249 0.6087614290087026 0.0
  outer loop
    vertex 107.28904821414996 11.406391448155624 6.000000000000071
    vertex 107.52742614804677 11.717051619935447 11.0
    vertex 107.52742614804677 11.717051619935447 6.000000000000071
  endloop
endfacet
facet normal -0.9238795325112797 0.38268343236510666 0.0
  outer loop
    vertex 107.67727678180373 12.078823052281665 11.0
    vertex 107.52742614804677 11.717051619935447 6.000000000000071
    vertex 107.52742614804677 11.717051619935447 11.0
  endloop
endfacet
facet normal -0.9238795325112797 0.38268343236510666 0.0
  outer loop
    vertex 107.52742614804677 11.717051619935447 6.000000000000071
    vertex 107.67727678180373 12.078823052281665 11.0
    vertex 107.67727678180373 12.078823052281665 6.000000000000071
  endloop
endfacet
facet normal -0.9914448613738114 0.13052619222004508 0.0
  outer loop
    vertex 107.72838804237013 12.467051619935445 11.0
    vertex 107.67727678180373 12.078823052281665 6.000000000000071
    vertex 107.67727678180373 12.078823052281665 11.0
  endloop
endfacet
facet normal -0.9914448613738114 0.13052619222004508 0.0
  outer loop
    vertex 107.67727678180373 12.078823052281665 6.000000000000071
    vertex 107.72838804237013 12.467051619935445 11.0
    vertex 107.72838804237013 12.467051619935445 6.000000000000071
  endloop
endfacet
facet normal -0.9914448613738114 -0.1305261922200446 -0.0
  outer loop
    vertex 107.67727678180373 12.855280187589226 11.0
    vertex 107.72838804237013 12.467051619935445 6.000000000000071
    vertex 107.72838804237013 12.467051619935445 11.0
  endloop
endfacet
facet normal -0.9914448613738114 -0.1305261922200446 -0.0
  outer loop
    vertex 107.72838804237013 12.467051619935445 6.000000000000071
    vertex 107.67727678180373 12.855280187589226 11.0
    vertex 107.67727678180373 12.855280187589226 6.000000000000071
  endloop
endfacet
facet normal -0.9238795325112803 -0.3826834323651054 -0.0
  outer loop
    vertex 107.52742614804677 13.217051619935447 11.0
    vertex 107.67727678180373 12.855280187589226 6.000000000000071
    vertex 107.67727678180373 12.855280187589226 11.0
  endloop
endfacet
facet normal -0.9238795325112803 -0.3826834323651054 -0.0
  outer loop
    vertex 107.67727678180373 12.855280187589226 6.000000000000071
    vertex 107.52742614804677 13.217051619935447 11.0
    vertex 107.52742614804677 13.217051619935447 6.000000000000071
  endloop
endfacet
facet normal -0.7933533402912465 -0.6087614290087061 -0.0
  outer loop
    vertex 107.28904821414996 13.527711791715266 11.0
    vertex 107.52742614804677 13.217051619935447 6.000000000000071
    vertex 107.52742614804677 13.217051619935447 11.0
  endloop
endfacet
facet normal -0.7933533402912465 -0.6087614290087061 -0.0
  outer loop
    vertex 107.52742614804677 13.217051619935447 6.000000000000071
    vertex 107.28904821414996 13.527711791715266 11.0
    vertex 107.28904821414996 13.527711791715266 6.000000000000071
  endloop
endfacet
facet normal -0.6087614290087312 -0.7933533402912273 -0.0
  outer loop
    vertex 107.28904821414996 13.527711791715266 11.0
    vertex 106.97838804237014 13.766089725612105 6.000000000000071
    vertex 107.28904821414996 13.527711791715266 6.000000000000071
  endloop
endfacet
facet normal -0.6087614290087312 -0.7933533402912273 -0.0
  outer loop
    vertex 106.97838804237014 13.766089725612105 6.000000000000071
    vertex 107.28904821414996 13.527711791715266 11.0
    vertex 106.97838804237014 13.766089725612105 11.0
  endloop
endfacet
facet normal -0.3826834323650768 -0.9238795325112923 -0.0
  outer loop
    vertex 106.97838804237014 13.766089725612105 11.0
    vertex 106.61661661002391 13.915940359369047 6.000000000000071
    vertex 106.97838804237014 13.766089725612105 6.000000000000071
  endloop
endfacet
facet normal -0.3826834323650768 -0.9238795325112923 -0.0
  outer loop
    vertex 106.61661661002391 13.915940359369047 6.000000000000071
    vertex 106.97838804237014 13.766089725612105 11.0
    vertex 106.61661661002391 13.915940359369047 11.0
  endloop
endfacet
facet normal -0.13052619222005263 -0.9914448613738104 -0.0
  outer loop
    vertex 106.61661661002391 13.915940359369047 11.0
    vertex 106.22838804237013 13.967051619935445 6.000000000000071
    vertex 106.61661661002391 13.915940359369047 6.000000000000071
  endloop
endfacet
facet normal -0.13052619222005263 -0.9914448613738104 -0.0
  outer loop
    vertex 106.22838804237013 13.967051619935445 6.000000000000071
    vertex 106.61661661002391 13.915940359369047 11.0
    vertex 106.22838804237013 13.967051619935445 11.0
  endloop
endfacet
facet normal 0.13052619222005263 -0.9914448613738104 0.0
  outer loop
    vertex 106.22838804237013 13.967051619935445 11.0
    vertex 105.84015947471634 13.915940359369047 6.000000000000071
    vertex 106.22838804237013 13.967051619935445 6.000000000000071
  endloop
endfacet
facet normal 0.13052619222005263 -0.9914448613738104 0.0
  outer loop
    vertex 105.84015947471634 13.915940359369047 6.000000000000071
    vertex 106.22838804237013 13.967051619935445 11.0
    vertex 105.84015947471634 13.915940359369047 11.0
  endloop
endfacet
facet normal 0.3826834323650768 -0.9238795325112923 0.0
  outer loop
    vertex 105.84015947471634 13.915940359369047 11.0
    vertex 105.47838804237011 13.766089725612105 6.000000000000071
    vertex 105.84015947471634 13.915940359369047 6.000000000000071
  endloop
endfacet
facet normal 0.3826834323650768 -0.9238795325112923 0.0
  outer loop
    vertex 105.47838804237011 13.766089725612105 6.000000000000071
    vertex 105.84015947471634 13.915940359369047 11.0
    vertex 105.47838804237011 13.766089725612105 11.0
  endloop
endfacet
facet normal 0.6087614290087312 -0.7933533402912273 0.0
  outer loop
    vertex 105.47838804237011 13.766089725612105 11.0
    vertex 105.1677278705903 13.527711791715266 6.000000000000071
    vertex 105.47838804237011 13.766089725612105 6.000000000000071
  endloop
endfacet
facet normal 0.6087614290087312 -0.7933533402912273 0.0
  outer loop
    vertex 105.1677278705903 13.527711791715266 6.000000000000071
    vertex 105.47838804237011 13.766089725612105 11.0
    vertex 105.1677278705903 13.527711791715266 11.0
  endloop
endfacet
facet normal 0.793353340291249 -0.6087614290087026 0.0
  outer loop
    vertex 105.1677278705903 13.527711791715266 6.000000000000071
    vertex 104.92934993669347 13.217051619935443 11.0
    vertex 104.92934993669347 13.217051619935443 6.000000000000071
  endloop
endfacet
facet normal 0.793353340291249 -0.6087614290087026 0.0
  outer loop
    vertex 104.92934993669347 13.217051619935443 11.0
    vertex 105.1677278705903 13.527711791715266 6.000000000000071
    vertex 105.1677278705903 13.527711791715266 11.0
  endloop
endfacet
facet normal 0.9238795325112793 -0.382683432365108 0.0
  outer loop
    vertex 104.92934993669347 13.217051619935443 6.000000000000071
    vertex 104.77949930293653 12.855280187589226 11.0
    vertex 104.77949930293653 12.855280187589226 6.000000000000071
  endloop
endfacet
facet normal 0.9238795325112793 -0.382683432365108 0.0
  outer loop
    vertex 104.77949930293653 12.855280187589226 11.0
    vertex 104.92934993669347 13.217051619935443 6.000000000000071
    vertex 104.92934993669347 13.217051619935443 11.0
  endloop
endfacet
facet normal 0.9914448613738114 -0.1305261922200446 0.0
  outer loop
    vertex 104.77949930293653 12.855280187589226 6.000000000000071
    vertex 104.72838804237013 12.467051619935445 11.0
    vertex 104.72838804237013 12.467051619935445 6.000000000000071
  endloop
endfacet
facet normal 0.9914448613738114 -0.1305261922200446 0.0
  outer loop
    vertex 104.72838804237013 12.467051619935445 11.0
    vertex 104.77949930293653 12.855280187589226 6.000000000000071
    vertex 104.77949930293653 12.855280187589226 11.0
  endloop
endfacet
facet normal 0.9914448613738114 0.1305261922200446 0.0
  outer loop
    vertex 104.72838804237013 12.467051619935445 6.000000000000071
    vertex 104.77949930293653 12.078823052281663 11.0
    vertex 104.77949930293653 12.078823052281663 6.000000000000071
  endloop
endfacet
facet normal 0.9914448613738114 0.1305261922200446 0.0
  outer loop
    vertex 104.77949930293653 12.078823052281663 11.0
    vertex 104.72838804237013 12.467051619935445 6.000000000000071
    vertex 104.72838804237013 12.467051619935445 11.0
  endloop
endfacet
facet normal 0.9238795325112797 0.38268343236510666 0.0
  outer loop
    vertex 104.77949930293653 12.078823052281663 6.000000000000071
    vertex 104.92934993669347 11.717051619935445 11.0
    vertex 104.92934993669347 11.717051619935445 6.000000000000071
  endloop
endfacet
facet normal 0.9238795325112797 0.38268343236510666 0.0
  outer loop
    vertex 104.92934993669347 11.717051619935445 11.0
    vertex 104.77949930293653 12.078823052281663 6.000000000000071
    vertex 104.77949930293653 12.078823052281663 11.0
  endloop
endfacet
facet normal 0.7933533402912477 0.6087614290087043 0.0
  outer loop
    vertex 104.92934993669347 11.717051619935445 6.000000000000071
    vertex 105.1677278705903 11.406391448155624 11.0
    vertex 105.1677278705903 11.406391448155624 6.000000000000071
  endloop
endfacet
facet normal 0.7933533402912477 0.6087614290087043 0.0
  outer loop
    vertex 105.1677278705903 11.406391448155624 11.0
    vertex 104.92934993669347 11.717051619935445 6.000000000000071
    vertex 104.92934993669347 11.717051619935445 11.0
  endloop
endfacet
facet normal 0.608761429008729 0.793353340291229 0.0
  outer loop
    vertex 105.1677278705903 11.406391448155624 11.0
    vertex 105.47838804237011 11.168013514258789 6.000000000000071
    vertex 105.1677278705903 11.406391448155624 6.000000000000071
  endloop
endfacet
facet normal 0.608761429008729 0.793353340291229 0.0
  outer loop
    vertex 105.47838804237011 11.168013514258789 6.000000000000071
    vertex 105.1677278705903 11.406391448155624 11.0
    vertex 105.47838804237011 11.168013514258789 11.0
  endloop
endfacet
facet normal 0.38268343236507985 0.9238795325112908 0.0
  outer loop
    vertex 105.47838804237011 11.168013514258789 11.0
    vertex 105.84015947471634 11.018162880501842 6.000000000000071
    vertex 105.47838804237011 11.168013514258789 6.000000000000071
  endloop
endfacet
facet normal 0.38268343236507985 0.9238795325112908 0.0
  outer loop
    vertex 105.84015947471634 11.018162880501842 6.000000000000071
    vertex 105.47838804237011 11.168013514258789 11.0
    vertex 105.84015947471634 11.018162880501842 11.0
  endloop
endfacet
endsolid stepper_axis
