solid stepper_axis
facet normal -0.9973100289231229 0.0732987463014203 8.651956353219396e-19
  outer loop
    vertex 85.9023678977645 12.9586416864535 31.5
    vertex 85.84496346026914 12.17759120322427 23.5
    vertex 85.84496346026914 12.17759120322427 31.5
  endloop
endfacet
facet normal -0.9973100289231229 0.0732987463014203 8.651956353219396e-19
  outer loop
    vertex 85.84496346026914 12.17759120322427 23.5
    vertex 85.9023678977645 12.9586416864535 31.5
    vertex 85.9023678977645 12.9586416864535 23.5
  endloop
endfacet
facet normal 0.0 0.0 1.0
  outer loop
    vertex 85.99166577179501 11.408297008140405 31.5
    vertex 85.9023678977645 12.9586416864535 31.5
    vertex 85.84496346026914 12.17759120322427 31.5
  endloop
endfacet
facet normal 0.0 0.0 1.0
  outer loop
    vertex 85.9023678977645 12.9586416864535 31.5
    vertex 85.99166577179501 11.408297008140405 31.5
    vertex 86.15996706673111 13.698221158142973 31.5
  endloop
endfacet
facet normal 0.0 0.0 1.0
  outer loop
    vertex 86.15996706673111 13.698221158142973 31.5
    vertex 85.99166577179501 11.408297008140405 31.5
    vertex 86.3324773122487 10.703185229278096 31.5
  endloop
endfacet
facet normal 0.0 0.0 1.0
  outer loop
    vertex 86.15996706673111 13.698221158142973 31.5
    vertex 86.3324773122487 10.703185229278096 31.5
    vertex 86.60020600950668 14.345928499509913 31.5
  endloop
endfacet
facet normal 0.0 0.0 1.0
  outer loop
    vertex 86.60020600950668 14.345928499509913 31.5
    vertex 86.3324773122487 10.703185229278096 31.5
    vertex 86.84417233836594 10.110308069114508 31.5
  endloop
endfacet
facet normal 0.0 0.0 1.0
  outer loop
    vertex 86.60020600950668 14.345928499509913 31.5
    vertex 86.84417233836594 10.110308069114508 31.5
    vertex 87.19308316967027 14.857623525627158 31.5
  endloop
endfacet
facet normal 0.0 0.0 1.0
  outer loop
    vertex 87.19308316967027 14.857623525627158 31.5
    vertex 86.84417233836594 10.110308069114508 31.5
    vertex 87.49187967973288 9.670069126338952 31.5
  endloop
endfacet
facet normal 0.0 0.0 1.0
  outer loop
    vertex 87.19308316967027 14.857623525627158 31.5
    vertex 87.49187967973288 9.670069126338952 31.5
    vertex 87.43999938913402 12.35010144874184 31.5
  endloop
endfacet
facet normal 0.0 0.0 1.0
  outer loop
    vertex 87.43999938913402 12.35010144874184 31.5
    vertex 87.49187967973288 9.670069126338952 31.5
    vertex 87.48770323232932 11.98775478559831 31.5
  endloop
endfacet
facet normal 0.0 0.0 1.0
  outer loop
    vertex 87.48770323232932 11.98775478559831 31.5
    vertex 87.49187967973288 9.670069126338952 31.5
    vertex 87.6275638238358 11.650101448741841 31.5
  endloop
endfacet
facet normal 0.0 0.0 1.0
  outer loop
    vertex 87.6275638238358 11.650101448741841 31.5
    vertex 87.49187967973288 9.670069126338952 31.5
    vertex 88.23145915142236 9.41246995737233 31.5
  endloop
endfacet
facet normal 0.0 0.0 1.0
  outer loop
    vertex 87.6275638238358 11.650101448741841 31.5
    vertex 88.23145915142236 9.41246995737233 31.5
    vertex 87.85004989547285 11.360151955080674 31.5
  endloop
endfacet
facet normal 0.0 0.0 1.0
  outer loop
    vertex 87.85004989547285 11.360151955080674 31.5
    vertex 88.23145915142236 9.41246995737233 31.5
    vertex 88.13999938913402 11.137665883443628 31.5
  endloop
endfacet
facet normal 0.0 0.0 1.0
  outer loop
    vertex 88.13999938913402 11.137665883443628 31.5
    vertex 88.23145915142236 9.41246995737233 31.5
    vertex 88.47765272599048 10.997805291937146 31.5
  endloop
endfacet
facet normal 0.0 0.0 1.0
  outer loop
    vertex 88.47765272599048 10.997805291937146 31.5
    vertex 88.23145915142236 9.41246995737233 31.5
    vertex 89.01250963465158 9.355065519876966 31.5
  endloop
endfacet
facet normal 0.0 0.0 1.0
  outer loop
    vertex 88.47765272599048 10.997805291937146 31.5
    vertex 89.01250963465158 9.355065519876966 31.5
    vertex 88.83999938913401 10.950101448741842 31.5
  endloop
endfacet
facet normal 0.0 0.0 1.0
  outer loop
    vertex 88.83999938913401 10.950101448741842 31.5
    vertex 89.01250963465158 9.355065519876966 31.5
    vertex 89.20234605227753 10.997805291937146 31.5
  endloop
endfacet
facet normal 0.0 0.0 1.0
  outer loop
    vertex 89.20234605227753 10.997805291937146 31.5
    vertex 89.01250963465158 9.355065519876966 31.5
    vertex 89.78180382973545 9.501767831402846 31.5
  endloop
endfacet
facet normal 0.0 0.0 1.0
  outer loop
    vertex 89.20234605227753 10.997805291937146 31.5
    vertex 89.78180382973545 9.501767831402846 31.5
    vertex 89.53999938913401 11.137665883443628 31.5
  endloop
endfacet
facet normal 0.0 0.0 1.0
  outer loop
    vertex 89.53999938913401 11.137665883443628 31.5
    vertex 89.78180382973545 9.501767831402846 31.5
    vertex 89.82994888279518 11.360151955080674 31.5
  endloop
endfacet
facet normal 0.0 0.0 1.0
  outer loop
    vertex 89.82994888279518 11.360151955080674 31.5
    vertex 89.78180382973545 9.501767831402846 31.5
    vertex 90.48691560859776 9.842579371856521 31.5
  endloop
endfacet
facet normal 0.0 0.0 1.0
  outer loop
    vertex 89.82994888279518 11.360151955080674 31.5
    vertex 90.48691560859776 9.842579371856521 31.5
    vertex 90.05243495443223 11.650101448741841 31.5
  endloop
endfacet
facet normal 0.0 0.0 1.0
  outer loop
    vertex 90.05243495443223 11.650101448741841 31.5
    vertex 90.48691560859776 9.842579371856521 31.5
    vertex 90.1922955459387 11.987754785598312 31.5
  endloop
endfacet
facet normal 0.0 0.0 1.0
  outer loop
    vertex 90.1922955459387 11.987754785598312 31.5
    vertex 90.48691560859776 9.842579371856521 31.5
    vertex 90.23999938913401 12.35010144874184 31.5
  endloop
endfacet
facet normal 0.0 0.0 1.0
  outer loop
    vertex 87.19308316967027 14.857623525627158 31.5
    vertex 87.48770323232932 12.712448111885367 31.5
    vertex 87.89819494853258 15.198435066080833 31.5
  endloop
endfacet
facet normal 0.0 0.0 1.0
  outer loop
    vertex 87.48770323232932 12.712448111885367 31.5
    vertex 87.19308316967027 14.857623525627158 31.5
    vertex 87.43999938913402 12.35010144874184 31.5
  endloop
endfacet
facet normal 0.0 0.0 1.0
  outer loop
    vertex 87.89819494853258 15.198435066080833 31.5
    vertex 87.48770323232932 12.712448111885367 31.5
    vertex 87.6275638238358 13.050101448741838 31.5
  endloop
endfacet
facet normal 0.0 0.0 1.0
  outer loop
    vertex 87.89819494853258 15.198435066080833 31.5
    vertex 87.6275638238358 13.050101448741838 31.5
    vertex 87.85004989547285 13.340050942403003 31.5
  endloop
endfacet
facet normal 0.0 0.0 1.0
  outer loop
    vertex 87.89819494853258 15.198435066080833 31.5
    vertex 87.85004989547285 13.340050942403003 31.5
    vertex 88.13999938913402 13.56253701404005 31.5
  endloop
endfacet
facet normal 0.0 0.0 1.0
  outer loop
    vertex 87.89819494853258 15.198435066080833 31.5
    vertex 88.13999938913402 13.56253701404005 31.5
    vertex 88.66748914361645 15.345137377606717 31.5
  endloop
endfacet
facet normal 0.0 0.0 1.0
  outer loop
    vertex 88.66748914361645 15.345137377606717 31.5
    vertex 88.13999938913402 13.56253701404005 31.5
    vertex 88.47765272599048 13.702397605546532 31.5
  endloop
endfacet
facet normal 0.0 0.0 1.0
  outer loop
    vertex 88.66748914361645 15.345137377606717 31.5
    vertex 88.47765272599048 13.702397605546532 31.5
    vertex 88.83999938913401 13.750101448741837 31.5
  endloop
endfacet
facet normal 0.0 0.0 1.0
  outer loop
    vertex 88.66748914361645 15.345137377606717 31.5
    vertex 88.83999938913401 13.750101448741837 31.5
    vertex 89.44853962684567 15.287732940111349 31.5
  endloop
endfacet
facet normal 0.0 0.0 1.0
  outer loop
    vertex 89.44853962684567 15.287732940111349 31.5
    vertex 88.83999938913401 13.750101448741837 31.5
    vertex 89.20234605227753 13.702397605546532 31.5
  endloop
endfacet
facet normal 0.0 0.0 1.0
  outer loop
    vertex 89.44853962684567 15.287732940111349 31.5
    vertex 89.20234605227753 13.702397605546532 31.5
    vertex 89.53999938913401 13.562537014040053 31.5
  endloop
endfacet
facet normal 0.0 0.0 1.0
  outer loop
    vertex 89.44853962684567 15.287732940111349 31.5
    vertex 89.53999938913401 13.562537014040053 31.5
    vertex 90.18811909853514 15.03013377114473 31.5
  endloop
endfacet
facet normal 0.0 0.0 1.0
  outer loop
    vertex 90.18811909853514 15.03013377114473 31.5
    vertex 89.53999938913401 13.562537014040053 31.5
    vertex 89.82994888279518 13.340050942403003 31.5
  endloop
endfacet
facet normal 0.0 0.0 1.0
  outer loop
    vertex 90.18811909853514 15.03013377114473 31.5
    vertex 89.82994888279518 13.340050942403003 31.5
    vertex 90.05243495443223 13.050101448741838 31.5
  endloop
endfacet
facet normal 0.0 0.0 1.0
  outer loop
    vertex 90.18811909853514 15.03013377114473 31.5
    vertex 90.05243495443223 13.050101448741838 31.5
    vertex 90.1922955459387 12.71244811188537 31.5
  endloop
endfacet
facet normal 0.0 0.0 1.0
  outer loop
    vertex 90.18811909853514 15.03013377114473 31.5
    vertex 90.1922955459387 12.71244811188537 31.5
    vertex 90.83582643990209 14.589894828369173 31.5
  endloop
endfacet
facet normal 0.0 0.0 1.0
  outer loop
    vertex 90.83582643990209 14.589894828369173 31.5
    vertex 90.1922955459387 12.71244811188537 31.5
    vertex 90.23999938913401 12.35010144874184 31.5
  endloop
endfacet
facet normal 0.0 0.0 1.0
  outer loop
    vertex 90.83582643990209 14.589894828369173 31.5
    vertex 90.23999938913401 12.35010144874184 31.5
    vertex 90.48691560859776 9.842579371856521 31.5
  endloop
endfacet
facet normal 0.0 0.0 1.0
  outer loop
    vertex 90.83582643990209 14.589894828369173 31.5
    vertex 90.48691560859776 9.842579371856521 31.5
    vertex 91.07979276876135 10.354274397973766 31.5
  endloop
endfacet
facet normal 0.0 0.0 1.0
  outer loop
    vertex 90.83582643990209 14.589894828369173 31.5
    vertex 91.07979276876135 10.354274397973766 31.5
    vertex 91.34752146601933 13.997017668205585 31.5
  endloop
endfacet
facet normal 0.0 0.0 1.0
  outer loop
    vertex 91.34752146601933 13.997017668205585 31.5
    vertex 91.07979276876135 10.354274397973766 31.5
    vertex 91.5200317115369 11.001981739340707 31.5
  endloop
endfacet
facet normal 0.0 0.0 1.0
  outer loop
    vertex 91.34752146601933 13.997017668205585 31.5
    vertex 91.5200317115369 11.001981739340707 31.5
    vertex 91.688333006473 13.291905889343274 31.5
  endloop
endfacet
facet normal 0.0 0.0 1.0
  outer loop
    vertex 91.688333006473 13.291905889343274 31.5
    vertex 91.5200317115369 11.001981739340707 31.5
    vertex 91.77763088050352 11.741561211030179 31.5
  endloop
endfacet
facet normal 0.0 0.0 1.0
  outer loop
    vertex 91.688333006473 13.291905889343274 31.5
    vertex 91.77763088050352 11.741561211030179 31.5
    vertex 91.83503531799889 12.522611694259407 31.5
  endloop
endfacet
facet normal -0.07329874630141696 -0.9973100289231231 6.704132709275913e-32
  outer loop
    vertex 89.01250963465158 9.355065519876966 31.5
    vertex 88.23145915142236 9.41246995737233 23.5
    vertex 89.01250963465158 9.355065519876966 23.5
  endloop
endfacet
facet normal -0.07329874630141696 -0.9973100289231231 6.704132709275913e-32
  outer loop
    vertex 88.23145915142236 9.41246995737233 23.5
    vertex 89.01250963465158 9.355065519876966 31.5
    vertex 88.23145915142236 9.41246995737233 31.5
  endloop
endfacet
facet normal -0.7570347249590976 -0.6533746438346866 -2.0301606972439614e-18
  outer loop
    vertex 86.3324773122487 10.703185229278096 31.5
    vertex 86.84417233836594 10.110308069114508 23.5
    vertex 86.84417233836594 10.110308069114508 31.5
  endloop
endfacet
facet normal -0.7570347249590976 -0.6533746438346866 -2.0301606972439614e-18
  outer loop
    vertex 86.84417233836594 10.110308069114508 23.5
    vertex 86.3324773122487 10.703185229278096 31.5
    vertex 86.3324773122487 10.703185229278096 23.5
  endloop
endfacet
facet normal -0.18732167726990367 0.9822986252788865 -5.023456578638544e-19
  outer loop
    vertex 87.89819494853258 15.198435066080833 31.5
    vertex 88.66748914361645 15.345137377606717 23.5
    vertex 87.89819494853258 15.198435066080833 23.5
  endloop
endfacet
facet normal -0.18732167726990367 0.9822986252788865 -5.023456578638544e-19
  outer loop
    vertex 88.66748914361645 15.345137377606717 23.5
    vertex 87.89819494853258 15.198435066080833 31.5
    vertex 88.66748914361645 15.345137377606717 31.5
  endloop
endfacet
facet normal -0.5621335908241382 -0.8270464473457101 -2.2179130452540186e-18
  outer loop
    vertex 87.49187967973288 9.670069126338952 31.5
    vertex 86.84417233836594 10.110308069114508 23.5
    vertex 87.49187967973288 9.670069126338952 23.5
  endloop
endfacet
facet normal -0.5621335908241382 -0.8270464473457101 -2.2179130452540186e-18
  outer loop
    vertex 86.84417233836594 10.110308069114508 23.5
    vertex 87.49187967973288 9.670069126338952 31.5
    vertex 86.84417233836594 10.110308069114508 31.5
  endloop
endfacet
facet normal 0.9003451936471252 0.43517643809898615 2.374264686655951e-18
  outer loop
    vertex 91.34752146601933 13.997017668205585 23.5
    vertex 91.688333006473 13.291905889343274 31.5
    vertex 91.688333006473 13.291905889343274 23.5
  endloop
endfacet
facet normal 0.9003451936471252 0.43517643809898615 2.374264686655951e-18
  outer loop
    vertex 91.688333006473 13.291905889343274 31.5
    vertex 91.34752146601933 13.997017668205585 23.5
    vertex 91.34752146601933 13.997017668205585 31.5
  endloop
endfacet
facet normal 0.9822986252788865 0.1873216772699041 -9.198573450698028e-31
  outer loop
    vertex 91.688333006473 13.291905889343274 23.5
    vertex 91.83503531799889 12.522611694259407 31.5
    vertex 91.83503531799889 12.522611694259407 23.5
  endloop
endfacet
facet normal 0.9822986252788865 0.1873216772699041 -9.198573450698028e-31
  outer loop
    vertex 91.83503531799889 12.522611694259407 31.5
    vertex 91.688333006473 13.291905889343274 23.5
    vertex 91.688333006473 13.291905889343274 31.5
  endloop
endfacet
facet normal -0.9443564022290004 0.32892398144419066 8.820844242594182e-19
  outer loop
    vertex 86.15996706673111 13.698221158142973 31.5
    vertex 85.9023678977645 12.9586416864535 23.5
    vertex 85.9023678977645 12.9586416864535 31.5
  endloop
endfacet
facet normal -0.9443564022290004 0.32892398144419066 8.820844242594182e-19
  outer loop
    vertex 85.9023678977645 12.9586416864535 23.5
    vertex 86.15996706673111 13.698221158142973 31.5
    vertex 86.15996706673111 13.698221158142973 23.5
  endloop
endfacet
facet normal -0.8270464473457058 0.5621335908241444 -8.849788045995684e-31
  outer loop
    vertex 86.60020600950668 14.345928499509913 31.5
    vertex 86.15996706673111 13.698221158142973 23.5
    vertex 86.15996706673111 13.698221158142973 31.5
  endloop
endfacet
facet normal -0.8270464473457058 0.5621335908241444 -8.849788045995684e-31
  outer loop
    vertex 86.15996706673111 13.698221158142973 23.5
    vertex 86.60020600950668 14.345928499509913 31.5
    vertex 86.60020600950668 14.345928499509913 23.5
  endloop
endfacet
facet normal 0.43517643809898465 -0.9003451936471258 1.1670245391223257e-18
  outer loop
    vertex 90.48691560859776 9.842579371856521 31.5
    vertex 89.78180382973545 9.501767831402846 23.5
    vertex 90.48691560859776 9.842579371856521 23.5
  endloop
endfacet
facet normal 0.43517643809898465 -0.9003451936471258 1.1670245391223257e-18
  outer loop
    vertex 89.78180382973545 9.501767831402846 23.5
    vertex 90.48691560859776 9.842579371856521 31.5
    vertex 89.78180382973545 9.501767831402846 31.5
  endloop
endfacet
facet normal 0.07329874630141696 0.9973100289231231 1.965672498131931e-19
  outer loop
    vertex 88.66748914361645 15.345137377606717 31.5
    vertex 89.44853962684567 15.287732940111349 23.5
    vertex 88.66748914361645 15.345137377606717 23.5
  endloop
endfacet
facet normal 0.07329874630141696 0.9973100289231231 1.965672498131931e-19
  outer loop
    vertex 89.44853962684567 15.287732940111349 23.5
    vertex 88.66748914361645 15.345137377606717 31.5
    vertex 89.44853962684567 15.287732940111349 31.5
  endloop
endfacet
facet normal -0.3289239814441983 -0.9443564022289979 1.0796723963331888e-31
  outer loop
    vertex 88.23145915142236 9.41246995737233 31.5
    vertex 87.49187967973288 9.670069126338952 23.5
    vertex 88.23145915142236 9.41246995737233 23.5
  endloop
endfacet
facet normal -0.3289239814441983 -0.9443564022289979 1.0796723963331888e-31
  outer loop
    vertex 87.49187967973288 9.670069126338952 23.5
    vertex 88.23145915142236 9.41246995737233 31.5
    vertex 87.49187967973288 9.670069126338952 31.5
  endloop
endfacet
facet normal 0.9973100289231229 -0.07329874630142044 1.9656724981339516e-19
  outer loop
    vertex 91.83503531799889 12.522611694259407 23.5
    vertex 91.77763088050352 11.741561211030179 31.5
    vertex 91.77763088050352 11.741561211030179 23.5
  endloop
endfacet
facet normal 0.9973100289231229 -0.07329874630142044 1.9656724981339516e-19
  outer loop
    vertex 91.77763088050352 11.741561211030179 31.5
    vertex 91.83503531799889 12.522611694259407 23.5
    vertex 91.83503531799889 12.522611694259407 31.5
  endloop
endfacet
facet normal -0.4351764380989832 0.9003451936471266 1.167024539123015e-18
  outer loop
    vertex 87.19308316967027 14.857623525627158 31.5
    vertex 87.89819494853258 15.198435066080833 23.5
    vertex 87.19308316967027 14.857623525627158 23.5
  endloop
endfacet
facet normal -0.4351764380989832 0.9003451936471266 1.167024539123015e-18
  outer loop
    vertex 87.89819494853258 15.198435066080833 23.5
    vertex 87.19308316967027 14.857623525627158 31.5
    vertex 87.89819494853258 15.198435066080833 31.5
  endloop
endfacet
facet normal 0.6533746438346884 -0.757034724959096 -1.8793416417371388e-30
  outer loop
    vertex 91.07979276876135 10.354274397973766 31.5
    vertex 90.48691560859776 9.842579371856521 23.5
    vertex 91.07979276876135 10.354274397973766 23.5
  endloop
endfacet
facet normal 0.6533746438346884 -0.757034724959096 -1.8793416417371388e-30
  outer loop
    vertex 90.48691560859776 9.842579371856521 23.5
    vertex 91.07979276876135 10.354274397973766 31.5
    vertex 90.48691560859776 9.842579371856521 31.5
  endloop
endfacet
facet normal -0.9003451936471248 -0.4351764380989868 -4.021560840985321e-20
  outer loop
    vertex 85.99166577179501 11.408297008140405 31.5
    vertex 86.3324773122487 10.703185229278096 23.5
    vertex 86.3324773122487 10.703185229278096 31.5
  endloop
endfacet
facet normal -0.9003451936471248 -0.4351764380989868 -4.021560840985321e-20
  outer loop
    vertex 86.3324773122487 10.703185229278096 23.5
    vertex 85.99166577179501 11.408297008140405 31.5
    vertex 85.99166577179501 11.408297008140405 23.5
  endloop
endfacet
facet normal 0.9443564022289961 -0.32892398144420304 0.0
  outer loop
    vertex 91.77763088050352 11.741561211030179 23.5
    vertex 91.5200317115369 11.001981739340707 31.5
    vertex 91.5200317115369 11.001981739340707 23.5
  endloop
endfacet
facet normal 0.9443564022289961 -0.32892398144420304 0.0
  outer loop
    vertex 91.5200317115369 11.001981739340707 31.5
    vertex 91.77763088050352 11.741561211030179 23.5
    vertex 91.77763088050352 11.741561211030179 31.5
  endloop
endfacet
facet normal 0.7570347249590978 0.6533746438346865 -6.177080373099779e-31
  outer loop
    vertex 90.83582643990209 14.589894828369173 23.5
    vertex 91.34752146601933 13.997017668205585 31.5
    vertex 91.34752146601933 13.997017668205585 23.5
  endloop
endfacet
facet normal 0.7570347249590978 0.6533746438346865 -6.177080373099779e-31
  outer loop
    vertex 91.34752146601933 13.997017668205585 31.5
    vertex 90.83582643990209 14.589894828369173 23.5
    vertex 90.83582643990209 14.589894828369173 31.5
  endloop
endfacet
facet normal 0.8270464473457126 -0.5621335908241345 0.0
  outer loop
    vertex 91.5200317115369 11.001981739340707 23.5
    vertex 91.07979276876135 10.354274397973766 31.5
    vertex 91.07979276876135 10.354274397973766 23.5
  endloop
endfacet
facet normal 0.8270464473457126 -0.5621335908241345 0.0
  outer loop
    vertex 91.07979276876135 10.354274397973766 31.5
    vertex 91.5200317115369 11.001981739340707 23.5
    vertex 91.5200317115369 11.001981739340707 31.5
  endloop
endfacet
facet normal -0.9822986252788862 -0.18732167726990434 -5.023456578629474e-19
  outer loop
    vertex 85.84496346026914 12.17759120322427 31.5
    vertex 85.99166577179501 11.408297008140405 23.5
    vertex 85.99166577179501 11.408297008140405 31.5
  endloop
endfacet
facet normal -0.9822986252788862 -0.18732167726990434 -5.023456578629474e-19
  outer loop
    vertex 85.99166577179501 11.408297008140405 23.5
    vertex 85.84496346026914 12.17759120322427 31.5
    vertex 85.84496346026914 12.17759120322427 23.5
  endloop
endfacet
facet normal 0.3289239814441998 0.9443564022289973 1.2662531775540436e-18
  outer loop
    vertex 89.44853962684567 15.287732940111349 31.5
    vertex 90.18811909853514 15.03013377114473 23.5
    vertex 89.44853962684567 15.287732940111349 23.5
  endloop
endfacet
facet normal 0.3289239814441998 0.9443564022289973 1.2662531775540436e-18
  outer loop
    vertex 90.18811909853514 15.03013377114473 23.5
    vertex 89.44853962684567 15.287732940111349 31.5
    vertex 90.18811909853514 15.03013377114473 31.5
  endloop
endfacet
facet normal -0.6533746438346895 0.7570347249590951 5.975968951953225e-31
  outer loop
    vertex 86.60020600950668 14.345928499509913 31.5
    vertex 87.19308316967027 14.857623525627158 23.5
    vertex 86.60020600950668 14.345928499509913 23.5
  endloop
endfacet
facet normal -0.6533746438346895 0.7570347249590951 5.975968951953225e-31
  outer loop
    vertex 87.19308316967027 14.857623525627158 23.5
    vertex 86.60020600950668 14.345928499509913 31.5
    vertex 87.19308316967027 14.857623525627158 31.5
  endloop
endfacet
facet normal 0.562133590824137 0.827046447345711 -1.8911064034234492e-31
  outer loop
    vertex 90.18811909853514 15.03013377114473 31.5
    vertex 90.83582643990209 14.589894828369173 23.5
    vertex 90.18811909853514 15.03013377114473 23.5
  endloop
endfacet
facet normal 0.562133590824137 0.827046447345711 -1.8911064034234492e-31
  outer loop
    vertex 90.83582643990209 14.589894828369173 23.5
    vertex 90.18811909853514 15.03013377114473 31.5
    vertex 90.83582643990209 14.589894828369173 31.5
  endloop
endfacet
facet normal 0.1873216772699002 -0.9822986252788871 -5.023456578636205e-19
  outer loop
    vertex 89.78180382973545 9.501767831402846 31.5
    vertex 89.01250963465158 9.355065519876966 23.5
    vertex 89.78180382973545 9.501767831402846 23.5
  endloop
endfacet
facet normal 0.1873216772699002 -0.9822986252788871 -5.023456578636205e-19
  outer loop
    vertex 89.01250963465158 9.355065519876966 23.5
    vertex 89.78180382973545 9.501767831402846 31.5
    vertex 89.01250963465158 9.355065519876966 31.5
  endloop
endfacet
facet normal -1.2589892305890414e-47 2.208947489637097e-31 -1.0
  outer loop
    vertex 87.19308316967027 14.857623525627158 23.5
    vertex 87.48770323232932 12.712448111885367 23.500000000000032
    vertex 87.43999938913402 12.35010144874184 23.500000000000032
  endloop
endfacet
facet normal -1.2589892305890414e-47 2.208947489637097e-31 -1.0
  outer loop
    vertex 87.48770323232932 12.712448111885367 23.500000000000032
    vertex 87.19308316967027 14.857623525627158 23.5
    vertex 87.89819494853258 15.198435066080833 23.5
  endloop
endfacet
facet normal -1.2589892305890414e-47 2.208947489637097e-31 -1.0
  outer loop
    vertex 87.48770323232932 12.712448111885367 23.500000000000032
    vertex 87.89819494853258 15.198435066080833 23.5
    vertex 87.6275638238358 13.050101448741838 23.500000000000032
  endloop
endfacet
facet normal -1.2589892305890414e-47 2.208947489637097e-31 -1.0
  outer loop
    vertex 87.6275638238358 13.050101448741838 23.500000000000032
    vertex 87.89819494853258 15.198435066080833 23.5
    vertex 87.85004989547285 13.340050942403003 23.500000000000032
  endloop
endfacet
facet normal -1.2589892305890414e-47 2.208947489637097e-31 -1.0
  outer loop
    vertex 87.85004989547285 13.340050942403003 23.500000000000032
    vertex 87.89819494853258 15.198435066080833 23.5
    vertex 88.13999938913402 13.56253701404005 23.500000000000032
  endloop
endfacet
facet normal -1.2589892305890414e-47 2.208947489637097e-31 -1.0
  outer loop
    vertex 88.13999938913402 13.56253701404005 23.500000000000032
    vertex 87.89819494853258 15.198435066080833 23.5
    vertex 88.66748914361645 15.345137377606717 23.5
  endloop
endfacet
facet normal -1.2589892305890414e-47 2.208947489637097e-31 -1.0
  outer loop
    vertex 88.13999938913402 13.56253701404005 23.500000000000032
    vertex 88.66748914361645 15.345137377606717 23.5
    vertex 88.47765272599048 13.702397605546532 23.500000000000032
  endloop
endfacet
facet normal -1.2589892305890414e-47 2.208947489637097e-31 -1.0
  outer loop
    vertex 88.47765272599048 13.702397605546532 23.500000000000032
    vertex 88.66748914361645 15.345137377606717 23.5
    vertex 88.83999938913401 13.750101448741837 23.500000000000032
  endloop
endfacet
facet normal -1.2589892305890414e-47 2.208947489637097e-31 -1.0
  outer loop
    vertex 88.83999938913401 13.750101448741837 23.500000000000032
    vertex 88.66748914361645 15.345137377606717 23.5
    vertex 89.44853962684567 15.287732940111349 23.5
  endloop
endfacet
facet normal -1.2589892305890414e-47 2.208947489637097e-31 -1.0
  outer loop
    vertex 88.83999938913401 13.750101448741837 23.500000000000032
    vertex 89.44853962684567 15.287732940111349 23.5
    vertex 89.20234605227753 13.702397605546532 23.500000000000032
  endloop
endfacet
facet normal -1.2589892305890414e-47 2.208947489637097e-31 -1.0
  outer loop
    vertex 89.20234605227753 13.702397605546532 23.500000000000032
    vertex 89.44853962684567 15.287732940111349 23.5
    vertex 89.53999938913401 13.562537014040053 23.500000000000032
  endloop
endfacet
facet normal -1.2589892305890414e-47 2.208947489637097e-31 -1.0
  outer loop
    vertex 89.53999938913401 13.562537014040053 23.500000000000032
    vertex 89.44853962684567 15.287732940111349 23.5
    vertex 90.18811909853514 15.03013377114473 23.5
  endloop
endfacet
facet normal -1.2589892305890414e-47 2.208947489637097e-31 -1.0
  outer loop
    vertex 89.53999938913401 13.562537014040053 23.500000000000032
    vertex 90.18811909853514 15.03013377114473 23.5
    vertex 89.82994888279518 13.340050942403003 23.500000000000032
  endloop
endfacet
facet normal -1.2589892305890414e-47 2.208947489637097e-31 -1.0
  outer loop
    vertex 89.82994888279518 13.340050942403003 23.500000000000032
    vertex 90.18811909853514 15.03013377114473 23.5
    vertex 90.05243495443223 13.050101448741838 23.500000000000032
  endloop
endfacet
facet normal -1.2589892305890414e-47 2.208947489637097e-31 -1.0
  outer loop
    vertex 90.05243495443223 13.050101448741838 23.500000000000032
    vertex 90.18811909853514 15.03013377114473 23.5
    vertex 90.1922955459387 12.71244811188537 23.500000000000032
  endloop
endfacet
facet normal -1.2589892305890414e-47 2.208947489637097e-31 -1.0
  outer loop
    vertex 90.1922955459387 12.71244811188537 23.500000000000032
    vertex 90.18811909853514 15.03013377114473 23.5
    vertex 90.83582643990209 14.589894828369173 23.5
  endloop
endfacet
facet normal -1.2589892305890414e-47 2.208947489637097e-31 -1.0
  outer loop
    vertex 90.1922955459387 12.71244811188537 23.500000000000032
    vertex 90.83582643990209 14.589894828369173 23.5
    vertex 90.23999938913401 12.35010144874184 23.500000000000032
  endloop
endfacet
facet normal -1.2589892305890414e-47 2.208947489637097e-31 -1.0
  outer loop
    vertex 90.23999938913401 12.35010144874184 23.500000000000032
    vertex 90.83582643990209 14.589894828369173 23.5
    vertex 90.48691560859776 9.842579371856521 23.5
  endloop
endfacet
facet normal -1.2589892305890414e-47 2.208947489637097e-31 -1.0
  outer loop
    vertex 90.48691560859776 9.842579371856521 23.5
    vertex 90.83582643990209 14.589894828369173 23.5
    vertex 91.07979276876135 10.354274397973766 23.5
  endloop
endfacet
facet normal -1.2589892305890414e-47 2.208947489637097e-31 -1.0
  outer loop
    vertex 91.07979276876135 10.354274397973766 23.5
    vertex 90.83582643990209 14.589894828369173 23.5
    vertex 91.34752146601933 13.997017668205585 23.5
  endloop
endfacet
facet normal -1.2589892305890414e-47 2.208947489637097e-31 -1.0
  outer loop
    vertex 91.07979276876135 10.354274397973766 23.5
    vertex 91.34752146601933 13.997017668205585 23.5
    vertex 91.5200317115369 11.001981739340707 23.5
  endloop
endfacet
facet normal -1.2589892305890414e-47 2.208947489637097e-31 -1.0
  outer loop
    vertex 91.5200317115369 11.001981739340707 23.5
    vertex 91.34752146601933 13.997017668205585 23.5
    vertex 91.688333006473 13.291905889343274 23.5
  endloop
endfacet
facet normal -1.2589892305890414e-47 2.208947489637097e-31 -1.0
  outer loop
    vertex 91.5200317115369 11.001981739340707 23.5
    vertex 91.688333006473 13.291905889343274 23.5
    vertex 91.77763088050352 11.741561211030179 23.5
  endloop
endfacet
facet normal -1.2589892305890414e-47 2.208947489637097e-31 -1.0
  outer loop
    vertex 91.77763088050352 11.741561211030179 23.5
    vertex 91.688333006473 13.291905889343274 23.5
    vertex 91.83503531799889 12.522611694259407 23.5
  endloop
endfacet
facet normal -1.2589892305890414e-47 2.208947489637097e-31 -1.0
  outer loop
    vertex 85.9023678977645 12.9586416864535 23.5
    vertex 85.99166577179501 11.408297008140405 23.5
    vertex 85.84496346026914 12.17759120322427 23.5
  endloop
endfacet
facet normal -1.2589892305890414e-47 2.208947489637097e-31 -1.0
  outer loop
    vertex 85.99166577179501 11.408297008140405 23.5
    vertex 85.9023678977645 12.9586416864535 23.5
    vertex 86.15996706673111 13.698221158142973 23.5
  endloop
endfacet
facet normal -1.2589892305890414e-47 2.208947489637097e-31 -1.0
  outer loop
    vertex 85.99166577179501 11.408297008140405 23.5
    vertex 86.15996706673111 13.698221158142973 23.5
    vertex 86.3324773122487 10.703185229278096 23.5
  endloop
endfacet
facet normal -1.2589892305890414e-47 2.208947489637097e-31 -1.0
  outer loop
    vertex 86.3324773122487 10.703185229278096 23.5
    vertex 86.15996706673111 13.698221158142973 23.5
    vertex 86.60020600950668 14.345928499509913 23.5
  endloop
endfacet
facet normal -1.2589892305890414e-47 2.208947489637097e-31 -1.0
  outer loop
    vertex 86.3324773122487 10.703185229278096 23.5
    vertex 86.60020600950668 14.345928499509913 23.5
    vertex 86.84417233836594 10.110308069114508 23.5
  endloop
endfacet
facet normal -1.2589892305890414e-47 2.208947489637097e-31 -1.0
  outer loop
    vertex 86.84417233836594 10.110308069114508 23.5
    vertex 86.60020600950668 14.345928499509913 23.5
    vertex 87.19308316967027 14.857623525627158 23.5
  endloop
endfacet
facet normal -1.2589892305890414e-47 2.208947489637097e-31 -1.0
  outer loop
    vertex 86.84417233836594 10.110308069114508 23.5
    vertex 87.19308316967027 14.857623525627158 23.5
    vertex 87.49187967973288 9.670069126338952 23.5
  endloop
endfacet
facet normal -1.2589892305890414e-47 2.208947489637097e-31 -1.0
  outer loop
    vertex 87.49187967973288 9.670069126338952 23.5
    vertex 87.19308316967027 14.857623525627158 23.5
    vertex 87.43999938913402 12.35010144874184 23.500000000000032
  endloop
endfacet
facet normal -1.2589892305890414e-47 2.208947489637097e-31 -1.0
  outer loop
    vertex 87.49187967973288 9.670069126338952 23.5
    vertex 87.43999938913402 12.35010144874184 23.500000000000032
    vertex 87.48770323232932 11.98775478559831 23.500000000000032
  endloop
endfacet
facet normal -1.2589892305890414e-47 2.208947489637097e-31 -1.0
  outer loop
    vertex 87.49187967973288 9.670069126338952 23.5
    vertex 87.48770323232932 11.98775478559831 23.500000000000032
    vertex 87.6275638238358 11.650101448741841 23.500000000000032
  endloop
endfacet
facet normal -1.2589892305890414e-47 2.208947489637097e-31 -1.0
  outer loop
    vertex 87.49187967973288 9.670069126338952 23.5
    vertex 87.6275638238358 11.650101448741841 23.500000000000032
    vertex 88.23145915142236 9.41246995737233 23.5
  endloop
endfacet
facet normal -1.2589892305890414e-47 2.208947489637097e-31 -1.0
  outer loop
    vertex 88.23145915142236 9.41246995737233 23.5
    vertex 87.6275638238358 11.650101448741841 23.500000000000032
    vertex 87.85004989547285 11.360151955080674 23.500000000000032
  endloop
endfacet
facet normal -1.2589892305890414e-47 2.208947489637097e-31 -1.0
  outer loop
    vertex 88.23145915142236 9.41246995737233 23.5
    vertex 87.85004989547285 11.360151955080674 23.500000000000032
    vertex 88.13999938913402 11.137665883443628 23.500000000000032
  endloop
endfacet
facet normal -1.2589892305890414e-47 2.208947489637097e-31 -1.0
  outer loop
    vertex 88.23145915142236 9.41246995737233 23.5
    vertex 88.13999938913402 11.137665883443628 23.500000000000032
    vertex 88.47765272599048 10.997805291937146 23.500000000000032
  endloop
endfacet
facet normal -1.2589892305890414e-47 2.208947489637097e-31 -1.0
  outer loop
    vertex 88.23145915142236 9.41246995737233 23.5
    vertex 88.47765272599048 10.997805291937146 23.500000000000032
    vertex 89.01250963465158 9.355065519876966 23.5
  endloop
endfacet
facet normal -1.2589892305890414e-47 2.208947489637097e-31 -1.0
  outer loop
    vertex 89.01250963465158 9.355065519876966 23.5
    vertex 88.47765272599048 10.997805291937146 23.500000000000032
    vertex 88.83999938913401 10.950101448741842 23.500000000000032
  endloop
endfacet
facet normal -1.2589892305890414e-47 2.208947489637097e-31 -1.0
  outer loop
    vertex 89.01250963465158 9.355065519876966 23.5
    vertex 88.83999938913401 10.950101448741842 23.500000000000032
    vertex 89.20234605227753 10.997805291937146 23.500000000000032
  endloop
endfacet
facet normal -1.2589892305890414e-47 2.208947489637097e-31 -1.0
  outer loop
    vertex 89.01250963465158 9.355065519876966 23.5
    vertex 89.20234605227753 10.997805291937146 23.500000000000032
    vertex 89.78180382973545 9.501767831402846 23.5
  endloop
endfacet
facet normal -1.2589892305890414e-47 2.208947489637097e-31 -1.0
  outer loop
    vertex 89.78180382973545 9.501767831402846 23.5
    vertex 89.20234605227753 10.997805291937146 23.500000000000032
    vertex 89.53999938913401 11.137665883443628 23.500000000000032
  endloop
endfacet
facet normal -1.2589892305890414e-47 2.208947489637097e-31 -1.0
  outer loop
    vertex 89.78180382973545 9.501767831402846 23.5
    vertex 89.53999938913401 11.137665883443628 23.500000000000032
    vertex 89.82994888279518 11.360151955080674 23.500000000000032
  endloop
endfacet
facet normal -1.2589892305890414e-47 2.208947489637097e-31 -1.0
  outer loop
    vertex 89.78180382973545 9.501767831402846 23.5
    vertex 89.82994888279518 11.360151955080674 23.500000000000032
    vertex 90.48691560859776 9.842579371856521 23.5
  endloop
endfacet
facet normal -1.2589892305890414e-47 2.208947489637097e-31 -1.0
  outer loop
    vertex 90.48691560859776 9.842579371856521 23.5
    vertex 89.82994888279518 11.360151955080674 23.500000000000032
    vertex 90.05243495443223 11.650101448741841 23.500000000000032
  endloop
endfacet
facet normal -1.2589892305890414e-47 2.208947489637097e-31 -1.0
  outer loop
    vertex 90.48691560859776 9.842579371856521 23.5
    vertex 90.05243495443223 11.650101448741841 23.500000000000032
    vertex 90.1922955459387 11.987754785598312 23.500000000000032
  endloop
endfacet
facet normal -1.2589892305890414e-47 2.208947489637097e-31 -1.0
  outer loop
    vertex 90.48691560859776 9.842579371856521 23.5
    vertex 90.1922955459387 11.987754785598312 23.500000000000032
    vertex 90.23999938913401 12.35010144874184 23.500000000000032
  endloop
endfacet
facet normal -0.9914448613738099 0.13052619222005518 0.0
  outer loop
    vertex 90.23999938913401 12.35010144874184 31.5
    vertex 90.1922955459387 11.987754785598312 23.500000000000032
    vertex 90.1922955459387 11.987754785598312 31.5
  endloop
endfacet
facet normal -0.9914448613738099 0.13052619222005518 0.0
  outer loop
    vertex 90.1922955459387 11.987754785598312 23.500000000000032
    vertex 90.23999938913401 12.35010144874184 31.5
    vertex 90.23999938913401 12.35010144874184 23.500000000000032
  endloop
endfacet
facet normal -0.99144486137381 -0.13052619222005418 -0.0
  outer loop
    vertex 90.1922955459387 12.71244811188537 31.5
    vertex 90.23999938913401 12.35010144874184 23.500000000000032
    vertex 90.23999938913401 12.35010144874184 31.5
  endloop
endfacet
facet normal -0.99144486137381 -0.13052619222005418 -0.0
  outer loop
    vertex 90.23999938913401 12.35010144874184 23.500000000000032
    vertex 90.1922955459387 12.71244811188537 31.5
    vertex 90.1922955459387 12.71244811188537 23.500000000000032
  endloop
endfacet
facet normal -0.9238795325112911 -0.3826834323650796 -0.0
  outer loop
    vertex 90.05243495443223 13.050101448741838 31.5
    vertex 90.1922955459387 12.71244811188537 23.500000000000032
    vertex 90.1922955459387 12.71244811188537 31.5
  endloop
endfacet
facet normal -0.9238795325112911 -0.3826834323650796 -0.0
  outer loop
    vertex 90.1922955459387 12.71244811188537 23.500000000000032
    vertex 90.05243495443223 13.050101448741838 31.5
    vertex 90.05243495443223 13.050101448741838 23.500000000000032
  endloop
endfacet
facet normal -0.7933533402912317 -0.6087614290087252 -0.0
  outer loop
    vertex 89.82994888279518 13.340050942403003 31.5
    vertex 90.05243495443223 13.050101448741838 23.500000000000032
    vertex 90.05243495443223 13.050101448741838 31.5
  endloop
endfacet
facet normal -0.7933533402912317 -0.6087614290087252 -0.0
  outer loop
    vertex 90.05243495443223 13.050101448741838 23.500000000000032
    vertex 89.82994888279518 13.340050942403003 31.5
    vertex 89.82994888279518 13.340050942403003 23.500000000000032
  endloop
endfacet
facet normal -0.6087614290087215 -0.7933533402912345 -0.0
  outer loop
    vertex 89.82994888279518 13.340050942403003 31.5
    vertex 89.53999938913401 13.562537014040053 23.500000000000032
    vertex 89.82994888279518 13.340050942403003 23.500000000000032
  endloop
endfacet
facet normal -0.6087614290087215 -0.7933533402912345 -0.0
  outer loop
    vertex 89.53999938913401 13.562537014040053 23.500000000000032
    vertex 89.82994888279518 13.340050942403003 31.5
    vertex 89.53999938913401 13.562537014040053 31.5
  endloop
endfacet
facet normal -0.38268343236508073 -0.9238795325112906 -0.0
  outer loop
    vertex 89.53999938913401 13.562537014040053 31.5
    vertex 89.20234605227753 13.702397605546532 23.500000000000032
    vertex 89.53999938913401 13.562537014040053 23.500000000000032
  endloop
endfacet
facet normal -0.38268343236508073 -0.9238795325112906 -0.0
  outer loop
    vertex 89.20234605227753 13.702397605546532 23.500000000000032
    vertex 89.53999938913401 13.562537014040053 31.5
    vertex 89.20234605227753 13.702397605546532 31.5
  endloop
endfacet
facet normal -0.13052619222005618 -0.9914448613738098 -0.0
  outer loop
    vertex 89.20234605227753 13.702397605546532 31.5
    vertex 88.83999938913401 13.750101448741837 23.500000000000032
    vertex 89.20234605227753 13.702397605546532 23.500000000000032
  endloop
endfacet
facet normal -0.13052619222005618 -0.9914448613738098 -0.0
  outer loop
    vertex 88.83999938913401 13.750101448741837 23.500000000000032
    vertex 89.20234605227753 13.702397605546532 31.5
    vertex 88.83999938913401 13.750101448741837 31.5
  endloop
endfacet
facet normal 0.13052619222005618 -0.9914448613738098 0.0
  outer loop
    vertex 88.83999938913401 13.750101448741837 31.5
    vertex 88.47765272599048 13.702397605546532 23.500000000000032
    vertex 88.83999938913401 13.750101448741837 23.500000000000032
  endloop
endfacet
facet normal 0.13052619222005618 -0.9914448613738098 0.0
  outer loop
    vertex 88.47765272599048 13.702397605546532 23.500000000000032
    vertex 88.83999938913401 13.750101448741837 31.5
    vertex 88.47765272599048 13.702397605546532 31.5
  endloop
endfacet
facet normal 0.3826834323650873 -0.9238795325112878 0.0
  outer loop
    vertex 88.47765272599048 13.702397605546532 31.5
    vertex 88.13999938913402 13.56253701404005 23.500000000000032
    vertex 88.47765272599048 13.702397605546532 23.500000000000032
  endloop
endfacet
facet normal 0.3826834323650873 -0.9238795325112878 0.0
  outer loop
    vertex 88.13999938913402 13.56253701404005 23.500000000000032
    vertex 88.47765272599048 13.702397605546532 31.5
    vertex 88.13999938913402 13.56253701404005 31.5
  endloop
endfacet
facet normal 0.6087614290087167 -0.7933533402912383 0.0
  outer loop
    vertex 88.13999938913402 13.56253701404005 31.5
    vertex 87.85004989547285 13.340050942403003 23.500000000000032
    vertex 88.13999938913402 13.56253701404005 23.500000000000032
  endloop
endfacet
facet normal 0.6087614290087167 -0.7933533402912383 0.0
  outer loop
    vertex 87.85004989547285 13.340050942403003 23.500000000000032
    vertex 88.13999938913402 13.56253701404005 31.5
    vertex 87.85004989547285 13.340050942403003 31.5
  endloop
endfacet
facet normal 0.7933533402912317 -0.6087614290087252 0.0
  outer loop
    vertex 87.85004989547285 13.340050942403003 23.500000000000032
    vertex 87.6275638238358 13.050101448741838 31.5
    vertex 87.6275638238358 13.050101448741838 23.500000000000032
  endloop
endfacet
facet normal 0.7933533402912317 -0.6087614290087252 0.0
  outer loop
    vertex 87.6275638238358 13.050101448741838 31.5
    vertex 87.85004989547285 13.340050942403003 23.500000000000032
    vertex 87.85004989547285 13.340050942403003 31.5
  endloop
endfacet
facet normal 0.9238795325112922 -0.38268343236507685 0.0
  outer loop
    vertex 87.6275638238358 13.050101448741838 23.500000000000032
    vertex 87.48770323232932 12.712448111885367 31.5
    vertex 87.48770323232932 12.712448111885367 23.500000000000032
  endloop
endfacet
facet normal 0.9238795325112922 -0.38268343236507685 0.0
  outer loop
    vertex 87.48770323232932 12.712448111885367 31.5
    vertex 87.6275638238358 13.050101448741838 23.500000000000032
    vertex 87.6275638238358 13.050101448741838 31.5
  endloop
endfacet
facet normal 0.9914448613738099 -0.13052619222005518 0.0
  outer loop
    vertex 87.48770323232932 12.712448111885367 23.500000000000032
    vertex 87.43999938913402 12.35010144874184 31.5
    vertex 87.43999938913402 12.35010144874184 23.500000000000032
  endloop
endfacet
facet normal 0.9914448613738099 -0.13052619222005518 0.0
  outer loop
    vertex 87.43999938913402 12.35010144874184 31.5
    vertex 87.48770323232932 12.712448111885367 23.500000000000032
    vertex 87.48770323232932 12.712448111885367 31.5
  endloop
endfacet
facet normal 0.9914448613738102 0.13052619222005468 0.0
  outer loop
    vertex 87.43999938913402 12.35010144874184 23.500000000000032
    vertex 87.48770323232932 11.98775478559831 31.5
    vertex 87.48770323232932 11.98775478559831 23.500000000000032
  endloop
endfacet
facet normal 0.9914448613738102 0.13052619222005468 0.0
  outer loop
    vertex 87.48770323232932 11.98775478559831 31.5
    vertex 87.43999938913402 12.35010144874184 23.500000000000032
    vertex 87.43999938913402 12.35010144874184 31.5
  endloop
endfacet
facet normal 0.9238795325112915 0.3826834323650782 0.0
  outer loop
    vertex 87.48770323232932 11.98775478559831 23.500000000000032
    vertex 87.6275638238358 11.650101448741841 31.5
    vertex 87.6275638238358 11.650101448741841 23.500000000000032
  endloop
endfacet
facet normal 0.9238795325112915 0.3826834323650782 0.0
  outer loop
    vertex 87.6275638238358 11.650101448741841 31.5
    vertex 87.48770323232932 11.98775478559831 23.500000000000032
    vertex 87.48770323232932 11.98775478559831 31.5
  endloop
endfacet
facet normal 0.7933533402912331 0.6087614290087234 0.0
  outer loop
    vertex 87.6275638238358 11.650101448741841 23.500000000000032
    vertex 87.85004989547285 11.360151955080674 31.5
    vertex 87.85004989547285 11.360151955080674 23.500000000000032
  endloop
endfacet
facet normal 0.7933533402912331 0.6087614290087234 0.0
  outer loop
    vertex 87.85004989547285 11.360151955080674 31.5
    vertex 87.6275638238358 11.650101448741841 23.500000000000032
    vertex 87.6275638238358 11.650101448741841 31.5
  endloop
endfacet
facet normal 0.6087614290087167 0.7933533402912383 0.0
  outer loop
    vertex 87.85004989547285 11.360151955080674 31.5
    vertex 88.13999938913402 11.137665883443628 23.500000000000032
    vertex 87.85004989547285 11.360151955080674 23.500000000000032
  endloop
endfacet
facet normal 0.6087614290087167 0.7933533402912383 0.0
  outer loop
    vertex 88.13999938913402 11.137665883443628 23.500000000000032
    vertex 87.85004989547285 11.360151955080674 31.5
    vertex 88.13999938913402 11.137665883443628 31.5
  endloop
endfacet
facet normal 0.3826834323650873 0.9238795325112878 0.0
  outer loop
    vertex 88.13999938913402 11.137665883443628 31.5
    vertex 88.47765272599048 10.997805291937146 23.500000000000032
    vertex 88.13999938913402 11.137665883443628 23.500000000000032
  endloop
endfacet
facet normal 0.3826834323650873 0.9238795325112878 0.0
  outer loop
    vertex 88.47765272599048 10.997805291937146 23.500000000000032
    vertex 88.13999938913402 11.137665883443628 31.5
    vertex 88.47765272599048 10.997805291937146 31.5
  endloop
endfacet
facet normal 0.13052619222005238 0.9914448613738103 0.0
  outer loop
    vertex 88.47765272599048 10.997805291937146 31.5
    vertex 88.83999938913401 10.950101448741842 23.500000000000032
    vertex 88.47765272599048 10.997805291937146 23.500000000000032
  endloop
endfacet
facet normal 0.13052619222005238 0.9914448613738103 0.0
  outer loop
    vertex 88.83999938913401 10.950101448741842 23.500000000000032
    vertex 88.47765272599048 10.997805291937146 31.5
    vertex 88.83999938913401 10.950101448741842 31.5
  endloop
endfacet
facet normal -0.13052619222005238 0.9914448613738103 0.0
  outer loop
    vertex 88.83999938913401 10.950101448741842 31.5
    vertex 89.20234605227753 10.997805291937146 23.500000000000032
    vertex 88.83999938913401 10.950101448741842 23.500000000000032
  endloop
endfacet
facet normal -0.13052619222005238 0.9914448613738103 0.0
  outer loop
    vertex 89.20234605227753 10.997805291937146 23.500000000000032
    vertex 88.83999938913401 10.950101448741842 31.5
    vertex 89.20234605227753 10.997805291937146 31.5
  endloop
endfacet
facet normal -0.3826834323650873 0.9238795325112878 0.0
  outer loop
    vertex 89.20234605227753 10.997805291937146 31.5
    vertex 89.53999938913401 11.137665883443628 23.500000000000032
    vertex 89.20234605227753 10.997805291937146 23.500000000000032
  endloop
endfacet
facet normal -0.3826834323650873 0.9238795325112878 0.0
  outer loop
    vertex 89.53999938913401 11.137665883443628 23.500000000000032
    vertex 89.20234605227753 10.997805291937146 31.5
    vertex 89.53999938913401 11.137665883443628 31.5
  endloop
endfacet
facet normal -0.6087614290087167 0.7933533402912383 0.0
  outer loop
    vertex 89.53999938913401 11.137665883443628 31.5
    vertex 89.82994888279518 11.360151955080674 23.500000000000032
    vertex 89.53999938913401 11.137665883443628 23.500000000000032
  endloop
endfacet
facet normal -0.6087614290087167 0.7933533402912383 0.0
  outer loop
    vertex 89.82994888279518 11.360151955080674 23.500000000000032
    vertex 89.53999938913401 11.137665883443628 31.5
    vertex 89.82994888279518 11.360151955080674 31.5
  endloop
endfacet
facet normal -0.7933533402912331 0.6087614290087234 0.0
  outer loop
    vertex 90.05243495443223 11.650101448741841 31.5
    vertex 89.82994888279518 11.360151955080674 23.500000000000032
    vertex 89.82994888279518 11.360151955080674 31.5
  endloop
endfacet
facet normal -0.7933533402912331 0.6087614290087234 0.0
  outer loop
    vertex 89.82994888279518 11.360151955080674 23.500000000000032
    vertex 90.05243495443223 11.650101448741841 31.5
    vertex 90.05243495443223 11.650101448741841 23.500000000000032
  endloop
endfacet
facet normal -0.9238795325112922 0.38268343236507685 0.0
  outer loop
    vertex 90.1922955459387 11.987754785598312 31.5
    vertex 90.05243495443223 11.650101448741841 23.500000000000032
    vertex 90.05243495443223 11.650101448741841 31.5
  endloop
endfacet
facet normal -0.9238795325112922 0.38268343236507685 0.0
  outer loop
    vertex 90.05243495443223 11.650101448741841 23.500000000000032
    vertex 90.1922955459387 11.987754785598312 31.5
    vertex 90.1922955459387 11.987754785598312 23.500000000000032
  endloop
endfacet
endsolid stepper_axis
